<svg width="590" height="376" viewBox="0 0 590 376" fill="none" xmlns="http://www.w3.org/2000/svg">
<g clip-path="url(#clip0)">
<path d="M570.606 247.907C561.249 237.723 547.35 231.732 537.232 222.174C520.857 206.735 516.315 183.888 516.967 162.567C517.62 141.245 522.707 120.087 522.326 98.7653C521.945 77.4165 515.036 54.7062 496.567 41.2815C476.711 26.8493 447.825 26.6043 423.725 34.1471C399.626 41.7172 378.981 55.9044 357.928 68.8661C346.912 75.6465 333.774 82.4542 320.935 79.1593C308.26 75.9189 301.107 64.2914 294.089 54.2705C285.874 42.5614 275.13 31.4241 260.551 27.0399C231.773 18.4078 228.156 28.2925 226.768 36.135C224.701 47.8713 221.627 56.3673 211.183 60.0979C200.738 63.8557 188.797 62.1946 178.27 58.6274C167.744 55.0602 158.088 49.723 147.697 45.8563C131.078 39.6749 112.201 37.442 94.9832 42.1529C77.7927 46.8638 62.7237 59.172 58.4805 74.8841C51.354 101.162 74.311 129.536 63.5941 154.806C56.2229 172.233 35.5235 181.546 21.6242 195.379C-5.16803 222.065 -3.42721 265.634 18.877 295.479C41.1812 325.324 79.8055 342.67 119.028 349.614C158.251 356.557 198.643 354.379 238.573 352.663C301.297 349.995 364.129 348.633 426.908 350.349C452.857 351.057 479.105 352.255 504.591 347.735C530.078 343.214 555.211 332.213 570.144 313.097C585.022 294.036 587.144 265.934 570.606 247.907Z" fill="#CBF3F1"/>
<path d="M377.675 57.9742C377.648 56.6126 377.049 55.3328 376.043 54.407C375.037 53.5084 373.677 53.0454 372.344 53.1544L235.472 65.0269C232.916 65.2447 230.903 67.3687 230.903 69.9284V345.366C230.903 348.089 233.269 350.077 235.989 350.077H379.307C380.64 350.077 381.891 349.641 382.816 348.688C383.741 347.735 384.257 346.509 384.23 345.175L377.675 57.9742Z" fill="#76E1DB"/>
<g opacity="0.3">
<path opacity="0.3" d="M257.994 78.6152L247.631 79.3232C246.488 79.4049 245.972 80.4669 245.972 81.6923V332.949C245.972 334.202 246.053 335.209 247.223 335.209H258.13C259.3 335.209 260.252 334.202 260.252 332.922L260.089 80.712C260.089 79.4866 259.137 78.5335 257.994 78.6152Z" fill="white"/>
<path opacity="0.3" d="M283.345 76.9541L272.41 77.6621C271.241 77.7438 270.125 78.8058 270.125 80.0584L270.397 332.922C270.397 334.174 271.54 335.209 272.709 335.209H283.753C284.922 335.209 285.711 334.174 285.711 332.922L285.276 79.0781C285.276 77.8255 284.514 76.8724 283.345 76.9541Z" fill="white"/>
<path opacity="0.3" d="M309.022 75.2656L297.951 76.0009C296.782 76.0825 296.102 77.1445 296.102 78.3699L296.646 332.894C296.646 334.174 297.326 335.209 298.522 335.209H309.702C310.899 335.209 312.15 334.174 312.15 332.894L311.443 77.3624C311.443 76.137 310.191 75.1839 309.022 75.2656Z" fill="white"/>
<path opacity="0.3" d="M335.025 73.5778L323.819 74.313C322.622 74.3947 321.751 75.4567 321.751 76.7093L322.567 332.895C322.567 334.175 323.465 335.209 324.662 335.209H336.004C337.228 335.209 338.289 334.175 338.289 332.895L337.31 75.7017C337.31 74.4219 336.222 73.4961 335.025 73.5778Z" fill="white"/>
<path opacity="0.3" d="M361.382 71.8348L350.012 72.5701C348.816 72.6518 347.728 73.741 347.755 74.9936L348.843 332.867C348.843 334.147 349.931 335.209 351.155 335.209H362.661C363.885 335.209 364.782 334.174 364.782 332.867L363.504 73.9861C363.504 72.7335 362.579 71.7531 361.382 71.8348Z" fill="white"/>
</g>
<path d="M144.352 96.5872C144.324 94.8445 142.91 93.374 141.169 93.374H36.3123C34.5715 93.374 32.9939 95.0079 32.9939 96.7778V341.826C32.9939 343.133 33.5923 344.386 34.5171 345.311C35.4419 346.237 36.7475 346.755 38.0531 346.755L144.052 346.455C145.385 346.455 146.636 345.911 147.561 344.985C148.486 344.032 149.003 342.697 148.976 341.39L144.352 96.5872Z" fill="#76E1DB"/>
<g opacity="0.5">
<path opacity="0.5" d="M136.11 103.885H39.8212C39.2772 103.885 38.8148 104.593 38.8148 105.137L38.8692 112.408C38.8692 112.98 39.3316 113.497 39.8756 113.497L136.273 113.552C136.844 113.552 137.443 113.116 137.443 112.544V105.382C137.443 104.811 136.681 103.885 136.11 103.885Z" fill="white"/>
<path opacity="0.5" d="M136.273 122.129L40.0387 122.075C39.4947 122.075 39.0051 122.538 39.0051 123.109L39.0323 130.244C39.0323 130.816 39.4675 131.279 40.0387 131.279L136.273 131.36C136.844 131.36 137.443 130.897 137.443 130.326V123.191C137.443 122.592 136.844 122.129 136.273 122.129Z" fill="white"/>
<path opacity="0.5" d="M136.273 139.856L40.1747 139.747C39.6307 139.747 39.1411 140.21 39.1411 140.755L39.1683 147.862C39.1683 148.434 39.6035 148.869 40.1747 148.869L136.273 149.005C136.817 149.005 137.443 148.543 137.443 147.998V140.864C137.443 140.292 136.844 139.856 136.273 139.856Z" fill="white"/>
<path opacity="0.5" d="M136.273 157.502L40.3107 157.338C39.7667 157.338 39.2771 157.801 39.2771 158.346L39.3043 165.426C39.3043 165.998 39.7395 166.433 40.3107 166.433L136.273 166.624C136.817 166.624 137.443 166.161 137.443 165.616V158.509C137.443 157.965 136.844 157.502 136.273 157.502Z" fill="white"/>
<path opacity="0.5" d="M136.273 175.12L40.4468 174.902C39.9028 174.902 39.4132 175.365 39.4132 175.91L39.4404 182.963C39.4404 183.534 39.8756 183.97 40.4468 183.97L136.273 184.215C136.817 184.215 137.443 183.752 137.443 183.208V176.128C137.443 175.583 136.844 175.12 136.273 175.12Z" fill="white"/>
<path opacity="0.5" d="M136.273 192.683L40.5828 192.411C40.0387 192.411 39.5491 192.874 39.5491 193.419L39.5763 200.471C39.5763 201.016 40.0115 201.479 40.5828 201.479L136.273 201.778C136.817 201.778 137.443 201.316 137.443 200.771V193.718C137.443 193.146 136.844 192.683 136.273 192.683Z" fill="white"/>
<path opacity="0.5" d="M136.273 210.22L40.7188 209.921C40.1747 209.921 39.6851 210.357 39.6851 210.928L39.7123 217.954C39.7123 218.498 40.1475 218.961 40.7188 218.961L136.273 219.288C136.817 219.288 137.443 218.852 137.443 218.281V211.228C137.443 210.656 136.844 210.22 136.273 210.22Z" fill="white"/>
<path opacity="0.5" d="M136.3 227.675L40.882 227.321C40.338 227.321 39.8484 227.757 39.8484 228.329L39.8756 235.327C39.8756 235.872 40.3108 236.335 40.882 236.335L136.3 236.716C136.844 236.716 137.47 236.28 137.47 235.708V228.683C137.443 228.138 136.844 227.675 136.3 227.675Z" fill="white"/>
<path opacity="0.5" d="M136.3 245.102L41.018 244.694C40.474 244.694 39.9844 245.13 39.9844 245.701L40.0116 252.672C40.0116 253.217 40.4468 253.68 40.9908 253.68L136.273 254.116C136.817 254.116 137.443 253.68 137.443 253.108V246.11C137.443 245.538 136.844 245.102 136.3 245.102Z" fill="white"/>
<path opacity="0.5" d="M136.3 261.169L41.154 260.706C40.61 260.706 40.1204 261.142 40.1204 261.714L40.1476 268.685C40.1476 269.229 40.5828 269.692 41.1268 269.692L136.273 270.182C136.817 270.182 137.416 269.747 137.416 269.175V262.204C137.443 261.632 136.844 261.169 136.3 261.169Z" fill="white"/>
<path opacity="0.5" d="M136.3 278.488L41.29 277.97C40.746 277.97 40.2564 278.406 40.2564 278.951L40.2836 285.894C40.2836 286.439 40.7188 286.902 41.2628 286.902L136.273 287.446C136.817 287.446 137.416 287.011 137.416 286.466V279.495C137.443 278.951 136.844 278.488 136.3 278.488Z" fill="white"/>
<path opacity="0.5" d="M136.3 295.779L41.426 295.207C40.882 295.207 40.3924 295.643 40.3924 296.187L40.4196 303.104C40.4196 303.649 40.8548 304.111 41.3988 304.111L136.3 304.683C136.844 304.683 137.443 304.248 137.443 303.703V296.759C137.443 296.215 136.844 295.779 136.3 295.779Z" fill="white"/>
<path opacity="0.5" d="M136.3 312.988L41.562 312.389C41.018 312.389 40.5284 312.825 40.5284 313.369L40.5556 320.286C40.5556 320.831 40.9908 321.266 41.5348 321.294L136.3 321.92C136.844 321.92 137.443 321.484 137.443 320.94V314.023C137.443 313.451 136.844 312.988 136.3 312.988Z" fill="white"/>
</g>
<path d="M546.452 98.3027C546.398 95.6068 544.222 93.3467 541.529 93.3467H440.1C437.38 93.3467 435.013 95.7702 435.013 98.4933V341.799C435.013 343.106 435.612 344.358 436.536 345.284C437.461 346.21 438.767 346.727 440.072 346.727L546.072 346.428C547.404 346.428 548.656 345.883 549.58 344.957C550.505 344.004 551.022 342.67 550.995 341.363L546.452 98.3027Z" fill="#76E1DB"/>
<g opacity="0.5">
<g opacity="0.5">
<path opacity="0.5" d="M469.122 102.714H442.928C442.14 102.714 442.058 104.375 442.058 105.219V109.957C442.058 110.801 442.167 111.482 442.928 111.482H469.122C469.911 111.482 470.645 110.801 470.645 109.957V105.219C470.645 104.375 469.911 102.714 469.122 102.714Z" fill="white"/>
<path opacity="0.5" d="M504.183 102.714H477.989C477.201 102.714 477.037 104.375 477.037 105.219V109.957C477.037 110.801 477.201 111.482 477.989 111.482H504.183C504.972 111.482 505.054 110.801 505.054 109.957V105.219C505.054 104.375 504.972 102.714 504.183 102.714Z" fill="white"/>
<path opacity="0.5" d="M539.272 102.714H513.078C512.289 102.714 511.5 104.375 511.5 105.219V109.957C511.5 110.801 512.316 111.482 513.078 111.482H539.272C540.06 111.482 541.257 110.801 541.257 109.957V105.219C541.23 104.375 540.06 102.714 539.272 102.714Z" fill="white"/>
</g>
<g opacity="0.5">
<path opacity="0.5" d="M469.122 123.164H442.928C442.14 123.164 442.058 123.164 442.058 124.008V128.746C442.058 129.591 442.167 130.761 442.928 130.761H469.122C469.911 130.761 470.645 129.591 470.645 128.746V124.008C470.645 123.164 469.911 123.164 469.122 123.164Z" fill="white"/>
<path opacity="0.5" d="M504.183 123.164H477.989C477.201 123.164 477.037 123.164 477.037 124.008V128.746C477.037 129.591 477.201 130.761 477.989 130.761H504.183C504.972 130.761 505.054 129.591 505.054 128.746V124.008C505.054 123.164 504.972 123.164 504.183 123.164Z" fill="white"/>
<path opacity="0.5" d="M539.272 123.164H513.078C512.289 123.164 511.5 123.164 511.5 124.008V128.746C511.5 129.591 512.316 130.761 513.078 130.761H539.272C540.06 130.761 541.257 129.591 541.257 128.746V124.008C541.23 123.164 540.06 123.164 539.272 123.164Z" fill="white"/>
</g>
<g opacity="0.5">
<path opacity="0.5" d="M469.122 141.272H442.928C442.14 141.272 442.058 141.953 442.058 142.77V147.508C442.058 148.352 442.167 148.843 442.928 148.843H469.122C469.911 148.843 470.645 148.325 470.645 147.508V142.77C470.645 141.926 469.911 141.272 469.122 141.272Z" fill="white"/>
<path opacity="0.5" d="M504.183 141.272H477.989C477.201 141.272 477.037 141.953 477.037 142.77V147.508C477.037 148.352 477.201 148.843 477.989 148.843H504.183C504.972 148.843 505.054 148.325 505.054 147.508V142.77C505.054 141.926 504.972 141.272 504.183 141.272Z" fill="white"/>
<path opacity="0.5" d="M539.272 141.272H513.078C512.289 141.272 511.5 141.953 511.5 142.77V147.508C511.5 148.352 512.316 148.843 513.078 148.843H539.272C540.06 148.843 541.257 148.325 541.257 147.508V142.77C541.23 141.926 540.06 141.272 539.272 141.272Z" fill="white"/>
</g>
<g opacity="0.5">
<path opacity="0.5" d="M469.122 160.552H442.928C442.14 160.552 442.058 160.715 442.058 161.559V166.297C442.058 167.142 442.167 168.149 442.928 168.149H469.122C469.911 168.149 470.645 167.142 470.645 166.297V161.559C470.645 160.715 469.911 160.552 469.122 160.552Z" fill="white"/>
<path opacity="0.5" d="M504.183 160.552H477.989C477.201 160.552 477.037 160.715 477.037 161.559V166.297C477.037 167.142 477.201 168.149 477.989 168.149H504.183C504.972 168.149 505.054 167.142 505.054 166.297V161.559C505.054 160.715 504.972 160.552 504.183 160.552Z" fill="white"/>
<path opacity="0.5" d="M539.272 160.552H513.078C512.289 160.552 511.5 160.715 511.5 161.559V166.297C511.5 167.142 512.316 168.149 513.078 168.149H539.272C540.06 168.149 541.257 167.142 541.257 166.297V161.559C541.23 160.715 540.06 160.552 539.272 160.552Z" fill="white"/>
</g>
<g opacity="0.5">
<path opacity="0.5" d="M469.122 178.061H442.928C442.14 178.061 442.058 179.477 442.058 180.321V185.059C442.058 185.903 442.167 186.23 442.928 186.23H469.122C469.911 186.23 470.645 185.876 470.645 185.059V180.321C470.645 179.504 469.911 178.061 469.122 178.061Z" fill="white"/>
<path opacity="0.5" d="M504.183 178.061H477.989C477.201 178.061 477.037 179.477 477.037 180.321V185.059C477.037 185.903 477.201 186.23 477.989 186.23H504.183C504.972 186.23 505.054 185.876 505.054 185.059V180.321C505.054 179.504 504.972 178.061 504.183 178.061Z" fill="white"/>
<path opacity="0.5" d="M539.272 178.061H513.078C512.289 178.061 511.5 179.477 511.5 180.321V185.059C511.5 185.903 512.316 186.23 513.078 186.23H539.272C540.06 186.23 541.257 185.876 541.257 185.059V180.321C541.23 179.504 540.06 178.061 539.272 178.061Z" fill="white"/>
</g>
<g opacity="0.5">
<path opacity="0.5" d="M469.122 197.34H442.928C442.14 197.34 442.058 198.266 442.058 199.083V203.821C442.058 204.665 442.167 204.91 442.928 204.91H469.122C469.911 204.91 470.645 204.665 470.645 203.821V199.083C470.645 198.266 469.911 197.34 469.122 197.34Z" fill="white"/>
<path opacity="0.5" d="M504.183 197.34H477.989C477.201 197.34 477.037 198.266 477.037 199.083V203.821C477.037 204.665 477.201 204.91 477.989 204.91H504.183C504.972 204.91 505.054 204.665 505.054 203.821V199.083C505.054 198.266 504.972 197.34 504.183 197.34Z" fill="white"/>
<path opacity="0.5" d="M539.272 197.34H513.078C512.289 197.34 511.5 198.266 511.5 199.083V203.821C511.5 204.665 512.316 204.91 513.078 204.91H539.272C540.06 204.91 541.257 204.665 541.257 203.821V199.083C541.23 198.266 540.06 197.34 539.272 197.34Z" fill="white"/>
</g>
<g opacity="0.5">
<path opacity="0.5" d="M469.122 215.449H442.928C442.14 215.449 442.058 217.028 442.058 217.872V222.61C442.058 223.455 442.167 224.217 442.928 224.217H469.122C469.911 224.217 470.645 223.455 470.645 222.61V217.872C470.645 217.055 469.911 215.449 469.122 215.449Z" fill="white"/>
<path opacity="0.5" d="M504.183 215.449H477.989C477.201 215.449 477.037 217.028 477.037 217.872V222.61C477.037 223.455 477.201 224.217 477.989 224.217H504.183C504.972 224.217 505.054 223.455 505.054 222.61V217.872C505.054 217.055 504.972 215.449 504.183 215.449Z" fill="white"/>
<path opacity="0.5" d="M539.272 215.449H513.078C512.289 215.449 511.5 217.028 511.5 217.872V222.61C511.5 223.455 512.316 224.217 513.078 224.217H539.272C540.06 224.217 541.257 223.455 541.257 222.61V217.872C541.23 217.055 540.06 215.449 539.272 215.449Z" fill="white"/>
</g>
<g opacity="0.5">
<path opacity="0.5" d="M469.122 234.728H442.928C442.14 234.728 442.058 235.817 442.058 236.661V241.4C442.058 242.244 442.167 243.496 442.928 243.496H469.122C469.911 243.496 470.645 242.244 470.645 241.4V236.661C470.645 235.817 469.911 234.728 469.122 234.728Z" fill="white"/>
<path opacity="0.5" d="M504.183 234.728H477.989C477.201 234.728 477.037 235.817 477.037 236.661V241.4C477.037 242.244 477.201 243.496 477.989 243.496H504.183C504.972 243.496 505.054 242.244 505.054 241.4V236.661C505.054 235.817 504.972 234.728 504.183 234.728Z" fill="white"/>
<path opacity="0.5" d="M539.272 234.728H513.078C512.289 234.728 511.5 235.817 511.5 236.661V241.4C511.5 242.244 512.316 243.496 513.078 243.496H539.272C540.06 243.496 541.257 242.244 541.257 241.4V236.661C541.23 235.817 540.06 234.728 539.272 234.728Z" fill="white"/>
</g>
<g opacity="0.5">
<path opacity="0.5" d="M469.122 253.435H442.928C442.14 253.435 442.058 254.606 442.058 255.45V260.188C442.058 261.032 442.167 261.604 442.928 261.604H469.122C469.911 261.604 470.645 261.005 470.645 260.188V255.423C470.645 254.606 469.911 253.435 469.122 253.435Z" fill="white"/>
<path opacity="0.5" d="M504.183 253.435H477.989C477.201 253.435 477.037 254.606 477.037 255.45V260.188C477.037 261.032 477.201 261.604 477.989 261.604H504.183C504.972 261.604 505.054 261.005 505.054 260.188V255.423C505.054 254.606 504.972 253.435 504.183 253.435Z" fill="white"/>
<path opacity="0.5" d="M539.272 253.435H513.078C512.289 253.435 511.5 254.606 511.5 255.45V260.188C511.5 261.032 512.316 261.604 513.078 261.604H539.272C540.06 261.604 541.257 261.005 541.257 260.188V255.423C541.23 254.606 540.06 253.435 539.272 253.435Z" fill="white"/>
</g>
<g opacity="0.5">
<path opacity="0.5" d="M469.122 272.715H442.928C442.14 272.715 442.058 273.396 442.058 274.213V278.951C442.058 279.795 442.167 280.884 442.928 280.884H469.122C469.911 280.884 470.645 279.795 470.645 278.951V274.213C470.645 273.368 469.911 272.715 469.122 272.715Z" fill="white"/>
<path opacity="0.5" d="M504.183 272.715H477.989C477.201 272.715 477.037 273.396 477.037 274.213V278.951C477.037 279.795 477.201 280.884 477.989 280.884H504.183C504.972 280.884 505.054 279.795 505.054 278.951V274.213C505.054 273.368 504.972 272.715 504.183 272.715Z" fill="white"/>
<path opacity="0.5" d="M539.272 272.715H513.078C512.289 272.715 511.5 273.396 511.5 274.213V278.951C511.5 279.795 512.316 280.884 513.078 280.884H539.272C540.06 280.884 541.257 279.795 541.257 278.951V274.213C541.23 273.368 540.06 272.715 539.272 272.715Z" fill="white"/>
</g>
<g opacity="0.5">
<path opacity="0.5" d="M469.122 291.994H442.928C442.14 291.994 442.058 292.157 442.058 293.001V297.739C442.058 298.583 442.167 298.992 442.928 298.992H469.122C469.911 298.992 470.645 298.556 470.645 297.739V293.001C470.645 292.157 469.911 291.994 469.122 291.994Z" fill="white"/>
<path opacity="0.5" d="M504.183 291.994H477.989C477.201 291.994 477.037 292.157 477.037 293.001V297.739C477.037 298.583 477.201 298.992 477.989 298.992H504.183C504.972 298.992 505.054 298.556 505.054 297.739V293.001C505.054 292.157 504.972 291.994 504.183 291.994Z" fill="white"/>
<path opacity="0.5" d="M539.272 291.994H513.078C512.289 291.994 511.5 292.157 511.5 293.001V297.739C511.5 298.583 512.316 298.992 513.078 298.992H539.272C540.06 298.992 541.257 298.556 541.257 297.739V293.001C541.23 292.157 540.06 291.994 539.272 291.994Z" fill="white"/>
</g>
<g opacity="0.5">
<path opacity="0.5" d="M469.122 310.102H442.928C442.14 310.102 442.058 310.946 442.058 311.763V316.501C442.058 317.345 442.167 317.672 442.928 317.672H469.122C469.911 317.672 470.645 317.345 470.645 316.501V311.763C470.645 310.919 469.911 310.102 469.122 310.102Z" fill="white"/>
<path opacity="0.5" d="M504.183 310.102H477.989C477.201 310.102 477.037 310.946 477.037 311.763V316.501C477.037 317.345 477.201 317.672 477.989 317.672H504.183C504.972 317.672 505.054 317.345 505.054 316.501V311.763C505.054 310.919 504.972 310.102 504.183 310.102Z" fill="white"/>
<path opacity="0.5" d="M539.272 310.102H513.078C512.289 310.102 511.5 310.946 511.5 311.763V316.501C511.5 317.345 512.316 317.672 513.078 317.672H539.272C540.06 317.672 541.257 317.345 541.257 316.501V311.763C541.23 310.919 540.06 310.102 539.272 310.102Z" fill="white"/>
</g>
</g>
<path d="M239.96 132.668C239.933 131.333 239.389 130.081 238.437 129.155C237.485 128.229 236.18 127.766 234.847 127.821L134.015 131.878C132.275 131.96 130.942 133.403 130.969 135.119L136.083 350.921L238.056 349.668C239.362 349.641 240.613 349.124 241.511 348.171C242.436 347.245 242.925 345.965 242.898 344.658L239.96 132.668Z" fill="#76E1DB"/>
<g opacity="0.5">
<g opacity="0.5">
<path opacity="0.5" d="M158.741 172.207L142.529 172.071L142.312 144.187H158.577L158.741 172.207Z" fill="white"/>
<path opacity="0.5" d="M182.024 172.152L165.867 172.016L165.731 144.187H181.942L182.024 172.152Z" fill="white"/>
<path opacity="0.5" d="M206.531 172.098L190.429 171.962L190.347 144.187H206.477L206.531 172.098Z" fill="white"/>
<path opacity="0.5" d="M230.821 172.343L214.501 172.071L214.202 144.187H230.821V172.343Z" fill="white"/>
</g>
<g opacity="0.5">
<path opacity="0.5" d="M158.958 211.854L142.801 211.963L142.611 184.406L158.822 184.352L158.958 211.854Z" fill="white"/>
<path opacity="0.5" d="M182.187 211.746L166.057 211.827L165.921 184.324L182.078 184.27L182.187 211.746Z" fill="white"/>
<path opacity="0.5" d="M206.613 211.609L190.538 211.691L190.456 184.242L206.559 184.188L206.613 211.609Z" fill="white"/>
<path opacity="0.5" d="M230.821 211.473L214.555 211.582L214.664 184.161L230.821 184.106V211.473Z" fill="white"/>
</g>
<g opacity="0.5">
<path opacity="0.5" d="M159.203 252.292L143.073 252.428L142.883 225.034L159.04 224.925L159.203 252.292Z" fill="white"/>
<path opacity="0.5" d="M182.35 252.074L166.275 252.21L166.139 224.898L182.242 224.789L182.35 252.074Z" fill="white"/>
<path opacity="0.5" d="M206.667 251.883L190.674 252.019L190.592 224.734L206.613 224.625L206.667 251.883Z" fill="white"/>
<path opacity="0.5" d="M230.821 251.666L214.61 251.802L214.719 224.571L230.821 224.462V251.666Z" fill="white"/>
</g>
<g opacity="0.5">
<path opacity="0.5" d="M159.421 291.803L143.345 291.967L143.155 265.417L159.257 265.253L159.421 291.803Z" fill="white"/>
<path opacity="0.5" d="M182.486 291.531L166.465 291.694L166.329 265.199L182.378 265.036L182.486 291.531Z" fill="white"/>
<path opacity="0.5" d="M206.749 291.231L190.81 291.422L190.728 264.954L206.695 264.791L206.749 291.231Z" fill="white"/>
<path opacity="0.5" d="M230.821 290.959L214.664 291.15L214.746 264.736L230.821 264.573V290.959Z" fill="white"/>
</g>
<g opacity="0.5">
<path opacity="0.5" d="M159.638 331.697L143.617 331.942L143.427 305.528L159.502 305.337L159.638 331.697Z" fill="white"/>
<path opacity="0.5" d="M182.65 331.342L166.683 331.587L166.547 305.255L182.541 305.037L182.65 331.342Z" fill="white"/>
<path opacity="0.5" d="M206.831 330.988L190.918 331.233L190.837 304.928L206.776 304.738L206.831 330.988Z" fill="white"/>
<path opacity="0.5" d="M230.821 330.634L214.719 330.879L214.8 304.629L230.821 304.438V330.634Z" fill="white"/>
</g>
</g>
<path d="M465.505 165.127C465.477 163.82 464.933 162.54 463.981 161.641C463.029 160.743 461.751 160.253 460.418 160.28L353.82 163.684C351.1 163.765 348.979 166.053 349.06 168.749L354.31 345.502C354.392 348.198 356.595 350.322 359.288 350.295L463.764 349.287C465.069 349.287 466.321 348.743 467.245 347.79C468.17 346.837 468.66 345.584 468.633 344.277L465.505 165.127Z" fill="url(#paint0_linear)"/>
<path d="M454.38 173.405H359.451C358.526 173.405 357.792 174.086 357.792 174.957L357.873 183.344C357.873 184.215 358.635 185.223 359.56 185.223L454.76 185.332C455.712 185.332 456.42 184.324 456.392 183.426L456.093 174.957C456.093 174.086 455.304 173.405 454.38 173.405Z" fill="url(#paint1_linear)"/>
<path d="M454.978 191.677L359.641 191.513C358.716 191.513 357.982 192.385 357.982 193.283L358.064 201.752C358.064 202.651 358.825 203.495 359.777 203.495L455.386 203.767C456.338 203.767 457.073 202.923 457.045 202.024L456.746 193.474C456.719 192.575 455.93 191.677 454.978 191.677Z" fill="url(#paint2_linear)"/>
<path d="M455.631 210.792L359.859 210.465C358.934 210.465 358.172 210.901 358.2 211.772L358.281 220.323C358.281 221.221 359.043 221.902 359.995 221.902L456.039 222.338C456.991 222.338 457.725 221.657 457.698 220.759L457.399 212.126C457.372 211.228 456.583 210.792 455.631 210.792Z" fill="url(#paint3_linear)"/>
<path d="M456.256 229.418L360.049 228.928C359.125 228.928 358.363 229.527 358.363 230.426L358.445 239.058C358.445 239.957 359.233 240.474 360.158 240.474L456.61 241.073C457.562 241.073 458.324 240.583 458.297 239.657L457.997 230.943C457.997 230.045 457.208 229.418 456.256 229.418Z" fill="url(#paint4_linear)"/>
<path d="M456.882 248.235L360.267 247.581C359.315 247.581 358.581 248.371 358.581 249.269L358.662 257.983C358.662 258.882 359.451 259.889 360.376 259.889L457.29 260.652C458.242 260.652 459.004 259.671 458.949 258.746L458.65 249.95C458.65 249.052 457.861 248.235 456.882 248.235Z" fill="url(#paint5_linear)"/>
<path d="M457.535 267.214L360.484 266.397C359.532 266.397 358.798 267.35 358.798 268.276L358.88 277.071C358.88 277.997 359.668 278.814 360.621 278.814L457.943 279.767C458.895 279.767 459.657 278.978 459.629 278.024L459.33 269.147C459.303 268.194 458.487 267.214 457.535 267.214Z" fill="url(#paint6_linear)"/>
<path d="M458.188 287.011L360.702 286.003C359.75 286.003 358.989 286.494 358.989 287.419L359.097 296.269C359.097 297.195 359.886 297.849 360.838 297.849L458.596 298.965C459.575 298.965 460.337 298.339 460.282 297.413L459.983 288.481C459.956 287.528 459.167 287.011 458.188 287.011Z" fill="url(#paint7_linear)"/>
<path d="M458.841 306.317L360.92 305.146C359.968 305.146 359.206 305.827 359.206 306.753L359.315 315.685C359.315 316.611 360.104 317.101 361.056 317.101L459.276 318.408C460.255 318.408 461.017 317.972 460.989 317.019L460.69 308.006C460.636 307.053 459.82 306.345 458.841 306.317Z" fill="url(#paint8_linear)"/>
<path d="M459.493 325.814L361.11 324.453C360.158 324.453 359.397 325.297 359.397 326.25L359.505 335.263C359.505 336.216 360.294 337.169 361.273 337.197L459.928 338.667C460.908 338.694 461.669 337.714 461.642 336.761L461.343 327.666C461.288 326.713 460.473 325.814 459.493 325.814Z" fill="url(#paint9_linear)"/>
<path d="M476.004 152.001L471.869 326.985V327.148L471.244 354.079C471.244 357.619 468.361 360.505 464.825 360.505H117.287C113.751 360.505 110.868 357.619 110.868 354.079L110.487 327.148V326.985L107.985 154.152C107.985 150.612 112.146 143.723 119.763 144.24L334.209 138.685L459.412 135.444C463.845 135.335 468.143 137.024 471.271 140.183C474.399 143.287 476.113 147.562 476.004 152.001Z" fill="#03BAAF"/>
<path d="M462.73 348.606C462.73 351.901 459.983 354.597 456.61 354.597H125.556C122.183 354.597 119.436 351.901 119.436 348.606L116.689 162.022C116.689 158.727 120.66 152.273 127.923 152.764L451.469 144.54C455.685 144.431 459.765 146.038 462.757 148.951C465.749 151.865 467.381 155.868 467.3 160.007L462.73 348.606Z" fill="#21C8BE"/>
<path d="M295.068 232.821C294.959 235.898 292.865 238.458 290.389 238.458L142.801 239.166C140 239.166 137.742 236.443 137.769 233.175C137.796 229.908 140.081 227.157 142.883 227.157H290.77C293.245 227.13 295.177 229.744 295.068 232.821Z" fill="#A6E9E5"/>
<path d="M223.341 256.43C223.287 258.99 221.328 261.114 218.962 261.141L143.291 262.067C140.788 262.094 138.775 259.97 138.803 257.329V257.029C138.83 254.388 140.87 252.209 143.372 252.182L219.179 251.529C221.546 251.501 223.423 253.571 223.368 256.158L223.341 256.43Z" fill="#A6E9E5"/>
<path d="M222.824 279.141C222.77 281.7 220.811 283.797 218.472 283.824L143.128 285.349C140.652 285.404 138.639 283.307 138.667 280.693V280.393C138.694 277.779 140.707 275.601 143.209 275.574L218.69 274.294C221.056 274.266 222.906 276.282 222.851 278.841L222.824 279.141Z" fill="#A6E9E5"/>
<path d="M117.015 230.915C116.852 230.915 116.743 230.806 116.743 230.643V163.982C116.743 157.12 122.075 151.511 128.603 151.511H157.87C158.033 151.511 158.142 151.62 158.142 151.783C158.142 151.946 158.033 152.055 157.87 152.055H128.63C122.401 152.055 117.315 157.393 117.315 163.982V230.643C117.287 230.806 117.179 230.915 117.015 230.915Z" fill="#91B3FA"/>
<path d="M415.619 172.424L146.419 169.401C137.633 169.292 131.051 175.882 131.785 184.024C132.519 192.084 140.163 198.484 148.785 198.375L413.661 195.461C419.047 195.406 423.861 190.314 424.432 184.024C425.003 177.707 421.087 172.506 415.619 172.424Z" fill="#A6E9E5"/>
<path d="M456.42 354.76H419.291C419.128 354.76 419.019 354.651 419.019 354.488C419.019 354.324 419.128 354.215 419.291 354.215H456.42C461.452 354.215 465.695 350.212 465.695 345.474V231.814C465.695 231.65 465.804 231.542 465.967 231.542C466.13 231.542 466.239 231.65 466.239 231.814V345.474C466.239 350.512 461.751 354.76 456.42 354.76Z" fill="#91B3FA"/>
<path d="M523.087 219.751C530.418 219.751 536.361 213.801 536.361 206.462C536.361 199.123 530.418 193.174 523.087 193.174C515.757 193.174 509.814 199.123 509.814 206.462C509.814 213.801 515.757 219.751 523.087 219.751Z" fill="#FF6F41"/>
<path d="M590 59.6895C590 84.9594 551.974 149.469 532.145 181.274C530.595 183.752 527.304 185.25 521.156 185.25C518.246 185.25 519.388 183.752 517.865 181.274C498.063 149.469 460.01 84.9594 460.01 59.6895C460.01 26.7132 489.114 0 524.991 0C560.896 0 590 26.7132 590 59.6895Z" fill="url(#paint10_linear)"/>
<path d="M586.165 59.6895C586.165 84.9594 548.139 149.469 528.31 181.274C526.76 183.752 524.067 185.25 521.156 185.25C518.246 185.25 515.553 183.752 514.03 181.274C494.228 149.469 456.175 84.9594 456.175 59.6895C456.175 26.7132 485.279 0 521.156 0C557.061 0 586.165 26.7132 586.165 59.6895Z" fill="#FF6F41"/>
<path opacity="0.36" d="M550.801 90.509C566.288 75.0044 566.288 49.8667 550.801 34.3621C535.314 18.8576 510.204 18.8576 494.717 34.3621C479.23 49.8666 479.23 75.0044 494.717 90.509C510.204 106.013 535.314 106.013 550.801 90.509Z" fill="white"/>
<path opacity="0.36" d="M539.276 78.9427C550.536 67.6706 550.536 49.3948 539.276 38.1227C528.017 26.8505 509.761 26.8505 498.502 38.1227C487.242 49.3948 487.242 67.6706 498.502 78.9427C509.761 90.2149 528.017 90.2149 539.276 78.9427Z" fill="white"/>
<path opacity="0.36" d="M521.156 112.49C494.745 112.49 473.257 90.9775 473.257 64.5366C473.257 64.237 473.501 63.992 473.801 63.992C474.1 63.992 474.345 64.237 474.345 64.5366C474.345 90.3784 495.343 111.4 521.156 111.4C546.969 111.4 567.968 90.3784 567.968 64.5366C567.968 38.6947 546.969 17.6727 521.156 17.6727C506.223 17.6727 492.542 24.5621 483.62 36.5435C483.43 36.7886 483.103 36.8431 482.858 36.6524C482.614 36.4618 482.559 36.1351 482.75 35.89C487.129 30.0354 492.841 25.1611 499.342 21.839C506.142 18.3535 513.486 16.5835 521.183 16.5835C547.595 16.5835 569.083 38.0957 569.083 64.5366C569.083 90.9775 547.568 112.49 521.156 112.49Z" fill="white"/>
<path d="M200.955 236.307C201.091 236.688 199.65 237.287 198.806 235.681C198.779 234.918 198.317 231.623 198.779 230.997C201.227 227.675 205.96 223.481 205.96 223.481C206.749 224.271 206.096 225.061 206.096 225.061L203.811 227.457C204.301 228.328 204.872 229.064 205.144 230.098C205.362 230.888 205.226 231.732 204.818 232.468C204.41 233.203 203.866 234.129 203.349 234.891C202.342 236.28 200.955 236.307 200.955 236.307Z" fill="url(#paint11_linear)"/>
<path d="M202.778 229.009L200.683 230.779L200.03 232.549L201.907 234.619C201.907 234.619 202.533 231.106 202.995 230.344C203.458 229.581 203.213 229.227 202.778 229.009Z" fill="url(#paint12_linear)"/>
<path d="M159.828 367.123C159.828 367.123 159.312 370.118 159.04 373.087C158.931 374.257 159.828 375.265 160.998 375.292C164.942 375.456 173.374 375.782 176.421 375.646C176.883 375.619 177.182 375.156 176.992 374.748C176.856 374.394 176.584 374.094 176.23 373.958L162.276 367.532L159.828 367.123Z" fill="url(#paint13_linear)"/>
<path d="M159.393 365.38L159.828 368.975C159.828 368.975 162.277 370.118 163.936 368.838L162.929 364.835L159.393 365.38Z" fill="url(#paint14_linear)"/>
<path d="M159.72 297.984C159.529 298.91 158.74 344.712 163.637 365.217C163.718 365.543 163.555 365.897 163.229 366.034C162.467 366.333 160.998 366.796 159.257 366.851C158.713 366.878 158.224 366.524 158.06 365.979C156.673 361.214 149.955 337.36 149.084 314.595C148.105 289.134 149.084 313.724 149.084 313.724L149.656 297.984H159.72Z" fill="url(#paint15_linear)"/>
<path d="M143.78 368.702C143.78 368.702 142.937 370.227 142.121 374.23C141.985 374.965 142.475 375.646 143.209 375.728C144.515 375.864 146.528 376.027 148.132 376C148.867 376 149.438 375.346 149.356 374.611C149.166 373.141 148.622 370.744 146.908 368.866L143.78 368.702Z" fill="url(#paint16_linear)"/>
<path d="M143.046 364.1L144.052 369.519C144.052 369.519 145.032 370.254 146.963 369.71L146.5 363.882L143.046 364.1Z" fill="url(#paint17_linear)"/>
<path d="M140.353 299.373C136.355 323.527 141.224 359.09 142.856 366.034C142.964 366.469 143.291 366.796 143.726 366.851C144.46 366.959 145.657 367.068 146.854 366.714C147.262 366.605 147.561 366.224 147.561 365.789C147.779 360.152 147.398 325.623 151.097 311.981C151.288 311.3 151.696 310.674 152.294 310.265L159.529 305.119L160.073 296.813L140.353 299.373Z" fill="url(#paint18_linear)"/>
<path d="M165.84 253.598C153.844 253.408 140.625 256.757 140.625 256.757C137.062 277.616 140 301.688 140 301.688C149.275 304.111 159.747 300.19 159.747 300.19C161.297 291.476 168.478 266.914 168.478 266.914C174.326 266.179 179.168 264.491 183.139 262.258C180.12 258.745 178.678 254.279 178.053 251.638C173.837 252.972 169.539 253.653 165.84 253.598Z" fill="#FF6F41"/>
<path d="M201.227 235.926C200.058 234.51 198.562 235.163 198.562 235.163C196.794 242.624 187.545 248.67 178.053 251.611C178.678 254.252 180.093 258.718 183.139 262.23C198.915 253.408 201.227 235.926 201.227 235.926Z" fill="url(#paint19_linear)"/>
<path d="M145.222 268.357L140.625 256.73C140.625 256.73 129.446 264.355 127.596 273.994C129.718 274.158 133.553 274.702 137.334 276.608C138.177 272.061 145.222 268.357 145.222 268.357Z" fill="#FF6F41"/>
<path d="M153.708 243.877L149.9 254.905C149.846 255.096 149.9 255.287 150.091 255.395C151.124 255.967 154.878 257.628 159.393 254.769C159.856 254.47 160.182 253.979 160.264 253.435L161.488 243.877H153.708Z" fill="url(#paint20_linear)"/>
<path d="M162.005 233.638C162.005 233.638 166.193 241.535 165.649 244.721C165.105 247.907 159.937 247.689 155.395 245.102L152.24 236.579L162.005 233.638Z" fill="url(#paint21_linear)"/>
<path d="M155.585 240.909C155.776 240.827 155.83 240.609 155.721 240.446C155.395 239.929 154.769 238.894 154.552 237.968C154.552 237.968 153.79 237.478 156.456 236.852C159.121 236.225 163.093 235.218 163.936 232.958C164.752 230.752 162.603 225.17 159.203 229.608C159.067 229.772 158.822 229.772 158.686 229.608C158.115 228.873 156.646 227.375 154.606 228.274C152.702 229.145 152.484 230.534 152.512 231.242C152.512 231.46 152.321 231.623 152.131 231.569C151.152 231.378 148.84 231.215 147.752 233.611C146.854 235.572 147.452 236.688 147.969 237.233C148.132 237.396 148.078 237.696 147.833 237.777C147.208 237.968 146.364 238.513 146.446 240.01C146.555 242.08 148.867 241.889 149.52 241.808C149.628 241.78 149.737 241.835 149.819 241.917C150.39 242.543 152.92 245.184 155.667 245.511C155.912 245.538 156.075 245.293 156.02 245.075L154.824 241.617C154.769 241.454 154.851 241.29 154.987 241.209L155.585 240.909Z" fill="url(#paint22_linear)"/>
<path d="M156.075 241.399C156.075 241.399 153.083 239.357 152.865 241.072C152.648 242.788 155.558 243.577 157 242.924L156.075 241.399Z" fill="url(#paint23_linear)"/>
<path d="M137.334 276.636C137.334 276.636 133.417 294.308 136.953 304.248C132.601 306.263 133.417 305.881 133.417 305.881C133.417 305.881 124.822 280.748 127.596 274.022C133.091 273.45 135.783 274.92 137.334 276.636Z" fill="url(#paint24_linear)"/>
<path d="M136.98 304.22C136.98 304.22 139.211 307.134 139.047 308.277C138.857 309.421 138.83 309.911 138.83 309.911C138.83 309.911 137.715 309.149 137.769 308.168C137.932 311.3 138.966 314.84 138.014 314.677C137.062 314.513 132.139 309.966 133.254 305.146C135.783 303.376 136.491 303.566 136.98 304.22Z" fill="url(#paint25_linear)"/>
<path d="M452.802 242.08C452.802 242.08 453.564 240.691 453.482 239.548C453.4 238.431 454.108 236.77 453.346 236.879C452.612 237.015 452.448 236.906 452.231 238.268C452.068 239.602 450.245 244.612 452.802 242.08Z" fill="url(#paint26_linear)"/>
<path d="M488.897 370.936C486.177 370.854 484.762 370.527 484.028 370.228C484.028 370.5 484.028 370.772 484.028 371.072C484.028 371.371 484.273 371.616 484.545 371.616L499.478 371.507C499.967 371.507 500.239 370.963 500.022 370.5C498.09 370.69 493.113 371.044 488.897 370.936Z" fill="url(#paint27_linear)"/>
<path d="M484.681 365.19C485.034 363.964 486.15 363.147 487.401 363.174L488.652 363.202C495.289 364.808 498.662 368.484 499.967 370.309C499.994 370.336 500.022 370.391 500.022 370.418C498.063 370.581 493.058 370.935 488.87 370.826C486.15 370.745 484.735 370.418 484.001 370.118C484.028 368.049 484.354 366.36 484.681 365.19Z" fill="url(#paint28_linear)"/>
<path d="M490.746 358.926L489.713 363.964C489.631 364.345 489.359 364.618 489.006 364.645C488.598 364.672 487.999 364.699 487.401 364.618C486.857 364.536 486.476 363.991 486.585 363.392L487.319 358.926H490.746Z" fill="url(#paint29_linear)"/>
<path d="M469.122 370.935C471.842 370.853 473.257 370.527 473.991 370.227C473.991 370.499 473.991 370.772 473.991 371.071C473.991 371.371 473.746 371.616 473.474 371.616L458.541 371.507C458.052 371.507 457.78 370.962 457.997 370.499C459.929 370.69 464.906 371.044 469.122 370.935Z" fill="url(#paint30_linear)"/>
<path d="M457.97 370.527C457.997 370.499 457.997 370.445 458.024 370.418C459.357 368.566 462.703 364.89 469.339 363.311L472.522 363.202C472.522 363.202 473.936 365.68 473.963 370.254C473.229 370.554 471.815 370.881 469.095 370.962C464.906 371.044 459.928 370.69 457.97 370.527Z" fill="url(#paint31_linear)"/>
<path d="M473.121 358.354C473.093 358.599 472.658 362.194 472.468 363.61C472.441 363.937 472.196 364.209 471.869 364.236C471.325 364.29 470.455 364.372 469.693 364.209C469.285 364.127 468.986 363.719 468.986 363.256V357.592L473.121 358.354Z" fill="url(#paint32_linear)"/>
<path d="M475.677 292.402C475.677 292.402 467.98 321.648 468.143 358.436C468.143 359.117 468.605 359.689 469.285 359.825C470.265 360.015 471.679 360.26 472.849 360.233C473.474 360.206 473.991 359.743 474.1 359.117C475.188 352.799 481.362 317.154 484.898 311.354C484.898 311.354 487.21 343.105 486.476 359.58C486.449 359.988 486.748 360.342 487.156 360.397C487.782 360.478 488.761 360.533 490.012 360.397C490.502 360.342 490.882 359.988 490.937 359.498C491.698 354.134 496.132 322.274 495.942 299.318C495.942 298.011 492.514 292.402 492.514 292.402H475.677Z" fill="url(#paint33_linear)"/>
<path d="M499.641 266.969C501.735 261.25 500.974 254.334 500.974 254.252L500.402 254.306C500.402 254.361 501.164 261.141 499.097 266.751L499.641 266.969Z" fill="url(#paint34_linear)"/>
<path d="M446.084 269.365C444.37 259.97 446.845 244.476 446.845 244.476L450.218 247.962C450.218 247.962 450.789 260.597 453.183 265.825C451.605 266.043 448.532 266.751 446.084 269.365Z" fill="url(#paint35_linear)"/>
<path d="M453.183 265.852C453.645 266.833 454.162 267.568 454.733 267.895C456.909 269.093 461.098 262.285 464.226 256.403C466.484 252.155 468.17 248.398 468.17 248.398C470.428 245.838 476.004 245.511 481.199 245.811C486.612 246.137 491.59 247.199 491.943 247.281C491.97 247.281 491.97 247.281 491.97 247.281C494.446 247.608 496.622 247.88 498.172 248.071C499.994 248.289 501.654 249.214 502.878 250.603C507.638 256.131 518.11 271.271 505.788 286.52C504.21 285.649 501.98 284.233 500.457 282.599C501.817 278.76 501.926 273.831 499.07 267.813C498.961 268.303 498.852 268.766 498.716 269.229C494.772 281.728 494.554 292.13 494.582 294.499C494.582 294.826 494.391 295.125 494.092 295.234C488.897 297.304 478.941 296.078 475.569 295.588C474.943 295.506 474.535 294.935 474.617 294.308C475.623 287.065 472.876 276.99 470.101 269.066C453.727 285.322 447.879 279.168 446.056 269.311C448.532 266.751 451.605 266.043 453.183 265.852Z" fill="#FF6F41"/>
<path d="M491.318 293.11C492.732 292.32 498.254 288.889 500.484 282.626C502.007 284.26 504.238 285.649 505.815 286.547C503.449 289.461 500.266 292.375 496.05 295.234C495.887 298.474 493.412 299.7 492.841 300.734C492.27 301.796 493.086 301.551 492.732 302.858C492.378 304.193 488.598 300.762 487.673 299.972C486.775 299.182 487.319 297.031 487.319 297.031C487.319 297.031 487.265 296.568 487.02 295.669C486.775 294.798 491.318 293.137 491.318 293.11Z" fill="url(#paint36_linear)"/>
<path d="M489.278 237.914L490.284 248.125C490.284 248.125 484.545 249.868 480.356 246.9L483.294 237.614L489.278 237.914Z" fill="url(#paint37_linear)"/>
<path d="M479.513 229.2C479.431 229.39 479.159 241.944 479.159 241.944H486.313L488.353 230.071C488.38 230.098 480.655 226.232 479.513 229.2Z" fill="url(#paint38_linear)"/>
<path d="M485.905 231.569C486.15 231.787 486.258 232.114 486.231 232.413L485.66 238.649C485.66 238.731 485.633 238.839 485.606 238.921C485.415 239.411 484.681 240.909 483.158 240.092C481.852 239.384 480.655 238.758 479.676 238.703C479.105 238.676 478.642 239.139 478.615 239.711C478.588 240.882 478.588 243.278 478.887 245.375C478.969 245.892 479.431 246.273 479.975 246.246C481.389 246.164 484.137 245.892 486.34 245.184C486.694 245.075 486.966 244.776 487.047 244.395C487.346 242.761 488.217 238.131 488.679 236.879C489.087 235.708 490.692 235.299 491.454 235.163C491.726 235.109 491.998 234.946 492.161 234.7C492.65 233.965 493.33 232.413 491.426 231.215C490.964 230.915 490.828 230.289 491.1 229.826C491.617 228.982 491.97 227.648 490.474 226.531C488.951 225.388 487.51 225.932 486.612 226.504C486.204 226.749 485.687 226.749 485.334 226.422C485.17 226.286 484.953 226.204 484.681 226.286C484.137 226.422 483.593 226.123 483.457 225.578C483.212 224.652 482.559 223.59 480.818 223.481C477.636 223.318 476.521 226.613 476.874 228.791C477.228 230.97 480.682 230.943 482.559 230.316C483.892 229.881 485.279 230.97 485.905 231.569Z" fill="url(#paint39_linear)"/>
<path d="M488.407 239.193C488.407 239.193 487.945 235.381 489.441 234.809C490.937 234.237 492.732 235.136 491.726 237.587C490.474 240.664 488.407 239.193 488.407 239.193Z" fill="url(#paint40_linear)"/>
<path d="M470.02 268.766C470.129 268.739 470.21 268.657 470.21 268.575C470.21 268.494 469.231 260.597 469.748 258.337C469.775 258.228 469.721 258.146 469.612 258.119C469.503 258.092 469.421 258.146 469.394 258.255C468.85 260.597 469.802 268.303 469.829 268.63C469.829 268.684 469.911 268.766 470.02 268.766Z" fill="url(#paint41_linear)"/>
<path d="M447.172 233.693C447.172 233.475 447.28 233.284 447.444 233.148C447.607 233.012 447.824 232.985 448.042 233.012L453.183 234.183C453.373 234.237 453.509 234.428 453.482 234.619L451.986 248.043C451.986 248.098 451.959 248.152 451.904 248.179C451.85 248.207 451.796 248.234 451.741 248.234L447.253 247.689C446.872 247.635 446.6 247.335 446.628 246.954L447.172 233.693Z" fill="url(#paint42_linear)"/>
<path d="M448.613 234.482C448.613 234.374 448.668 234.265 448.776 234.183C448.885 234.101 448.994 234.074 449.103 234.128L452.503 234.973C452.693 235.027 452.829 235.218 452.802 235.408L451.524 246.818C451.524 246.872 451.496 246.927 451.442 246.981C451.388 247.009 451.333 247.036 451.279 247.008L448.151 246.464C448.042 246.437 447.96 246.355 447.96 246.246L448.613 234.482Z" fill="#7D97F4"/>
<path d="M450.572 234.156C450.572 234.183 450.626 234.238 450.708 234.265L451.85 234.51C451.932 234.537 451.986 234.51 452.013 234.455V234.428C452.013 234.401 451.959 234.346 451.877 234.319L450.735 234.074C450.653 234.047 450.599 234.074 450.572 234.129V234.156Z" fill="url(#paint43_linear)"/>
<path d="M445.376 237.096C446.22 236.797 447.852 233.965 448.151 234.891C448.45 235.817 448.015 237.096 448.151 237.478C448.287 237.886 449.185 240.065 448.776 241.072C448.477 241.807 447.988 244.04 447.743 245.238C447.661 245.647 447.308 245.919 446.9 245.919C446.492 245.919 446.138 245.647 446.056 245.238C446.056 245.102 444.533 237.423 445.376 237.096Z" fill="url(#paint44_linear)"/>
<path d="M178.488 112.953C179.739 111.918 184.472 103.939 192.061 112.953C192.877 113.388 194.998 112.19 194.726 111.346C185.859 98.3844 174.816 110.556 175.877 111.891C176.965 113.225 177.046 114.178 178.488 112.953Z" fill="#FF6F41"/>
<path d="M200.085 107.561C201.744 107.37 203.294 106.227 202.832 104.784C202.37 103.368 186.594 84.878 168.995 105.709C168.777 105.954 168.669 106.308 168.696 106.635C168.723 106.962 168.886 107.289 169.131 107.479C169.92 108.16 170.627 108.596 171.497 108.487C187.6 90.2424 198.426 107.752 200.085 107.561Z" fill="#FF6F41"/>
<path d="M208.299 102.06C209.469 102.306 211.89 101.407 211.264 99.4736C183.466 69.1932 158.713 100.944 159.611 102.224C160.509 103.504 162.358 103.558 163.093 103.122C185.234 74.6937 207.13 101.815 208.299 102.06Z" fill="#FF6F41"/>
<path d="M214.338 118.726C214.283 118.726 214.229 118.698 214.175 118.671C214.039 118.589 214.011 118.399 214.093 118.263C214.365 117.854 214.637 117.446 214.909 117.01C214.991 116.874 215.181 116.819 215.317 116.901C215.453 116.983 215.507 117.173 215.426 117.31C215.154 117.745 214.882 118.154 214.61 118.589C214.528 118.671 214.419 118.726 214.338 118.726Z" fill="#FF6F41"/>
<path d="M186.838 133.266C185.914 133.266 184.989 133.239 184.064 133.157C183.901 133.157 183.765 132.994 183.792 132.83C183.819 132.667 183.955 132.531 184.118 132.558C185.016 132.64 185.941 132.667 186.838 132.667H187.002C187.165 132.667 187.301 132.803 187.301 132.967C187.301 133.13 187.165 133.266 187.002 133.266H186.838ZM189.912 133.13C189.749 133.13 189.64 133.021 189.613 132.858C189.586 132.694 189.722 132.558 189.885 132.531C190.837 132.449 191.816 132.313 192.768 132.122C192.931 132.095 193.094 132.204 193.122 132.368C193.149 132.531 193.04 132.694 192.877 132.722C191.925 132.885 190.918 133.021 189.939 133.13C189.939 133.13 189.939 133.13 189.912 133.13ZM181.181 132.776C181.153 132.776 181.153 132.776 181.126 132.776C180.147 132.613 179.195 132.395 178.243 132.15C178.08 132.095 177.998 131.932 178.025 131.796C178.08 131.632 178.243 131.551 178.379 131.578C179.304 131.823 180.256 132.041 181.208 132.204C181.371 132.231 181.48 132.395 181.453 132.558C181.453 132.694 181.317 132.776 181.181 132.776ZM195.678 132.068C195.542 132.068 195.434 131.986 195.379 131.85C195.325 131.687 195.434 131.523 195.597 131.469C196.522 131.224 197.446 130.924 198.344 130.57C198.507 130.516 198.67 130.598 198.725 130.734C198.779 130.897 198.698 131.06 198.562 131.115C197.637 131.469 196.685 131.768 195.76 132.014C195.733 132.068 195.706 132.068 195.678 132.068ZM175.523 131.306C175.496 131.306 175.469 131.306 175.414 131.278C174.489 130.952 173.565 130.57 172.694 130.162C172.531 130.08 172.477 129.917 172.558 129.753C172.64 129.59 172.803 129.536 172.966 129.617C173.837 130.026 174.734 130.38 175.659 130.706C175.822 130.761 175.904 130.924 175.849 131.088C175.768 131.224 175.632 131.306 175.523 131.306ZM201.146 130.026C201.037 130.026 200.928 129.971 200.874 129.862C200.792 129.726 200.874 129.536 201.01 129.454C201.88 129.045 202.75 128.582 203.566 128.092C203.702 128.011 203.893 128.065 203.974 128.201C204.056 128.337 204.002 128.528 203.866 128.61C203.022 129.1 202.152 129.59 201.254 129.998C201.227 130.026 201.2 130.026 201.146 130.026ZM170.219 128.855C170.165 128.855 170.11 128.855 170.083 128.828C169.24 128.337 168.397 127.82 167.581 127.248C167.445 127.166 167.417 126.976 167.499 126.84C167.581 126.704 167.771 126.676 167.907 126.758C168.696 127.303 169.512 127.82 170.355 128.31C170.491 128.392 170.545 128.582 170.464 128.719C170.409 128.8 170.328 128.855 170.219 128.855ZM206.178 127.058C206.096 127.058 205.987 127.003 205.933 126.921C205.824 126.785 205.878 126.595 206.014 126.513C206.395 126.241 206.749 125.968 207.13 125.696C207.538 125.396 207.918 125.07 208.299 124.743C208.435 124.634 208.626 124.661 208.735 124.77C208.843 124.906 208.816 125.097 208.707 125.206C208.326 125.533 207.918 125.859 207.51 126.186C207.13 126.486 206.776 126.758 206.395 127.03C206.314 127.03 206.232 127.058 206.178 127.058ZM165.432 125.505C165.377 125.505 165.296 125.478 165.241 125.424C164.48 124.797 163.773 124.117 163.065 123.436C162.957 123.327 162.957 123.136 163.065 123C163.174 122.891 163.365 122.891 163.501 123C164.181 123.681 164.915 124.334 165.649 124.961C165.785 125.07 165.785 125.26 165.677 125.396C165.595 125.451 165.513 125.505 165.432 125.505ZM210.639 123.245C210.557 123.245 210.475 123.218 210.421 123.164C210.312 123.055 210.312 122.864 210.421 122.728C211.101 122.047 211.754 121.312 212.352 120.577C212.461 120.441 212.651 120.441 212.787 120.522C212.923 120.631 212.923 120.822 212.842 120.958C212.216 121.72 211.563 122.456 210.883 123.164C210.775 123.218 210.693 123.245 210.639 123.245ZM161.297 121.366C161.216 121.366 161.134 121.339 161.08 121.257C160.835 120.958 160.563 120.631 160.318 120.332C159.964 119.869 159.611 119.406 159.284 118.916C159.203 118.779 159.23 118.589 159.366 118.507C159.502 118.398 159.692 118.453 159.774 118.589C160.1 119.052 160.454 119.515 160.808 119.978C161.053 120.277 161.297 120.604 161.542 120.903C161.651 121.04 161.624 121.23 161.515 121.339C161.433 121.339 161.352 121.366 161.297 121.366ZM157.952 116.574C157.843 116.574 157.734 116.519 157.68 116.41C157.19 115.566 156.728 114.668 156.32 113.796C156.238 113.633 156.32 113.469 156.456 113.388C156.619 113.306 156.782 113.388 156.864 113.524C157.272 114.395 157.707 115.267 158.196 116.111C158.278 116.247 158.224 116.438 158.088 116.519C158.033 116.547 157.979 116.574 157.952 116.574ZM155.476 111.264C155.34 111.264 155.232 111.182 155.204 111.073C154.878 110.147 154.579 109.194 154.334 108.241C154.28 108.078 154.388 107.914 154.552 107.887C154.715 107.833 154.878 107.942 154.905 108.105C155.15 109.031 155.449 109.957 155.776 110.883C155.83 111.046 155.748 111.209 155.585 111.264C155.531 111.237 155.504 111.264 155.476 111.264Z" fill="#FF6F41"/>
<path d="M153.98 105.573C153.844 105.573 153.708 105.464 153.681 105.328C153.6 104.838 153.518 104.32 153.464 103.83C153.436 103.667 153.572 103.503 153.736 103.503C153.899 103.476 154.062 103.612 154.062 103.776C154.116 104.266 154.198 104.756 154.28 105.246C154.307 105.41 154.198 105.573 154.035 105.6C154.008 105.573 153.98 105.573 153.98 105.573Z" fill="#FF6F41"/>
<path d="M160.046 80.0584C159.992 80.0584 159.91 80.0312 159.856 80.0039C159.72 79.895 159.692 79.7044 159.801 79.5955C160.101 79.187 160.4 78.8058 160.726 78.3973C160.835 78.2612 161.025 78.2612 161.134 78.3429C161.27 78.4518 161.27 78.6424 161.189 78.7785C160.862 79.1598 160.563 79.541 160.264 79.9495C160.237 80.0039 160.128 80.0584 160.046 80.0584Z" fill="#FF6F41"/>
<path d="M219.343 92.7204C219.207 92.7204 219.071 92.6114 219.043 92.4753C218.826 91.4678 218.554 90.4875 218.227 89.5072C218.173 89.3438 218.255 89.1804 218.418 89.1259C218.581 89.0715 218.744 89.1532 218.799 89.3165C219.125 90.3241 219.397 91.3316 219.615 92.3391C219.642 92.5025 219.56 92.6659 219.397 92.6931C219.37 92.7204 219.37 92.7204 219.343 92.7204ZM217.439 86.7841C217.33 86.7841 217.221 86.7296 217.167 86.5935C216.759 85.6404 216.323 84.7146 215.834 83.816C215.752 83.6798 215.807 83.4892 215.943 83.4075C216.079 83.3258 216.269 83.3803 216.351 83.5164C216.84 84.4423 217.303 85.3953 217.711 86.3484C217.765 86.5118 217.711 86.6752 217.547 86.7296C217.52 86.7841 217.466 86.7841 217.439 86.7841ZM214.474 81.338C214.365 81.338 214.283 81.2835 214.229 81.2018C213.794 80.5483 213.331 79.922 212.842 79.2957C212.706 79.1051 212.542 78.9145 212.379 78.7238C212.271 78.5877 212.298 78.3971 212.434 78.2882C212.57 78.1792 212.76 78.2065 212.842 78.3426C213.005 78.5332 213.141 78.7238 213.304 78.9145C213.794 79.5408 214.283 80.1943 214.719 80.8478C214.8 80.984 214.773 81.1746 214.637 81.2563C214.583 81.3107 214.528 81.338 214.474 81.338ZM163.038 76.5454C162.957 76.5454 162.875 76.5182 162.821 76.4637C162.712 76.3548 162.712 76.1642 162.821 76.028C163.555 75.2928 164.317 74.5576 165.133 73.904C165.269 73.7951 165.459 73.8223 165.568 73.9313C165.677 74.0674 165.649 74.258 165.541 74.367C164.752 75.0205 163.99 75.7285 163.283 76.4637C163.201 76.5182 163.12 76.5454 163.038 76.5454ZM210.53 76.5182C210.448 76.5182 210.366 76.4909 210.312 76.4365C209.605 75.7013 208.843 74.9933 208.054 74.3397C207.918 74.2308 207.918 74.0402 208.027 73.904C208.136 73.7679 208.326 73.7679 208.462 73.8768C209.251 74.5576 210.04 75.2656 210.774 76.0008C210.883 76.1097 210.883 76.3003 210.774 76.4365C210.693 76.4909 210.611 76.5182 210.53 76.5182ZM167.798 72.5425C167.717 72.5425 167.608 72.488 167.553 72.4063C167.472 72.2702 167.499 72.0796 167.635 71.9979C168.478 71.3988 169.376 70.827 170.301 70.3368C170.437 70.2551 170.627 70.3096 170.709 70.4457C170.79 70.5819 170.736 70.7725 170.6 70.8542C169.702 71.3716 168.832 71.9162 167.989 72.488C167.907 72.5153 167.853 72.5425 167.798 72.5425ZM205.797 72.5153C205.742 72.5153 205.688 72.488 205.634 72.4608C204.79 71.889 203.92 71.3171 203.022 70.827C202.886 70.7453 202.832 70.5547 202.914 70.4185C202.995 70.2824 203.186 70.2279 203.322 70.3096C204.219 70.827 205.117 71.3716 205.987 71.9707C206.123 72.0523 206.15 72.243 206.069 72.3791C205.987 72.4608 205.878 72.5153 205.797 72.5153ZM173.211 69.4654C173.102 69.4654 172.993 69.411 172.939 69.3021C172.885 69.1387 172.939 68.9753 173.102 68.8936C174.054 68.4579 175.033 68.0767 176.013 67.7499C176.176 67.6955 176.339 67.7771 176.393 67.9405C176.448 68.1039 176.366 68.2673 176.203 68.3218C175.224 68.6485 174.272 69.0298 173.347 69.4382C173.293 69.4654 173.238 69.4654 173.211 69.4654ZM200.384 69.4654C200.357 69.4654 200.302 69.4654 200.275 69.4382C199.35 69.0298 198.371 68.6485 197.392 68.3218C197.229 68.2673 197.147 68.1039 197.202 67.9405C197.256 67.7771 197.419 67.6955 197.582 67.7499C198.562 68.0767 199.541 68.4579 200.493 68.8936C200.656 68.9481 200.71 69.1387 200.656 69.3021C200.602 69.3837 200.493 69.4654 200.384 69.4654ZM179.086 67.4776C178.95 67.4776 178.841 67.3959 178.787 67.2598C178.76 67.0964 178.841 66.933 179.005 66.9058C180.011 66.6607 181.045 66.4701 182.078 66.3339C182.241 66.3067 182.405 66.4156 182.405 66.579C182.432 66.7424 182.323 66.9058 182.16 66.9058C181.153 67.0419 180.12 67.2325 179.141 67.4776C179.141 67.4776 179.113 67.4776 179.086 67.4776ZM194.482 67.4776C194.454 67.4776 194.427 67.4776 194.4 67.4776C193.394 67.2325 192.387 67.0419 191.381 66.9058C191.218 66.8785 191.109 66.7424 191.136 66.579C191.163 66.4156 191.299 66.3067 191.462 66.3339C192.496 66.4701 193.53 66.6607 194.536 66.9058C194.699 66.933 194.808 67.0964 194.754 67.2598C194.754 67.3687 194.618 67.4776 194.482 67.4776ZM188.334 66.6062C187.301 66.5518 186.267 66.5518 185.233 66.6062C185.07 66.6062 184.934 66.4973 184.907 66.3339C184.907 66.1705 185.016 66.0344 185.179 66.0072C186.213 65.9527 187.274 65.9527 188.307 66.0072C188.47 66.0072 188.606 66.1433 188.579 66.3339C188.634 66.4973 188.498 66.6062 188.334 66.6062Z" fill="#FF6F41"/>
<path d="M220.023 97.2952C219.859 97.2952 219.723 97.1863 219.723 97.0229C219.696 96.5327 219.642 96.0426 219.587 95.5524C219.56 95.389 219.696 95.2257 219.859 95.2257C220.023 95.1984 220.186 95.3346 220.186 95.498C220.24 95.9881 220.295 96.5055 220.349 96.9957C220.322 97.1318 220.213 97.2952 220.023 97.2952Z" fill="#FF6F41"/>
</g>
<defs>
<linearGradient id="paint0_linear" x1="380.801" y1="328.826" x2="456.379" y2="134.219" gradientUnits="userSpaceOnUse">
<stop stop-color="#A737D5"/>
<stop offset="1" stop-color="#EF497A"/>
</linearGradient>
<linearGradient id="paint1_linear" x1="400.996" y1="194.996" x2="417.052" y2="153.653" gradientUnits="userSpaceOnUse">
<stop stop-color="#B37CFF"/>
<stop offset="1" stop-color="#F895E7"/>
</linearGradient>
<linearGradient id="paint2_linear" x1="401.44" y1="213.34" x2="417.541" y2="171.88" gradientUnits="userSpaceOnUse">
<stop stop-color="#B37CFF"/>
<stop offset="1" stop-color="#F895E7"/>
</linearGradient>
<linearGradient id="paint3_linear" x1="401.878" y1="231.925" x2="417.84" y2="190.827" gradientUnits="userSpaceOnUse">
<stop stop-color="#B37CFF"/>
<stop offset="1" stop-color="#F895E7"/>
</linearGradient>
<linearGradient id="paint4_linear" x1="402.329" y1="250.617" x2="418.32" y2="209.442" gradientUnits="userSpaceOnUse">
<stop stop-color="#B37CFF"/>
<stop offset="1" stop-color="#F895E7"/>
</linearGradient>
<linearGradient id="paint5_linear" x1="402.641" y1="269.889" x2="418.844" y2="228.167" gradientUnits="userSpaceOnUse">
<stop stop-color="#B37CFF"/>
<stop offset="1" stop-color="#F895E7"/>
</linearGradient>
<linearGradient id="paint6_linear" x1="403.102" y1="288.899" x2="419.338" y2="247.092" gradientUnits="userSpaceOnUse">
<stop stop-color="#B37CFF"/>
<stop offset="1" stop-color="#F895E7"/>
</linearGradient>
<linearGradient id="paint7_linear" x1="403.557" y1="308.154" x2="419.643" y2="266.734" gradientUnits="userSpaceOnUse">
<stop stop-color="#B37CFF"/>
<stop offset="1" stop-color="#F895E7"/>
</linearGradient>
<linearGradient id="paint8_linear" x1="404.024" y1="327.519" x2="420.142" y2="286.016" gradientUnits="userSpaceOnUse">
<stop stop-color="#B37CFF"/>
<stop offset="1" stop-color="#F895E7"/>
</linearGradient>
<linearGradient id="paint9_linear" x1="404.349" y1="347.484" x2="420.686" y2="305.416" gradientUnits="userSpaceOnUse">
<stop stop-color="#B37CFF"/>
<stop offset="1" stop-color="#F895E7"/>
</linearGradient>
<linearGradient id="paint10_linear" x1="537.982" y1="-12.4213" x2="612.407" y2="-419.257" gradientUnits="userSpaceOnUse">
<stop stop-color="#FE7062"/>
<stop offset="1" stop-color="#FF928E"/>
</linearGradient>
<linearGradient id="paint11_linear" x1="-250.911" y1="-604.199" x2="-235.29" y2="-575.531" gradientUnits="userSpaceOnUse">
<stop stop-color="#FF928E"/>
<stop offset="1" stop-color="#FEB3B1"/>
</linearGradient>
<linearGradient id="paint12_linear" x1="213.283" y1="215.368" x2="195.304" y2="241.309" gradientUnits="userSpaceOnUse">
<stop stop-color="#FF928E"/>
<stop offset="1" stop-color="#FEB3B1"/>
</linearGradient>
<linearGradient id="paint13_linear" x1="170.545" y1="332.9" x2="168.001" y2="374.653" gradientUnits="userSpaceOnUse">
<stop stop-color="#09005D"/>
<stop offset="1" stop-color="#1A0F91"/>
</linearGradient>
<linearGradient id="paint14_linear" x1="-259.513" y1="1085.46" x2="-239.896" y2="1052.07" gradientUnits="userSpaceOnUse">
<stop stop-color="#FF928E"/>
<stop offset="1" stop-color="#FEB3B1"/>
</linearGradient>
<linearGradient id="paint15_linear" x1="179.992" y1="300.105" x2="136.476" y2="359.02" gradientUnits="userSpaceOnUse">
<stop stop-color="#09005D"/>
<stop offset="1" stop-color="#1A0F91"/>
</linearGradient>
<linearGradient id="paint16_linear" x1="148.362" y1="331.548" x2="145.818" y2="373.302" gradientUnits="userSpaceOnUse">
<stop stop-color="#09005D"/>
<stop offset="1" stop-color="#1A0F91"/>
</linearGradient>
<linearGradient id="paint17_linear" x1="-271.98" y1="1078.11" x2="-252.363" y2="1044.72" gradientUnits="userSpaceOnUse">
<stop stop-color="#FF928E"/>
<stop offset="1" stop-color="#FEB3B1"/>
</linearGradient>
<linearGradient id="paint18_linear" x1="172.248" y1="294.385" x2="128.731" y2="353.3" gradientUnits="userSpaceOnUse">
<stop stop-color="#09005D"/>
<stop offset="1" stop-color="#1A0F91"/>
</linearGradient>
<linearGradient id="paint19_linear" x1="-267.18" y1="-595.336" x2="-251.558" y2="-566.668" gradientUnits="userSpaceOnUse">
<stop stop-color="#FF928E"/>
<stop offset="1" stop-color="#FEB3B1"/>
</linearGradient>
<linearGradient id="paint20_linear" x1="164.693" y1="230.058" x2="148.887" y2="268.168" gradientUnits="userSpaceOnUse">
<stop stop-color="#FF928E"/>
<stop offset="1" stop-color="#FEB3B1"/>
</linearGradient>
<linearGradient id="paint21_linear" x1="43.5869" y1="-538.111" x2="46.939" y2="-515.551" gradientUnits="userSpaceOnUse">
<stop stop-color="#FF928E"/>
<stop offset="1" stop-color="#FEB3B1"/>
</linearGradient>
<linearGradient id="paint22_linear" x1="167.879" y1="210.878" x2="163.883" y2="218.318" gradientUnits="userSpaceOnUse">
<stop stop-color="#09005D"/>
<stop offset="1" stop-color="#1A0F91"/>
</linearGradient>
<linearGradient id="paint23_linear" x1="39.3445" y1="-537.464" x2="42.6965" y2="-514.904" gradientUnits="userSpaceOnUse">
<stop stop-color="#FF928E"/>
<stop offset="1" stop-color="#FEB3B1"/>
</linearGradient>
<linearGradient id="paint24_linear" x1="147.06" y1="255.93" x2="138.885" y2="274.259" gradientUnits="userSpaceOnUse">
<stop stop-color="#FF928E"/>
<stop offset="1" stop-color="#FEB3B1"/>
</linearGradient>
<linearGradient id="paint25_linear" x1="157.653" y1="260.655" x2="149.478" y2="278.983" gradientUnits="userSpaceOnUse">
<stop stop-color="#FF928E"/>
<stop offset="1" stop-color="#FEB3B1"/>
</linearGradient>
<linearGradient id="paint26_linear" x1="964.242" y1="1731.29" x2="970.42" y2="1749.26" gradientUnits="userSpaceOnUse">
<stop stop-color="#FF928E"/>
<stop offset="1" stop-color="#FEB3B1"/>
</linearGradient>
<linearGradient id="paint27_linear" x1="499.546" y1="335.214" x2="513.175" y2="270.774" gradientUnits="userSpaceOnUse">
<stop stop-color="#09005D"/>
<stop offset="1" stop-color="#1A0F91"/>
</linearGradient>
<linearGradient id="paint28_linear" x1="417.448" y1="-49.9364" x2="423.809" y2="-14.1758" gradientUnits="userSpaceOnUse">
<stop stop-color="#09005D"/>
<stop offset="1" stop-color="#1A0F91"/>
</linearGradient>
<linearGradient id="paint29_linear" x1="423.149" y1="-29.1898" x2="427.147" y2="-5.40965" gradientUnits="userSpaceOnUse">
<stop stop-color="#FF928E"/>
<stop offset="1" stop-color="#FEB3B1"/>
</linearGradient>
<linearGradient id="paint30_linear" x1="378.211" y1="-45.1371" x2="364.582" y2="-109.577" gradientUnits="userSpaceOnUse">
<stop stop-color="#09005D"/>
<stop offset="1" stop-color="#1A0F91"/>
</linearGradient>
<linearGradient id="paint31_linear" x1="392.326" y1="-45.4677" x2="398.687" y2="-9.70719" gradientUnits="userSpaceOnUse">
<stop stop-color="#09005D"/>
<stop offset="1" stop-color="#1A0F91"/>
</linearGradient>
<linearGradient id="paint32_linear" x1="406.113" y1="-26.32" x2="410.111" y2="-2.54018" gradientUnits="userSpaceOnUse">
<stop stop-color="#FF928E"/>
<stop offset="1" stop-color="#FEB3B1"/>
</linearGradient>
<linearGradient id="paint33_linear" x1="509.144" y1="278.188" x2="472.996" y2="344.96" gradientUnits="userSpaceOnUse">
<stop stop-color="#09005D"/>
<stop offset="1" stop-color="#1A0F91"/>
</linearGradient>
<linearGradient id="paint34_linear" x1="499.753" y1="259.708" x2="492.285" y2="238.293" gradientUnits="userSpaceOnUse">
<stop stop-color="#53D8FF"/>
<stop offset="1" stop-color="#3840F7"/>
</linearGradient>
<linearGradient id="paint35_linear" x1="275.359" y1="-329.478" x2="279.902" y2="-314.05" gradientUnits="userSpaceOnUse">
<stop stop-color="#FF928E"/>
<stop offset="1" stop-color="#FEB3B1"/>
</linearGradient>
<linearGradient id="paint36_linear" x1="499.307" y1="250.167" x2="497.853" y2="270.681" gradientUnits="userSpaceOnUse">
<stop stop-color="#FF928E"/>
<stop offset="1" stop-color="#FEB3B1"/>
</linearGradient>
<linearGradient id="paint37_linear" x1="487.083" y1="235.424" x2="483.448" y2="260.112" gradientUnits="userSpaceOnUse">
<stop stop-color="#FF928E"/>
<stop offset="1" stop-color="#FEB3B1"/>
</linearGradient>
<linearGradient id="paint38_linear" x1="501.375" y1="228.333" x2="487.409" y2="233.587" gradientUnits="userSpaceOnUse">
<stop stop-color="#FF928E"/>
<stop offset="1" stop-color="#FEB3B1"/>
</linearGradient>
<linearGradient id="paint39_linear" x1="490.742" y1="238.523" x2="474.69" y2="232.348" gradientUnits="userSpaceOnUse">
<stop stop-color="#09005D"/>
<stop offset="1" stop-color="#1A0F91"/>
</linearGradient>
<linearGradient id="paint40_linear" x1="510.266" y1="225.376" x2="500.468" y2="230.994" gradientUnits="userSpaceOnUse">
<stop stop-color="#FF928E"/>
<stop offset="1" stop-color="#FEB3B1"/>
</linearGradient>
<linearGradient id="paint41_linear" x1="489.777" y1="243.228" x2="469.626" y2="263.537" gradientUnits="userSpaceOnUse">
<stop stop-color="#E1473D"/>
<stop offset="1" stop-color="#E9605A"/>
</linearGradient>
<linearGradient id="paint42_linear" x1="444.778" y1="233.374" x2="464.119" y2="260.63" gradientUnits="userSpaceOnUse">
<stop stop-color="#09005D"/>
<stop offset="1" stop-color="#1A0F91"/>
</linearGradient>
<linearGradient id="paint43_linear" x1="450.984" y1="233.966" x2="451.193" y2="235.331" gradientUnits="userSpaceOnUse">
<stop stop-color="#8D55D1"/>
<stop offset="0.9964" stop-color="#1C2873"/>
</linearGradient>
<linearGradient id="paint44_linear" x1="279.433" y1="-330.68" x2="283.976" y2="-315.252" gradientUnits="userSpaceOnUse">
<stop stop-color="#FF928E"/>
<stop offset="1" stop-color="#FEB3B1"/>
</linearGradient>
<clipPath id="clip0">
<rect width="590" height="376" fill="white"/>
</clipPath>
</defs>
</svg>
