<svg width="150" height="38" viewBox="0 0 150 38" fill="none" xmlns="http://www.w3.org/2000/svg">
<path d="M2.2339 24.5301V15.9668H0V12.9882L2.2339 12.0574L3.90933 7.77579H6.88787V12.4298H11.1695V16.1529H6.88787V24.9024C6.88787 26.2055 7.6325 26.764 8.74946 26.764C9.49409 26.764 10.4249 26.5778 11.1695 26.0193L12.2865 29.7425C11.728 30.1148 10.4249 30.8595 7.44635 30.8595C4.46781 30.4871 2.2339 28.9979 2.2339 24.5301Z" fill="#545456"/>
<path d="M27.1791 17.8283V25.0885C27.1791 26.2054 27.5514 26.5777 28.2961 26.5777H28.8545V29.9286C28.1099 30.4871 27.3653 30.4871 26.6206 30.4871C24.9452 30.4871 24.0144 29.7424 23.4559 28.4393H23.2698C22.5252 29.3701 21.4082 30.4871 18.802 30.4871C15.4511 30.4871 13.5895 28.067 13.5895 25.4608C13.5895 21.3653 17.3127 19.3176 22.7113 19.6899V18.2006C22.7113 16.1529 21.5944 15.5944 20.2912 15.5944C18.6158 15.5944 17.685 16.5252 17.3127 17.6421L13.9619 15.0359C14.7065 14.1051 16.3819 11.6851 20.2912 11.6851C24.5729 11.8712 27.1791 13.5466 27.1791 17.8283ZM22.7113 23.0407C19.7328 22.8546 18.0573 23.5992 18.0573 25.0885C18.0573 26.2054 18.802 26.7639 19.9189 26.7639C21.0359 26.7639 22.1528 26.2054 22.7113 25.4608V23.0407Z" fill="#545456"/>
<path d="M45.4227 29.5563C45.4227 34.5826 42.0719 37.0027 37.4179 37.0027C33.1363 37.0027 31.2747 35.6995 30.3439 34.5826L32.9501 31.0456C33.8809 32.3487 35.5563 33.0933 37.4179 33.0933C39.838 33.0933 40.7688 32.1625 40.7688 29.5563V28.6255H40.5826C39.838 29.184 38.721 29.7425 37.0456 29.7425C33.5086 29.7425 30.1577 27.8809 30.1577 21.3653C30.1577 16.3391 32.9501 12.0574 38.721 12.0574C41.6995 12.0574 43.7473 12.4297 45.2366 13.1744V29.5563H45.4227ZM38.721 15.7806C36.3009 15.7806 34.8117 17.6422 34.8117 20.993C34.8117 24.7162 36.1148 25.647 38.1625 25.647C39.2795 25.647 40.0241 25.2747 40.5826 24.7162V16.1529C40.0241 15.9667 39.4656 15.7806 38.721 15.7806Z" fill="#545456"/>
<path d="M53.7998 5.91418V24.53C53.7998 25.8332 54.3583 26.3916 55.2891 26.3916C55.6614 26.3916 55.8476 26.3916 56.0337 26.3916V30.301C55.4753 30.4871 54.9168 30.6733 53.7998 30.6733C51.0075 30.6733 49.332 28.9979 49.332 25.8332V5.91418H53.7998Z" fill="#545456"/>
<path d="M78.5589 11.8713C82.0959 11.8713 83.9575 13.7329 83.9575 17.8284V30.301H79.3036V18.573C79.3036 16.5253 78.1866 15.7806 77.0697 15.7806C75.9527 15.7806 74.6496 16.5253 74.0911 17.8284V30.301H69.4371V18.9453C69.4371 16.8976 68.5064 15.7806 67.0171 15.7806C65.9001 15.7806 64.7832 16.7114 64.4109 18.0145V30.301H59.5707V12.2436H63.4801L64.2247 13.9191H64.4109C65.5278 12.4298 67.2032 11.8713 69.0648 11.8713C71.671 11.8713 72.788 12.9883 73.5326 14.2914H73.7188C74.2773 12.9883 76.1389 11.8713 78.5589 11.8713Z" fill="#545456"/>
<path d="M101.829 28.6256C100.526 29.7426 98.8502 30.6734 95.4994 30.6734C89.9146 30.6734 87.1223 27.5087 87.1223 21.1793C87.1223 15.2222 90.287 11.8713 95.3132 11.8713C99.781 11.8713 102.387 14.8499 102.387 19.3177C102.387 20.2485 102.387 21.1793 102.201 22.4824H91.7762C91.7762 25.2748 93.0793 26.9502 96.0579 26.9502C97.9195 26.9502 99.2226 26.0194 99.9672 25.2748L101.829 28.6256ZM91.5901 19.3177H97.7333V18.7592C97.7333 16.7115 96.8025 15.5945 94.9409 15.5945C92.8932 15.5945 91.7762 17.0838 91.5901 19.3177Z" fill="#545456"/>
<path d="M139.131 25.6899C138.573 25.6899 137.828 25.5038 137.456 25.3176V31.647C137.456 31.8332 137.27 31.8332 137.27 31.8332H117.723C117.537 31.8332 117.537 31.647 117.537 31.647V12.2865C117.537 12.1003 117.723 12.1003 117.723 12.1003H124.239C124.053 11.5419 123.866 10.9834 123.866 10.4249C123.866 9.86643 124.053 9.1218 124.239 8.74948H117.723C115.675 8.74948 114 10.4249 114 12.4727V31.647C114 33.6947 115.675 35.3702 117.723 35.3702H137.084C139.131 35.3702 140.807 33.6947 140.807 31.647V25.3176C140.248 25.5038 139.69 25.6899 139.131 25.6899Z" fill="#00ABA0"/>
<path d="M134.291 18.2436C136.039 18.2436 137.456 16.8267 137.456 15.0789C137.456 13.3311 136.039 11.9142 134.291 11.9142C132.543 11.9142 131.127 13.3311 131.127 15.0789C131.127 16.8267 132.543 18.2436 134.291 18.2436Z" fill="#F37053"/>
<path d="M144.53 25.3176C144.158 25.3176 143.785 25.1314 143.413 24.9453C142.668 24.3868 142.482 23.2698 143.227 22.5252C144.902 20.4774 145.833 18.0574 145.833 15.4512C146.019 8.93561 140.993 3.72317 134.477 3.53701C131.871 3.53701 129.451 4.28165 127.217 5.77092C126.473 6.32939 125.356 6.14323 124.797 5.3986C124.239 4.65397 124.425 3.53701 125.17 2.97854C127.962 0.930793 131.127 0 134.664 0C143.041 0.186159 149.556 7.07403 149.37 15.4512C149.37 18.802 148.067 22.1529 145.833 24.7591C145.461 25.1314 145.089 25.3176 144.53 25.3176Z" fill="#F37053"/>
<path d="M139.131 22.8975C138.573 22.8975 138.014 22.7113 137.828 22.1529C137.27 21.4082 137.27 20.2913 138.014 19.7328C139.504 18.6159 140.248 16.9404 140.248 15.0788C140.248 11.728 137.642 9.12176 134.291 9.12176C132.43 9.12176 130.754 9.8664 129.637 11.3557C129.079 12.1003 127.962 12.2865 127.217 11.5418C126.473 10.9833 126.286 9.8664 127.031 9.12176C128.893 6.88786 131.499 5.58475 134.477 5.58475C139.69 5.58475 143.972 9.8664 143.972 15.0788C143.972 18.0574 142.668 20.6636 140.435 22.5252C139.876 22.7113 139.504 22.8975 139.131 22.8975Z" fill="#F37053"/>
</svg>
