<svg width="150" height="38" viewBox="0 0 150 38" fill="none" xmlns="http://www.w3.org/2000/svg">
<path d="M2.2339 24.5302V15.9669H0V12.9883L2.2339 12.0575L3.90933 7.77588H6.88787V12.4298H11.1695V16.153H6.88787V24.9025C6.88787 26.2056 7.6325 26.7641 8.74946 26.7641C9.49409 26.7641 10.4249 26.5779 11.1695 26.0194L12.2865 29.7426C11.728 30.1149 10.4249 30.8595 7.44635 30.8595C4.46781 30.4872 2.2339 28.998 2.2339 24.5302Z" fill="white"/>
<path d="M27.1791 17.8283V25.0885C27.1791 26.2054 27.5514 26.5777 28.2961 26.5777H28.8545V29.9286C28.1099 30.4871 27.3653 30.4871 26.6206 30.4871C24.9452 30.4871 24.0144 29.7424 23.4559 28.4393H23.2698C22.5252 29.3701 21.4082 30.4871 18.802 30.4871C15.4511 30.4871 13.5895 28.067 13.5895 25.4608C13.5895 21.3653 17.3127 19.3176 22.7113 19.6899V18.2006C22.7113 16.1529 21.5944 15.5944 20.2912 15.5944C18.6158 15.5944 17.685 16.5252 17.3127 17.6421L13.9619 15.0359C14.7065 14.1051 16.3819 11.6851 20.2912 11.6851C24.5729 11.8712 27.1791 13.5466 27.1791 17.8283ZM22.7113 23.0407C19.7328 22.8546 18.0573 23.5992 18.0573 25.0885C18.0573 26.2054 18.802 26.7639 19.9189 26.7639C21.0359 26.7639 22.1528 26.2054 22.7113 25.4608V23.0407Z" fill="white"/>
<path d="M45.4227 29.556C45.4227 34.5823 42.0719 37.0024 37.4179 37.0024C33.1363 37.0024 31.2747 35.6993 30.3439 34.5823L32.9501 31.0453C33.8809 32.3484 35.5563 33.0931 37.4179 33.0931C39.838 33.0931 40.7688 32.1623 40.7688 29.556V28.6252H40.5826C39.838 29.1837 38.721 29.7422 37.0456 29.7422C33.5086 29.7422 30.1577 27.8806 30.1577 21.3651C30.1577 16.3388 32.9501 12.0571 38.721 12.0571C41.6995 12.0571 43.7473 12.4294 45.2366 13.1741V29.556H45.4227ZM38.721 15.7803C36.3009 15.7803 34.8117 17.6419 34.8117 20.9927C34.8117 24.7159 36.1148 25.6467 38.1625 25.6467C39.2795 25.6467 40.0241 25.2744 40.5826 24.7159V16.1526C40.0241 15.9665 39.4656 15.7803 38.721 15.7803Z" fill="white"/>
<path d="M53.7998 5.91406V24.5299C53.7998 25.833 54.3583 26.3915 55.2891 26.3915C55.6614 26.3915 55.8476 26.3915 56.0337 26.3915V30.3008C55.4753 30.487 54.9168 30.6732 53.7998 30.6732C51.0075 30.6732 49.332 28.9977 49.332 25.833V5.91406H53.7998Z" fill="white"/>
<path d="M78.5589 11.8711C82.0959 11.8711 83.9575 13.7327 83.9575 17.8282V30.3008H79.3036V18.5728C79.3036 16.5251 78.1866 15.7804 77.0697 15.7804C75.9527 15.7804 74.6496 16.5251 74.0911 17.8282V30.3008H69.4371V18.9451C69.4371 16.8974 68.5064 15.7804 67.0171 15.7804C65.9001 15.7804 64.7832 16.7112 64.4109 18.0143V30.3008H59.5707V12.2434H63.4801L64.2247 13.9188H64.4109C65.5278 12.4296 67.2032 11.8711 69.0648 11.8711C71.671 11.8711 72.788 12.988 73.5326 14.2912H73.7188C74.2773 12.988 76.1389 11.8711 78.5589 11.8711Z" fill="white"/>
<path d="M101.829 28.6254C100.526 29.7423 98.8502 30.6731 95.4994 30.6731C89.9146 30.6731 87.1223 27.5084 87.1223 21.179C87.1223 15.2219 90.287 11.8711 95.3132 11.8711C99.781 11.8711 102.387 14.8496 102.387 19.3174C102.387 20.2482 102.387 21.179 102.201 22.4821H91.7762C91.7762 25.2745 93.0793 26.9499 96.0579 26.9499C97.9195 26.9499 99.2226 26.0191 99.9672 25.2745L101.829 28.6254ZM91.5901 19.3174H97.7333V18.759C97.7333 16.7112 96.8025 15.5943 94.9409 15.5943C92.8932 15.5943 91.7762 17.0835 91.5901 19.3174Z" fill="white"/>
<path d="M139.131 25.6899C138.573 25.6899 137.828 25.5038 137.456 25.3176V31.647C137.456 31.8332 137.27 31.8332 137.27 31.8332H117.723C117.537 31.8332 117.537 31.647 117.537 31.647V12.2865C117.537 12.1004 117.723 12.1004 117.723 12.1004H124.239C124.053 11.5419 123.866 10.9834 123.866 10.4249C123.866 9.86646 124.053 9.12183 124.239 8.74951H117.723C115.675 8.74951 114 10.4249 114 12.4727V31.647C114 33.6948 115.675 35.3702 117.723 35.3702H137.084C139.131 35.3702 140.807 33.6948 140.807 31.647V25.3176C140.248 25.5038 139.69 25.6899 139.131 25.6899Z" fill="#00ABA0"/>
<path d="M134.291 18.2435C136.039 18.2435 137.456 16.8266 137.456 15.0788C137.456 13.3309 136.039 11.9141 134.291 11.9141C132.543 11.9141 131.127 13.3309 131.127 15.0788C131.127 16.8266 132.543 18.2435 134.291 18.2435Z" fill="#F37053"/>
<path d="M144.53 25.3176C144.158 25.3176 143.785 25.1314 143.413 24.9453C142.668 24.3868 142.482 23.2698 143.227 22.5252C144.902 20.4774 145.833 18.0574 145.833 15.4512C146.019 8.93561 140.993 3.72317 134.477 3.53701C131.871 3.53701 129.451 4.28165 127.217 5.77092C126.473 6.32939 125.356 6.14323 124.797 5.3986C124.239 4.65397 124.425 3.53701 125.17 2.97854C127.962 0.930793 131.127 0 134.664 0C143.041 0.186159 149.556 7.07403 149.37 15.4512C149.37 18.802 148.067 22.1529 145.833 24.7591C145.461 25.1314 145.089 25.3176 144.53 25.3176Z" fill="#F37053"/>
<path d="M139.131 22.8977C138.573 22.8977 138.014 22.7116 137.828 22.1531C137.27 21.4084 137.27 20.2915 138.014 19.733C139.504 18.6161 140.248 16.9406 140.248 15.0791C140.248 11.7282 137.642 9.12197 134.291 9.12197C132.43 9.12197 130.754 9.86661 129.637 11.3559C129.079 12.1005 127.962 12.2867 127.217 11.542C126.473 10.9836 126.286 9.86661 127.031 9.12197C128.893 6.88807 131.499 5.58496 134.477 5.58496C139.69 5.58496 143.972 9.86661 143.972 15.0791C143.972 18.0576 142.668 20.6638 140.435 22.5254C139.876 22.7116 139.504 22.8977 139.131 22.8977Z" fill="#F37053"/>
</svg>
