<svg width="322" height="238" viewBox="0 0 322 238" fill="none" xmlns="http://www.w3.org/2000/svg">
<path d="M24.8759 161.064C11.4379 142.265 0.969226 130.55 0.258826 106.482C-0.899774 67.228 25.3661 42.8104 58.9549 21.7229C81.96 7.27983 99.75 -3.85708 124.507 3.04302C151.886 10.6738 145.741 44.9766 169.223 60.696C196.111 78.694 220.786 66.49 250.73 78.916C279.717 90.945 308.731 90.946 318.573 121.691C325.964 144.775 320.088 162.58 308.334 185.065C292.678 215.016 272.402 236.641 240.384 237.367C201.387 238.251 213.485 170.319 175.545 163.535C137.639 156.757 120.98 216.088 83.116 209.131C53.8565 203.756 42.1816 185.274 24.8759 161.064Z" fill="#403F4C"/>
</svg>
