<svg width="542" height="798" viewBox="0 0 542 798" fill="none" xmlns="http://www.w3.org/2000/svg">
<path d="M36.6509 158.587C58.6721 104.562 69.5788 66.4206 119.948 32.4875C202.098 -22.8566 289.481 0.365598 379.61 43.7156C441.34 73.4066 489.007 96.4078 507.579 158.587C528.119 227.352 446.706 260.424 444.758 331.759C442.527 413.436 501.728 449.71 515.49 530.409C528.813 608.533 567.818 670.513 515.49 732.946C476.2 779.825 430.332 791.252 366.58 796.428C281.661 803.323 208.286 789.136 163.69 721.718C109.372 639.605 270.501 573.955 233.957 483.77C197.446 393.668 48.5272 437.991 12.453 347.737C-15.4231 277.994 8.29158 228.162 36.6509 158.587Z" fill="#403F4C"/>
</svg>
