<svg width="264" height="210" viewBox="0 0 264 210" fill="none" xmlns="http://www.w3.org/2000/svg">
<path d="M28.1038 20.3581L121.387 22.2976C126.529 22.4031 130.696 26.5327 130.841 31.6782L134.916 167.137C135.035 171.161 131.804 174.499 127.769 174.486L20.8116 174.209C17.027 174.196 13.9809 171.082 14.06 167.295L16.8951 31.1109C17.0402 25.0418 22.0511 20.2262 28.1038 20.3581Z" fill="#00827A"/>
<path d="M36.5038 172.243L24.5302 171.834C20.5215 171.702 17.3171 168.325 17.4094 164.301L17.7786 146.225C17.7786 146.067 17.9105 145.948 18.0688 145.948C18.227 145.948 18.3457 146.08 18.3457 146.238L17.9764 164.314C17.8973 168.021 20.8511 171.148 24.5566 171.267L36.5169 171.676C36.6752 171.676 36.7939 171.808 36.7939 171.966C36.7807 172.124 36.662 172.243 36.5038 172.243Z" fill="url(#paint0_linear)"/>
<path d="M18.1875 140.922C18.1875 140.922 18.1743 140.922 18.1875 140.922C18.0293 140.922 17.8974 140.79 17.9106 140.631L17.9765 137.702C17.9765 137.544 18.1084 137.425 18.2666 137.425C18.4249 137.425 18.5435 137.557 18.5435 137.716L18.4776 140.645C18.4644 140.803 18.3326 140.922 18.1875 140.922Z" fill="url(#paint1_linear)"/>
<path d="M28.4203 19.263C41.1191 21.2553 84.8199 27.5091 121.083 25.4904C122.732 25.3981 124.143 26.6779 124.195 28.3403L128.587 164.406C128.652 166.266 127.189 167.836 125.329 167.902C110.072 168.483 47.2773 170.673 24.9522 167.863C23.594 167.691 22.5786 166.517 22.605 165.158L24.7281 22.3899C24.7676 20.4241 26.5083 18.9596 28.4203 19.263Z" fill="#03BAAF"/>
<path opacity="0.6" d="M29.7126 22.8124C41.9367 24.7254 83.9891 30.7549 118.894 28.8023C120.49 28.7099 121.835 29.9501 121.888 31.5465L126.121 162.48C126.173 164.274 124.776 165.778 122.982 165.844C108.305 166.412 47.8707 168.509 26.3896 165.805C25.0841 165.646 24.1083 164.512 24.1347 163.192L26.1786 25.7941C26.1918 23.9338 27.8665 22.5221 29.7126 22.8124Z" fill="white"/>
<g opacity="0.6">
<path opacity="0.6" d="M118.037 40.2804C118.327 40.2804 118.552 40.0562 118.538 39.7659L118.499 38.9347C118.486 38.6444 118.235 38.407 117.945 38.3938L38.0072 36.0981C37.7171 36.0849 37.6248 36.2696 37.7962 36.5071L39.1149 38.2354C39.2863 38.4597 39.6687 38.6576 39.9588 38.6708L118.037 40.2804Z" fill="white"/>
</g>
<g opacity="0.6">
<path opacity="0.6" d="M37.9148 41.3229C37.6247 41.3097 37.5324 41.4944 37.7038 41.7319L39.0225 43.4603C39.1939 43.6846 39.5763 43.8825 39.8664 43.8957L117.932 45.5185C118.222 45.5185 118.446 45.2942 118.433 45.0039L118.393 44.1727C118.38 43.8825 118.129 43.645 117.839 43.6318L37.9148 41.3229Z" fill="white"/>
</g>
<path d="M50.9564 89.1366C50.9432 89.1366 50.9433 89.1366 50.9301 89.1366L40.4335 89.163C38.917 89.163 37.6642 88.1339 37.506 86.7749L36.4774 77.9748C36.4115 77.447 36.5697 76.9325 36.9126 76.5103C37.295 76.0353 37.8884 75.7451 38.5214 75.6923C39.4049 75.6263 40.6313 75.5076 41.9631 75.3756C44.8774 75.0986 48.1872 74.7687 50.1389 74.7292C50.1521 74.7292 50.1652 74.7292 50.1784 74.7292C51.5762 74.716 52.7762 75.5472 53.1191 76.7742C53.6861 78.7928 53.6861 82.6321 53.6333 86.709C53.6202 88.0151 52.4202 89.1102 50.9564 89.1366ZM38.6005 76.5235C38.1917 76.5499 37.8225 76.7478 37.5851 77.038C37.3873 77.2755 37.295 77.5658 37.3346 77.856L38.3631 86.6562C38.4686 87.5929 39.3653 88.2922 40.4466 88.2922L50.9433 88.2658C50.9564 88.2658 50.9564 88.2658 50.9696 88.2658C51.9718 88.2526 52.8026 87.5402 52.8026 86.6562C52.8553 82.6453 52.8685 78.872 52.3279 76.9589C52.0905 76.1145 51.1674 75.4944 50.1784 75.5472C48.2664 75.5867 44.8246 75.9298 42.0686 76.1937C40.7104 76.3388 39.484 76.4575 38.6005 76.5235Z" fill="white"/>
<path opacity="0.6" d="M39.7345 77.394C41.9367 77.2225 46.7235 76.6684 49.0048 76.6156C49.9674 76.5892 50.8245 77.1697 51.0619 78.0009C51.5234 79.6238 51.4971 82.8562 51.4575 85.8379C51.4443 86.7351 50.6267 87.4607 49.6245 87.4607L41.2378 87.4739C40.2092 87.4739 39.3389 86.7879 39.2334 85.8643L38.4158 78.8321C38.3235 78.1197 38.9169 77.46 39.7345 77.394Z" fill="white"/>
<g opacity="0.6">
<path opacity="0.6" d="M59.7387 79.8745C59.4486 79.8745 59.2772 80.0988 59.3563 80.3759L60.5168 84.5978C60.5959 84.8749 60.8992 85.0992 61.1893 85.0992L114.727 84.4791C115.017 84.4791 115.242 84.2416 115.242 83.9513L115.149 81.0883C115.136 80.7981 114.899 80.5606 114.609 80.5606L59.7387 79.8745Z" fill="white"/>
</g>
<path d="M40.1961 78.7794C40.9741 78.3176 41.9763 78.5683 42.4247 79.3599L44.5345 83.0541C44.7455 83.4235 45.2862 83.3971 45.4576 83.0013L50.4554 71.4965C50.7059 70.9292 51.5631 71.1007 51.5499 71.734C51.5367 75.2303 50.6927 81.8931 45.1675 87.5267C45.1675 87.5267 42.0686 86.3657 39.5236 80.9431C39.1807 80.1647 39.4577 79.2279 40.1961 78.7794Z" fill="#FF6F41"/>
<path d="M51.6553 65.5463C51.6421 65.5463 51.6421 65.5463 51.6289 65.5463L41.1323 65.5726C39.6158 65.5726 38.3631 64.5435 38.2049 63.1846L37.1763 54.3845C37.1104 53.8567 37.2686 53.3422 37.6115 52.92C37.9939 52.445 38.5873 52.1547 39.2202 52.102C40.1037 52.036 41.3301 51.9173 42.662 51.7853C45.5762 51.5083 48.8861 51.1784 50.8377 51.1388C50.8509 51.1388 50.8641 51.1388 50.8773 51.1388C52.2751 51.1256 53.4751 51.9568 53.8179 53.1838C54.3849 55.2025 54.3849 59.0418 54.3322 63.1186C54.3322 64.438 53.1322 65.5331 51.6553 65.5463ZM39.2994 52.9464C38.8906 52.9727 38.5213 53.1706 38.284 53.4609C38.0862 53.6984 37.9939 53.9886 38.0334 54.2789L39.062 63.079C39.1675 64.0158 40.0642 64.7151 41.1455 64.7151L51.6421 64.6887C51.6553 64.6887 51.6553 64.6887 51.6685 64.6887C52.6707 64.6755 53.5014 63.963 53.5014 63.079C53.5542 59.0682 53.5674 55.2948 53.0267 53.3817C52.7894 52.5373 51.8663 51.9173 50.8773 51.97C48.9652 52.0096 45.5235 52.3526 42.7675 52.6165C41.4092 52.7484 40.1829 52.8672 39.2994 52.9464Z" fill="white"/>
<path opacity="0.6" d="M40.4334 53.8171C42.6355 53.6456 47.4223 53.0915 49.7036 53.0387C50.6662 53.0123 51.5234 53.5928 51.7607 54.424C52.2223 56.0468 52.1959 59.2793 52.1563 62.261C52.1431 63.1582 51.3256 63.8839 50.3234 63.8839L41.9366 63.897C40.9081 63.897 40.0378 63.211 39.9323 62.2874L39.1147 55.2552C39.0224 54.5296 39.6158 53.8831 40.4334 53.8171Z" fill="white"/>
<g opacity="0.6">
<path opacity="0.6" d="M60.4377 56.2847C60.1476 56.2847 59.9762 56.509 60.0553 56.786L61.2157 61.008C61.2949 61.285 61.5982 61.5093 61.8883 61.5093L115.426 60.8892C115.716 60.8892 115.941 60.6518 115.941 60.3615L115.848 57.4985C115.835 57.2082 115.598 56.9707 115.308 56.9707L60.4377 56.2847Z" fill="white"/>
</g>
<path d="M40.895 55.1893C41.673 54.7275 42.6752 54.9782 43.1235 55.7698L45.2334 59.464C45.4444 59.8334 45.985 59.807 46.1565 59.4112L51.1542 47.9064C51.4048 47.3391 52.2619 47.5106 52.2487 48.1439C52.2355 51.6402 51.3916 58.303 45.8664 63.9366C45.8664 63.9366 42.7675 62.7756 40.2224 57.353C39.8796 56.5746 40.1565 55.6379 40.895 55.1893Z" fill="#FF6F41"/>
<path d="M51.2202 111.645C51.207 111.645 51.207 111.645 51.1939 111.645L40.6972 111.671C39.1808 111.671 37.928 110.642 37.7698 109.283L36.7412 100.483C36.6753 99.9553 36.8335 99.4408 37.1764 99.0186C37.5588 98.5436 38.1522 98.2534 38.7852 98.2006C39.6687 98.1346 40.8951 98.0159 42.2269 97.8839C45.1412 97.6069 48.451 97.277 50.4027 97.2375C50.4158 97.2375 50.429 97.2375 50.4422 97.2375C51.84 97.2243 53.04 98.0555 53.3829 99.2825C53.9499 101.301 53.9499 105.14 53.8971 109.217C53.8839 110.537 52.684 111.632 51.2202 111.645ZM38.8511 99.045C38.4423 99.0714 38.0731 99.2693 37.8357 99.5595C37.6379 99.797 37.5456 100.087 37.5852 100.378L38.6137 109.178C38.7192 110.114 39.6159 110.814 40.6972 110.814L51.1939 110.787C51.207 110.787 51.207 110.787 51.2202 110.787C52.2224 110.774 53.0532 110.062 53.0532 109.178C53.1059 105.167 53.1191 101.393 52.5785 99.4936C52.3411 98.6492 51.418 98.0423 50.429 98.0687C48.517 98.1082 45.0752 98.4513 42.3192 98.7151C40.9742 98.8471 39.7478 98.9658 38.8511 99.045Z" fill="white"/>
<path opacity="0.6" d="M39.9982 99.9158C42.2004 99.7442 46.9872 99.2033 49.2685 99.1373C50.2311 99.111 51.0882 99.6915 51.3256 100.523C51.7871 102.145 51.7607 105.378 51.7212 108.36C51.708 109.257 50.8904 109.982 49.8882 109.982L41.5015 109.996C40.4729 109.996 39.6026 109.31 39.4971 108.386L38.6795 101.354C38.574 100.628 39.1806 99.9817 39.9982 99.9158Z" fill="white"/>
<g opacity="0.6">
<path opacity="0.6" d="M59.9893 102.383C59.6992 102.383 59.5278 102.607 59.6069 102.884L60.7674 107.106C60.8465 107.383 61.1498 107.607 61.4399 107.607L114.978 106.987C115.268 106.987 115.492 106.75 115.492 106.46L115.4 103.597C115.387 103.306 115.149 103.069 114.859 103.069L59.9893 102.383Z" fill="white"/>
</g>
<path d="M40.4598 101.288C41.2378 100.826 42.24 101.077 42.6883 101.868L44.7982 105.563C45.0092 105.932 45.5498 105.906 45.7213 105.51L50.719 94.005C50.9696 93.4377 51.8267 93.6092 51.8135 94.2425C51.8003 97.7388 50.9564 104.402 45.4312 110.035C45.4312 110.035 42.3323 108.874 39.8004 103.452C39.4312 102.673 39.7213 101.736 40.4598 101.288Z" fill="#FF6F41"/>
<path d="M50.4817 133.282C50.4685 133.282 50.4685 133.282 50.4553 133.282L39.9587 133.309C38.4422 133.309 37.1895 132.28 37.0313 130.921L36.0027 122.121C35.9368 121.593 36.095 121.078 36.4379 120.656C36.8203 120.181 37.4137 119.891 38.0466 119.838C38.9302 119.772 40.1433 119.653 41.4884 119.521C44.2708 119.257 47.7257 118.914 49.6641 118.875C51.0487 118.848 52.3015 119.68 52.6575 120.92C53.2245 122.939 53.2245 126.778 53.1718 130.855C53.1586 132.161 51.9454 133.256 50.4817 133.282ZM38.1258 120.669C37.717 120.696 37.3477 120.894 37.1104 121.184C36.9126 121.421 36.8203 121.712 36.8598 122.002L37.8884 130.802C37.9939 131.739 38.8906 132.438 39.9719 132.438L50.4685 132.412C51.4575 132.385 52.3147 131.686 52.3278 130.802C52.3806 126.791 52.3938 123.018 51.8531 121.105C51.6158 120.26 50.6927 119.666 49.7037 119.693C47.7916 119.732 44.3499 120.075 41.5939 120.339C40.2356 120.484 39.0093 120.603 38.1258 120.669Z" fill="white"/>
<path opacity="0.6" d="M39.2598 121.54C41.462 121.369 46.2487 120.828 48.53 120.762C49.4927 120.735 50.3498 121.316 50.5871 122.147C51.0487 123.77 51.0223 127.002 50.9828 129.984C50.9696 130.881 50.152 131.607 49.1498 131.607L40.7631 131.62C39.7345 131.62 38.8642 130.934 38.7587 130.01L37.9411 122.978C37.8488 122.266 38.4422 121.606 39.2598 121.54Z" fill="white"/>
<g opacity="0.6">
<path opacity="0.6" d="M59.264 124.021C58.9739 124.021 58.8025 124.245 58.8816 124.522L60.042 128.744C60.1211 129.021 60.4244 129.245 60.7145 129.245L114.253 128.625C114.543 128.625 114.767 128.388 114.767 128.097L114.675 125.234C114.661 124.944 114.424 124.707 114.134 124.707L59.264 124.021Z" fill="white"/>
</g>
<path d="M39.7214 122.926C40.4994 122.464 41.5016 122.714 41.9499 123.506L44.0598 127.2C44.2708 127.57 44.8114 127.543 44.9829 127.148L49.9806 115.643C50.2312 115.075 51.0883 115.247 51.0751 115.88C51.0619 119.377 50.218 126.039 44.6928 131.673C44.6928 131.673 41.5939 130.512 39.0489 125.089C38.706 124.311 38.9829 123.374 39.7214 122.926Z" fill="#FF6F41"/>
<path d="M49.5586 155.58C49.5454 155.58 49.5454 155.58 49.5322 155.58L39.0356 155.606C37.5192 155.606 36.2664 154.577 36.1082 153.218L35.0796 144.418C35.0137 143.89 35.1719 143.375 35.5148 142.953C35.8972 142.478 36.4906 142.188 37.1236 142.135C38.0071 142.069 39.2334 141.951 40.5653 141.819C43.4795 141.542 46.7894 141.212 48.741 141.172C50.1652 141.172 51.3784 141.977 51.7344 143.217C52.3014 145.236 52.3015 149.075 52.2487 153.152C52.2223 154.471 51.0223 155.566 49.5586 155.58ZM37.1895 142.98C36.7807 143.006 36.4115 143.204 36.1741 143.494C35.9763 143.732 35.884 144.022 35.9236 144.312L36.9521 153.112C37.0576 154.049 37.9543 154.748 39.0356 154.748L49.5322 154.722C49.5454 154.722 49.5454 154.722 49.5586 154.722C50.5608 154.709 51.3916 153.996 51.3916 153.112C51.4443 149.101 51.4575 145.328 50.9168 143.415C50.6795 142.571 49.7564 141.977 48.7674 142.003C46.8553 142.043 43.4136 142.386 40.6576 142.65C39.2994 142.795 38.073 142.914 37.1895 142.98Z" fill="white"/>
<path opacity="0.6" d="M38.3235 143.851C40.5257 143.679 45.3125 143.138 47.5938 143.072C48.5564 143.046 49.4135 143.626 49.6509 144.457C50.1124 146.08 50.086 149.313 50.0465 152.295C50.0333 153.192 49.2157 153.917 48.2135 153.917L39.8268 153.931C38.7982 153.931 37.9279 153.244 37.8224 152.321L37.0048 145.289C36.9125 144.576 37.5059 143.917 38.3235 143.851Z" fill="white"/>
<g opacity="0.6">
<path opacity="0.6" d="M58.3277 146.331C58.0376 146.331 57.8662 146.555 57.9453 146.832L59.1058 151.054C59.1849 151.331 59.4882 151.556 59.7783 151.556L113.316 150.936C113.606 150.936 113.831 150.698 113.831 150.408L113.738 147.545C113.725 147.255 113.488 147.017 113.198 147.017L58.3277 146.331Z" fill="white"/>
</g>
<path d="M38.7851 145.236C39.5631 144.774 40.5653 145.025 41.0137 145.816L43.1235 149.511C43.3345 149.88 43.8752 149.854 44.0466 149.458L49.0443 137.953C49.2949 137.386 50.152 137.557 50.1388 138.191C50.1256 141.687 49.2817 148.35 43.7565 153.983C43.7565 153.983 40.6576 152.822 38.1126 147.4C37.7697 146.621 38.0466 145.671 38.7851 145.236Z" fill="#FF6F41"/>
<path d="M80.9166 2.99536C77.5935 0.580929 74.666 0.567736 72.5957 1.13506C70.6968 1.64961 69.4441 3.44394 69.5892 5.39659L70.2749 15.1335L80.8374 16.2945C80.8242 16.2945 87.4308 7.73186 80.9166 2.99536ZM76.1034 10.7268C74.6397 10.7004 73.4924 9.48661 73.5188 8.03532C73.5452 6.57083 74.7583 5.42298 76.2089 5.44937C77.6726 5.47576 78.8198 6.68957 78.7935 8.14086C78.7671 9.60535 77.5539 10.7664 76.1034 10.7268Z" fill="#00827A"/>
<path d="M71.2244 11.2942C71.0398 11.2282 70.9079 11.0567 70.8947 10.8456L70.7892 9.30192C70.7628 9.01166 70.987 8.76098 71.2771 8.74779C71.5672 8.7214 71.8178 8.94569 71.831 9.23595L71.9365 10.7796C71.9628 11.0699 71.7387 11.3205 71.4485 11.3337C71.3694 11.3337 71.2903 11.3205 71.2244 11.2942ZM71.0134 8.25962C70.8288 8.19366 70.6969 8.02214 70.6837 7.81104L70.6046 6.63681C70.4595 4.64458 71.7518 2.82386 73.6771 2.29611C74.9958 1.93989 76.3408 1.9135 77.6727 2.21695C77.9496 2.28292 78.1342 2.55999 78.0683 2.85024C78.0023 3.12731 77.7254 3.31202 77.4353 3.24605C76.2617 2.98218 75.0881 3.00857 73.9408 3.31202C72.5035 3.70783 71.5409 5.06677 71.6463 6.57084L71.7255 7.74507C71.7518 8.03533 71.5277 8.28601 71.2376 8.29921C71.1584 8.29921 71.0793 8.28601 71.0134 8.25962Z" fill="url(#paint2_linear)"/>
<path d="M55.6904 21.1101L55.7959 16.2285C55.8355 14.5397 57.2596 13.2203 58.9344 13.3127L92.5604 15.1598C94.0505 15.2389 95.2374 16.4528 95.2901 17.9436L95.4747 22.6405L55.6904 21.1101Z" fill="#00827A"/>
<path d="M68.3629 15.3708L66.9124 15.3444C66.7542 15.3444 66.6355 15.2125 66.6355 15.0542C66.6355 14.8958 66.7674 14.7771 66.9124 14.7771L68.3629 14.8035C68.5212 14.8035 68.6399 14.9354 68.6399 15.0937C68.6531 15.2521 68.5212 15.3708 68.3629 15.3708Z" fill="url(#paint3_linear)"/>
<path d="M57.365 19.8437C57.1672 19.7645 57.0222 19.5666 57.0354 19.3423L57.0749 17.3633C57.0881 16.5585 57.4178 15.7932 58.0112 15.2391C58.5914 14.6718 59.3694 14.3815 60.1738 14.3947L65.488 14.5003C65.7782 14.5135 66.0023 14.7509 66.0023 15.0412C66.0023 15.3315 65.7518 15.5558 65.4617 15.5558L60.1474 15.4502C59.0529 15.4238 58.1431 16.2946 58.1167 17.4029L58.0771 19.3819C58.0771 19.6722 57.8266 19.8965 57.5365 19.8965C57.4705 19.8833 57.4178 19.8701 57.365 19.8437Z" fill="url(#paint4_linear)"/>
<path d="M45.1807 19.1046L104.033 20.3316C106.143 20.3712 107.923 21.9413 108.24 24.0259L108.279 24.3161C108.622 26.6118 106.829 28.6568 104.508 28.6172L44.139 27.3507C42.7544 27.3243 41.6731 26.1368 41.7654 24.7515L41.95 22.0468C42.0687 20.358 43.4928 19.0651 45.1807 19.1046Z" fill="#00827A"/>
<path d="M6.67896 152.882L6.32562 152.216C6.28485 152.135 6.31203 152.026 6.39357 151.985C6.47511 151.944 6.58383 151.971 6.6246 152.053V152.067L6.97795 152.719C7.01872 152.801 6.99154 152.91 6.91 152.95C6.81486 152.991 6.71973 152.964 6.67896 152.882Z" fill="#7D97F4"/>
<path d="M5.61894 150.584L5.38791 149.864C5.36072 149.769 5.40149 149.673 5.49662 149.646C5.59175 149.619 5.68689 149.66 5.71407 149.755V149.769L5.9451 150.476V150.489C5.97228 150.584 5.93151 150.68 5.83638 150.707C5.74125 150.72 5.64612 150.666 5.61894 150.584Z" fill="#7D97F4"/>
<path d="M5.0074 148.123C4.98022 147.865 4.95304 147.62 4.93945 147.362C4.93945 147.267 5.0074 147.185 5.10253 147.172C5.19766 147.172 5.2792 147.24 5.29279 147.335C5.30638 147.58 5.33356 147.824 5.36074 148.069C5.37433 148.164 5.30638 148.246 5.21125 148.259C5.10253 148.273 5.02099 148.219 5.0074 148.123Z" fill="#7D97F4"/>
<path d="M4.98013 145.567C5.00731 145.309 5.04808 145.064 5.10244 144.806C5.11603 144.711 5.21116 144.656 5.30629 144.67C5.40142 144.683 5.45578 144.779 5.44219 144.874C5.38783 145.118 5.36065 145.363 5.31988 145.608C5.30629 145.703 5.22475 145.771 5.12962 145.758C5.03449 145.758 4.96653 145.676 4.98013 145.567Z" fill="#7D97F4"/>
<path d="M5.60543 143.106C5.70056 142.875 5.80928 142.63 5.918 142.413C5.95877 142.331 6.0675 142.29 6.14904 142.331C6.23058 142.372 6.27135 142.481 6.23058 142.562C6.12186 142.78 6.02673 143.011 5.93159 143.242C5.89082 143.337 5.79569 143.378 5.70056 143.337C5.61902 143.297 5.57825 143.201 5.60543 143.106Z" fill="#7D97F4"/>
<path d="M6.8284 140.876L7.29047 140.264C7.34483 140.183 7.46714 140.169 7.53509 140.223C7.61663 140.278 7.63022 140.4 7.57586 140.468V140.482L7.12738 141.08V141.094C7.07302 141.175 6.9643 141.189 6.88276 141.134C6.77404 141.066 6.76045 140.958 6.8284 140.876Z" fill="#7D97F4"/>
<path d="M8.47278 138.945L9.02997 138.429C9.09792 138.361 9.22024 138.361 9.28819 138.442C9.35614 138.51 9.35614 138.633 9.2746 138.701L8.73099 139.204C8.66304 139.272 8.54073 139.272 8.47278 139.19C8.39124 139.122 8.39124 139.013 8.47278 138.945Z" fill="#7D97F4"/>
<path d="M10.4027 137.313L11.0279 136.878C11.1094 136.824 11.2181 136.838 11.2861 136.919C11.3405 137.001 11.3269 137.109 11.2453 137.177L10.6338 137.599C10.5522 137.653 10.4435 137.64 10.3891 137.558C10.3076 137.49 10.3212 137.368 10.4027 137.313Z" fill="#7D97F4"/>
<path d="M12.5363 135.954L13.2022 135.6C13.2974 135.546 13.4061 135.587 13.4469 135.668C13.5012 135.764 13.4604 135.872 13.3789 135.913L12.7266 136.267C12.6315 136.321 12.5227 136.28 12.482 136.199C12.414 136.117 12.4412 136.008 12.5363 135.954Z" fill="#7D97F4"/>
<path d="M14.7923 134.839L15.4854 134.54C15.5805 134.499 15.6892 134.54 15.73 134.635C15.7708 134.73 15.73 134.839 15.6349 134.88L14.9418 135.165C14.8466 135.206 14.7379 135.165 14.6971 135.07C14.6564 134.988 14.6971 134.88 14.7923 134.839Z" fill="#7D97F4"/>
<path d="M17.1434 133.915L17.8637 133.67C17.9588 133.643 18.0675 133.683 18.0947 133.792C18.1219 133.887 18.0811 133.996 17.9724 134.023L17.2657 134.254C17.1706 134.282 17.0619 134.241 17.0347 134.132C16.9939 134.05 17.0483 133.942 17.1434 133.915Z" fill="#7D97F4"/>
<path d="M19.5488 133.167L20.2827 132.976C20.3778 132.949 20.4865 133.017 20.5137 133.112C20.5409 133.207 20.4865 133.316 20.3778 133.343L19.6575 133.534C19.5624 133.561 19.4537 133.493 19.4265 133.398C19.3857 133.303 19.4401 133.194 19.5488 133.167Z" fill="#7D97F4"/>
<path d="M21.9951 132.595L22.7426 132.446C22.8513 132.432 22.9464 132.486 22.96 132.595C22.9736 132.704 22.9192 132.799 22.8105 132.813L22.0767 132.949C21.9679 132.962 21.8728 132.908 21.8592 132.799C21.832 132.718 21.8864 132.609 21.9951 132.595Z" fill="#7D97F4"/>
<path d="M24.4685 132.16L25.216 132.052C25.3247 132.038 25.4198 132.106 25.4334 132.215C25.447 132.323 25.3791 132.419 25.2703 132.432L24.5229 132.527C24.4142 132.541 24.319 132.473 24.3054 132.364C24.2919 132.269 24.3734 132.174 24.4685 132.16Z" fill="#7D97F4"/>
<path d="M26.969 131.861L27.7165 131.793C27.8252 131.78 27.9203 131.861 27.9203 131.97C27.9339 132.079 27.8524 132.174 27.7437 132.174L26.9962 132.228C26.8875 132.242 26.7924 132.16 26.7924 132.052C26.7924 131.97 26.8603 131.875 26.969 131.861Z" fill="#7D97F4"/>
<path d="M29.4832 131.698L30.2307 131.671C30.3394 131.671 30.421 131.752 30.4346 131.861C30.4346 131.97 30.353 132.051 30.2443 132.065L29.4968 132.092C29.3881 132.092 29.3066 132.011 29.293 131.902C29.293 131.793 29.3745 131.711 29.4832 131.698Z" fill="#7D97F4"/>
<path d="M31.9974 131.671L32.7584 131.684C32.8671 131.684 32.9487 131.779 32.9487 131.888C32.9487 131.997 32.8535 132.079 32.7448 132.079L31.9974 132.065C31.8887 132.065 31.8071 131.97 31.8071 131.861C31.8071 131.752 31.8887 131.671 31.9974 131.671Z" fill="#7D97F4"/>
<path d="M34.5115 131.752L35.2589 131.807C35.3677 131.82 35.4492 131.902 35.4356 132.011C35.422 132.12 35.3405 132.201 35.2318 132.188L34.4843 132.133C34.3756 132.12 34.294 132.038 34.3076 131.929C34.3076 131.834 34.4028 131.752 34.5115 131.752Z" fill="#7D97F4"/>
<path d="M37.0121 131.956L37.7596 132.038C37.8683 132.052 37.9498 132.147 37.9363 132.255C37.9227 132.364 37.8275 132.446 37.7188 132.432L36.9714 132.351C36.8627 132.337 36.7811 132.242 36.7947 132.133C36.8083 132.024 36.9034 131.943 37.0121 131.956Z" fill="#7D97F4"/>
<path d="M39.5127 132.242L40.2602 132.337C40.3689 132.35 40.4505 132.446 40.4369 132.554C40.4233 132.663 40.3281 132.745 40.2194 132.731L39.472 132.636C39.3633 132.622 39.2817 132.527 39.2953 132.418C39.2953 132.296 39.404 132.228 39.5127 132.242Z" fill="#7D97F4"/>
<path d="M41.9998 132.582L42.7473 132.704C42.856 132.718 42.9375 132.827 42.9104 132.935C42.8968 133.044 42.7881 133.126 42.6793 133.098L41.9319 132.976C41.8232 132.963 41.7416 132.854 41.7688 132.745C41.7824 132.65 41.8911 132.568 41.9998 132.582Z" fill="#7D97F4"/>
<path d="M44.4732 132.99L45.2206 133.126C45.3294 133.139 45.3973 133.248 45.3837 133.357C45.3701 133.466 45.2614 133.534 45.1527 133.52L44.4188 133.384C44.3101 133.37 44.2422 133.262 44.2558 133.153C44.2558 133.044 44.3645 132.976 44.4732 132.99Z" fill="#7D97F4"/>
<path d="M46.9467 133.465L47.6805 133.615C47.7892 133.642 47.8572 133.751 47.8436 133.86C47.8164 133.969 47.7077 134.036 47.599 134.023L46.8651 133.873C46.7564 133.846 46.6885 133.737 46.702 133.629C46.7292 133.506 46.8243 133.438 46.9467 133.465Z" fill="#7D97F4"/>
<path d="M49.3927 133.982L50.1266 134.145C50.2353 134.173 50.3032 134.281 50.2761 134.39C50.2489 134.499 50.1402 134.567 50.0314 134.54L49.2976 134.377C49.1889 134.349 49.1209 134.241 49.1481 134.132C49.1753 134.037 49.284 133.969 49.3927 133.982Z" fill="#7D97F4"/>
<path d="M51.839 134.567L52.5729 134.744C52.6816 134.771 52.7495 134.88 52.7224 134.988C52.6952 135.097 52.5865 135.165 52.4777 135.138L51.7439 134.948C51.6351 134.92 51.5672 134.812 51.5944 134.703C51.6216 134.608 51.7303 134.54 51.839 134.567Z" fill="#7D97F4"/>
<path d="M54.2717 135.193L54.9919 135.396C55.1007 135.424 55.1686 135.546 55.1414 135.655C55.1142 135.764 54.9919 135.832 54.8832 135.804L54.1629 135.6C54.0542 135.573 53.9863 135.451 54.0134 135.342C54.0406 135.233 54.1629 135.165 54.2717 135.193Z" fill="#7D97F4"/>
<path d="M56.6907 135.872L57.411 136.09C57.5197 136.117 57.5877 136.24 57.5469 136.348C57.5197 136.457 57.3974 136.525 57.2887 136.484L56.5684 136.267C56.4597 136.24 56.3917 136.117 56.4325 136.008C56.4597 135.9 56.5684 135.845 56.6907 135.872Z" fill="#7D97F4"/>
<path d="M59.0825 136.593L59.8028 136.824C59.9115 136.865 59.9795 136.974 59.9387 137.082C59.8979 137.191 59.7892 137.259 59.6805 137.218L58.9602 136.987C58.8515 136.946 58.7836 136.838 58.8243 136.729C58.8651 136.62 58.9738 136.566 59.0825 136.593Z" fill="#7D97F4"/>
<path d="M61.4744 137.354L62.1947 137.585C62.3034 137.626 62.3714 137.735 62.3306 137.857C62.2898 137.966 62.1811 138.034 62.0588 137.993L61.3521 137.762C61.2434 137.721 61.1754 137.613 61.2162 137.49C61.2434 137.382 61.3657 137.327 61.4744 137.354Z" fill="#7D97F4"/>
<path d="M63.8527 138.157L64.5594 138.401C64.6681 138.442 64.7225 138.564 64.6953 138.673C64.6545 138.782 64.5322 138.836 64.4235 138.809L63.7168 138.565C63.6081 138.524 63.5537 138.401 63.5809 138.293C63.6217 138.184 63.744 138.129 63.8527 138.157Z" fill="#7D97F4"/>
<path d="M66.2175 139L66.9241 139.258C67.0329 139.299 67.0872 139.421 67.0465 139.53C67.0057 139.639 66.8834 139.693 66.7747 139.653L66.068 139.394C65.9593 139.353 65.9049 139.231 65.9457 139.122C65.9864 139.013 66.1087 138.959 66.2175 139Z" fill="#7D97F4"/>
<path d="M68.5684 139.87L69.2751 140.142C69.3838 140.182 69.4382 140.305 69.3974 140.414C69.3566 140.522 69.2343 140.577 69.1256 140.536L68.4189 140.264C68.3102 140.223 68.2558 140.101 68.2966 139.992C68.3374 139.883 68.4597 139.829 68.5684 139.87Z" fill="#7D97F4"/>
<path d="M70.9059 140.781L71.6126 141.053C71.7213 141.094 71.7757 141.216 71.7349 141.338C71.6942 141.447 71.5718 141.501 71.4495 141.461L70.7565 141.189C70.6477 141.148 70.5934 141.026 70.6341 140.903C70.6749 140.781 70.7972 140.726 70.9059 140.781Z" fill="#7D97F4"/>
<path d="M73.2435 141.705L73.9366 141.991C74.0453 142.032 74.0997 142.168 74.0589 142.277C74.0181 142.385 73.8822 142.44 73.7735 142.399L73.0804 142.113C72.9717 142.073 72.9173 141.937 72.9581 141.828C72.9989 141.719 73.1348 141.665 73.2435 141.705Z" fill="#7D97F4"/>
<path d="M75.5675 142.657L76.2606 142.943C76.3693 142.984 76.4237 143.12 76.3829 143.228C76.3421 143.337 76.2062 143.392 76.0975 143.351L75.4044 143.065C75.2957 143.024 75.2413 142.888 75.2821 142.78C75.3229 142.671 75.4452 142.617 75.5675 142.657Z" fill="#7D97F4"/>
<path d="M77.8642 143.636L78.5572 143.936C78.666 143.99 78.7203 144.112 78.666 144.221C78.6116 144.33 78.4893 144.384 78.3806 144.33L77.6875 144.031C77.5788 143.976 77.5244 143.854 77.5652 143.745C77.6331 143.636 77.7554 143.596 77.8642 143.636Z" fill="#7D97F4"/>
<path d="M80.1745 144.629L80.8676 144.928C80.9763 144.983 81.0306 145.105 80.9763 145.214C80.9219 145.323 80.7996 145.377 80.6909 145.322L79.9978 145.023C79.8891 144.969 79.8348 144.847 79.8891 144.738C79.9299 144.629 80.0658 144.588 80.1745 144.629Z" fill="#7D97F4"/>
<path d="M82.4713 145.649L83.1644 145.962C83.2731 146.016 83.3274 146.139 83.2731 146.261C83.2187 146.37 83.0964 146.424 82.9741 146.37L82.2946 146.057C82.1859 146.003 82.1315 145.88 82.1859 145.758C82.2266 145.649 82.349 145.595 82.4713 145.649Z" fill="#7D97F4"/>
<path d="M84.7544 146.669L85.4339 146.981C85.5426 147.036 85.597 147.158 85.5426 147.28C85.4883 147.389 85.3659 147.444 85.2436 147.389L84.5641 147.076C84.4554 147.022 84.401 146.9 84.4554 146.777C84.5098 146.669 84.6457 146.614 84.7544 146.669Z" fill="#7D97F4"/>
<path d="M87.0375 147.702L87.717 148.015C87.8257 148.069 87.8801 148.205 87.8257 148.314C87.7713 148.423 87.6354 148.477 87.5267 148.423L86.8472 148.11C86.7385 148.056 86.6841 147.92 86.7385 147.811C86.7928 147.702 86.9288 147.661 87.0375 147.702Z" fill="#7D97F4"/>
<path d="M89.3205 148.749L90.0001 149.062C90.1088 149.116 90.1631 149.252 90.1088 149.361C90.0544 149.469 89.9185 149.524 89.8098 149.469L89.1303 149.157C89.0216 149.102 88.9672 148.966 89.0216 148.858C89.0623 148.749 89.1982 148.694 89.3205 148.749Z" fill="#7D97F4"/>
<path d="M91.5902 149.81L92.2697 150.122C92.3784 150.177 92.4328 150.313 92.3784 150.421C92.3241 150.53 92.1882 150.585 92.0795 150.53L91.4 150.217C91.2912 150.163 91.2369 150.027 91.2912 149.918C91.3456 149.796 91.4815 149.755 91.5902 149.81Z" fill="#7D97F4"/>
<path d="M93.8597 150.857L94.5392 151.169C94.648 151.224 94.7023 151.36 94.648 151.468C94.5936 151.577 94.4577 151.632 94.349 151.577L93.6695 151.264C93.5607 151.21 93.5064 151.074 93.5608 150.965C93.6151 150.857 93.751 150.802 93.8597 150.857Z" fill="#7D97F4"/>
<path d="M96.1428 151.903L96.8223 152.216C96.9311 152.271 96.9854 152.407 96.9311 152.515C96.8767 152.624 96.7408 152.678 96.6321 152.624L95.9526 152.311C95.8438 152.257 95.7895 152.121 95.8438 152.012C95.8846 151.903 96.0205 151.849 96.1428 151.903Z" fill="#7D97F4"/>
<path d="M98.4125 152.951L99.092 153.263C99.2143 153.318 99.2551 153.454 99.2007 153.576C99.1464 153.698 99.0104 153.739 98.8881 153.685L98.2086 153.372C98.0863 153.318 98.0456 153.182 98.0999 153.059C98.1679 152.951 98.3038 152.896 98.4125 152.951Z" fill="#7D97F4"/>
<path d="M100.696 153.998L101.375 154.31C101.497 154.365 101.538 154.501 101.497 154.623C101.443 154.746 101.307 154.786 101.185 154.746L100.505 154.433C100.383 154.378 100.342 154.242 100.383 154.12C100.437 153.984 100.573 153.943 100.696 153.998Z" fill="#7D97F4"/>
<path d="M102.979 155.017L103.658 155.33C103.781 155.385 103.835 155.521 103.781 155.643C103.726 155.765 103.59 155.82 103.468 155.765L102.775 155.453C102.653 155.398 102.598 155.262 102.653 155.14C102.72 155.017 102.856 154.963 102.979 155.017Z" fill="#7D97F4"/>
<path d="M105.262 156.037L105.955 156.336C106.077 156.39 106.132 156.526 106.077 156.649C106.023 156.771 105.887 156.826 105.765 156.771L105.072 156.472C104.949 156.418 104.895 156.282 104.949 156.159C105.004 156.037 105.153 155.983 105.262 156.037Z" fill="#7D97F4"/>
<path d="M107.559 157.03L108.252 157.329C108.374 157.383 108.428 157.519 108.374 157.642C108.32 157.764 108.184 157.818 108.061 157.764L107.368 157.465C107.246 157.41 107.192 157.274 107.246 157.152C107.3 157.043 107.436 156.989 107.559 157.03Z" fill="#7D97F4"/>
<path d="M109.869 158.022L110.562 158.308C110.684 158.362 110.739 158.498 110.684 158.62C110.63 158.743 110.494 158.797 110.372 158.743L109.679 158.457C109.556 158.403 109.502 158.267 109.556 158.144C109.611 158.022 109.747 157.968 109.869 158.022Z" fill="#7D97F4"/>
<path d="M112.179 158.974L112.872 159.26C112.995 159.314 113.049 159.45 113.008 159.572C112.954 159.695 112.818 159.749 112.696 159.708L112.003 159.423C111.88 159.368 111.826 159.232 111.867 159.11C111.921 158.988 112.057 158.933 112.179 158.974Z" fill="#7D97F4"/>
<path d="M114.503 159.912L115.196 160.184C115.319 160.238 115.387 160.374 115.332 160.497C115.278 160.619 115.142 160.687 115.02 160.633L114.327 160.361C114.204 160.306 114.15 160.17 114.191 160.048C114.231 159.926 114.381 159.871 114.503 159.912Z" fill="#7D97F4"/>
<path d="M116.827 160.823L117.534 161.095C117.656 161.136 117.724 161.286 117.67 161.408C117.629 161.53 117.479 161.598 117.357 161.544L116.65 161.272C116.528 161.231 116.46 161.082 116.515 160.959C116.569 160.837 116.705 160.782 116.827 160.823Z" fill="#7D97F4"/>
<path d="M119.178 161.707L119.885 161.965C120.007 162.006 120.075 162.156 120.034 162.278C119.994 162.4 119.844 162.468 119.722 162.428L119.015 162.169C118.893 162.129 118.825 161.979 118.866 161.857C118.906 161.721 119.042 161.653 119.178 161.707Z" fill="#7D97F4"/>
<path d="M121.529 162.55L122.236 162.795C122.358 162.836 122.426 162.972 122.385 163.108C122.345 163.23 122.209 163.298 122.073 163.257L121.366 163.012C121.244 162.972 121.176 162.836 121.217 162.7C121.257 162.577 121.393 162.509 121.529 162.55Z" fill="#7D97F4"/>
<path d="M123.894 163.366L124.601 163.597C124.723 163.638 124.804 163.774 124.764 163.91C124.723 164.032 124.587 164.114 124.451 164.073L123.731 163.842C123.609 163.801 123.527 163.665 123.581 163.529C123.622 163.393 123.772 163.325 123.894 163.366Z" fill="#7D97F4"/>
<path d="M126.272 164.127L126.992 164.345C127.128 164.386 127.196 164.522 127.156 164.658C127.115 164.794 126.979 164.862 126.843 164.821L126.123 164.59C125.987 164.549 125.919 164.413 125.96 164.277C126 164.168 126.136 164.087 126.272 164.127Z" fill="#7D97F4"/>
<path d="M128.664 164.862L129.384 165.065C129.52 165.106 129.588 165.242 129.547 165.378C129.507 165.514 129.371 165.582 129.235 165.541L128.515 165.324C128.379 165.283 128.311 165.147 128.352 165.011C128.392 164.902 128.528 164.821 128.664 164.862Z" fill="#7D97F4"/>
<path d="M131.07 165.555L131.79 165.746C131.926 165.786 132.007 165.922 131.966 166.045C131.926 166.181 131.79 166.262 131.667 166.222L130.947 166.018C130.811 165.977 130.73 165.841 130.771 165.718C130.798 165.596 130.934 165.514 131.07 165.555Z" fill="#7D97F4"/>
<path d="M133.489 166.194L134.222 166.371C134.358 166.398 134.44 166.534 134.399 166.67C134.372 166.806 134.236 166.888 134.1 166.847L133.366 166.67C133.23 166.643 133.149 166.507 133.19 166.371C133.217 166.235 133.353 166.153 133.489 166.194Z" fill="#7D97F4"/>
<path d="M135.921 166.779L136.655 166.942C136.791 166.969 136.873 167.105 136.845 167.241C136.818 167.377 136.682 167.459 136.546 167.432L135.813 167.268C135.677 167.241 135.595 167.105 135.622 166.969C135.649 166.833 135.785 166.752 135.921 166.779Z" fill="#7D97F4"/>
<path d="M138.354 167.309L139.088 167.459C139.224 167.486 139.319 167.622 139.292 167.758C139.264 167.894 139.129 167.989 138.993 167.962L138.259 167.812C138.123 167.785 138.028 167.649 138.068 167.513C138.082 167.377 138.218 167.282 138.354 167.309Z" fill="#7D97F4"/>
<path d="M140.814 167.799L141.548 167.935C141.683 167.962 141.779 168.098 141.751 168.234C141.724 168.37 141.588 168.465 141.452 168.438L140.705 168.302C140.569 168.275 140.474 168.139 140.501 168.003C140.542 167.853 140.678 167.771 140.814 167.799Z" fill="#7D97F4"/>
<path d="M143.274 168.22L144.021 168.329C144.157 168.356 144.252 168.479 144.238 168.615C144.211 168.751 144.089 168.846 143.953 168.832L143.206 168.723C143.07 168.696 142.975 168.574 142.988 168.438C143.002 168.302 143.138 168.193 143.274 168.22Z" fill="#7D97F4"/>
<path d="M145.747 168.574L146.494 168.669C146.63 168.683 146.739 168.819 146.712 168.954C146.698 169.09 146.562 169.199 146.426 169.172L145.679 169.077C145.543 169.063 145.434 168.927 145.461 168.791C145.475 168.655 145.611 168.547 145.747 168.574Z" fill="#7D97F4"/>
<path d="M148.234 168.859L148.981 168.927C149.117 168.941 149.226 169.063 149.212 169.213C149.199 169.349 149.076 169.457 148.927 169.444L148.18 169.376C148.044 169.362 147.935 169.24 147.949 169.09C147.962 168.941 148.084 168.846 148.234 168.859Z" fill="#7D97F4"/>
<path d="M150.721 169.063L151.468 169.118C151.618 169.131 151.713 169.254 151.713 169.39C151.699 169.539 151.577 169.634 151.441 169.634L150.694 169.58C150.544 169.566 150.449 169.444 150.449 169.308C150.449 169.158 150.571 169.063 150.721 169.063Z" fill="#7D97F4"/>
<path d="M153.222 169.213L153.969 169.24C154.118 169.24 154.227 169.362 154.214 169.512C154.214 169.661 154.091 169.77 153.942 169.757L153.194 169.729C153.045 169.729 152.936 169.607 152.95 169.457C152.95 169.321 153.072 169.199 153.222 169.213Z" fill="#7D97F4"/>
<path d="M155.709 169.281L156.456 169.294C156.605 169.294 156.714 169.416 156.714 169.552C156.714 169.702 156.592 169.811 156.456 169.811L155.709 169.797C155.559 169.797 155.45 169.675 155.45 169.539C155.45 169.389 155.559 169.281 155.709 169.281Z" fill="#7D97F4"/>
<path d="M158.209 169.281L158.956 169.267C159.106 169.267 159.228 169.376 159.228 169.525C159.228 169.675 159.12 169.797 158.97 169.797L158.223 169.811C158.073 169.811 157.951 169.702 157.951 169.553C157.951 169.403 158.06 169.281 158.209 169.281Z" fill="#7D97F4"/>
<path d="M160.71 169.199L161.457 169.159C161.607 169.145 161.729 169.267 161.729 169.403C161.742 169.553 161.62 169.675 161.484 169.675L160.737 169.716C160.587 169.73 160.465 169.607 160.465 169.471C160.451 169.335 160.56 169.213 160.71 169.199Z" fill="#7D97F4"/>
<path d="M163.197 169.05L163.944 168.995C164.094 168.982 164.216 169.09 164.23 169.24C164.243 169.39 164.134 169.512 163.985 169.526L163.237 169.58C163.088 169.594 162.966 169.485 162.952 169.335C162.938 169.199 163.047 169.063 163.197 169.05Z" fill="#7D97F4"/>
<path d="M165.684 168.832L166.431 168.75C166.581 168.737 166.716 168.846 166.73 168.982C166.744 169.131 166.635 169.267 166.499 169.281L165.752 169.362C165.602 169.376 165.48 169.267 165.453 169.131C165.439 168.982 165.534 168.846 165.684 168.832Z" fill="#7D97F4"/>
<path d="M168.171 168.519L168.918 168.41C169.068 168.383 169.204 168.492 169.217 168.642C169.244 168.791 169.136 168.927 168.986 168.941L168.239 169.049C168.089 169.077 167.953 168.968 167.94 168.818C167.912 168.682 168.021 168.546 168.171 168.519Z" fill="#7D97F4"/>
<path d="M170.63 168.125L171.364 167.989C171.514 167.962 171.65 168.057 171.677 168.207C171.704 168.356 171.609 168.492 171.459 168.52L170.712 168.655C170.563 168.683 170.427 168.588 170.399 168.438C170.386 168.302 170.481 168.152 170.63 168.125Z" fill="#7D97F4"/>
<path d="M173.077 167.649L173.811 167.486C173.96 167.459 174.096 167.54 174.137 167.69C174.164 167.839 174.082 167.975 173.933 168.016L173.199 168.179C173.05 168.207 172.914 168.125 172.873 167.975C172.846 167.826 172.927 167.69 173.077 167.649Z" fill="#7D97F4"/>
<path d="M175.509 167.091L176.23 166.901C176.379 166.86 176.529 166.956 176.556 167.091C176.597 167.241 176.501 167.391 176.365 167.418L175.632 167.608C175.482 167.649 175.333 167.554 175.305 167.418C175.278 167.282 175.36 167.132 175.509 167.091Z" fill="#7D97F4"/>
<path d="M177.915 166.425L178.635 166.208C178.785 166.167 178.934 166.249 178.975 166.385C179.016 166.534 178.934 166.684 178.798 166.724L178.078 166.942C177.928 166.983 177.779 166.901 177.738 166.765C177.684 166.629 177.765 166.48 177.915 166.425Z" fill="#7D97F4"/>
<path d="M180.293 165.678L181 165.433C181.149 165.378 181.299 165.46 181.353 165.596C181.407 165.746 181.326 165.895 181.19 165.95L180.483 166.194C180.334 166.249 180.184 166.167 180.13 166.031C180.076 165.882 180.144 165.718 180.293 165.678Z" fill="#7D97F4"/>
<path d="M182.631 164.821L183.324 164.549C183.46 164.495 183.623 164.563 183.677 164.699C183.731 164.835 183.663 164.998 183.527 165.052L182.821 165.338C182.685 165.392 182.522 165.324 182.467 165.188C182.427 165.039 182.495 164.875 182.631 164.821Z" fill="#7D97F4"/>
<path d="M184.941 163.856L185.62 163.543C185.756 163.475 185.919 163.543 185.987 163.679C186.055 163.815 185.987 163.978 185.851 164.046L185.158 164.359C185.022 164.427 184.859 164.359 184.791 164.223C184.737 164.087 184.791 163.91 184.941 163.856Z" fill="#7D97F4"/>
<path d="M187.183 162.782L187.849 162.442C187.985 162.374 188.148 162.428 188.23 162.564C188.298 162.7 188.243 162.863 188.107 162.945L187.441 163.298C187.306 163.366 187.142 163.312 187.061 163.176C186.993 163.013 187.047 162.85 187.183 162.782Z" fill="#7D97F4"/>
<path d="M189.371 161.585L190.01 161.204C190.146 161.122 190.309 161.163 190.391 161.299C190.472 161.435 190.431 161.598 190.295 161.68L189.643 162.061C189.507 162.142 189.344 162.101 189.263 161.965C189.195 161.829 189.235 161.666 189.371 161.585Z" fill="#7D97F4"/>
<path d="M191.491 160.279L192.116 159.858C192.239 159.776 192.415 159.804 192.511 159.939C192.592 160.062 192.565 160.239 192.429 160.334L191.804 160.755C191.682 160.837 191.505 160.81 191.41 160.674C191.315 160.538 191.355 160.361 191.491 160.279Z" fill="#7D97F4"/>
<path d="M193.516 158.838L194.114 158.389C194.237 158.294 194.413 158.321 194.508 158.444C194.604 158.566 194.576 158.743 194.454 158.838L193.856 159.3C193.734 159.395 193.557 159.368 193.462 159.246C193.367 159.11 193.394 158.933 193.516 158.838Z" fill="#7D97F4"/>
<path d="M195.46 157.288L196.017 156.798C196.139 156.69 196.316 156.703 196.411 156.826C196.52 156.948 196.506 157.125 196.384 157.22L195.813 157.723C195.691 157.832 195.514 157.818 195.419 157.696C195.324 157.573 195.337 157.397 195.46 157.288Z" fill="#7D97F4"/>
<path d="M197.294 155.602L197.824 155.072C197.933 154.963 198.11 154.963 198.232 155.072C198.341 155.181 198.341 155.357 198.232 155.48L197.702 156.01C197.593 156.119 197.417 156.119 197.294 156.01C197.186 155.901 197.186 155.724 197.294 155.602Z" fill="#7D97F4"/>
<path d="M199.007 153.807L199.496 153.25C199.605 153.127 199.781 153.114 199.904 153.222C200.026 153.331 200.04 153.508 199.931 153.63L199.428 154.201C199.319 154.324 199.143 154.337 199.02 154.229C198.912 154.106 198.912 153.93 199.007 153.807Z" fill="#7D97F4"/>
<path d="M200.61 151.89L201.059 151.292C201.154 151.169 201.331 151.142 201.467 151.237C201.589 151.332 201.616 151.509 201.521 151.645L201.059 152.243C200.964 152.366 200.787 152.393 200.651 152.298C200.529 152.203 200.502 152.026 200.61 151.89Z" fill="#7D97F4"/>
<path d="M202.064 149.877L202.472 149.252C202.554 149.116 202.744 149.089 202.866 149.17C203.002 149.252 203.029 149.442 202.948 149.565L202.527 150.19C202.445 150.326 202.255 150.353 202.132 150.272C202.01 150.19 201.969 150.013 202.064 149.877Z" fill="#7D97F4"/>
<path d="M203.383 147.77L203.75 147.117C203.831 146.981 204.008 146.927 204.144 147.008C204.28 147.09 204.334 147.267 204.252 147.403L203.872 148.055C203.79 148.191 203.614 148.246 203.478 148.164C203.356 148.096 203.301 147.919 203.383 147.77Z" fill="#7D97F4"/>
<path d="M204.565 145.581L204.891 144.914C204.959 144.765 205.136 144.71 205.285 144.778C205.435 144.846 205.489 145.023 205.421 145.173L205.095 145.853C205.027 146.002 204.85 146.057 204.701 145.989C204.551 145.907 204.497 145.73 204.565 145.581Z" fill="#7D97F4"/>
<path d="M205.598 143.324L205.883 142.63C205.951 142.481 206.114 142.413 206.264 142.467C206.413 142.535 206.481 142.698 206.427 142.848L206.142 143.541C206.074 143.691 205.911 143.759 205.761 143.704C205.612 143.65 205.544 143.473 205.598 143.324Z" fill="#7D97F4"/>
<path d="M206.495 140.998L206.739 140.291C206.794 140.142 206.957 140.06 207.106 140.115C207.256 140.169 207.337 140.332 207.283 140.482L207.038 141.202C206.984 141.352 206.821 141.434 206.672 141.379C206.522 141.325 206.441 141.162 206.495 140.998Z" fill="#7D97F4"/>
<path d="M207.256 138.633L207.46 137.912C207.501 137.749 207.664 137.667 207.827 137.708C207.99 137.749 208.071 137.912 208.031 138.075L207.827 138.81C207.786 138.973 207.623 139.054 207.46 139.013C207.297 138.946 207.215 138.782 207.256 138.633Z" fill="#7D97F4"/>
<path d="M207.867 136.212L208.031 135.478C208.071 135.315 208.221 135.22 208.384 135.247C208.547 135.288 208.642 135.437 208.615 135.6L208.452 136.335C208.411 136.498 208.262 136.593 208.098 136.566C207.935 136.539 207.84 136.375 207.867 136.212Z" fill="#7D97F4"/>
<path d="M208.357 133.778L208.479 133.044C208.506 132.881 208.656 132.772 208.819 132.799C208.982 132.827 209.091 132.976 209.063 133.139L208.941 133.887C208.914 134.05 208.764 134.159 208.601 134.132C208.438 134.091 208.33 133.941 208.357 133.778Z" fill="#7D97F4"/>
<path d="M208.696 131.304L208.778 130.556C208.792 130.393 208.941 130.27 209.104 130.284C209.267 130.298 209.39 130.447 209.376 130.61L209.294 131.358C209.281 131.521 209.131 131.644 208.968 131.63C208.805 131.617 208.683 131.481 208.696 131.304Z" fill="#7D97F4"/>
<path d="M208.914 128.829L208.955 128.081C208.968 127.918 209.104 127.782 209.267 127.795C209.43 127.809 209.566 127.945 209.553 128.108L209.512 128.87C209.498 129.033 209.362 129.169 209.199 129.155C209.036 129.128 208.914 128.992 208.914 128.829Z" fill="#7D97F4"/>
<path d="M209.009 126.327V125.579C209.009 125.416 209.145 125.28 209.308 125.28C209.471 125.28 209.607 125.416 209.607 125.579V126.341C209.607 126.504 209.471 126.64 209.308 126.64C209.145 126.64 209.009 126.504 209.009 126.327Z" fill="#7D97F4"/>
<path d="M208.968 123.839L208.941 123.091C208.928 122.928 209.063 122.778 209.227 122.778C209.39 122.765 209.539 122.901 209.539 123.064L209.566 123.825C209.58 123.988 209.444 124.138 209.281 124.138C209.118 124.138 208.982 124.016 208.968 123.839Z" fill="#7D97F4"/>
<path d="M208.819 121.35L208.751 120.603C208.737 120.439 208.86 120.29 209.023 120.276C209.186 120.263 209.335 120.385 209.349 120.548L209.417 121.296C209.43 121.459 209.308 121.609 209.145 121.622C208.982 121.65 208.832 121.527 208.819 121.35Z" fill="#7D97F4"/>
<path d="M208.547 118.876L208.438 118.142C208.411 117.978 208.533 117.815 208.696 117.802C208.86 117.774 209.023 117.897 209.036 118.06L209.145 118.808C209.172 118.971 209.05 119.134 208.887 119.148C208.724 119.161 208.574 119.053 208.547 118.876Z" fill="#7D97F4"/>
<path d="M208.153 116.415L208.017 115.68C207.99 115.517 208.098 115.354 208.262 115.327C208.425 115.3 208.588 115.408 208.615 115.572L208.751 116.32C208.778 116.483 208.669 116.646 208.506 116.673C208.357 116.7 208.194 116.591 208.153 116.415Z" fill="#7D97F4"/>
<path d="M207.664 113.967L207.487 113.233C207.446 113.07 207.555 112.907 207.718 112.866C207.881 112.825 208.044 112.934 208.085 113.097L208.262 113.831C208.302 113.994 208.194 114.158 208.031 114.198C207.868 114.239 207.691 114.144 207.664 113.967Z" fill="#7D97F4"/>
<path d="M207.052 111.56L206.848 110.84C206.807 110.677 206.903 110.5 207.066 110.459C207.229 110.418 207.405 110.514 207.446 110.677L207.65 111.411C207.691 111.574 207.596 111.751 207.433 111.792C207.269 111.819 207.093 111.724 207.052 111.56Z" fill="#7D97F4"/>
<path d="M206.332 109.167L206.101 108.46C206.046 108.297 206.128 108.12 206.291 108.066C206.454 108.011 206.631 108.093 206.685 108.256L206.93 108.977C206.984 109.14 206.889 109.317 206.74 109.371C206.563 109.426 206.386 109.33 206.332 109.167Z" fill="#7D97F4"/>
<path d="M205.503 106.815L205.231 106.121C205.163 105.958 205.245 105.781 205.408 105.713C205.571 105.646 205.747 105.727 205.815 105.89L206.087 106.597C206.155 106.76 206.073 106.937 205.91 107.005C205.747 107.06 205.571 106.978 205.503 106.815Z" fill="#7D97F4"/>
<path d="M204.579 104.504L204.28 103.81C204.212 103.647 204.28 103.47 204.443 103.402C204.606 103.334 204.782 103.402 204.85 103.565L205.149 104.259C205.217 104.422 205.149 104.599 204.986 104.667C204.837 104.735 204.647 104.667 204.579 104.504Z" fill="#7D97F4"/>
<path d="M203.559 102.219L203.233 101.539C203.152 101.376 203.22 101.199 203.383 101.118C203.546 101.036 203.722 101.104 203.804 101.267L204.13 101.947C204.212 102.097 204.144 102.287 203.981 102.369C203.818 102.45 203.641 102.382 203.559 102.219Z" fill="#7D97F4"/>
<path d="M202.445 100.003L202.092 99.3364C202.01 99.1869 202.064 98.9965 202.228 98.9149C202.377 98.8333 202.567 98.8877 202.649 99.0509L203.002 99.7172C203.084 99.8667 203.029 100.057 202.866 100.139C202.717 100.207 202.527 100.152 202.445 100.003Z" fill="#7D97F4"/>
<path d="M201.235 97.8134L200.855 97.1744C200.76 97.0248 200.814 96.8344 200.964 96.7392C201.113 96.6441 201.303 96.6985 201.399 96.848L201.779 97.5007C201.874 97.6503 201.82 97.8406 201.67 97.9358C201.521 98.0174 201.331 97.963 201.235 97.8134Z" fill="#7D97F4"/>
<path d="M199.944 95.6787L199.537 95.0532C199.442 94.9036 199.482 94.7133 199.632 94.6181C199.781 94.5229 199.972 94.5637 200.067 94.7133L200.474 95.3523C200.57 95.5019 200.529 95.6923 200.379 95.7875C200.23 95.8826 200.04 95.8283 199.944 95.6787Z" fill="#7D97F4"/>
<path d="M198.558 93.612L198.123 93.0001C198.028 92.8505 198.055 92.6602 198.205 92.5514C198.354 92.4562 198.545 92.4834 198.653 92.633L199.088 93.2584C199.183 93.408 199.156 93.5984 199.007 93.7071C198.857 93.7887 198.667 93.7479 198.558 93.612Z" fill="#7D97F4"/>
<path d="M197.104 91.586L196.656 90.9878C196.547 90.8518 196.574 90.6478 196.71 90.539C196.846 90.4303 197.05 90.4575 197.158 90.5934L197.62 91.1917C197.729 91.3277 197.702 91.5316 197.566 91.6404C197.417 91.7492 197.213 91.722 197.104 91.586Z" fill="#7D97F4"/>
<path d="M195.568 89.628L195.093 89.0569C194.984 88.9209 194.998 88.7169 195.134 88.6082C195.269 88.4994 195.473 88.513 195.582 88.649L196.058 89.2336C196.166 89.3696 196.153 89.5736 196.017 89.6823C195.881 89.7775 195.677 89.7639 195.568 89.628Z" fill="#7D97F4"/>
<path d="M193.951 87.7243L193.448 87.1668C193.326 87.0308 193.34 86.8269 193.476 86.7045C193.611 86.5821 193.815 86.5957 193.938 86.7317L194.44 87.3028C194.563 87.4387 194.549 87.6427 194.413 87.7651C194.277 87.8603 194.073 87.8603 193.951 87.7243Z" fill="#7D97F4"/>
<path d="M192.266 85.8752L191.75 85.3313C191.627 85.1953 191.627 84.9913 191.763 84.869C191.899 84.7466 192.103 84.7466 192.225 84.8826L192.742 85.4264C192.864 85.5624 192.864 85.7664 192.728 85.8887C192.592 86.0111 192.388 86.0111 192.266 85.8752Z" fill="#7D97F4"/>
<path d="M190.513 84.1077L189.969 83.591C189.833 83.4686 189.833 83.2646 189.956 83.1287C190.078 82.9927 190.282 82.9927 190.418 83.115L190.961 83.6454C191.097 83.7677 191.097 83.9717 190.975 84.1077C190.853 84.23 190.649 84.23 190.513 84.1077Z" fill="#7D97F4"/>
<path d="M188.705 82.3944L188.148 81.8913C188.012 81.7689 187.999 81.5649 188.121 81.429C188.243 81.293 188.447 81.2794 188.583 81.4018L189.14 81.9049C189.276 82.0272 189.29 82.2312 189.167 82.3672C189.045 82.5031 188.841 82.5167 188.705 82.3944Z" fill="#7D97F4"/>
<path d="M186.816 80.7491L186.246 80.2731C186.11 80.1508 186.083 79.9468 186.205 79.8108C186.327 79.6749 186.531 79.6477 186.667 79.77L187.251 80.2595C187.387 80.3819 187.414 80.5859 187.292 80.7219C187.17 80.8442 186.966 80.8714 186.816 80.7491Z" fill="#7D97F4"/>
<path d="M184.887 79.1717L184.302 78.7094C184.153 78.6006 184.139 78.3967 184.248 78.2471C184.357 78.0975 184.56 78.0839 184.71 78.1927L185.308 78.655C185.457 78.7638 185.471 78.9678 185.362 79.1173C185.24 79.2669 185.036 79.2941 184.887 79.1717Z" fill="#7D97F4"/>
<path d="M182.902 77.6624L182.291 77.2273C182.141 77.1185 182.114 76.9146 182.223 76.765C182.332 76.6154 182.535 76.5882 182.685 76.697L183.296 77.1457C183.446 77.2545 183.473 77.4585 183.364 77.608C183.256 77.744 183.052 77.7712 182.902 77.6624Z" fill="#7D97F4"/>
<path d="M180.864 76.2211L180.239 75.7996C180.089 75.6908 180.048 75.4869 180.144 75.3373C180.252 75.1877 180.456 75.1469 180.606 75.2421L181.231 75.6636C181.38 75.7724 181.421 75.9764 181.312 76.1259C181.231 76.2891 181.027 76.3299 180.864 76.2211Z" fill="#7D97F4"/>
<path d="M178.785 74.8343L178.146 74.44C177.996 74.3448 177.942 74.1408 178.037 73.9777C178.132 73.8281 178.336 73.7737 178.499 73.8689L179.138 74.2768C179.287 74.372 179.342 74.5759 179.247 74.7391C179.151 74.8887 178.948 74.9431 178.785 74.8343Z" fill="#7D97F4"/>
<path d="M176.664 73.5288L176.026 73.1481C175.863 73.0529 175.808 72.849 175.903 72.6858C175.999 72.5226 176.202 72.4683 176.366 72.5634L177.018 72.9442C177.181 73.0393 177.235 73.2433 177.14 73.4065C177.031 73.5696 176.828 73.624 176.664 73.5288Z" fill="#7D97F4"/>
<path d="M174.504 72.2778L173.851 71.9107C173.688 71.8155 173.634 71.6115 173.715 71.4484C173.811 71.2852 174.014 71.2308 174.178 71.3124L174.843 71.6795C175.007 71.7747 175.061 71.9787 174.979 72.1418C174.871 72.305 174.667 72.373 174.504 72.2778Z" fill="#7D97F4"/>
<path d="M172.302 71.0949L171.636 70.7549C171.473 70.6733 171.405 70.4694 171.487 70.3062C171.568 70.143 171.772 70.0751 171.935 70.1566L172.601 70.4966C172.764 70.5782 172.832 70.7821 172.75 70.9453C172.682 71.122 172.479 71.19 172.302 71.0949Z" fill="#7D97F4"/>
<path d="M170.073 69.98L169.394 69.6537C169.231 69.5721 169.149 69.3681 169.231 69.2049C169.312 69.0418 169.516 68.9602 169.679 69.0418L170.359 69.3681C170.522 69.4497 170.603 69.6537 170.522 69.8168C170.454 69.9936 170.25 70.0616 170.073 69.98Z" fill="#7D97F4"/>
<path d="M167.817 68.9332L167.138 68.6341C166.961 68.5525 166.893 68.3621 166.961 68.1854C167.043 68.0086 167.233 67.9406 167.41 68.0086L168.103 68.3213C168.279 68.4029 168.347 68.5933 168.279 68.77C168.184 68.9332 167.98 69.0012 167.817 68.9332Z" fill="#7D97F4"/>
<path d="M165.521 67.9404L164.827 67.6549C164.651 67.5869 164.569 67.3829 164.637 67.2062C164.705 67.0294 164.909 66.9478 165.086 67.0158L165.779 67.3013C165.955 67.3693 166.037 67.5733 165.969 67.7501C165.901 67.9268 165.697 68.0084 165.521 67.9404Z" fill="#7D97F4"/>
<path d="M163.197 67.0159L162.49 66.7576C162.313 66.6896 162.218 66.4992 162.286 66.3224C162.354 66.1457 162.544 66.0505 162.721 66.1185L163.428 66.3904C163.604 66.4584 163.699 66.6488 163.631 66.8255C163.577 66.9887 163.373 67.0839 163.197 67.0159Z" fill="#7D97F4"/>
<path d="M160.859 66.1593L160.153 65.9145C159.976 65.8465 159.881 65.6562 159.935 65.4794C160.003 65.3026 160.193 65.2075 160.37 65.2619L161.077 65.5066C161.253 65.5746 161.348 65.7649 161.294 65.9417C161.24 66.1321 161.036 66.2273 160.859 66.1593Z" fill="#7D97F4"/>
<path d="M158.494 65.3568L157.774 65.1256C157.597 65.0713 157.489 64.8809 157.543 64.6905C157.597 64.5138 157.788 64.405 157.978 64.4594L158.698 64.6905C158.875 64.7449 158.984 64.9353 158.929 65.1256C158.875 65.316 158.671 65.4248 158.494 65.3568Z" fill="#7D97F4"/>
<path d="M156.103 64.6364L155.382 64.4324C155.192 64.378 155.097 64.1877 155.151 63.9973C155.206 63.8069 155.396 63.7118 155.586 63.7662L156.306 63.9701C156.497 64.0245 156.592 64.2149 156.537 64.3916C156.483 64.582 156.293 64.6908 156.103 64.6364Z" fill="#7D97F4"/>
<path d="M153.697 63.97L152.977 63.7796C152.787 63.7252 152.678 63.5485 152.732 63.3581C152.787 63.1678 152.963 63.059 153.154 63.1134L153.887 63.3037C154.078 63.3581 154.186 63.5349 154.132 63.7252C154.078 63.902 153.887 64.0244 153.697 63.97Z" fill="#7D97F4"/>
<path d="M151.278 63.3718L150.544 63.2086C150.354 63.1679 150.245 62.9775 150.286 62.7871C150.327 62.5968 150.517 62.488 150.707 62.5288L151.441 62.692C151.631 62.7327 151.74 62.9231 151.699 63.1135C151.645 63.3038 151.468 63.4126 151.278 63.3718Z" fill="#7D97F4"/>
<path d="M148.832 62.8414L148.098 62.6919C147.908 62.6511 147.785 62.4743 147.826 62.2839C147.867 62.0936 148.044 61.9712 148.234 62.012L148.968 62.1616C149.158 62.2024 149.28 62.3791 149.24 62.5695C149.212 62.7598 149.022 62.8822 148.832 62.8414Z" fill="#7D97F4"/>
<path d="M146.386 62.3656L145.652 62.2432C145.462 62.216 145.326 62.0256 145.366 61.8353C145.394 61.6449 145.584 61.5089 145.774 61.5497L146.522 61.6721C146.712 61.6993 146.834 61.8897 146.807 62.08C146.753 62.2704 146.576 62.4064 146.386 62.3656Z" fill="#7D97F4"/>
<path d="M143.926 61.9712L143.178 61.8625C142.988 61.8353 142.852 61.6585 142.879 61.4681C142.906 61.2778 143.083 61.1418 143.273 61.169L144.021 61.2778C144.211 61.305 144.347 61.4817 144.32 61.6721C144.293 61.8625 144.116 61.9984 143.926 61.9712Z" fill="#7D97F4"/>
<path d="M141.452 61.6312L140.773 61.5496C140.583 61.5224 140.433 61.3457 140.46 61.1553C140.488 60.9649 140.664 60.8154 140.854 60.8426L141.534 60.9241C141.724 60.9513 141.86 61.1281 141.847 61.3185C141.819 61.5224 141.643 61.6584 141.452 61.6312Z" fill="#7D97F4"/>
<path d="M137.076 57.7019L137.199 61.7539L134.413 60.095L137.076 57.7019Z" fill="#7D97F4"/>
<path d="M118.798 55.9205L130.023 65.1939C130.241 65.3706 130.512 65.4522 130.798 65.425C131.07 65.3978 131.328 65.2482 131.491 65.0307L140.365 53.405C140.46 53.2691 140.474 53.0923 140.392 52.9427C140.311 52.7931 140.148 52.7252 139.971 52.7388L118.798 55.9205Z" fill="#91B3FA"/>
<path d="M137.076 57.7017L118.798 55.9204L135.649 59.5781L135.731 60.693L137.076 57.7017Z" fill="#7D97F4"/>
<path d="M134.807 60.6931L137.199 61.7537L135.649 59.5781L134.807 60.6931Z" fill="#7D97F4"/>
<path d="M228.716 139.861C228.716 139.861 236.676 144.277 237.331 151.74C237.986 159.202 237.389 190.191 221.43 197.827C205.472 205.463 184.348 203.689 176.254 202.86C168.159 202.031 163.687 196.535 162.685 192.736C161.683 188.957 160.064 174.841 168.583 170.29C177.082 165.739 186.025 158.778 194.949 151.99C203.872 145.202 219.175 134.114 228.716 139.861Z" fill="#FF6F41"/>
<path d="M171.069 172.874C171.069 172.874 173.209 172.99 173.478 177.406C173.478 177.406 168.506 181.88 161.76 182.94C161.259 183.017 162.473 179.488 162.647 179.006C163.533 176.731 166.251 175.265 171.069 172.874Z" fill="url(#paint5_linear)"/>
<path d="M195.277 167.668H193.118C191.634 167.668 190.208 167.07 189.167 165.99C185.601 162.307 176.678 153.629 169.624 151.238C168.467 150.853 167.214 151.393 166.713 152.492C165.249 155.635 163.167 162.943 168.062 174.031C168.602 175.265 170.144 175.786 171.262 175.034C171.57 174.822 171.802 174.533 171.956 174.186L171.416 161.246C171.416 161.246 183.288 171.64 185.351 173.646C187.374 175.651 197.859 174.436 195.277 167.668Z" fill="url(#paint6_linear)"/>
<path d="M151.43 199.948C153.338 198.29 156.364 196.419 160.719 195.879L162.203 196.786C162.203 196.786 161.259 198.174 159.544 199.64C157.963 200.565 155.516 201.799 153.492 202.069C151.526 202.339 151.237 201.144 151.43 199.948Z" fill="url(#paint7_linear)"/>
<path d="M162.666 179.006C163.842 179.392 164.343 181.05 167.33 179.951C170.202 178.891 172.341 177.522 173.44 176.731C173.459 176.943 173.478 177.174 173.498 177.406C173.498 177.406 168.236 182.4 161.51 183.461C161.008 183.538 160.604 183.037 160.777 182.555C161.105 181.706 161.702 180.414 162.666 179.006Z" fill="#7D97F4"/>
<path d="M150.003 201.375C150.37 200.951 150.851 200.469 151.43 199.948C151.237 201.144 151.526 202.339 153.492 202.069C155.516 201.799 157.963 200.546 159.544 199.64C157.559 201.337 154.552 203.13 150.736 203.014C149.888 203.014 149.444 202.011 150.003 201.375Z" fill="#7D97F4"/>
<path d="M195.103 170.946L173.864 171.177C173.864 171.177 161.741 181.205 159.544 196.516C159.544 196.516 159.177 197.634 161.375 197.827C161.375 197.827 168.699 193.045 173.478 184.56C179.337 174.185 190.94 178.852 190.94 178.852C194.756 176.094 200.153 175.535 204.2 174.629L195.103 170.946Z" fill="url(#paint8_linear)"/>
<path d="M193.368 170.772C193.368 170.772 195.97 163.695 196.529 156.83C196.529 156.83 194.621 155.191 193.445 154.497C193.06 154.266 192.906 153.784 193.118 153.379C193.985 151.566 199.285 144.45 199.671 144.354C201.829 143.814 210.637 139.61 216.863 148.114C219.522 151.759 216.342 163.001 204.239 174.629L201.733 175.111L193.368 170.772Z" fill="url(#paint9_linear)"/>
<path d="M207.611 138.357L209.192 143.621C209.269 143.872 209.173 144.123 208.961 144.258C208.209 144.778 206.204 145.82 203.487 144.817C203.179 144.701 202.967 144.412 202.928 144.084L202.562 139.495L207.611 138.357Z" fill="url(#paint10_linear)"/>
<path d="M198.36 134.076C198.36 134.076 199.131 139.533 201.232 141.23C203.333 142.927 207.419 141.654 208.806 137.528L206.05 130.489L198.36 134.076Z" fill="url(#paint11_linear)"/>
<path d="M206.359 135.04C206.204 135.098 206.031 134.982 206.012 134.828C205.935 134.327 205.742 133.324 205.356 132.649C205.356 132.649 205.549 131.935 203.545 133.015C201.54 134.095 198.514 135.696 196.741 134.751C195.007 133.825 193.253 129.178 197.84 130.046C198.013 130.084 198.167 129.93 198.167 129.756C198.11 128.985 198.187 127.23 199.96 126.671C201.617 126.15 202.542 126.902 202.909 127.346C203.024 127.481 203.217 127.481 203.333 127.346C203.834 126.69 205.183 125.302 207.187 126.189C208.826 126.922 209.076 127.924 209.057 128.561C209.057 128.773 209.25 128.908 209.442 128.811C209.943 128.58 210.753 128.464 211.524 129.429C212.603 130.778 211.061 131.935 210.599 132.244C210.522 132.302 210.483 132.379 210.483 132.475C210.483 133.17 210.368 136.216 208.845 137.933C208.71 138.087 208.459 138.029 208.382 137.855L207.207 135.059C207.149 134.924 207.014 134.866 206.879 134.905L206.359 135.04Z" fill="url(#paint12_linear)"/>
<path d="M206.32 135.6C206.32 135.6 207.033 132.668 208.132 133.633C209.23 134.578 207.843 136.679 206.59 137.065L206.32 135.6Z" fill="url(#paint13_linear)"/>
<path d="M196.529 157.042C196.414 157.042 196.317 156.946 196.317 156.83C196.298 153.629 197.531 149.406 197.551 149.368C197.589 149.252 197.705 149.194 197.801 149.233C197.917 149.271 197.975 149.387 197.936 149.483C197.917 149.522 196.703 153.706 196.722 156.83C196.741 156.946 196.645 157.042 196.529 157.042Z" fill="#7D97F4"/>
<path d="M203.391 158.585C203.352 158.585 203.294 158.566 203.256 158.547C203.159 158.469 203.159 158.354 203.217 158.257C203.256 158.219 206.513 154.054 207.631 151.238C207.669 151.142 207.785 151.084 207.901 151.122C207.997 151.161 208.055 151.277 208.016 151.392C206.879 154.285 203.68 158.354 203.545 158.527C203.506 158.547 203.448 158.585 203.391 158.585Z" fill="#7D97F4"/>
<path d="M207.997 165.007L207.361 164.1C207.303 164.004 207.322 163.888 207.419 163.811C207.515 163.753 207.631 163.772 207.708 163.869L208.151 164.505C212.719 162.461 215.552 156.985 215.591 156.927C215.648 156.83 215.764 156.792 215.86 156.83C215.957 156.888 215.995 157.004 215.957 157.1C215.918 157.158 212.969 162.885 208.17 164.949L207.997 165.007Z" fill="#7D97F4"/>
<path d="M193.619 153.783C193.619 153.783 190.13 163.83 183.327 156.175L182.672 155.885L177.795 152.549L178.335 154.478C178.644 155.538 179.414 156.406 180.436 156.83L181.072 157.1C182.286 159.646 184.907 163.483 188.936 164.216C194.987 165.315 198.09 157.139 198.09 157.139L193.619 153.783Z" fill="url(#paint14_linear)"/>
<path d="M175.406 150.004L175.059 150.467C174.885 150.698 174.943 151.007 175.174 151.18L182.845 156.425C183.057 156.56 183.327 156.541 183.481 156.348C183.674 156.136 183.655 155.789 183.423 155.615L176.1 149.908C175.887 149.715 175.56 149.773 175.406 150.004Z" fill="url(#paint15_linear)"/>
<path d="M182.325 154.844C182.228 154.767 188.261 151.817 190.516 152.087C192.732 152.357 195.334 153.996 197.743 155.963C199.921 157.717 202.176 158.855 204.277 158.778C204.277 158.778 207.881 162.692 207.091 165.064C207.091 165.064 203.082 166.009 199.671 162.635C196.433 159.434 192.829 155.345 190.824 154.593C190.651 154.536 190.477 154.555 190.323 154.651C189.726 155.037 187.818 155.963 185.351 154.478C185.351 154.458 183.327 155.712 182.325 154.844Z" fill="url(#paint16_linear)"/>
<path d="M184.117 141.191C184.31 142.599 184.695 145.318 185.139 146.996C185.254 147.401 185.601 147.69 186.025 147.729C187.355 147.825 190.304 147.941 192.019 147.266C192.405 147.112 192.655 146.726 192.636 146.302C192.578 144.99 192.405 141.963 192.077 140.15C191.981 139.649 191.518 139.302 191.017 139.36C189.61 139.495 186.815 139.765 184.927 140.092C184.406 140.189 184.04 140.671 184.117 141.191Z" fill="url(#paint17_linear)"/>
<path d="M180.089 143.197L180.262 144.335C180.301 144.585 180.532 144.778 180.802 144.74L182.132 144.547C182.383 144.508 182.556 144.296 182.537 144.026L182.46 143.062C182.44 142.811 182.228 142.638 181.997 142.638H180.571C180.262 142.657 180.05 142.908 180.089 143.197Z" fill="url(#paint18_linear)"/>
<path d="M180.609 147.69L180.879 149.213C180.995 149.792 181.592 150.158 182.151 149.985L183.153 149.657C183.597 149.522 183.867 149.098 183.828 148.635L183.693 147.15C183.635 146.552 183.057 146.128 182.479 146.282L181.322 146.571C180.841 146.687 180.513 147.188 180.609 147.69Z" fill="url(#paint19_linear)"/>
<path d="M174.153 141.982C175.136 141.635 175.001 140.208 173.96 140.073C169.257 139.456 162.338 137.624 160.083 132.089C156.537 123.412 163.88 89.9357 130.113 83.9579C98.9675 78.4428 81.6022 88.2966 82.0069 117.106C82.3924 145.009 127.222 158.103 174.153 141.982Z" fill="#FF6F41"/>
<path d="M107.371 107.754L105.771 101.872L101.126 99.3459L100.509 100.484L104.653 102.721L109.606 120.866L109.761 121.406H129.959C131.925 121.406 133.737 120.442 134.797 118.784L135.703 117.588C136.685 116.084 137.321 114.348 137.321 112.536V107.734H107.371V107.754ZM135.876 112.555C135.876 114.098 135.394 115.602 134.546 116.913L133.737 118.263C132.908 119.536 131.482 120.442 129.959 120.442H110.763L109.703 116.566L107.718 109.219H135.857V112.555H135.876Z" fill="url(#paint20_linear)"/>
<path d="M134.623 128.001C134.623 128.368 134.334 128.734 133.968 128.734H110.281C109.915 128.734 109.549 128.175 109.549 127.808V116.624C109.549 116.508 109.626 116.528 109.684 116.431L110.782 120.423H111.013V127.249H133.968C134.315 127.268 134.623 127.654 134.623 128.001Z" fill="url(#paint21_linear)"/>
<path d="M122.327 108.409H121.459V120.577H122.327V108.409Z" fill="url(#paint22_linear)"/>
<path d="M114.695 108.409H113.827V120.577H114.695V108.409Z" fill="url(#paint23_linear)"/>
<path d="M129.785 108.409H128.918V120.577H129.785V108.409Z" fill="url(#paint24_linear)"/>
<path d="M136.184 111.996H108.064V112.767H136.184V111.996Z" fill="url(#paint25_linear)"/>
<path d="M135.471 116.219H109.279V116.99H135.471V116.219Z" fill="url(#paint26_linear)"/>
<path d="M113.307 129.563C111.765 129.563 110.512 130.817 110.512 132.359C110.512 133.902 111.765 135.155 113.307 135.155C114.849 135.155 116.102 133.902 116.102 132.359C116.102 130.817 114.849 129.563 113.307 129.563ZM113.307 134.056C112.382 134.056 111.63 133.304 111.63 132.379C111.63 131.453 112.382 130.701 113.307 130.701C114.232 130.701 114.984 131.453 114.984 132.379C115.003 133.304 114.232 134.056 113.307 134.056Z" fill="url(#paint27_linear)"/>
<path d="M130.672 129.563C129.13 129.563 127.877 130.817 127.877 132.359C127.877 133.902 129.13 135.155 130.672 135.155C132.214 135.155 133.467 133.902 133.467 132.359C133.467 130.817 132.214 129.563 130.672 129.563ZM130.672 134.056C129.747 134.056 128.995 133.304 128.995 132.379C128.995 131.453 129.747 130.701 130.672 130.701C131.597 130.701 132.349 131.453 132.349 132.379C132.349 133.304 131.597 134.056 130.672 134.056Z" fill="url(#paint28_linear)"/>
<path d="M104.017 100.484C104.017 101.217 103.439 101.795 102.707 101.795H98.3315C97.5991 101.795 97.0209 101.217 97.0209 100.484C97.0209 99.7511 97.5991 99.1726 98.3315 99.1726H102.707C103.439 99.1726 104.017 99.7511 104.017 100.484Z" fill="url(#paint29_linear)"/>
<path d="M263.099 83.4373L236.637 123.335L232.532 129.506C232.012 130.315 230.932 130.566 230.103 130.045L149.618 79.2721C148.808 78.7514 148.558 77.6716 149.059 76.8424L152.914 70.5174L177.545 30.1571C178.065 29.3472 180.031 28.3444 181.727 29.5786L261.673 77.1509C262.714 77.768 263.466 78.79 263.735 79.9856C264.005 81.1811 263.774 82.4153 263.099 83.4373Z" fill="#03BAAF"/>
<path opacity="0.2" d="M231.356 126.999C230.874 127.77 229.853 127.982 229.063 127.5L152.413 79.1369C151.642 78.6356 151.391 77.6135 151.873 76.8615L178.451 33.2808C178.933 32.5095 180.783 31.6032 182.402 32.7795L258.532 78.1342C259.534 78.732 260.247 79.6962 260.498 80.8146C260.767 81.933 260.555 83.09 259.939 84.0349L231.356 126.999Z" fill="url(#paint30_linear)"/>
<path d="M228.909 127.635L220.293 122.197C220.236 122.158 220.197 122.062 220.255 122.004C220.293 121.946 220.39 121.908 220.448 121.965L229.063 127.403C230.161 128.098 231.626 127.75 232.339 126.613L248.972 100.233C249.011 100.175 249.107 100.137 249.165 100.194C249.223 100.233 249.261 100.329 249.203 100.387L232.571 126.767C231.8 128.02 230.142 128.406 228.909 127.635Z" fill="url(#paint31_linear)"/>
<path d="M168.448 49.2672C168.39 49.2287 168.352 49.1322 168.409 49.0744L178.104 33.7055C179.125 32.0856 181.207 31.5843 182.768 32.5485L189.591 36.8487C189.649 36.8872 189.687 36.9837 189.629 37.0415C189.591 37.0994 189.495 37.1379 189.437 37.0801L182.614 32.7799C181.188 31.8928 179.28 32.3556 178.355 33.8404L168.66 49.2094C168.602 49.2865 168.525 49.3058 168.448 49.2672Z" fill="url(#paint32_linear)"/>
<path opacity="0.6" d="M195.566 49.2284C194.949 50.2118 193.658 50.5011 192.675 49.884L181.573 42.8841C180.59 42.2671 180.301 40.9751 180.918 39.9916C181.535 39.0082 182.826 38.7189 183.809 39.336L194.91 46.3359C195.893 46.9529 196.182 48.2449 195.566 49.2284Z" fill="white"/>
<g opacity="0.6">
<path d="M186.893 91.401C186.43 92.1338 185.447 92.3652 184.715 91.9023L161.895 77.5169C161.163 77.0541 160.931 76.0706 161.394 75.3379C161.857 74.6051 162.84 74.3737 163.572 74.8365L186.372 89.222C187.124 89.6848 187.355 90.6682 186.893 91.401Z" fill="white"/>
<path d="M226.943 115.987C226.48 116.72 225.497 116.952 224.765 116.489L214.762 110.183C214.03 109.72 213.798 108.737 214.261 108.004C214.723 107.271 215.706 107.04 216.439 107.503L226.442 113.808C227.193 114.271 227.405 115.255 226.943 115.987Z" fill="white"/>
</g>
<g opacity="0.54">
<path opacity="0.54" d="M193.054 54.2751L167.749 54.1392C166.717 54.1392 166.064 55.2677 166.608 56.1516L166.73 56.3691C166.975 56.7634 167.396 57.0082 167.872 57.0082H193.054C193.788 57.0082 194.386 56.4099 194.386 55.6757V55.6077C194.372 54.8734 193.788 54.2751 193.054 54.2751Z" fill="#53D8FF"/>
<path opacity="0.54" d="M196.588 55.635V55.6758C196.588 56.4101 197.186 57.0083 197.92 57.0083H203.532C204.13 57.0083 204.66 56.6004 204.81 56.0157C205.041 55.1727 204.402 54.3569 203.532 54.3433L197.92 54.3025C197.186 54.3025 196.588 54.9008 196.588 55.635Z" fill="#53D8FF"/>
</g>
<g opacity="0.54">
<path opacity="0.54" d="M186.966 59.0478L167.749 58.9119C166.717 58.9119 166.064 60.0404 166.608 60.9243L166.73 61.1418C166.975 61.5361 167.396 61.7809 167.872 61.7809H186.952C187.686 61.7809 188.284 61.1826 188.284 60.4484V60.3804C188.284 59.6461 187.7 59.0478 186.966 59.0478Z" fill="#53D8FF"/>
<path opacity="0.54" d="M190.499 60.4075V60.4483C190.499 61.1825 191.097 61.7808 191.831 61.7808H197.444C198.042 61.7808 198.572 61.3729 198.721 60.7882C198.952 59.9452 198.314 59.1293 197.444 59.1157L191.831 59.075C191.097 59.075 190.499 59.6732 190.499 60.4075Z" fill="#53D8FF"/>
</g>
<g opacity="0.54">
<path opacity="0.54" d="M27.0258 202.434L1.72097 202.298C0.688116 202.298 0.0357893 203.426 0.579395 204.31L0.701706 204.528C0.946329 204.922 1.36762 205.167 1.84328 205.167H27.0258C27.7597 205.167 28.3577 204.569 28.3577 203.834V203.766C28.3441 203.032 27.7597 202.447 27.0258 202.434Z" fill="#53D8FF"/>
<path opacity="0.54" d="M30.5592 203.794V203.835C30.5592 204.569 31.1572 205.167 31.891 205.167H37.5038C38.1017 205.167 38.6317 204.759 38.7812 204.174C39.0123 203.331 38.3735 202.516 37.5038 202.502L31.891 202.461C31.1708 202.461 30.5592 203.059 30.5592 203.794Z" fill="#53D8FF"/>
</g>
<g opacity="0.54">
<path opacity="0.54" d="M20.9374 207.207L1.72097 207.071C0.688116 207.071 0.0357894 208.199 0.579395 209.083L0.701706 209.3C0.946329 209.695 1.36762 209.94 1.84328 209.94H20.9374C21.6713 209.94 22.2693 209.341 22.2693 208.607V208.539C22.2693 207.805 21.6713 207.22 20.9374 207.207Z" fill="#53D8FF"/>
<path opacity="0.54" d="M24.4707 208.566V208.607C24.4707 209.341 25.0687 209.939 25.8025 209.939H31.4153C32.0132 209.939 32.5432 209.531 32.6927 208.947C32.9238 208.104 32.285 207.288 31.4153 207.274L25.8025 207.233C25.0823 207.233 24.4707 207.832 24.4707 208.566Z" fill="#03BAAF"/>
</g>
<defs>
<linearGradient id="paint0_linear" x1="17.4096" y1="159.101" x2="36.7886" y2="159.101" gradientUnits="userSpaceOnUse">
<stop stop-color="#DAE3FE"/>
<stop offset="1" stop-color="#E9EFFD"/>
</linearGradient>
<linearGradient id="paint1_linear" x1="17.9029" y1="139.182" x2="18.5268" y2="139.182" gradientUnits="userSpaceOnUse">
<stop stop-color="#DAE3FE"/>
<stop offset="1" stop-color="#E9EFFD"/>
</linearGradient>
<linearGradient id="paint2_linear" x1="70.5823" y1="6.66577" x2="78.0699" y2="6.66577" gradientUnits="userSpaceOnUse">
<stop stop-color="#DAE3FE"/>
<stop offset="1" stop-color="#E9EFFD"/>
</linearGradient>
<linearGradient id="paint3_linear" x1="66.6401" y1="15.0736" x2="68.6504" y2="15.0736" gradientUnits="userSpaceOnUse">
<stop stop-color="#DAE3FE"/>
<stop offset="1" stop-color="#E9EFFD"/>
</linearGradient>
<linearGradient id="paint4_linear" x1="57.0248" y1="17.1357" x2="65.9984" y2="17.1357" gradientUnits="userSpaceOnUse">
<stop stop-color="#DAE3FE"/>
<stop offset="1" stop-color="#E9EFFD"/>
</linearGradient>
<linearGradient id="paint5_linear" x1="168.901" y1="177.073" x2="161.108" y2="185.208" gradientUnits="userSpaceOnUse">
<stop stop-color="#4042E2"/>
<stop offset="1" stop-color="#4F52FF"/>
</linearGradient>
<linearGradient id="paint6_linear" x1="180.961" y1="169.148" x2="173.007" y2="139.202" gradientUnits="userSpaceOnUse">
<stop stop-color="#09005D"/>
<stop offset="1" stop-color="#1A0F91"/>
</linearGradient>
<linearGradient id="paint7_linear" x1="158.569" y1="197.502" x2="143.832" y2="208.313" gradientUnits="userSpaceOnUse">
<stop stop-color="#4042E2"/>
<stop offset="1" stop-color="#4F52FF"/>
</linearGradient>
<linearGradient id="paint8_linear" x1="158.357" y1="176.983" x2="189.177" y2="188.602" gradientUnits="userSpaceOnUse">
<stop stop-color="#09005D"/>
<stop offset="1" stop-color="#1A0F91"/>
</linearGradient>
<linearGradient id="paint9_linear" x1="205.592" y1="152.688" x2="189.552" y2="208.933" gradientUnits="userSpaceOnUse">
<stop stop-color="#4042E2"/>
<stop offset="1" stop-color="#4F52FF"/>
</linearGradient>
<linearGradient id="paint10_linear" x1="204.554" y1="137.919" x2="207.351" y2="149.006" gradientUnits="userSpaceOnUse">
<stop stop-color="#FF928E"/>
<stop offset="1" stop-color="#FEB3B1"/>
</linearGradient>
<linearGradient id="paint11_linear" x1="203.795" y1="127.044" x2="203.409" y2="142.181" gradientUnits="userSpaceOnUse">
<stop stop-color="#FF928E"/>
<stop offset="1" stop-color="#FEB3B1"/>
</linearGradient>
<linearGradient id="paint12_linear" x1="205.263" y1="120.22" x2="202.243" y2="137.44" gradientUnits="userSpaceOnUse">
<stop stop-color="#09005D"/>
<stop offset="1" stop-color="#1A0F91"/>
</linearGradient>
<linearGradient id="paint13_linear" x1="205.696" y1="140.907" x2="208.945" y2="130.197" gradientUnits="userSpaceOnUse">
<stop stop-color="#FF928E"/>
<stop offset="1" stop-color="#FEB3B1"/>
</linearGradient>
<linearGradient id="paint14_linear" x1="180.319" y1="120.548" x2="186.235" y2="147.03" gradientUnits="userSpaceOnUse">
<stop stop-color="#FF928E"/>
<stop offset="0.2505" stop-color="#FF9A97"/>
<stop offset="1" stop-color="#FEB3B1"/>
</linearGradient>
<linearGradient id="paint15_linear" x1="174.96" y1="153.145" x2="183.63" y2="153.145" gradientUnits="userSpaceOnUse">
<stop stop-color="#09005D"/>
<stop offset="1" stop-color="#1A0F91"/>
</linearGradient>
<linearGradient id="paint16_linear" x1="189.806" y1="136.745" x2="198.037" y2="174.282" gradientUnits="userSpaceOnUse">
<stop stop-color="#FF928E"/>
<stop offset="1" stop-color="#FEB3B1"/>
</linearGradient>
<linearGradient id="paint17_linear" x1="190.854" y1="139.828" x2="180.466" y2="156.002" gradientUnits="userSpaceOnUse">
<stop stop-color="#FE7062"/>
<stop offset="1" stop-color="#FF928E"/>
</linearGradient>
<linearGradient id="paint18_linear" x1="176.894" y1="150.785" x2="171.8" y2="159.072" gradientUnits="userSpaceOnUse">
<stop stop-color="#E1473D"/>
<stop offset="1" stop-color="#E9605A"/>
</linearGradient>
<linearGradient id="paint19_linear" x1="184.871" y1="144.453" x2="180.476" y2="150.543" gradientUnits="userSpaceOnUse">
<stop stop-color="#4042E2"/>
<stop offset="1" stop-color="#4F52FF"/>
</linearGradient>
<linearGradient id="paint20_linear" x1="100.523" y1="110.386" x2="137.336" y2="110.386" gradientUnits="userSpaceOnUse">
<stop stop-color="#DAE3FE"/>
<stop offset="1" stop-color="#E9EFFD"/>
</linearGradient>
<linearGradient id="paint21_linear" x1="109.546" y1="122.592" x2="134.614" y2="122.592" gradientUnits="userSpaceOnUse">
<stop stop-color="#DAE3FE"/>
<stop offset="1" stop-color="#E9EFFD"/>
</linearGradient>
<linearGradient id="paint22_linear" x1="121.462" y1="114.496" x2="122.326" y2="114.496" gradientUnits="userSpaceOnUse">
<stop stop-color="#DAE3FE"/>
<stop offset="1" stop-color="#E9EFFD"/>
</linearGradient>
<linearGradient id="paint23_linear" x1="113.823" y1="114.496" x2="114.688" y2="114.496" gradientUnits="userSpaceOnUse">
<stop stop-color="#DAE3FE"/>
<stop offset="1" stop-color="#E9EFFD"/>
</linearGradient>
<linearGradient id="paint24_linear" x1="128.92" y1="114.496" x2="129.785" y2="114.496" gradientUnits="userSpaceOnUse">
<stop stop-color="#DAE3FE"/>
<stop offset="1" stop-color="#E9EFFD"/>
</linearGradient>
<linearGradient id="paint25_linear" x1="108.055" y1="112.378" x2="136.182" y2="112.378" gradientUnits="userSpaceOnUse">
<stop stop-color="#DAE3FE"/>
<stop offset="1" stop-color="#E9EFFD"/>
</linearGradient>
<linearGradient id="paint26_linear" x1="109.283" y1="116.613" x2="135.478" y2="116.613" gradientUnits="userSpaceOnUse">
<stop stop-color="#DAE3FE"/>
<stop offset="1" stop-color="#E9EFFD"/>
</linearGradient>
<linearGradient id="paint27_linear" x1="110.514" y1="132.367" x2="116.101" y2="132.367" gradientUnits="userSpaceOnUse">
<stop stop-color="#DAE3FE"/>
<stop offset="1" stop-color="#E9EFFD"/>
</linearGradient>
<linearGradient id="paint28_linear" x1="127.873" y1="132.367" x2="133.459" y2="132.367" gradientUnits="userSpaceOnUse">
<stop stop-color="#DAE3FE"/>
<stop offset="1" stop-color="#E9EFFD"/>
</linearGradient>
<linearGradient id="paint29_linear" x1="97.0283" y1="100.479" x2="104.02" y2="100.479" gradientUnits="userSpaceOnUse">
<stop stop-color="#DAE3FE"/>
<stop offset="1" stop-color="#E9EFFD"/>
</linearGradient>
<linearGradient id="paint30_linear" x1="303.991" y1="92.2924" x2="313.61" y2="93.4925" gradientUnits="userSpaceOnUse">
<stop stop-color="#9CFFFB"/>
<stop offset="1" stop-color="#9BFFFA"/>
</linearGradient>
<linearGradient id="paint31_linear" x1="220.235" y1="114.094" x2="249.243" y2="114.094" gradientUnits="userSpaceOnUse">
<stop stop-color="#DAE3FE"/>
<stop offset="1" stop-color="#E9EFFD"/>
</linearGradient>
<linearGradient id="paint32_linear" x1="168.385" y1="40.66" x2="189.639" y2="40.66" gradientUnits="userSpaceOnUse">
<stop stop-color="#DAE3FE"/>
<stop offset="1" stop-color="#E9EFFD"/>
</linearGradient>
</defs>
</svg>
