<svg width="530" height="741" viewBox="0 0 530 741" fill="none" xmlns="http://www.w3.org/2000/svg">
<path d="M70.0476 49.7933L305.057 54.6794C318.014 54.9453 328.512 65.3491 328.877 78.3123L339.143 419.577C339.442 429.715 331.302 438.125 321.136 438.091L51.676 437.393C42.1414 437.36 34.4672 429.516 34.6666 419.976L41.8092 76.8831C42.1747 61.5931 54.7989 49.4609 70.0476 49.7933Z" fill="#00827A"/>
<path d="M91.2098 432.441L61.0445 431.41C50.9452 431.078 42.8723 422.569 43.1049 412.431L44.0351 366.893C44.0351 366.494 44.3673 366.195 44.766 366.195C45.1646 366.195 45.4636 366.528 45.4636 366.927L44.5334 412.464C44.3341 421.804 51.7757 429.682 61.111 429.981L91.243 431.011C91.6416 431.011 91.9406 431.344 91.9406 431.743C91.9074 432.141 91.6084 432.441 91.2098 432.441Z" fill="url(#paint0_linear)"/>
<path d="M45.0649 353.531C45.0649 353.531 45.0317 353.531 45.0649 353.531C44.6663 353.531 44.3341 353.199 44.3673 352.8L44.5334 345.421C44.5334 345.022 44.8656 344.723 45.2643 344.723C45.6629 344.723 45.9619 345.056 45.9619 345.454L45.7958 352.833C45.7626 353.232 45.4304 353.531 45.0649 353.531Z" fill="url(#paint1_linear)"/>
<path d="M70.8449 47.0346C102.837 52.0537 212.934 67.809 304.293 62.7234C308.446 62.4907 312.001 65.7149 312.133 69.903L323.196 412.697C323.362 417.384 319.675 421.339 314.99 421.505C276.553 422.968 118.352 428.485 62.1076 421.406C58.6858 420.973 56.1277 418.015 56.1941 414.592L61.5428 54.9123C61.6425 49.9596 66.0277 46.2701 70.8449 47.0346Z" fill="#03BAAF"/>
<path opacity="0.6" d="M74.1006 55.976C104.897 60.7956 210.841 75.9858 298.778 71.0665C302.798 70.8338 306.187 73.9583 306.319 77.9802L316.984 407.844C317.117 412.365 313.595 416.154 309.077 416.32C272.101 417.749 119.847 423.034 65.7287 416.22C62.4398 415.821 59.9814 412.963 60.0478 409.639L65.1972 63.488C65.2304 58.8013 69.4495 55.2447 74.1006 55.976Z" fill="white"/>
<g opacity="0.6">
<path opacity="0.6" d="M296.619 99.9845C297.35 99.9845 297.914 99.4194 297.881 98.6882L297.782 96.5941C297.748 95.8628 297.117 95.2645 296.386 95.2313L94.997 89.4477C94.2661 89.4145 94.0336 89.8798 94.4655 90.4781L97.7876 94.8324C98.2195 95.3975 99.1829 95.8961 99.9138 95.9293L296.619 99.9845Z" fill="white"/>
</g>
<g opacity="0.6">
<path opacity="0.6" d="M94.7644 102.61C94.0335 102.577 93.801 103.042 94.2329 103.641L97.555 107.995C97.9869 108.56 98.9503 109.059 99.6812 109.092L296.353 113.18C297.084 113.18 297.649 112.615 297.615 111.884L297.516 109.79C297.483 109.059 296.851 108.46 296.12 108.427L94.7644 102.61Z" fill="white"/>
</g>
<path d="M127.621 223.068C127.587 223.068 127.587 223.068 127.554 223.068L101.11 223.135C97.2893 223.135 94.1332 220.542 93.7346 217.119L91.1433 194.948C90.9772 193.619 91.3758 192.322 92.2396 191.259C93.203 190.062 94.698 189.331 96.2926 189.198C98.5185 189.032 101.608 188.732 104.963 188.4C112.305 187.702 120.644 186.871 125.561 186.771C125.594 186.771 125.627 186.771 125.661 186.771C129.182 186.738 132.205 188.832 133.069 191.923C134.497 197.009 134.497 206.682 134.365 216.952C134.331 220.243 131.308 223.002 127.621 223.068ZM96.492 191.292C95.4621 191.358 94.5319 191.857 93.9339 192.588C93.4356 193.187 93.203 193.918 93.3027 194.649L95.894 216.819C96.1597 219.179 98.4188 220.941 101.143 220.941L127.587 220.875C127.621 220.875 127.621 220.875 127.654 220.875C130.179 220.841 132.272 219.046 132.272 216.819C132.404 206.715 132.438 197.208 131.076 192.389C130.478 190.261 128.152 188.699 125.661 188.832C120.843 188.932 112.173 189.796 105.229 190.461C101.807 190.827 98.7178 191.126 96.492 191.292Z" fill="white"/>
<path opacity="0.6" d="M99.3491 193.486C104.897 193.054 116.957 191.658 122.704 191.525C125.129 191.458 127.288 192.921 127.886 195.015C129.049 199.103 128.983 207.247 128.883 214.759C128.85 217.019 126.79 218.847 124.265 218.847L103.136 218.88C100.545 218.88 98.3524 217.152 98.0866 214.825L96.0269 197.109C95.7943 195.314 97.2893 193.652 99.3491 193.486Z" fill="white"/>
<g opacity="0.6">
<path opacity="0.6" d="M149.746 199.735C149.015 199.735 148.583 200.3 148.783 200.998L151.706 211.634C151.906 212.332 152.67 212.898 153.401 212.898L288.28 211.335C289.011 211.335 289.576 210.737 289.576 210.006L289.343 202.793C289.31 202.062 288.712 201.463 287.981 201.463L149.746 199.735Z" fill="white"/>
</g>
<path d="M100.512 196.976C102.472 195.812 104.997 196.444 106.126 198.438L111.442 207.745C111.973 208.676 113.335 208.609 113.767 207.612L126.358 178.628C126.989 177.198 129.149 177.63 129.116 179.226C129.082 188.034 126.956 204.82 113.036 219.013C113.036 219.013 105.229 216.088 98.8175 202.427C97.9537 200.466 98.6514 198.106 100.512 196.976Z" fill="#FF6F41"/>
<path d="M129.381 163.637C129.348 163.637 129.348 163.637 129.315 163.637L102.87 163.703C99.05 163.703 95.8939 161.111 95.4953 157.687L92.904 135.517C92.7379 134.187 93.1365 132.891 94.0003 131.827C94.9637 130.631 96.4587 129.899 98.0533 129.766C100.279 129.6 103.369 129.301 106.724 128.969C114.066 128.271 122.405 127.44 127.322 127.34C127.355 127.34 127.388 127.34 127.421 127.34C130.943 127.307 133.966 129.401 134.83 132.492C136.258 137.578 136.258 147.25 136.125 157.521C136.125 160.845 133.102 163.604 129.381 163.637ZM98.2527 131.894C97.2228 131.96 96.2926 132.459 95.6946 133.19C95.1963 133.788 94.9637 134.52 95.0634 135.251L97.6547 157.421C97.9204 159.781 100.18 161.543 102.904 161.543L129.348 161.476C129.381 161.476 129.381 161.476 129.415 161.476C131.939 161.443 134.032 159.648 134.032 157.421C134.165 147.317 134.198 137.81 132.836 132.991C132.238 130.863 129.913 129.301 127.421 129.434C122.604 129.534 113.933 130.398 106.99 131.063C103.568 131.395 100.479 131.694 98.2527 131.894Z" fill="white"/>
<path opacity="0.6" d="M101.11 134.088C106.658 133.655 118.717 132.259 124.465 132.126C126.89 132.06 129.049 133.522 129.647 135.617C130.81 139.705 130.743 147.848 130.644 155.361C130.611 157.621 128.551 159.449 126.026 159.449L104.897 159.482C102.306 159.482 100.113 157.754 99.8473 155.427L97.7876 137.711C97.555 135.882 99.05 134.254 101.11 134.088Z" fill="white"/>
<g opacity="0.6">
<path opacity="0.6" d="M151.507 140.303C150.776 140.303 150.344 140.869 150.544 141.567L153.467 152.203C153.666 152.901 154.43 153.466 155.161 153.466L290.041 151.904C290.772 151.904 291.337 151.306 291.337 150.574L291.104 143.361C291.071 142.63 290.473 142.032 289.742 142.032L151.507 140.303Z" fill="white"/>
</g>
<path d="M102.273 137.545C104.233 136.381 106.757 137.013 107.887 139.007L113.202 148.314C113.734 149.245 115.096 149.178 115.528 148.181L128.119 119.197C128.75 117.767 130.91 118.2 130.876 119.795C130.843 128.603 128.717 145.389 114.797 159.582C114.797 159.582 106.99 156.657 100.578 142.996C99.7145 141.035 100.412 138.675 102.273 137.545Z" fill="#FF6F41"/>
<path d="M128.285 279.774C128.252 279.774 128.252 279.774 128.219 279.774L101.774 279.841C97.9538 279.841 94.7977 277.248 94.3991 273.824L91.8078 251.654C91.6417 250.324 92.0403 249.028 92.9041 247.964C93.8675 246.768 95.3625 246.037 96.9571 245.904C99.183 245.737 102.273 245.438 105.628 245.106C112.97 244.408 121.309 243.577 126.225 243.477C126.259 243.477 126.292 243.477 126.325 243.477C129.847 243.444 132.87 245.538 133.733 248.629C135.162 253.715 135.162 263.387 135.029 273.658C134.996 276.982 131.973 279.741 128.285 279.774ZM97.1232 248.031C96.0934 248.097 95.1632 248.596 94.5652 249.327C94.0668 249.926 93.8343 250.657 93.934 251.388L96.5252 273.558C96.791 275.918 99.0501 277.68 101.774 277.68L128.219 277.614C128.252 277.614 128.252 277.614 128.285 277.614C130.81 277.58 132.903 275.785 132.903 273.558C133.036 263.454 133.069 253.947 131.707 249.161C131.109 247.034 128.783 245.505 126.292 245.571C121.475 245.671 112.804 246.535 105.861 247.2C102.472 247.532 99.3823 247.832 97.1232 248.031Z" fill="white"/>
<path opacity="0.6" d="M100.013 250.225C105.561 249.793 117.621 248.43 123.368 248.264C125.793 248.197 127.953 249.66 128.551 251.754C129.714 255.842 129.647 263.986 129.547 271.498C129.514 273.758 127.454 275.586 124.93 275.586L103.801 275.619C101.209 275.619 99.0168 273.891 98.751 271.564L96.6913 253.848C96.4255 252.02 97.9537 250.391 100.013 250.225Z" fill="white"/>
<g opacity="0.6">
<path opacity="0.6" d="M150.377 256.44C149.647 256.44 149.215 257.005 149.414 257.704L152.337 268.34C152.537 269.038 153.301 269.603 154.032 269.603L288.911 268.041C289.642 268.041 290.207 267.442 290.207 266.711L289.975 259.498C289.941 258.767 289.343 258.169 288.612 258.169L150.377 256.44Z" fill="white"/>
</g>
<path d="M101.176 253.682C103.136 252.518 105.661 253.15 106.791 255.144L112.106 264.451C112.638 265.382 114 265.315 114.432 264.318L127.023 235.334C127.654 233.905 129.813 234.337 129.78 235.932C129.747 244.741 127.621 261.526 113.701 275.719C113.701 275.719 105.894 272.794 99.5152 259.133C98.585 257.172 99.3158 254.812 101.176 253.682Z" fill="#FF6F41"/>
<path d="M126.425 334.286C126.391 334.286 126.391 334.286 126.358 334.286L99.9138 334.353C96.0934 334.353 92.9373 331.76 92.5386 328.336L89.9474 306.166C89.7813 304.836 90.1799 303.54 91.0437 302.476C92.0071 301.28 93.5021 300.548 95.0967 300.416C97.3226 300.249 100.379 299.95 103.768 299.618C110.777 298.953 119.481 298.089 124.365 297.989C127.853 297.923 131.009 300.017 131.906 303.141C133.335 308.227 133.335 317.899 133.202 328.17C133.169 331.461 130.112 334.22 126.425 334.286ZM95.296 302.51C94.2662 302.576 93.336 303.075 92.738 303.806C92.2396 304.404 92.0071 305.135 92.1068 305.867L94.698 328.037C94.9638 330.397 97.2229 332.159 99.9471 332.159L126.391 332.092C128.883 332.026 131.042 330.264 131.076 328.037C131.209 317.932 131.242 308.426 129.88 303.606C129.282 301.479 126.956 299.983 124.465 300.05C119.647 300.15 110.977 301.014 104.033 301.679C100.611 302.044 97.5219 302.343 95.296 302.51Z" fill="white"/>
<path opacity="0.6" d="M98.153 304.704C103.701 304.271 115.76 302.909 121.508 302.742C123.933 302.676 126.092 304.138 126.69 306.232C127.853 310.321 127.787 318.464 127.687 325.976C127.654 328.237 125.594 330.065 123.069 330.065L101.94 330.098C99.349 330.098 97.1563 328.37 96.8906 326.043L94.8309 308.327C94.5983 306.532 96.0933 304.87 98.153 304.704Z" fill="white"/>
<g opacity="0.6">
<path opacity="0.6" d="M148.55 310.952C147.819 310.952 147.387 311.517 147.587 312.215L150.51 322.852C150.71 323.55 151.474 324.115 152.205 324.115L287.084 322.553C287.815 322.553 288.38 321.954 288.38 321.223L288.147 314.01C288.114 313.279 287.516 312.681 286.785 312.681L148.55 310.952Z" fill="white"/>
</g>
<path d="M99.3159 308.194C101.276 307.03 103.801 307.662 104.93 309.656L110.246 318.963C110.777 319.894 112.139 319.827 112.571 318.83L125.162 289.846C125.793 288.416 127.953 288.848 127.92 290.444C127.886 299.252 125.76 316.038 111.84 330.231C111.84 330.231 104.033 327.306 97.6216 313.645C96.7578 311.684 97.4555 309.324 99.3159 308.194Z" fill="#FF6F41"/>
<path d="M124.099 390.46C124.066 390.46 124.066 390.46 124.033 390.46L97.5883 390.527C93.7679 390.527 90.6118 387.934 90.2131 384.51L87.6219 362.34C87.4558 361.01 87.8544 359.714 88.7182 358.65C89.6816 357.454 91.1766 356.723 92.7712 356.59C94.9971 356.423 98.0867 356.124 101.442 355.792C108.784 355.094 117.123 354.263 122.039 354.163C125.627 354.163 128.684 356.191 129.581 359.315C131.009 364.401 131.009 374.073 130.876 384.344C130.81 387.668 127.787 390.427 124.099 390.46ZM92.9373 358.717C91.9075 358.783 90.9772 359.282 90.3793 360.013C89.8809 360.611 89.6484 361.343 89.748 362.074L92.3393 384.244C92.6051 386.604 94.8642 388.366 97.5883 388.366L124.033 388.3C124.066 388.3 124.066 388.3 124.099 388.3C126.624 388.266 128.717 386.471 128.717 384.244C128.85 374.14 128.883 364.633 127.521 359.814C126.923 357.686 124.598 356.191 122.106 356.257C117.289 356.357 108.618 357.221 101.675 357.886C98.2528 358.252 95.1632 358.551 92.9373 358.717Z" fill="white"/>
<path opacity="0.6" d="M95.7944 360.911C101.342 360.479 113.402 359.116 119.149 358.95C121.574 358.883 123.734 360.346 124.332 362.44C125.495 366.528 125.428 374.672 125.328 382.184C125.295 384.444 123.235 386.272 120.711 386.272L99.5816 386.305C96.9904 386.305 94.7977 384.577 94.532 382.25L92.4722 364.534C92.2397 362.739 93.7346 361.077 95.7944 360.911Z" fill="white"/>
<g opacity="0.6">
<path opacity="0.6" d="M146.191 367.16C145.461 367.16 145.029 367.725 145.228 368.423L148.152 379.059C148.351 379.757 149.115 380.322 149.846 380.322L284.726 378.76C285.456 378.76 286.021 378.162 286.021 377.431L285.789 370.218C285.755 369.486 285.157 368.888 284.427 368.888L146.191 367.16Z" fill="white"/>
</g>
<path d="M96.9571 364.401C98.9172 363.237 101.442 363.869 102.572 365.863L107.887 375.17C108.419 376.101 109.781 376.034 110.212 375.037L122.803 346.053C123.435 344.623 125.594 345.055 125.561 346.651C125.528 355.459 123.401 372.245 109.482 386.438C109.482 386.438 101.675 383.513 95.2628 369.852C94.399 367.891 95.0967 365.498 96.9571 364.401Z" fill="#FF6F41"/>
<path d="M203.1 6.05091C194.728 -0.0318285 187.353 -0.0650674 182.137 1.36421C177.353 2.66053 174.197 7.18103 174.563 12.1004L176.29 36.6308L202.901 39.5558C202.868 39.5558 219.512 17.9837 203.1 6.05091ZM190.974 25.5289C187.287 25.4625 184.396 22.4045 184.463 18.7482C184.529 15.0587 187.586 12.1669 191.24 12.2334C194.928 12.2998 197.818 15.3578 197.751 19.0141C197.685 22.7036 194.629 25.6287 190.974 25.5289Z" fill="#00827A"/>
<path d="M178.682 26.9582C178.217 26.792 177.885 26.3599 177.852 25.8281L177.586 21.9391C177.52 21.2078 178.084 20.5763 178.815 20.5431C179.546 20.4766 180.177 21.0417 180.21 21.7729L180.476 25.6619C180.543 26.3931 179.978 27.0247 179.247 27.0579C179.048 27.0579 178.848 27.0247 178.682 26.9582ZM178.151 19.3132C177.686 19.147 177.353 18.7149 177.32 18.1831L177.121 15.2248C176.755 10.2057 180.011 5.61875 184.862 4.28919C188.184 3.39174 191.572 3.32526 194.928 4.08976C195.625 4.25595 196.09 4.95397 195.924 5.68523C195.758 6.38325 195.061 6.8486 194.33 6.6824C191.373 6.01762 188.416 6.0841 185.526 6.8486C181.905 7.84577 179.48 11.2694 179.745 15.0586L179.945 18.0169C180.011 18.7482 179.446 19.3797 178.716 19.4129C178.516 19.4129 178.317 19.3797 178.151 19.3132Z" fill="url(#paint2_linear)"/>
<path d="M139.547 51.688L139.813 39.3895C139.913 35.135 143.501 31.8111 147.72 32.0437L232.435 36.6972C236.189 36.8966 239.179 39.9546 239.312 43.7106L239.777 55.5437L139.547 51.688Z" fill="#00827A"/>
<path d="M171.473 37.2289L167.819 37.1624C167.42 37.1624 167.121 36.83 167.121 36.4312C167.121 36.0323 167.453 35.7332 167.819 35.7332L171.473 35.7996C171.872 35.7996 172.171 36.132 172.171 36.5309C172.204 36.9298 171.872 37.2289 171.473 37.2289Z" fill="url(#paint3_linear)"/>
<path d="M143.766 48.4971C143.268 48.2977 142.903 47.7991 142.936 47.234L143.035 42.2482C143.069 40.2206 143.899 38.2927 145.394 36.8967C146.856 35.4674 148.816 34.7362 150.843 34.7694L164.231 35.0353C164.962 35.0685 165.526 35.6668 165.526 36.3981C165.526 37.1294 164.895 37.6944 164.164 37.6944L150.776 37.4285C148.019 37.362 145.726 39.5558 145.66 42.3479L145.56 47.3337C145.56 48.065 144.929 48.6301 144.198 48.6301C144.032 48.5968 143.899 48.5636 143.766 48.4971Z" fill="url(#paint4_linear)"/>
<path d="M113.07 46.6358L261.338 49.727C266.653 49.8267 271.138 53.7822 271.935 59.0339L272.035 59.7652C272.899 65.5488 268.381 70.7008 262.534 70.6011L110.445 67.4102C106.957 67.3437 104.233 64.3522 104.465 60.8621L104.93 54.0481C105.229 49.7935 108.817 46.5361 113.07 46.6358Z" fill="#00827A"/>
<path d="M16.0713 383.665L15.1811 381.987C15.0784 381.781 15.1469 381.507 15.3523 381.405C15.5577 381.302 15.8316 381.37 15.9343 381.576V381.61L16.8245 383.254C16.9272 383.46 16.8588 383.734 16.6533 383.837C16.4137 383.939 16.174 383.871 16.0713 383.665Z" fill="#7D97F4"/>
<path d="M13.4007 377.876L12.8187 376.061C12.7502 375.821 12.8529 375.581 13.0926 375.513C13.3322 375.444 13.5719 375.547 13.6404 375.787V375.821L14.2224 377.602V377.637C14.2909 377.876 14.1882 378.116 13.9485 378.185C13.7089 378.219 13.4692 378.082 13.4007 377.876Z" fill="#7D97F4"/>
<path d="M11.86 371.676C11.7916 371.025 11.7231 370.409 11.6888 369.758C11.6888 369.518 11.86 369.312 12.0997 369.278C12.3394 369.278 12.5448 369.449 12.579 369.689C12.6133 370.306 12.6817 370.922 12.7502 371.539C12.7844 371.779 12.6133 371.984 12.3736 372.019C12.0997 372.053 11.8943 371.916 11.86 371.676Z" fill="#7D97F4"/>
<path d="M11.7916 365.236C11.8601 364.585 11.9628 363.969 12.0997 363.318C12.134 363.078 12.3736 362.941 12.6133 362.975C12.853 363.009 12.9899 363.249 12.9557 363.489C12.8187 364.106 12.7503 364.722 12.6475 365.339C12.6133 365.579 12.4079 365.75 12.1682 365.716C11.9285 365.716 11.7574 365.51 11.7916 365.236Z" fill="#7D97F4"/>
<path d="M13.3666 359.036C13.6063 358.453 13.8802 357.837 14.1541 357.289C14.2568 357.083 14.5307 356.98 14.7361 357.083C14.9415 357.186 15.0443 357.46 14.9415 357.665C14.6676 358.213 14.428 358.796 14.1883 359.378C14.0856 359.618 13.8459 359.721 13.6062 359.618C13.4008 359.515 13.2981 359.275 13.3666 359.036Z" fill="#7D97F4"/>
<path d="M16.4479 353.418L17.612 351.876C17.7489 351.671 18.0571 351.636 18.2283 351.773C18.4337 351.91 18.4679 352.219 18.331 352.39V352.424L17.2011 353.931V353.966C17.0642 354.171 16.7903 354.206 16.5849 354.068C16.3109 353.897 16.2767 353.623 16.4479 353.418Z" fill="#7D97F4"/>
<path d="M20.5907 348.553L21.9945 347.252C22.1657 347.08 22.4738 347.08 22.645 347.286C22.8162 347.457 22.8162 347.766 22.6108 347.937L21.2412 349.204C21.0701 349.376 20.7619 349.376 20.5907 349.17C20.3853 348.999 20.3853 348.725 20.5907 348.553Z" fill="#7D97F4"/>
<path d="M25.4525 344.443L27.0275 343.346C27.2329 343.209 27.5068 343.244 27.678 343.449C27.815 343.655 27.7807 343.929 27.5753 344.1L26.0346 345.162C25.8292 345.299 25.5552 345.265 25.4183 345.059C25.2129 344.888 25.2471 344.58 25.4525 344.443Z" fill="#7D97F4"/>
<path d="M30.8279 341.017L32.5056 340.126C32.7452 339.989 33.0191 340.092 33.1219 340.298C33.2588 340.537 33.1561 340.812 32.9507 340.914L31.3073 341.805C31.0676 341.942 30.7937 341.839 30.691 341.634C30.5198 341.428 30.5883 341.154 30.8279 341.017Z" fill="#7D97F4"/>
<path d="M36.5114 338.208L38.2575 337.454C38.4972 337.351 38.7711 337.454 38.8738 337.694C38.9765 337.934 38.8738 338.208 38.6341 338.311L36.888 339.03C36.6483 339.133 36.3744 339.03 36.2717 338.79C36.169 338.585 36.2717 338.311 36.5114 338.208Z" fill="#7D97F4"/>
<path d="M42.4346 335.879L44.2492 335.262C44.4889 335.194 44.7628 335.296 44.8313 335.571C44.8998 335.81 44.797 336.084 44.5231 336.153L42.7428 336.735C42.5031 336.804 42.2292 336.701 42.1607 336.427C42.058 336.221 42.195 335.947 42.4346 335.879Z" fill="#7D97F4"/>
<path d="M48.4947 333.995L50.3435 333.515C50.5832 333.447 50.8571 333.618 50.9256 333.858C50.994 334.098 50.8571 334.372 50.5832 334.44L48.7686 334.92C48.5289 334.988 48.255 334.817 48.1866 334.577C48.0839 334.337 48.2208 334.063 48.4947 333.995Z" fill="#7D97F4"/>
<path d="M54.6576 332.556L56.5406 332.179C56.8145 332.145 57.0542 332.282 57.0884 332.556C57.1227 332.83 56.9857 333.07 56.7118 333.104L54.863 333.446C54.5891 333.481 54.3494 333.344 54.3152 333.07C54.2467 332.864 54.3837 332.59 54.6576 332.556Z" fill="#7D97F4"/>
<path d="M60.8889 331.46L62.7719 331.185C63.0459 331.151 63.2855 331.323 63.3197 331.597C63.354 331.871 63.1828 332.11 62.9089 332.145L61.0258 332.384C60.7519 332.419 60.5122 332.247 60.478 331.973C60.4438 331.734 60.6492 331.494 60.8889 331.46Z" fill="#7D97F4"/>
<path d="M67.1886 330.706L69.0717 330.535C69.3456 330.5 69.5853 330.706 69.5853 330.98C69.6195 331.254 69.4141 331.494 69.1402 331.494L67.2571 331.631C66.9832 331.665 66.7435 331.46 66.7435 331.186C66.7435 330.98 66.9147 330.74 67.1886 330.706Z" fill="#7D97F4"/>
<path d="M73.5227 330.295L75.4059 330.226C75.6798 330.226 75.8852 330.432 75.9194 330.706C75.9194 330.98 75.714 331.186 75.4401 331.22L73.557 331.288C73.2831 331.288 73.0776 331.083 73.0434 330.809C73.0434 330.535 73.2488 330.329 73.5227 330.295Z" fill="#7D97F4"/>
<path d="M79.8568 330.226L81.7741 330.261C82.048 330.261 82.2534 330.5 82.2534 330.774C82.2534 331.048 82.0137 331.254 81.7398 331.254L79.8568 331.22C79.5829 331.22 79.3774 330.98 79.3774 330.706C79.3774 330.432 79.5829 330.226 79.8568 330.226Z" fill="#7D97F4"/>
<path d="M86.1907 330.432L88.0738 330.569C88.3477 330.603 88.5531 330.809 88.5189 331.083C88.4846 331.357 88.2792 331.563 88.0053 331.528L86.1222 331.391C85.8483 331.357 85.6429 331.152 85.6771 330.877C85.6771 330.638 85.9168 330.432 86.1907 330.432Z" fill="#7D97F4"/>
<path d="M92.4905 330.946L94.3736 331.151C94.6475 331.185 94.8529 331.425 94.8187 331.699C94.7844 331.973 94.5448 332.179 94.2709 332.145L92.3878 331.939C92.1139 331.905 91.9085 331.665 91.9427 331.391C91.9769 331.117 92.2166 330.911 92.4905 330.946Z" fill="#7D97F4"/>
<path d="M98.7903 331.665L100.673 331.905C100.947 331.939 101.153 332.179 101.118 332.453C101.084 332.727 100.845 332.932 100.571 332.898L98.6876 332.658C98.4137 332.624 98.2083 332.384 98.2425 332.11C98.2425 331.802 98.5164 331.631 98.7903 331.665Z" fill="#7D97F4"/>
<path d="M105.056 332.522L106.939 332.83C107.213 332.864 107.418 333.138 107.35 333.412C107.316 333.686 107.042 333.892 106.768 333.823L104.885 333.515C104.611 333.481 104.405 333.207 104.474 332.933C104.508 332.693 104.782 332.487 105.056 332.522Z" fill="#7D97F4"/>
<path d="M111.287 333.549L113.17 333.892C113.444 333.926 113.615 334.2 113.581 334.474C113.547 334.748 113.273 334.919 112.999 334.885L111.15 334.543C110.876 334.508 110.705 334.234 110.739 333.96C110.739 333.686 111.013 333.515 111.287 333.549Z" fill="#7D97F4"/>
<path d="M117.519 334.748L119.367 335.125C119.641 335.193 119.812 335.468 119.778 335.742C119.71 336.016 119.436 336.187 119.162 336.153L117.313 335.776C117.039 335.707 116.868 335.433 116.902 335.159C116.971 334.851 117.21 334.68 117.519 334.748Z" fill="#7D97F4"/>
<path d="M123.681 336.05L125.53 336.461C125.804 336.53 125.975 336.804 125.907 337.078C125.838 337.352 125.564 337.523 125.291 337.454L123.442 337.043C123.168 336.975 122.997 336.701 123.065 336.427C123.134 336.187 123.407 336.016 123.681 336.05Z" fill="#7D97F4"/>
<path d="M129.844 337.523L131.693 337.968C131.967 338.037 132.138 338.311 132.07 338.585C132.001 338.859 131.727 339.03 131.453 338.962L129.605 338.482C129.331 338.413 129.159 338.139 129.228 337.865C129.296 337.626 129.57 337.454 129.844 337.523Z" fill="#7D97F4"/>
<path d="M135.973 339.099L137.787 339.612C138.061 339.681 138.232 339.989 138.164 340.263C138.096 340.537 137.787 340.709 137.513 340.64L135.699 340.126C135.425 340.058 135.254 339.749 135.322 339.475C135.391 339.201 135.699 339.03 135.973 339.099Z" fill="#7D97F4"/>
<path d="M142.067 340.812L143.882 341.36C144.156 341.428 144.327 341.737 144.224 342.011C144.156 342.285 143.848 342.456 143.574 342.353L141.759 341.805C141.485 341.737 141.314 341.428 141.417 341.154C141.485 340.88 141.759 340.743 142.067 340.812Z" fill="#7D97F4"/>
<path d="M148.093 342.627L149.908 343.209C150.182 343.312 150.353 343.586 150.25 343.86C150.147 344.134 149.873 344.306 149.6 344.203L147.785 343.62C147.511 343.518 147.34 343.244 147.443 342.97C147.545 342.696 147.819 342.559 148.093 342.627Z" fill="#7D97F4"/>
<path d="M154.119 344.545L155.934 345.128C156.207 345.23 156.379 345.504 156.276 345.813C156.173 346.087 155.899 346.258 155.591 346.155L153.811 345.573C153.537 345.47 153.366 345.196 153.468 344.888C153.537 344.614 153.845 344.477 154.119 344.545Z" fill="#7D97F4"/>
<path d="M160.111 346.566L161.891 347.183C162.165 347.286 162.302 347.594 162.233 347.868C162.131 348.142 161.822 348.279 161.549 348.211L159.768 347.594C159.494 347.491 159.357 347.183 159.426 346.909C159.529 346.635 159.837 346.498 160.111 346.566Z" fill="#7D97F4"/>
<path d="M166.068 348.691L167.848 349.341C168.122 349.444 168.259 349.753 168.156 350.027C168.054 350.301 167.746 350.438 167.472 350.335L165.691 349.684C165.417 349.581 165.281 349.273 165.383 348.999C165.486 348.725 165.794 348.588 166.068 348.691Z" fill="#7D97F4"/>
<path d="M171.991 350.883L173.771 351.568C174.045 351.671 174.182 351.979 174.08 352.253C173.977 352.527 173.669 352.664 173.395 352.561L171.615 351.876C171.341 351.773 171.204 351.465 171.306 351.191C171.409 350.917 171.717 350.78 171.991 350.883Z" fill="#7D97F4"/>
<path d="M177.88 353.178L179.66 353.863C179.934 353.965 180.071 354.274 179.969 354.582C179.866 354.856 179.558 354.993 179.25 354.89L177.504 354.205C177.23 354.103 177.093 353.794 177.195 353.486C177.298 353.178 177.606 353.041 177.88 353.178Z" fill="#7D97F4"/>
<path d="M183.769 355.507L185.515 356.227C185.789 356.329 185.926 356.672 185.823 356.946C185.721 357.22 185.378 357.357 185.104 357.254L183.358 356.535C183.084 356.432 182.947 356.09 183.05 355.816C183.153 355.542 183.495 355.404 183.769 355.507Z" fill="#7D97F4"/>
<path d="M189.624 357.905L191.37 358.624C191.644 358.727 191.781 359.07 191.678 359.344C191.575 359.618 191.233 359.755 190.959 359.652L189.213 358.933C188.939 358.83 188.802 358.487 188.905 358.213C189.008 357.939 189.316 357.802 189.624 357.905Z" fill="#7D97F4"/>
<path d="M195.41 360.372L197.156 361.125C197.43 361.262 197.567 361.571 197.43 361.845C197.293 362.119 196.985 362.256 196.711 362.119L194.965 361.365C194.691 361.228 194.554 360.92 194.657 360.646C194.828 360.372 195.136 360.269 195.41 360.372Z" fill="#7D97F4"/>
<path d="M201.23 362.872L202.977 363.626C203.25 363.763 203.387 364.071 203.25 364.345C203.113 364.619 202.805 364.756 202.531 364.619L200.785 363.866C200.511 363.729 200.375 363.42 200.511 363.146C200.614 362.872 200.957 362.77 201.23 362.872Z" fill="#7D97F4"/>
<path d="M207.017 365.442L208.763 366.23C209.037 366.367 209.174 366.675 209.037 366.983C208.9 367.257 208.592 367.394 208.284 367.257L206.572 366.469C206.298 366.332 206.161 366.024 206.298 365.716C206.4 365.442 206.709 365.305 207.017 365.442Z" fill="#7D97F4"/>
<path d="M212.769 368.011L214.481 368.799C214.754 368.936 214.891 369.244 214.754 369.552C214.617 369.826 214.309 369.963 214.001 369.826L212.289 369.038C212.015 368.901 211.878 368.593 212.015 368.285C212.152 368.011 212.495 367.874 212.769 368.011Z" fill="#7D97F4"/>
<path d="M218.521 370.614L220.233 371.402C220.506 371.539 220.643 371.882 220.506 372.156C220.369 372.43 220.027 372.567 219.753 372.43L218.041 371.642C217.767 371.505 217.63 371.162 217.767 370.888C217.904 370.614 218.247 370.511 218.521 370.614Z" fill="#7D97F4"/>
<path d="M224.273 373.252L225.984 374.04C226.258 374.177 226.395 374.519 226.258 374.793C226.121 375.067 225.779 375.204 225.505 375.067L223.793 374.279C223.519 374.142 223.382 373.8 223.519 373.526C223.622 373.252 223.964 373.115 224.273 373.252Z" fill="#7D97F4"/>
<path d="M229.99 375.924L231.702 376.712C231.976 376.849 232.113 377.191 231.976 377.465C231.839 377.739 231.497 377.876 231.223 377.739L229.511 376.951C229.237 376.814 229.1 376.472 229.237 376.198C229.374 375.89 229.716 375.787 229.99 375.924Z" fill="#7D97F4"/>
<path d="M235.708 378.561L237.42 379.349C237.694 379.486 237.831 379.829 237.694 380.103C237.557 380.377 237.215 380.514 236.941 380.377L235.229 379.589C234.955 379.452 234.818 379.109 234.955 378.835C235.092 378.561 235.434 378.424 235.708 378.561Z" fill="#7D97F4"/>
<path d="M241.46 381.199L243.172 381.987C243.446 382.124 243.583 382.467 243.446 382.741C243.309 383.015 242.967 383.152 242.693 383.015L240.981 382.227C240.707 382.09 240.57 381.747 240.707 381.473C240.81 381.199 241.152 381.062 241.46 381.199Z" fill="#7D97F4"/>
<path d="M247.178 383.837L248.89 384.625C249.198 384.762 249.301 385.104 249.164 385.413C249.027 385.721 248.684 385.824 248.376 385.687L246.664 384.899C246.356 384.762 246.253 384.419 246.39 384.111C246.562 383.837 246.904 383.7 247.178 383.837Z" fill="#7D97F4"/>
<path d="M252.93 386.475L254.642 387.263C254.95 387.4 255.053 387.742 254.95 388.05C254.813 388.359 254.471 388.462 254.162 388.359L252.45 387.571C252.142 387.434 252.04 387.091 252.142 386.783C252.279 386.44 252.622 386.338 252.93 386.475Z" fill="#7D97F4"/>
<path d="M258.682 389.044L260.394 389.832C260.702 389.969 260.839 390.311 260.702 390.62C260.565 390.928 260.222 391.065 259.914 390.928L258.168 390.14C257.86 390.003 257.723 389.66 257.86 389.352C258.031 389.044 258.374 388.907 258.682 389.044Z" fill="#7D97F4"/>
<path d="M264.434 391.613L266.18 392.367C266.488 392.504 266.625 392.846 266.488 393.154C266.351 393.463 266.009 393.6 265.701 393.463L263.954 392.709C263.646 392.572 263.509 392.23 263.646 391.921C263.783 391.613 264.16 391.476 264.434 391.613Z" fill="#7D97F4"/>
<path d="M270.22 394.114L271.966 394.867C272.274 395.004 272.411 395.347 272.274 395.655C272.137 395.964 271.795 396.101 271.487 395.964L269.741 395.21C269.433 395.073 269.296 394.73 269.433 394.422C269.569 394.148 269.912 394.011 270.22 394.114Z" fill="#7D97F4"/>
<path d="M276.04 396.614L277.787 397.334C278.095 397.471 278.232 397.813 278.095 398.121C277.958 398.43 277.615 398.567 277.307 398.43L275.561 397.71C275.253 397.573 275.116 397.231 275.253 396.922C275.39 396.614 275.732 396.477 276.04 396.614Z" fill="#7D97F4"/>
<path d="M281.861 399.012L283.607 399.732C283.915 399.869 284.052 400.211 283.949 400.52C283.812 400.828 283.47 400.965 283.162 400.862L281.416 400.143C281.108 400.006 280.971 399.663 281.073 399.355C281.21 399.047 281.553 398.909 281.861 399.012Z" fill="#7D97F4"/>
<path d="M287.716 401.376L289.462 402.061C289.77 402.198 289.941 402.54 289.804 402.849C289.667 403.157 289.325 403.328 289.017 403.191L287.271 402.506C286.962 402.369 286.825 402.027 286.928 401.718C287.031 401.41 287.407 401.273 287.716 401.376Z" fill="#7D97F4"/>
<path d="M293.57 403.671L295.351 404.356C295.659 404.459 295.83 404.836 295.693 405.144C295.59 405.452 295.214 405.624 294.906 405.487L293.125 404.801C292.817 404.699 292.646 404.322 292.783 404.014C292.92 403.705 293.262 403.568 293.57 403.671Z" fill="#7D97F4"/>
<path d="M299.494 405.898L301.274 406.548C301.582 406.651 301.753 407.028 301.65 407.336C301.548 407.645 301.171 407.816 300.863 407.713L299.083 407.062C298.775 406.96 298.603 406.583 298.706 406.274C298.809 405.932 299.151 405.761 299.494 405.898Z" fill="#7D97F4"/>
<path d="M305.417 408.022L307.197 408.638C307.505 408.741 307.676 409.084 307.574 409.426C307.471 409.734 307.129 409.906 306.786 409.803L305.006 409.186C304.698 409.083 304.527 408.741 304.629 408.398C304.732 408.09 305.074 407.919 305.417 408.022Z" fill="#7D97F4"/>
<path d="M311.374 410.077L313.154 410.659C313.463 410.762 313.668 411.105 313.565 411.447C313.463 411.756 313.12 411.961 312.778 411.858L310.963 411.276C310.655 411.173 310.45 410.831 310.587 410.488C310.689 410.145 311.066 409.974 311.374 410.077Z" fill="#7D97F4"/>
<path d="M317.366 411.995L319.18 412.543C319.523 412.646 319.694 412.989 319.591 413.331C319.488 413.674 319.146 413.845 318.804 413.742L316.989 413.16C316.647 413.057 316.476 412.715 316.578 412.372C316.681 412.098 317.023 411.892 317.366 411.995Z" fill="#7D97F4"/>
<path d="M323.392 413.845L325.206 414.359C325.549 414.462 325.72 414.804 325.617 415.147C325.514 415.489 325.172 415.661 324.83 415.558L323.015 415.01C322.673 414.907 322.502 414.564 322.604 414.222C322.707 413.948 323.049 413.742 323.392 413.845Z" fill="#7D97F4"/>
<path d="M329.452 415.592L331.266 416.072C331.609 416.175 331.814 416.517 331.711 416.825C331.609 417.168 331.266 417.373 330.958 417.271L329.144 416.757C328.801 416.654 328.596 416.312 328.698 416.003C328.767 415.695 329.109 415.489 329.452 415.592Z" fill="#7D97F4"/>
<path d="M335.546 417.202L337.395 417.647C337.737 417.716 337.943 418.059 337.84 418.401C337.772 418.744 337.429 418.949 337.087 418.846L335.238 418.401C334.896 418.333 334.69 417.99 334.793 417.647C334.861 417.305 335.204 417.099 335.546 417.202Z" fill="#7D97F4"/>
<path d="M341.675 418.675L343.524 419.086C343.866 419.155 344.071 419.497 344.003 419.84C343.934 420.182 343.592 420.388 343.25 420.319L341.401 419.908C341.058 419.84 340.853 419.497 340.922 419.155C340.99 418.812 341.332 418.607 341.675 418.675Z" fill="#7D97F4"/>
<path d="M347.803 420.011L349.652 420.388C349.995 420.457 350.234 420.799 350.166 421.142C350.097 421.484 349.755 421.724 349.412 421.655L347.564 421.279C347.221 421.21 346.982 420.868 347.084 420.525C347.119 420.183 347.461 419.943 347.803 420.011Z" fill="#7D97F4"/>
<path d="M354 421.244L355.849 421.587C356.192 421.655 356.431 421.998 356.363 422.34C356.294 422.683 355.952 422.923 355.61 422.854L353.726 422.512C353.384 422.443 353.144 422.101 353.213 421.758C353.316 421.381 353.658 421.176 354 421.244Z" fill="#7D97F4"/>
<path d="M360.197 422.306L362.081 422.581C362.423 422.649 362.663 422.957 362.628 423.3C362.56 423.642 362.252 423.882 361.909 423.848L360.026 423.574C359.684 423.505 359.444 423.197 359.478 422.855C359.513 422.512 359.855 422.238 360.197 422.306Z" fill="#7D97F4"/>
<path d="M366.429 423.197L368.312 423.437C368.654 423.471 368.928 423.813 368.86 424.156C368.825 424.499 368.483 424.773 368.141 424.704L366.258 424.464C365.915 424.43 365.641 424.087 365.71 423.745C365.744 423.402 366.086 423.128 366.429 423.197Z" fill="#7D97F4"/>
<path d="M372.694 423.916L374.577 424.088C374.92 424.122 375.194 424.43 375.159 424.807C375.125 425.15 374.817 425.424 374.44 425.389L372.557 425.218C372.215 425.184 371.941 424.875 371.975 424.499C372.01 424.122 372.318 423.882 372.694 423.916Z" fill="#7D97F4"/>
<path d="M378.96 424.43L380.843 424.567C381.22 424.601 381.459 424.91 381.459 425.252C381.425 425.629 381.117 425.869 380.774 425.869L378.891 425.732C378.515 425.698 378.275 425.389 378.275 425.047C378.275 424.67 378.583 424.43 378.96 424.43Z" fill="#7D97F4"/>
<path d="M385.26 424.807L387.143 424.876C387.519 424.876 387.793 425.184 387.759 425.561C387.759 425.937 387.451 426.212 387.074 426.177L385.191 426.109C384.815 426.109 384.541 425.8 384.575 425.424C384.575 425.081 384.883 424.773 385.26 424.807Z" fill="#7D97F4"/>
<path d="M391.525 424.978L393.408 425.012C393.785 425.012 394.059 425.321 394.059 425.663C394.059 426.04 393.751 426.314 393.408 426.314L391.525 426.28C391.149 426.28 390.875 425.971 390.875 425.629C390.875 425.252 391.149 424.978 391.525 424.978Z" fill="#7D97F4"/>
<path d="M397.825 424.978L399.708 424.944C400.085 424.944 400.393 425.218 400.393 425.595C400.393 425.972 400.119 426.28 399.742 426.28L397.859 426.314C397.483 426.314 397.174 426.04 397.174 425.663C397.174 425.286 397.448 424.978 397.825 424.978Z" fill="#7D97F4"/>
<path d="M404.125 424.773L406.008 424.67C406.384 424.636 406.693 424.944 406.693 425.287C406.727 425.663 406.419 425.972 406.076 425.972L404.193 426.075C403.817 426.109 403.509 425.8 403.509 425.458C403.474 425.115 403.748 424.807 404.125 424.773Z" fill="#7D97F4"/>
<path d="M410.39 424.396L412.274 424.259C412.65 424.225 412.958 424.499 412.993 424.876C413.027 425.252 412.753 425.561 412.376 425.595L410.493 425.732C410.117 425.766 409.808 425.492 409.774 425.115C409.74 424.773 410.014 424.43 410.39 424.396Z" fill="#7D97F4"/>
<path d="M416.656 423.848L418.539 423.642C418.916 423.608 419.258 423.882 419.292 424.225C419.327 424.601 419.053 424.944 418.71 424.978L416.827 425.184C416.451 425.218 416.142 424.944 416.074 424.601C416.04 424.225 416.279 423.882 416.656 423.848Z" fill="#7D97F4"/>
<path d="M422.921 423.06L424.805 422.786C425.181 422.717 425.524 422.991 425.558 423.368C425.626 423.745 425.352 424.088 424.976 424.122L423.093 424.396C422.716 424.464 422.374 424.19 422.339 423.814C422.271 423.471 422.545 423.128 422.921 423.06Z" fill="#7D97F4"/>
<path d="M429.119 422.067L430.967 421.724C431.344 421.656 431.686 421.895 431.755 422.272C431.823 422.649 431.584 422.991 431.207 423.06L429.324 423.403C428.947 423.471 428.605 423.231 428.537 422.854C428.502 422.512 428.742 422.135 429.119 422.067Z" fill="#7D97F4"/>
<path d="M435.281 420.867L437.13 420.456C437.507 420.388 437.849 420.593 437.952 420.97C438.02 421.347 437.815 421.69 437.438 421.792L435.59 422.203C435.213 422.272 434.871 422.066 434.768 421.69C434.699 421.313 434.905 420.97 435.281 420.867Z" fill="#7D97F4"/>
<path d="M441.41 419.463L443.225 418.983C443.601 418.88 443.978 419.12 444.046 419.463C444.149 419.84 443.909 420.216 443.567 420.285L441.718 420.765C441.342 420.867 440.965 420.627 440.897 420.285C440.828 419.942 441.033 419.566 441.41 419.463Z" fill="#7D97F4"/>
<path d="M447.47 417.784L449.285 417.236C449.661 417.133 450.038 417.339 450.141 417.682C450.243 418.058 450.038 418.435 449.696 418.538L447.881 419.086C447.504 419.189 447.128 418.983 447.025 418.641C446.888 418.298 447.094 417.921 447.47 417.784Z" fill="#7D97F4"/>
<path d="M453.462 415.901L455.242 415.284C455.619 415.147 455.995 415.352 456.132 415.695C456.269 416.072 456.064 416.449 455.721 416.586L453.941 417.202C453.564 417.339 453.188 417.134 453.051 416.791C452.914 416.414 453.085 416.003 453.462 415.901Z" fill="#7D97F4"/>
<path d="M459.351 413.742L461.097 413.057C461.439 412.92 461.85 413.092 461.987 413.434C462.124 413.777 461.953 414.188 461.611 414.325L459.83 415.044C459.488 415.181 459.077 415.01 458.94 414.667C458.837 414.291 459.008 413.879 459.351 413.742Z" fill="#7D97F4"/>
<path d="M465.171 411.31L466.883 410.522C467.225 410.351 467.636 410.522 467.807 410.865C467.979 411.207 467.807 411.618 467.465 411.79L465.719 412.578C465.377 412.749 464.966 412.578 464.795 412.235C464.658 411.892 464.795 411.447 465.171 411.31Z" fill="#7D97F4"/>
<path d="M470.82 408.604L472.498 407.748C472.84 407.577 473.251 407.714 473.457 408.056C473.628 408.399 473.491 408.81 473.149 409.015L471.471 409.906C471.129 410.077 470.718 409.94 470.512 409.598C470.341 409.187 470.478 408.775 470.82 408.604Z" fill="#7D97F4"/>
<path d="M476.333 405.59L477.942 404.63C478.284 404.425 478.695 404.528 478.901 404.87C479.106 405.213 479.003 405.624 478.661 405.829L477.018 406.788C476.675 406.994 476.264 406.891 476.059 406.549C475.888 406.206 475.99 405.795 476.333 405.59Z" fill="#7D97F4"/>
<path d="M481.674 402.301L483.249 401.239C483.557 401.033 484.002 401.102 484.242 401.444C484.447 401.753 484.379 402.198 484.036 402.438L482.461 403.5C482.153 403.705 481.708 403.637 481.469 403.294C481.229 402.952 481.332 402.506 481.674 402.301Z" fill="#7D97F4"/>
<path d="M486.775 398.67L488.282 397.539C488.59 397.299 489.035 397.368 489.275 397.676C489.514 397.985 489.446 398.43 489.138 398.67L487.631 399.834C487.323 400.074 486.878 400.006 486.638 399.697C486.399 399.355 486.467 398.909 486.775 398.67Z" fill="#7D97F4"/>
<path d="M491.671 394.765L493.075 393.531C493.383 393.257 493.828 393.291 494.068 393.6C494.342 393.908 494.308 394.353 494 394.593L492.562 395.861C492.253 396.135 491.808 396.101 491.569 395.792C491.329 395.484 491.363 395.039 491.671 394.765Z" fill="#7D97F4"/>
<path d="M496.294 390.517L497.629 389.181C497.903 388.907 498.348 388.907 498.656 389.181C498.93 389.455 498.93 389.9 498.656 390.209L497.321 391.545C497.047 391.819 496.602 391.819 496.294 391.545C496.02 391.27 496.02 390.825 496.294 390.517Z" fill="#7D97F4"/>
<path d="M500.607 385.995L501.84 384.591C502.114 384.282 502.559 384.248 502.867 384.522C503.175 384.796 503.21 385.241 502.936 385.55L501.669 386.988C501.395 387.297 500.95 387.331 500.642 387.057C500.368 386.749 500.368 386.303 500.607 385.995Z" fill="#7D97F4"/>
<path d="M504.648 381.165L505.777 379.658C506.017 379.349 506.462 379.281 506.805 379.521C507.113 379.76 507.181 380.206 506.942 380.548L505.777 382.056C505.538 382.364 505.093 382.432 504.75 382.193C504.442 381.953 504.374 381.508 504.648 381.165Z" fill="#7D97F4"/>
<path d="M508.311 376.095L509.338 374.519C509.544 374.177 510.023 374.108 510.331 374.314C510.674 374.519 510.742 374.999 510.537 375.307L509.475 376.883C509.27 377.226 508.79 377.294 508.482 377.089C508.174 376.883 508.071 376.438 508.311 376.095Z" fill="#7D97F4"/>
<path d="M511.632 370.785L512.557 369.141C512.762 368.799 513.207 368.662 513.549 368.867C513.892 369.073 514.029 369.518 513.823 369.86L512.865 371.505C512.659 371.847 512.214 371.984 511.872 371.779C511.564 371.608 511.427 371.162 511.632 370.785Z" fill="#7D97F4"/>
<path d="M514.611 365.27L515.433 363.591C515.604 363.215 516.049 363.078 516.425 363.249C516.802 363.42 516.939 363.866 516.768 364.242L515.946 365.955C515.775 366.332 515.33 366.469 514.953 366.298C514.577 366.092 514.44 365.647 514.611 365.27Z" fill="#7D97F4"/>
<path d="M517.213 359.584L517.932 357.837C518.103 357.46 518.514 357.289 518.891 357.426C519.267 357.597 519.438 358.008 519.301 358.385L518.582 360.132C518.411 360.509 518 360.68 517.624 360.543C517.247 360.406 517.076 359.96 517.213 359.584Z" fill="#7D97F4"/>
<path d="M519.473 353.726L520.089 351.945C520.226 351.568 520.637 351.362 521.013 351.499C521.39 351.636 521.595 352.047 521.458 352.424L520.842 354.24C520.705 354.617 520.294 354.822 519.918 354.685C519.541 354.548 519.336 354.137 519.473 353.726Z" fill="#7D97F4"/>
<path d="M521.39 347.766L521.904 345.95C522.006 345.539 522.417 345.333 522.828 345.436C523.239 345.539 523.444 345.95 523.342 346.361L522.828 348.211C522.725 348.622 522.314 348.827 521.904 348.725C521.493 348.553 521.287 348.142 521.39 347.766Z" fill="#7D97F4"/>
<path d="M522.931 341.668L523.342 339.818C523.444 339.407 523.821 339.167 524.232 339.236C524.643 339.339 524.882 339.715 524.814 340.126L524.403 341.976C524.3 342.387 523.924 342.627 523.513 342.559C523.102 342.49 522.862 342.079 522.931 341.668Z" fill="#7D97F4"/>
<path d="M524.163 335.536L524.471 333.686C524.54 333.275 524.917 333.001 525.327 333.07C525.738 333.138 526.012 333.515 525.944 333.926L525.636 335.81C525.567 336.221 525.19 336.495 524.78 336.427C524.369 336.324 524.095 335.947 524.163 335.536Z" fill="#7D97F4"/>
<path d="M525.019 329.302L525.225 327.417C525.259 327.006 525.636 326.698 526.046 326.732C526.457 326.767 526.765 327.143 526.731 327.554L526.526 329.439C526.491 329.85 526.115 330.158 525.704 330.124C525.293 330.089 524.985 329.747 525.019 329.302Z" fill="#7D97F4"/>
<path d="M525.567 323.067L525.67 321.183C525.704 320.772 526.046 320.429 526.457 320.463C526.868 320.498 527.21 320.84 527.176 321.251L527.073 323.169C527.039 323.581 526.697 323.923 526.286 323.889C525.875 323.82 525.567 323.478 525.567 323.067Z" fill="#7D97F4"/>
<path d="M525.807 316.764V314.88C525.807 314.469 526.149 314.126 526.56 314.126C526.971 314.126 527.313 314.469 527.313 314.88V316.798C527.313 317.209 526.971 317.552 526.56 317.552C526.149 317.552 525.807 317.209 525.807 316.764Z" fill="#7D97F4"/>
<path d="M525.704 310.495L525.635 308.611C525.601 308.2 525.944 307.823 526.354 307.823C526.765 307.789 527.142 308.131 527.142 308.543L527.21 310.461C527.245 310.872 526.902 311.249 526.491 311.249C526.081 311.249 525.738 310.94 525.704 310.495Z" fill="#7D97F4"/>
<path d="M525.327 304.226L525.156 302.342C525.122 301.931 525.43 301.554 525.841 301.52C526.252 301.486 526.628 301.794 526.663 302.205L526.834 304.089C526.868 304.5 526.56 304.877 526.149 304.911C525.738 304.98 525.362 304.671 525.327 304.226Z" fill="#7D97F4"/>
<path d="M524.643 297.991L524.369 296.142C524.3 295.731 524.608 295.319 525.019 295.285C525.43 295.217 525.841 295.525 525.875 295.936L526.149 297.82C526.217 298.231 525.909 298.642 525.499 298.677C525.088 298.711 524.711 298.437 524.643 297.991Z" fill="#7D97F4"/>
<path d="M523.65 291.791L523.307 289.941C523.239 289.53 523.513 289.119 523.924 289.051C524.334 288.982 524.745 289.256 524.814 289.667L525.156 291.551C525.225 291.962 524.951 292.374 524.54 292.442C524.163 292.511 523.752 292.237 523.65 291.791Z" fill="#7D97F4"/>
<path d="M522.417 285.625L521.972 283.775C521.869 283.364 522.143 282.953 522.554 282.851C522.965 282.748 523.376 283.022 523.479 283.433L523.924 285.283C524.026 285.694 523.752 286.105 523.342 286.208C522.931 286.31 522.486 286.071 522.417 285.625Z" fill="#7D97F4"/>
<path d="M520.876 279.562L520.363 277.746C520.26 277.335 520.5 276.89 520.911 276.787C521.321 276.684 521.767 276.924 521.869 277.335L522.383 279.185C522.486 279.596 522.246 280.041 521.835 280.144C521.424 280.212 520.979 279.973 520.876 279.562Z" fill="#7D97F4"/>
<path d="M519.062 273.533L518.48 271.752C518.343 271.34 518.548 270.895 518.959 270.758C519.37 270.621 519.815 270.827 519.952 271.238L520.568 273.053C520.705 273.464 520.466 273.91 520.089 274.047C519.644 274.184 519.199 273.944 519.062 273.533Z" fill="#7D97F4"/>
<path d="M516.973 267.607L516.289 265.859C516.117 265.448 516.323 265.003 516.734 264.832C517.144 264.661 517.589 264.866 517.761 265.277L518.445 267.058C518.617 267.47 518.411 267.915 518 268.086C517.589 268.223 517.144 268.018 516.973 267.607Z" fill="#7D97F4"/>
<path d="M514.645 261.783L513.892 260.036C513.721 259.625 513.892 259.18 514.303 259.008C514.714 258.837 515.159 259.008 515.33 259.419L516.083 261.166C516.254 261.578 516.083 262.023 515.672 262.194C515.296 262.365 514.816 262.194 514.645 261.783Z" fill="#7D97F4"/>
<path d="M512.077 256.028L511.256 254.315C511.05 253.904 511.221 253.459 511.632 253.253C512.043 253.048 512.488 253.219 512.693 253.63L513.515 255.343C513.721 255.72 513.549 256.199 513.139 256.405C512.728 256.61 512.283 256.439 512.077 256.028Z" fill="#7D97F4"/>
<path d="M509.27 250.444L508.38 248.766C508.174 248.389 508.311 247.909 508.722 247.704C509.099 247.498 509.578 247.635 509.783 248.046L510.673 249.725C510.879 250.101 510.742 250.581 510.331 250.787C509.954 250.958 509.475 250.821 509.27 250.444Z" fill="#7D97F4"/>
<path d="M506.223 244.929L505.264 243.319C505.024 242.942 505.161 242.463 505.538 242.223C505.914 241.983 506.394 242.12 506.633 242.497L507.592 244.141C507.832 244.518 507.695 244.998 507.318 245.237C506.942 245.443 506.462 245.306 506.223 244.929Z" fill="#7D97F4"/>
<path d="M502.97 239.551L501.943 237.975C501.703 237.598 501.806 237.119 502.183 236.879C502.559 236.639 503.038 236.742 503.278 237.119L504.305 238.729C504.545 239.106 504.442 239.585 504.066 239.825C503.689 240.065 503.21 239.928 502.97 239.551Z" fill="#7D97F4"/>
<path d="M499.478 234.344L498.382 232.803C498.142 232.426 498.211 231.946 498.587 231.672C498.964 231.432 499.443 231.501 499.717 231.878L500.813 233.453C501.053 233.83 500.984 234.31 500.607 234.584C500.231 234.789 499.752 234.687 499.478 234.344Z" fill="#7D97F4"/>
<path d="M495.814 229.24L494.684 227.733C494.41 227.39 494.479 226.876 494.821 226.602C495.164 226.328 495.677 226.397 495.951 226.739L497.115 228.246C497.389 228.589 497.321 229.103 496.978 229.377C496.602 229.651 496.088 229.582 495.814 229.24Z" fill="#7D97F4"/>
<path d="M491.945 224.307L490.747 222.868C490.473 222.526 490.507 222.012 490.85 221.738C491.192 221.464 491.706 221.498 491.98 221.841L493.178 223.314C493.452 223.656 493.417 224.17 493.075 224.444C492.733 224.684 492.219 224.65 491.945 224.307Z" fill="#7D97F4"/>
<path d="M487.871 219.511L486.604 218.107C486.296 217.764 486.33 217.25 486.673 216.942C487.015 216.634 487.529 216.668 487.837 217.011L489.104 218.449C489.412 218.792 489.377 219.306 489.035 219.614C488.693 219.854 488.179 219.854 487.871 219.511Z" fill="#7D97F4"/>
<path d="M483.625 214.853L482.324 213.482C482.016 213.14 482.016 212.626 482.359 212.318C482.701 212.009 483.215 212.009 483.523 212.352L484.824 213.722C485.132 214.065 485.132 214.579 484.79 214.887C484.447 215.195 483.934 215.195 483.625 214.853Z" fill="#7D97F4"/>
<path d="M479.209 210.399L477.839 209.097C477.497 208.789 477.497 208.275 477.805 207.933C478.113 207.59 478.627 207.59 478.969 207.898L480.339 209.234C480.681 209.543 480.681 210.057 480.373 210.399C480.065 210.708 479.551 210.708 479.209 210.399Z" fill="#7D97F4"/>
<path d="M474.655 206.083L473.251 204.815C472.909 204.507 472.875 203.993 473.183 203.651C473.491 203.308 474.005 203.274 474.347 203.582L475.751 204.85C476.093 205.158 476.127 205.672 475.819 206.014C475.511 206.357 474.997 206.391 474.655 206.083Z" fill="#7D97F4"/>
<path d="M469.896 201.938L468.458 200.739C468.116 200.431 468.047 199.917 468.355 199.574C468.664 199.232 469.177 199.163 469.519 199.472L470.992 200.705C471.334 201.013 471.403 201.527 471.094 201.869C470.786 202.178 470.273 202.246 469.896 201.938Z" fill="#7D97F4"/>
<path d="M465.034 197.964L463.562 196.799C463.185 196.525 463.151 196.012 463.425 195.635C463.699 195.258 464.212 195.224 464.589 195.498L466.096 196.662C466.472 196.936 466.506 197.45 466.233 197.827C465.924 198.204 465.411 198.272 465.034 197.964Z" fill="#7D97F4"/>
<path d="M460.035 194.162L458.495 193.065C458.118 192.791 458.05 192.278 458.324 191.901C458.597 191.524 459.111 191.455 459.488 191.729L461.028 192.86C461.405 193.134 461.473 193.648 461.2 194.025C460.926 194.367 460.412 194.436 460.035 194.162Z" fill="#7D97F4"/>
<path d="M454.9 190.531L453.325 189.469C452.948 189.195 452.846 188.681 453.085 188.304C453.359 187.927 453.873 187.825 454.249 188.064L455.824 189.126C456.201 189.4 456.304 189.914 456.03 190.291C455.824 190.702 455.311 190.805 454.9 190.531Z" fill="#7D97F4"/>
<path d="M449.661 187.037L448.052 186.043C447.676 185.804 447.539 185.29 447.778 184.879C448.018 184.502 448.532 184.365 448.942 184.605L450.552 185.632C450.928 185.872 451.065 186.386 450.826 186.797C450.586 187.174 450.072 187.311 449.661 187.037Z" fill="#7D97F4"/>
<path d="M444.32 183.748L442.711 182.789C442.3 182.549 442.163 182.035 442.403 181.624C442.643 181.213 443.156 181.076 443.567 181.316L445.21 182.275C445.621 182.515 445.758 183.029 445.519 183.44C445.245 183.851 444.731 183.988 444.32 183.748Z" fill="#7D97F4"/>
<path d="M438.876 180.596L437.233 179.672C436.822 179.432 436.685 178.918 436.891 178.507C437.13 178.096 437.644 177.959 438.055 178.164L439.732 179.089C440.143 179.329 440.28 179.843 440.075 180.254C439.801 180.665 439.287 180.836 438.876 180.596Z" fill="#7D97F4"/>
<path d="M433.33 177.616L431.652 176.76C431.241 176.554 431.07 176.04 431.276 175.629C431.481 175.218 431.995 175.047 432.405 175.252L434.083 176.109C434.494 176.314 434.665 176.828 434.46 177.239C434.288 177.685 433.775 177.856 433.33 177.616Z" fill="#7D97F4"/>
<path d="M427.715 174.807L426.003 173.985C425.592 173.78 425.387 173.266 425.592 172.855C425.797 172.444 426.311 172.238 426.722 172.444L428.434 173.266C428.845 173.471 429.05 173.985 428.845 174.396C428.673 174.842 428.16 175.013 427.715 174.807Z" fill="#7D97F4"/>
<path d="M422.031 172.17L420.319 171.416C419.874 171.21 419.703 170.731 419.874 170.286C420.08 169.84 420.559 169.669 421.004 169.84L422.75 170.628C423.195 170.834 423.367 171.313 423.195 171.759C422.956 172.17 422.442 172.341 422.031 172.17Z" fill="#7D97F4"/>
<path d="M416.245 169.669L414.499 168.949C414.054 168.778 413.848 168.264 414.02 167.819C414.191 167.374 414.704 167.168 415.149 167.339L416.896 168.059C417.341 168.23 417.546 168.744 417.375 169.189C417.204 169.635 416.69 169.84 416.245 169.669Z" fill="#7D97F4"/>
<path d="M410.39 167.34L408.61 166.689C408.165 166.517 407.925 166.038 408.097 165.593C408.268 165.147 408.747 164.907 409.192 165.079L410.972 165.764C411.418 165.935 411.657 166.415 411.486 166.86C411.349 167.271 410.835 167.511 410.39 167.34Z" fill="#7D97F4"/>
<path d="M404.501 165.181L402.721 164.565C402.276 164.394 402.036 163.914 402.173 163.469C402.344 163.023 402.824 162.784 403.269 162.921L405.049 163.537C405.494 163.708 405.734 164.188 405.597 164.633C405.46 165.113 404.947 165.353 404.501 165.181Z" fill="#7D97F4"/>
<path d="M398.544 163.16L396.729 162.578C396.284 162.441 396.01 161.961 396.147 161.482C396.284 161.036 396.764 160.762 397.243 160.899L399.058 161.482C399.503 161.619 399.777 162.098 399.64 162.578C399.503 163.057 398.989 163.331 398.544 163.16Z" fill="#7D97F4"/>
<path d="M392.518 161.345L390.704 160.831C390.224 160.694 389.985 160.214 390.122 159.735C390.258 159.255 390.738 159.015 391.217 159.152L393.032 159.666C393.511 159.803 393.751 160.283 393.614 160.728C393.477 161.208 392.998 161.482 392.518 161.345Z" fill="#7D97F4"/>
<path d="M386.458 159.666L384.643 159.186C384.164 159.049 383.89 158.604 384.027 158.125C384.164 157.645 384.609 157.371 385.089 157.508L386.937 157.988C387.417 158.125 387.691 158.57 387.554 159.049C387.417 159.495 386.937 159.803 386.458 159.666Z" fill="#7D97F4"/>
<path d="M380.364 158.159L378.515 157.748C378.035 157.645 377.762 157.166 377.864 156.686C377.967 156.206 378.446 155.932 378.926 156.035L380.774 156.446C381.254 156.549 381.528 157.029 381.425 157.508C381.288 157.988 380.843 158.262 380.364 158.159Z" fill="#7D97F4"/>
<path d="M374.201 156.823L372.352 156.446C371.873 156.343 371.565 155.898 371.667 155.419C371.77 154.939 372.215 154.631 372.694 154.733L374.543 155.11C375.022 155.213 375.331 155.658 375.228 156.138C375.159 156.617 374.68 156.926 374.201 156.823Z" fill="#7D97F4"/>
<path d="M368.038 155.624L366.189 155.316C365.71 155.247 365.367 154.768 365.47 154.288C365.539 153.808 366.018 153.466 366.497 153.569L368.38 153.877C368.86 153.945 369.168 154.425 369.099 154.905C368.962 155.384 368.517 155.727 368.038 155.624Z" fill="#7D97F4"/>
<path d="M361.841 154.63L359.958 154.356C359.478 154.288 359.136 153.843 359.205 153.363C359.273 152.883 359.718 152.541 360.197 152.609L362.081 152.883C362.56 152.952 362.902 153.397 362.834 153.877C362.765 154.356 362.32 154.699 361.841 154.63Z" fill="#7D97F4"/>
<path d="M355.61 153.774L353.898 153.568C353.418 153.5 353.042 153.055 353.11 152.575C353.179 152.095 353.624 151.719 354.103 151.787L355.815 151.993C356.294 152.061 356.637 152.507 356.602 152.986C356.534 153.5 356.089 153.843 355.61 153.774Z" fill="#7D97F4"/>
<path d="M344.585 143.874L344.893 154.082L337.874 149.903L344.585 143.874Z" fill="#7D97F4"/>
<path d="M298.535 139.386L326.815 162.749C327.363 163.194 328.048 163.4 328.767 163.331C329.452 163.263 330.102 162.886 330.513 162.338L352.87 133.049C353.11 132.706 353.144 132.261 352.939 131.884C352.734 131.508 352.323 131.336 351.878 131.37L298.535 139.386Z" fill="#91B3FA"/>
<path d="M344.585 143.874L298.535 139.386L340.99 148.601L341.195 151.41L344.585 143.874Z" fill="#7D97F4"/>
<path d="M338.867 151.411L344.893 154.083L340.99 148.602L338.867 151.411Z" fill="#7D97F4"/>
<path d="M440.603 579.368C440.603 579.368 460.656 590.494 462.307 609.295C463.958 628.096 462.453 706.166 422.249 725.404C382.044 744.642 328.827 740.173 308.434 738.084C288.04 735.995 276.775 722.149 274.25 712.578C271.725 703.057 267.647 667.495 289.108 656.03C310.521 644.565 333.051 627.027 355.533 609.926C378.014 592.825 416.568 564.891 440.603 579.368Z" fill="#FF6F41"/>
<path d="M295.372 662.54C295.372 662.54 300.762 662.831 301.441 673.956C301.441 673.956 288.914 685.227 271.92 687.899C270.657 688.093 273.716 679.203 274.153 677.988C276.387 672.256 283.233 668.564 295.372 662.54Z" fill="url(#paint5_linear)"/>
<path d="M356.358 649.423H350.92C347.181 649.423 343.588 647.917 340.966 645.196C331.983 635.917 309.502 614.056 291.73 608.032C288.817 607.06 285.661 608.42 284.398 611.19C280.708 619.108 275.464 637.521 287.797 665.455C289.157 668.564 293.041 669.876 295.858 667.981C296.635 667.447 297.217 666.718 297.606 665.844L296.246 633.245C296.246 633.245 326.157 659.431 331.352 664.483C336.45 669.536 362.865 666.475 356.358 649.423Z" fill="url(#paint6_linear)"/>
<path d="M245.894 730.748C250.701 726.57 258.324 721.858 269.298 720.497L273.036 722.781C273.036 722.781 270.657 726.278 266.336 729.971C262.354 732.303 256.188 735.412 251.089 736.092C246.136 736.772 245.408 733.76 245.894 730.748Z" fill="url(#paint7_linear)"/>
<path d="M274.202 677.989C277.164 678.96 278.426 683.138 285.952 680.369C293.187 677.697 298.577 674.248 301.344 672.256C301.393 672.791 301.442 673.373 301.49 673.956C301.49 673.956 288.234 686.539 271.288 689.211C270.026 689.405 269.006 688.142 269.443 686.928C270.269 684.79 271.774 681.535 274.202 677.989Z" fill="#7D97F4"/>
<path d="M242.301 734.343C243.223 733.274 244.437 732.059 245.894 730.748C245.408 733.76 246.136 736.772 251.089 736.092C256.188 735.412 262.354 732.254 266.336 729.97C261.334 734.246 253.76 738.764 244.146 738.472C242.009 738.472 240.892 735.946 242.301 734.343Z" fill="#7D97F4"/>
<path d="M355.921 657.682L302.413 658.265C302.413 658.265 271.871 683.527 266.336 722.101C266.336 722.101 265.413 724.918 270.948 725.404C270.948 725.404 289.4 713.356 301.442 691.98C316.203 665.843 345.433 677.6 345.433 677.6C355.047 670.653 368.643 669.244 378.84 666.961L355.921 657.682Z" fill="url(#paint8_linear)"/>
<path d="M351.551 657.245C351.551 657.245 358.106 639.415 359.514 622.12C359.514 622.12 354.707 617.991 351.745 616.242C350.774 615.659 350.386 614.444 350.92 613.424C353.105 608.858 366.458 590.931 367.429 590.688C372.867 589.328 395.057 578.737 410.741 600.161C417.442 609.343 409.43 637.666 378.937 666.961L372.624 668.175L351.551 657.245Z" fill="url(#paint9_linear)"/>
<path d="M387.434 575.579L391.416 588.842C391.61 589.473 391.367 590.105 390.833 590.445C388.939 591.757 383.89 594.38 377.043 591.854C376.266 591.562 375.732 590.834 375.635 590.008L374.712 578.445L387.434 575.579Z" fill="url(#paint10_linear)"/>
<path d="M364.127 564.794C364.127 564.794 366.069 578.543 371.362 582.818C376.655 587.093 386.948 583.886 390.444 573.49L383.501 555.758L364.127 564.794Z" fill="url(#paint11_linear)"/>
<path d="M384.278 567.223C383.89 567.369 383.453 567.078 383.404 566.689C383.21 565.426 382.724 562.9 381.753 561.199C381.753 561.199 382.239 559.402 377.189 562.122C372.139 564.843 364.516 568.875 360.049 566.495C355.679 564.163 351.26 552.455 362.816 554.641C363.253 554.738 363.642 554.349 363.642 553.912C363.496 551.969 363.69 547.548 368.157 546.139C372.333 544.827 374.664 546.722 375.586 547.839C375.878 548.179 376.363 548.179 376.655 547.839C377.917 546.187 381.316 542.69 386.366 544.924C390.493 546.77 391.124 549.297 391.076 550.9C391.076 551.434 391.561 551.774 392.047 551.531C393.309 550.948 395.349 550.657 397.291 553.086C400.01 556.487 396.126 559.402 394.96 560.179C394.766 560.325 394.669 560.519 394.669 560.762C394.669 562.511 394.378 570.187 390.542 574.511C390.202 574.899 389.571 574.753 389.376 574.316L386.415 567.272C386.269 566.932 385.929 566.786 385.589 566.883L384.278 567.223Z" fill="url(#paint12_linear)"/>
<path d="M384.181 568.632C384.181 568.632 385.977 561.248 388.745 563.677C391.513 566.057 388.017 571.352 384.861 572.324L384.181 568.632Z" fill="url(#paint13_linear)"/>
<path d="M359.514 622.655C359.223 622.655 358.98 622.412 358.98 622.12C358.932 614.056 362.039 603.416 362.088 603.319C362.185 603.028 362.476 602.882 362.719 602.979C363.01 603.076 363.156 603.368 363.059 603.611C363.01 603.708 359.951 614.25 360 622.12C360.049 622.412 359.806 622.655 359.514 622.655Z" fill="#7D97F4"/>
<path d="M376.8 626.541C376.703 626.541 376.557 626.493 376.46 626.444C376.218 626.25 376.218 625.958 376.363 625.715C376.46 625.618 384.666 615.125 387.483 608.032C387.58 607.789 387.871 607.643 388.163 607.74C388.405 607.837 388.551 608.129 388.454 608.42C385.589 615.708 377.529 625.958 377.189 626.395C377.092 626.444 376.946 626.541 376.8 626.541Z" fill="#7D97F4"/>
<path d="M388.405 642.719L386.803 640.436C386.657 640.193 386.706 639.901 386.948 639.707C387.191 639.561 387.483 639.61 387.677 639.853L388.794 641.456C400.301 636.306 407.439 622.509 407.536 622.363C407.682 622.12 407.973 622.023 408.216 622.12C408.459 622.266 408.556 622.558 408.459 622.801C408.362 622.946 400.933 637.375 388.842 642.573L388.405 642.719Z" fill="#7D97F4"/>
<path d="M352.183 614.444C352.183 614.444 343.394 639.755 326.254 620.468L324.603 619.74L312.318 611.335L313.678 616.193C314.454 618.865 316.397 621.051 318.97 622.12L320.572 622.8C323.631 629.213 330.235 638.881 340.383 640.727C355.63 643.496 363.447 622.897 363.447 622.897L352.183 614.444Z" fill="url(#paint14_linear)"/>
<path d="M306.297 604.923L305.423 606.089C304.986 606.672 305.132 607.449 305.714 607.886L325.04 621.1C325.574 621.44 326.253 621.392 326.642 620.906C327.127 620.371 327.079 619.497 326.496 619.06L308.045 604.68C307.511 604.194 306.686 604.34 306.297 604.923Z" fill="url(#paint15_linear)"/>
<path d="M323.729 617.116C323.486 616.922 338.684 609.489 344.365 610.169C349.949 610.849 356.504 614.979 362.573 619.934C368.06 624.355 373.741 627.221 379.034 627.027C379.034 627.027 388.114 636.889 386.123 642.864C386.123 642.864 376.023 645.245 367.429 636.743C359.272 628.678 350.192 618.379 345.142 616.485C344.705 616.339 344.268 616.387 343.879 616.63C342.374 617.602 337.567 619.934 331.352 616.193C331.352 616.144 326.253 619.302 323.729 617.116Z" fill="url(#paint16_linear)"/>
<path d="M328.244 582.72C328.73 586.267 329.701 593.117 330.818 597.343C331.109 598.364 331.983 599.092 333.052 599.19C336.402 599.432 343.831 599.724 348.152 598.024C349.124 597.635 349.755 596.663 349.706 595.595C349.561 592.291 349.124 584.664 348.298 580.097C348.055 578.834 346.89 577.959 345.628 578.105C342.083 578.445 335.042 579.125 330.284 579.951C328.973 580.194 328.05 581.409 328.244 582.72Z" fill="url(#paint17_linear)"/>
<path d="M318.096 587.773L318.533 590.639C318.63 591.271 319.213 591.757 319.893 591.66L323.243 591.174C323.874 591.077 324.312 590.542 324.263 589.862L324.069 587.433C324.02 586.802 323.486 586.364 322.903 586.364H319.31C318.533 586.413 317.999 587.044 318.096 587.773Z" fill="url(#paint18_linear)"/>
<path d="M319.407 599.093L320.087 602.931C320.378 604.388 321.884 605.311 323.292 604.874L325.817 604.048C326.933 603.708 327.613 602.639 327.516 601.473L327.176 597.732C327.031 596.226 325.574 595.158 324.117 595.546L321.204 596.275C319.99 596.566 319.164 597.83 319.407 599.093Z" fill="url(#paint19_linear)"/>
<path d="M303.141 584.712C305.617 583.838 305.278 580.243 302.656 579.903C290.808 578.348 273.376 573.733 267.695 559.79C258.761 537.929 277.261 453.591 192.191 438.531C113.725 424.637 69.9756 449.462 70.9953 522.042C71.9664 592.34 184.907 625.326 303.141 584.712Z" fill="#FF6F41"/>
<path d="M134.895 498.481L130.865 483.663L119.163 477.299L117.609 480.166L128.048 485.801L140.527 531.516L140.916 532.876H191.802C196.755 532.876 201.319 530.447 203.99 526.269L206.272 523.257C208.748 519.468 210.351 515.096 210.351 510.529V498.432H134.895V498.481ZM206.709 510.578C206.709 514.464 205.495 518.253 203.359 521.557L201.319 524.958C199.231 528.164 195.638 530.447 191.802 530.447H143.441L140.77 520.682L135.769 502.173H206.66V510.578H206.709Z" fill="url(#paint20_linear)"/>
<path d="M203.553 549.491C203.553 550.414 202.824 551.337 201.902 551.337H142.227C141.304 551.337 140.382 549.928 140.382 549.005V520.828C140.382 520.536 140.576 520.585 140.721 520.342L143.489 530.398H144.072V547.596H201.902C202.776 547.644 203.553 548.616 203.553 549.491Z" fill="url(#paint21_linear)"/>
<path d="M172.574 500.132H170.389V530.787H172.574V500.132Z" fill="url(#paint22_linear)"/>
<path d="M153.346 500.132H151.161V530.787H153.346V500.132Z" fill="url(#paint23_linear)"/>
<path d="M191.365 500.132H189.18V530.787H191.365V500.132Z" fill="url(#paint24_linear)"/>
<path d="M207.486 509.168H136.643V511.111H207.486V509.168Z" fill="url(#paint25_linear)"/>
<path d="M205.689 519.808H139.702V521.751H205.689V519.808Z" fill="url(#paint26_linear)"/>
<path d="M149.85 553.426C145.966 553.426 142.809 556.584 142.809 560.471C142.809 564.357 145.966 567.515 149.85 567.515C153.735 567.515 156.891 564.357 156.891 560.471C156.891 556.584 153.735 553.426 149.85 553.426ZM149.85 564.746C147.519 564.746 145.626 562.851 145.626 560.519C145.626 558.187 147.519 556.293 149.85 556.293C152.181 556.293 154.074 558.187 154.074 560.519C154.123 562.851 152.181 564.746 149.85 564.746Z" fill="url(#paint27_linear)"/>
<path d="M193.599 553.426C189.714 553.426 186.558 556.584 186.558 560.471C186.558 564.357 189.714 567.515 193.599 567.515C197.483 567.515 200.639 564.357 200.639 560.471C200.639 556.584 197.483 553.426 193.599 553.426ZM193.599 564.746C191.268 564.746 189.374 562.851 189.374 560.519C189.374 558.187 191.268 556.293 193.599 556.293C195.929 556.293 197.823 558.187 197.823 560.519C197.823 562.851 195.929 564.746 193.599 564.746Z" fill="url(#paint28_linear)"/>
<path d="M126.446 480.166C126.446 482.012 124.989 483.469 123.144 483.469H112.122C110.277 483.469 108.82 482.012 108.82 480.166C108.82 478.32 110.277 476.862 112.122 476.862H123.144C124.989 476.862 126.446 478.32 126.446 480.166Z" fill="url(#paint29_linear)"/>
<path d="M527.226 437.22L460.559 537.735L450.217 553.281C448.906 555.321 446.187 555.953 444.099 554.641L241.329 426.726C239.29 425.415 238.659 422.694 239.921 420.605L249.632 404.67L311.687 302.99C312.998 300.949 317.951 298.423 322.223 301.532L523.633 421.382C526.255 422.937 528.149 425.512 528.829 428.524C529.509 431.536 528.926 434.645 527.226 437.22Z" fill="#03BAAF"/>
<path opacity="0.2" d="M447.255 546.965C446.041 548.908 443.468 549.443 441.477 548.228L248.37 426.386C246.428 425.123 245.796 422.548 247.01 420.653L313.969 310.86C315.183 308.916 319.844 306.633 323.923 309.596L515.719 423.86C518.244 425.366 520.04 427.795 520.672 430.613C521.351 433.43 520.817 436.345 519.263 438.726L447.255 546.965Z" fill="url(#paint30_linear)"/>
<path d="M441.088 548.568L419.384 534.868C419.238 534.771 419.141 534.528 419.287 534.382C419.384 534.236 419.627 534.139 419.772 534.285L441.477 547.985C444.244 549.734 447.935 548.859 449.731 545.993L491.635 479.534C491.732 479.388 491.975 479.291 492.121 479.436C492.266 479.534 492.363 479.776 492.218 479.922L450.314 546.382C448.372 549.539 444.196 550.511 441.088 548.568Z" fill="url(#paint31_linear)"/>
<path d="M288.769 351.134C288.623 351.037 288.526 350.794 288.671 350.648L313.095 311.929C315.669 307.848 320.913 306.585 324.846 309.014L342.034 319.848C342.18 319.945 342.277 320.188 342.131 320.333C342.034 320.479 341.792 320.576 341.646 320.431L324.457 309.597C320.864 307.362 316.057 308.528 313.726 312.269L289.303 350.988C289.157 351.183 288.963 351.231 288.769 351.134Z" fill="url(#paint32_linear)"/>
<path opacity="0.6" d="M357.087 351.036C355.533 353.514 352.28 354.242 349.803 352.688L321.835 335.053C319.359 333.498 318.63 330.243 320.184 327.766C321.738 325.288 324.991 324.559 327.468 326.114L355.436 343.749C357.912 345.303 358.64 348.558 357.087 351.036Z" fill="white"/>
<g opacity="0.6">
<path d="M335.237 457.283C334.071 459.129 331.595 459.712 329.75 458.546L272.259 422.305C270.414 421.139 269.832 418.661 270.997 416.815C272.162 414.969 274.639 414.386 276.484 415.552L333.925 451.794C335.819 452.96 336.402 455.437 335.237 457.283Z" fill="white"/>
<path d="M436.136 519.224C434.97 521.071 432.494 521.653 430.649 520.488L405.448 504.601C403.603 503.436 403.021 500.958 404.186 499.112C405.351 497.266 407.828 496.683 409.673 497.849L434.873 513.735C436.767 514.901 437.301 517.378 436.136 519.224Z" fill="white"/>
</g>
<g opacity="0.54">
<path opacity="0.54" d="M485.611 135.241L421.86 134.899C419.258 134.899 417.615 137.742 418.984 139.969L419.292 140.517C419.909 141.51 420.97 142.127 422.168 142.127H485.611C487.46 142.127 488.967 140.619 488.967 138.77V138.598C488.932 136.749 487.46 135.241 485.611 135.241Z" fill="#53D8FF"/>
<path opacity="0.54" d="M494.513 138.667V138.77C494.513 140.619 496.02 142.127 497.868 142.127H512.009C513.515 142.127 514.85 141.099 515.227 139.626C515.809 137.502 514.2 135.447 512.009 135.413L497.868 135.31C496.02 135.31 494.513 136.817 494.513 138.667Z" fill="#53D8FF"/>
</g>
<g opacity="0.54">
<path opacity="0.54" d="M470.273 147.265L421.86 146.922C419.258 146.922 417.615 149.766 418.984 151.992L419.292 152.54C419.909 153.534 420.97 154.15 422.168 154.15H470.238C472.087 154.15 473.594 152.643 473.594 150.793V150.622C473.594 148.772 472.122 147.265 470.273 147.265Z" fill="#53D8FF"/>
<path opacity="0.54" d="M479.175 150.691V150.794C479.175 152.643 480.681 154.151 482.53 154.151H496.67C498.177 154.151 499.512 153.123 499.889 151.65C500.471 149.526 498.861 147.471 496.67 147.437L482.53 147.334C480.681 147.334 479.175 148.841 479.175 150.691Z" fill="#53D8FF"/>
</g>
<g opacity="0.54">
<path opacity="0.54" d="M67.3315 508.502L3.58035 508.159C0.978259 508.159 -0.665165 511.002 0.704355 513.229L1.0125 513.777C1.62878 514.771 2.69016 515.387 3.88849 515.387H67.3315C69.1804 515.387 70.6868 513.88 70.6868 512.03V511.859C70.6526 510.009 69.1804 508.536 67.3315 508.502Z" fill="#53D8FF"/>
<path opacity="0.54" d="M76.2334 511.927V512.03C76.2334 513.88 77.7399 515.387 79.5887 515.387H93.729C95.2355 515.387 96.5708 514.36 96.9474 512.887C97.5294 510.763 95.9202 508.707 93.729 508.673L79.5887 508.57C77.7741 508.57 76.2334 510.078 76.2334 511.927Z" fill="#53D8FF"/>
</g>
<g opacity="0.54">
<path opacity="0.54" d="M51.9929 520.526L3.58035 520.183C0.978259 520.183 -0.665165 523.026 0.704355 525.253L1.0125 525.801C1.62878 526.794 2.69016 527.411 3.88849 527.411H51.9929C53.8417 527.411 55.3482 525.904 55.3482 524.054V523.883C55.3482 522.033 53.8417 520.56 51.9929 520.526Z" fill="#53D8FF"/>
<path opacity="0.54" d="M60.8948 523.951V524.054C60.8948 525.904 62.4012 527.411 64.2501 527.411H78.3904C79.8969 527.411 81.2321 526.383 81.6088 524.91C82.1908 522.786 80.5816 520.731 78.3904 520.697L64.2501 520.594C62.4355 520.594 60.8948 522.101 60.8948 523.951Z" fill="#03BAAF"/>
</g>
<defs>
<linearGradient id="paint0_linear" x1="43.1054" y1="399.332" x2="91.9274" y2="399.332" gradientUnits="userSpaceOnUse">
<stop stop-color="#DAE3FE"/>
<stop offset="1" stop-color="#E9EFFD"/>
</linearGradient>
<linearGradient id="paint1_linear" x1="44.348" y1="349.149" x2="45.9198" y2="349.149" gradientUnits="userSpaceOnUse">
<stop stop-color="#DAE3FE"/>
<stop offset="1" stop-color="#E9EFFD"/>
</linearGradient>
<linearGradient id="paint2_linear" x1="177.065" y1="15.2978" x2="195.928" y2="15.2978" gradientUnits="userSpaceOnUse">
<stop stop-color="#DAE3FE"/>
<stop offset="1" stop-color="#E9EFFD"/>
</linearGradient>
<linearGradient id="paint3_linear" x1="167.133" y1="36.4801" x2="172.197" y2="36.4801" gradientUnits="userSpaceOnUse">
<stop stop-color="#DAE3FE"/>
<stop offset="1" stop-color="#E9EFFD"/>
</linearGradient>
<linearGradient id="paint4_linear" x1="142.909" y1="41.6747" x2="165.516" y2="41.6747" gradientUnits="userSpaceOnUse">
<stop stop-color="#DAE3FE"/>
<stop offset="1" stop-color="#E9EFFD"/>
</linearGradient>
<linearGradient id="paint5_linear" x1="289.909" y1="673.118" x2="270.277" y2="693.612" gradientUnits="userSpaceOnUse">
<stop stop-color="#4042E2"/>
<stop offset="1" stop-color="#4F52FF"/>
</linearGradient>
<linearGradient id="paint6_linear" x1="320.294" y1="653.153" x2="300.253" y2="577.707" gradientUnits="userSpaceOnUse">
<stop stop-color="#09005D"/>
<stop offset="1" stop-color="#1A0F91"/>
</linearGradient>
<linearGradient id="paint7_linear" x1="263.88" y1="724.584" x2="226.752" y2="751.821" gradientUnits="userSpaceOnUse">
<stop stop-color="#4042E2"/>
<stop offset="1" stop-color="#4F52FF"/>
</linearGradient>
<linearGradient id="paint8_linear" x1="263.347" y1="672.89" x2="340.992" y2="702.162" gradientUnits="userSpaceOnUse">
<stop stop-color="#09005D"/>
<stop offset="1" stop-color="#1A0F91"/>
</linearGradient>
<linearGradient id="paint9_linear" x1="382.346" y1="611.685" x2="341.936" y2="753.384" gradientUnits="userSpaceOnUse">
<stop stop-color="#4042E2"/>
<stop offset="1" stop-color="#4F52FF"/>
</linearGradient>
<linearGradient id="paint10_linear" x1="379.731" y1="574.475" x2="386.779" y2="602.408" gradientUnits="userSpaceOnUse">
<stop stop-color="#FF928E"/>
<stop offset="1" stop-color="#FEB3B1"/>
</linearGradient>
<linearGradient id="paint11_linear" x1="377.82" y1="547.077" x2="376.848" y2="585.213" gradientUnits="userSpaceOnUse">
<stop stop-color="#FF928E"/>
<stop offset="1" stop-color="#FEB3B1"/>
</linearGradient>
<linearGradient id="paint12_linear" x1="381.519" y1="529.887" x2="373.908" y2="573.27" gradientUnits="userSpaceOnUse">
<stop stop-color="#09005D"/>
<stop offset="1" stop-color="#1A0F91"/>
</linearGradient>
<linearGradient id="paint13_linear" x1="382.609" y1="582.003" x2="390.794" y2="555.021" gradientUnits="userSpaceOnUse">
<stop stop-color="#FF928E"/>
<stop offset="1" stop-color="#FEB3B1"/>
</linearGradient>
<linearGradient id="paint14_linear" x1="318.675" y1="530.714" x2="333.581" y2="597.429" gradientUnits="userSpaceOnUse">
<stop stop-color="#FF928E"/>
<stop offset="0.2505" stop-color="#FF9A97"/>
<stop offset="1" stop-color="#FEB3B1"/>
</linearGradient>
<linearGradient id="paint15_linear" x1="305.173" y1="612.836" x2="327.017" y2="612.836" gradientUnits="userSpaceOnUse">
<stop stop-color="#09005D"/>
<stop offset="1" stop-color="#1A0F91"/>
</linearGradient>
<linearGradient id="paint16_linear" x1="342.576" y1="571.519" x2="363.313" y2="666.086" gradientUnits="userSpaceOnUse">
<stop stop-color="#FF928E"/>
<stop offset="1" stop-color="#FEB3B1"/>
</linearGradient>
<linearGradient id="paint17_linear" x1="345.217" y1="579.286" x2="319.045" y2="620.032" gradientUnits="userSpaceOnUse">
<stop stop-color="#FE7062"/>
<stop offset="1" stop-color="#FF928E"/>
</linearGradient>
<linearGradient id="paint18_linear" x1="310.046" y1="606.89" x2="297.212" y2="627.767" gradientUnits="userSpaceOnUse">
<stop stop-color="#E1473D"/>
<stop offset="1" stop-color="#E9605A"/>
</linearGradient>
<linearGradient id="paint19_linear" x1="330.143" y1="590.939" x2="319.071" y2="606.281" gradientUnits="userSpaceOnUse">
<stop stop-color="#4042E2"/>
<stop offset="1" stop-color="#4F52FF"/>
</linearGradient>
<linearGradient id="paint20_linear" x1="117.644" y1="505.113" x2="210.386" y2="505.113" gradientUnits="userSpaceOnUse">
<stop stop-color="#DAE3FE"/>
<stop offset="1" stop-color="#E9EFFD"/>
</linearGradient>
<linearGradient id="paint21_linear" x1="140.375" y1="535.862" x2="203.53" y2="535.862" gradientUnits="userSpaceOnUse">
<stop stop-color="#DAE3FE"/>
<stop offset="1" stop-color="#E9EFFD"/>
</linearGradient>
<linearGradient id="paint22_linear" x1="170.395" y1="515.466" x2="172.573" y2="515.466" gradientUnits="userSpaceOnUse">
<stop stop-color="#DAE3FE"/>
<stop offset="1" stop-color="#E9EFFD"/>
</linearGradient>
<linearGradient id="paint23_linear" x1="151.15" y1="515.466" x2="153.329" y2="515.466" gradientUnits="userSpaceOnUse">
<stop stop-color="#DAE3FE"/>
<stop offset="1" stop-color="#E9EFFD"/>
</linearGradient>
<linearGradient id="paint24_linear" x1="189.185" y1="515.466" x2="191.364" y2="515.466" gradientUnits="userSpaceOnUse">
<stop stop-color="#DAE3FE"/>
<stop offset="1" stop-color="#E9EFFD"/>
</linearGradient>
<linearGradient id="paint25_linear" x1="136.619" y1="510.131" x2="207.481" y2="510.131" gradientUnits="userSpaceOnUse">
<stop stop-color="#DAE3FE"/>
<stop offset="1" stop-color="#E9EFFD"/>
</linearGradient>
<linearGradient id="paint26_linear" x1="139.712" y1="520.801" x2="205.707" y2="520.801" gradientUnits="userSpaceOnUse">
<stop stop-color="#DAE3FE"/>
<stop offset="1" stop-color="#E9EFFD"/>
</linearGradient>
<linearGradient id="paint27_linear" x1="142.815" y1="560.491" x2="156.889" y2="560.491" gradientUnits="userSpaceOnUse">
<stop stop-color="#DAE3FE"/>
<stop offset="1" stop-color="#E9EFFD"/>
</linearGradient>
<linearGradient id="paint28_linear" x1="186.546" y1="560.491" x2="200.621" y2="560.491" gradientUnits="userSpaceOnUse">
<stop stop-color="#DAE3FE"/>
<stop offset="1" stop-color="#E9EFFD"/>
</linearGradient>
<linearGradient id="paint29_linear" x1="108.839" y1="480.154" x2="126.453" y2="480.154" gradientUnits="userSpaceOnUse">
<stop stop-color="#DAE3FE"/>
<stop offset="1" stop-color="#E9EFFD"/>
</linearGradient>
<linearGradient id="paint30_linear" x1="630.245" y1="459.529" x2="654.479" y2="462.552" gradientUnits="userSpaceOnUse">
<stop stop-color="#9CFFFB"/>
<stop offset="1" stop-color="#9BFFFA"/>
</linearGradient>
<linearGradient id="paint31_linear" x1="419.237" y1="514.453" x2="492.317" y2="514.453" gradientUnits="userSpaceOnUse">
<stop stop-color="#DAE3FE"/>
<stop offset="1" stop-color="#E9EFFD"/>
</linearGradient>
<linearGradient id="paint32_linear" x1="288.609" y1="329.449" x2="342.154" y2="329.449" gradientUnits="userSpaceOnUse">
<stop stop-color="#DAE3FE"/>
<stop offset="1" stop-color="#E9EFFD"/>
</linearGradient>
</defs>
</svg>
