<svg width="247" height="179" viewBox="0 0 247 179" fill="none" xmlns="http://www.w3.org/2000/svg">
<path d="M216.403 153.943C210.004 158.777 204.27 161.617 199.884 163.764C157.102 184.682 108.202 178.656 93.083 176.592C68.685 173.265 48.0951 170.918 30.4029 159.219C-9.80522 132.621 -7.84428 77.1367 22.8742 42.7626C26.516 38.6854 57.1907 5.39479 106.197 0.702175C107.396 0.586783 108.289 0.522676 109.077 0.45857C116.658 -0.131213 163.642 -3.23398 201.95 20.274C207.43 23.6396 216.263 29.7041 224.44 38.9611C254.362 72.8031 254.458 125.217 216.403 153.943Z" fill="#CBF3F1"/>
<path d="M22.3732 34.2348V143.936C22.3732 152.965 28.8695 160.338 37.014 160.575C73.204 161.608 199.79 164.113 234.244 163.552C240.162 163.456 244.966 158.21 245.133 151.66C245.799 126.177 246.877 64.8938 242.88 36.4416C242.038 30.4517 237.47 25.968 232 25.7754C201.675 24.6982 67.488 21.2917 33.0514 22.1499C27.1162 22.29 22.3732 27.6581 22.3732 34.2348Z" fill="#00827A"/>
<path d="M28.589 33.7006V137.929C28.589 143.201 32.4114 147.492 37.1718 147.57L229.291 150.198C234.007 150.276 237.874 146.073 237.891 140.854L238.216 37.5625C238.224 33.8232 235.542 30.767 232.166 30.6794L35.471 26.2833C31.6925 26.1607 28.589 29.5234 28.589 33.7006Z" fill="#03BAAF"/>
<path opacity="0.12" d="M35.6727 37.2561V131.659C35.6727 136.431 39.2584 140.319 43.7296 140.39L224.18 142.771C228.607 142.842 232.245 139.032 232.263 134.303L232.561 40.7502C232.57 37.37 230.045 34.5939 226.88 34.5151L42.134 30.5306C38.5921 30.4255 35.6727 33.473 35.6727 37.2561Z" fill="white"/>
<path opacity="0.65" d="M239.338 154.436L28.5802 150.46C28.4312 150.46 28.3172 150.338 28.3172 150.189C28.3172 150.04 28.4399 149.935 28.589 149.926L239.338 153.902C239.487 153.902 239.601 154.024 239.601 154.173C239.601 154.322 239.487 154.436 239.338 154.436Z" fill="white"/>
<path d="M67.8474 103.592C61.4387 103.522 56.0207 98.4338 55.5035 91.9973L54.3375 77.3903C54.0569 73.9049 55.2054 70.4896 57.4848 68.0289C59.6678 65.6644 62.6486 64.3596 65.8748 64.3596L180.055 64.1494C183.632 64.1494 186.753 65.5768 188.875 68.169C191.04 70.8224 191.865 74.4216 191.119 78.0558L187.998 93.3809C186.701 99.7474 180.494 104.739 173.866 104.739C173.857 104.73 67.8474 103.592 67.8474 103.592Z" fill="#BDD0FB"/>
<path d="M180.056 67.1094L65.8748 67.3196C60.6935 67.3283 56.8624 71.812 57.292 77.1539L58.458 91.7609C58.8525 96.6561 63.0518 100.571 67.8737 100.623L173.735 101.762C178.96 101.814 184.027 97.8996 185.07 92.7767L188.191 77.4516C189.348 71.8558 185.719 67.1006 180.056 67.1094Z" fill="#00827A"/>
<path d="M92.3861 77.6443L87.1171 93.7225H87.0996C86.8541 94.5107 86.2317 95.0711 85.5478 95.2375H85.5303C85.5128 95.2375 85.4689 95.2551 85.4514 95.2551H85.4076C85.39 95.2551 85.3637 95.2726 85.3462 95.2726H85.3024H85.241H85.1972H85.127H85.0832H85.0218H84.978H84.9341H84.8728H84.8289C84.8114 95.2726 84.7851 95.2551 84.7676 95.2551H84.7237C84.7062 95.2551 84.6624 95.2375 84.6448 95.2375H84.6273C83.9435 95.0711 83.321 94.5107 83.0492 93.7225L79.7266 83.5905L76.4039 93.7225C76.1584 94.5107 75.536 95.0711 74.8522 95.2375H74.8346C74.7908 95.2375 74.7733 95.2551 74.7557 95.2551H74.7119C74.6943 95.2551 74.668 95.2726 74.6505 95.2726H74.6067H74.5453H74.5015H74.4401H74.3963H74.3437H74.2998H74.2385H74.1946H74.1508C74.1333 95.2726 74.107 95.2551 74.0894 95.2551H74.0456C74.0018 95.2551 73.9842 95.2375 73.9667 95.2375H73.9492C73.2478 95.0711 72.6429 94.5107 72.3711 93.7225L67.1022 77.6443V77.6006C67.0233 77.3554 66.9794 77.0839 66.9794 76.8299C66.9794 75.8754 67.5405 74.9822 68.4084 74.6756C68.6188 74.5968 68.8468 74.5706 69.0484 74.5706C69.9427 74.5706 70.7931 75.1923 71.0824 76.1644C71.0999 76.2082 72.9059 81.6989 74.405 86.2527C75.8954 81.6902 77.7014 76.1994 77.7014 76.1644C77.9294 75.4638 78.4028 74.9646 78.9902 74.7107L79.0077 74.6932C79.0252 74.6932 79.0515 74.6756 79.0691 74.6756H79.0866C79.1041 74.6756 79.1041 74.6581 79.1304 74.6581H79.1743C79.1918 74.6406 79.2181 74.6406 79.2356 74.6406L79.2532 74.6231C79.297 74.6231 79.3145 74.6231 79.3321 74.6056H79.3496C79.3934 74.6056 79.411 74.6056 79.4285 74.5881H79.446H79.5249H79.5425C79.5863 74.5881 79.6038 74.5881 79.6214 74.5706H79.6652H79.709H79.7704H79.8142C79.8318 74.5881 79.8581 74.5881 79.8756 74.5881H79.9194H79.9984C80.0422 74.6056 80.0597 74.6056 80.1036 74.6056C80.1474 74.6231 80.1649 74.6231 80.1825 74.6231C80.2 74.6231 80.2 74.6231 80.2 74.6406C80.2438 74.6406 80.2614 74.6406 80.2789 74.6581H80.3227C80.3227 74.6581 80.3403 74.6756 80.3666 74.6756H80.3841C80.4016 74.6756 80.4279 74.6932 80.4455 74.6932L80.463 74.7107C81.0416 74.9559 81.5238 75.455 81.7517 76.1644C81.7517 76.2082 83.5577 81.6989 85.0481 86.2527C86.5385 81.6902 88.3445 76.1994 88.3445 76.1644C88.6513 75.1923 89.5105 74.5706 90.396 74.5706C90.6064 74.5706 90.8343 74.5881 91.0359 74.6756C91.9039 74.9822 92.465 75.8754 92.465 76.8299C92.465 77.0751 92.4211 77.3466 92.3422 77.6006V77.6443H92.3861Z" fill="white"/>
<path d="M118.967 77.6443L113.698 93.7225H113.681C113.435 94.5107 112.813 95.0711 112.129 95.2375H112.112C112.094 95.2375 112.05 95.2551 112.033 95.2551H111.989C111.971 95.2551 111.945 95.2726 111.928 95.2726H111.884H111.822H111.779H111.717H111.673H111.612H111.568H111.524H111.463H111.419C111.402 95.2726 111.375 95.2551 111.358 95.2551H111.314C111.296 95.2551 111.252 95.2375 111.235 95.2375H111.217C110.534 95.0711 109.911 94.5107 109.639 93.7225L106.317 83.5905L102.994 93.7225C102.749 94.5107 102.126 95.0711 101.442 95.2375H101.425C101.381 95.2375 101.363 95.2551 101.346 95.2551H101.302C101.284 95.2551 101.258 95.2726 101.241 95.2726H101.197H101.135H101.092H101.03H100.986H100.925H100.881H100.82H100.776H100.732C100.715 95.2726 100.688 95.2551 100.671 95.2551H100.627C100.583 95.2551 100.566 95.2375 100.548 95.2375H100.531C99.8292 95.0711 99.2242 94.5107 98.9525 93.7225L93.6835 77.6443V77.6006C93.6046 77.3554 93.5608 77.0839 93.5608 76.8299C93.5608 75.8754 94.1219 74.9822 94.9898 74.6756C95.2002 74.5968 95.4282 74.5706 95.6298 74.5706C96.524 74.5706 97.3744 75.1923 97.6637 76.1644C97.6813 76.2082 99.4873 81.6989 100.986 86.2527C102.477 81.6902 104.283 76.1994 104.283 76.1644C104.511 75.4638 104.984 74.9646 105.572 74.7107L105.589 74.6932C105.607 74.6932 105.633 74.6756 105.65 74.6756H105.668C105.685 74.6756 105.685 74.6581 105.712 74.6581H105.756C105.773 74.6406 105.799 74.6406 105.817 74.6406L105.835 74.6231C105.878 74.6231 105.896 74.6231 105.913 74.6056H105.931C105.975 74.6056 105.992 74.6056 106.01 74.5881H106.027H106.106H106.124C106.168 74.5881 106.185 74.5881 106.203 74.5706H106.247H106.29H106.352H106.396C106.413 74.5881 106.439 74.5881 106.457 74.5881H106.501H106.58C106.624 74.6056 106.641 74.6056 106.685 74.6056C106.729 74.6231 106.746 74.6231 106.764 74.6231C106.781 74.6231 106.781 74.6231 106.781 74.6406C106.825 74.6406 106.843 74.6406 106.86 74.6581H106.904C106.904 74.6581 106.922 74.6756 106.948 74.6756H106.965C106.983 74.6756 107.009 74.6932 107.027 74.6932L107.044 74.7107C107.623 74.9559 108.105 75.455 108.333 76.1644C108.333 76.2082 110.139 81.6989 111.629 86.2527C113.12 81.6902 114.926 76.1994 114.926 76.1644C115.233 75.1923 116.092 74.5706 116.977 74.5706C117.188 74.5706 117.416 74.5881 117.617 74.6756C118.485 74.9822 119.046 75.8754 119.046 76.8299C119.046 77.0751 119.002 77.3466 118.924 77.6006V77.6443H118.967Z" fill="white"/>
<path d="M145.549 77.6443L140.28 93.7225H140.262C140.017 94.5107 139.394 95.0711 138.711 95.2375H138.693C138.676 95.2375 138.632 95.2551 138.614 95.2551H138.57C138.553 95.2551 138.526 95.2726 138.509 95.2726H138.465H138.404H138.36H138.299H138.255H138.193H138.15H138.106H138.044H138C137.983 95.2726 137.957 95.2551 137.939 95.2551H137.895C137.878 95.2551 137.834 95.2375 137.816 95.2375H137.799C137.115 95.0711 136.493 94.5107 136.221 93.7225L132.898 83.5905L129.575 93.7225C129.33 94.5107 128.708 95.0711 128.024 95.2375H128.006C127.962 95.2375 127.945 95.2551 127.927 95.2551H127.883C127.866 95.2551 127.84 95.2726 127.822 95.2726H127.778H127.717H127.673H127.612H127.568H127.506H127.463H127.401H127.357H127.314C127.296 95.2726 127.27 95.2551 127.252 95.2551H127.208C127.165 95.2551 127.147 95.2375 127.129 95.2375H127.112C126.411 95.0711 125.806 94.5107 125.534 93.7225L120.265 77.6443V77.6006C120.186 77.3554 120.142 77.0839 120.142 76.8299C120.142 75.8754 120.703 74.9822 121.571 74.6756C121.782 74.5968 122.01 74.5706 122.211 74.5706C123.105 74.5706 123.956 75.1923 124.245 76.1644C124.263 76.2082 126.069 81.6989 127.568 86.2527C129.058 81.6902 130.864 76.1994 130.864 76.1644C131.092 75.4638 131.566 74.9646 132.153 74.7107L132.17 74.6932C132.188 74.6932 132.214 74.6756 132.232 74.6756H132.249C132.267 74.6756 132.267 74.6581 132.293 74.6581H132.337C132.355 74.6406 132.381 74.6406 132.398 74.6406L132.416 74.6231C132.46 74.6231 132.477 74.6231 132.495 74.6056H132.512C132.556 74.6056 132.574 74.6056 132.591 74.5881H132.609H132.688H132.705C132.749 74.5881 132.767 74.5881 132.784 74.5706H132.828H132.872H132.933H132.977C132.995 74.5881 133.021 74.5881 133.038 74.5881H133.082H133.161C133.205 74.6056 133.222 74.6056 133.266 74.6056C133.31 74.6231 133.328 74.6231 133.345 74.6231C133.363 74.6231 133.363 74.6231 133.363 74.6406C133.407 74.6406 133.424 74.6406 133.442 74.6581H133.485C133.485 74.6581 133.503 74.6756 133.529 74.6756H133.547C133.564 74.6756 133.591 74.6932 133.608 74.6932L133.626 74.7107C134.204 74.9559 134.687 75.455 134.915 76.1644C134.915 76.2082 136.721 81.6989 138.211 86.2527C139.701 81.6902 141.507 76.1994 141.507 76.1644C141.814 75.1923 142.673 74.5706 143.559 74.5706C143.769 74.5706 143.997 74.5881 144.199 74.6756C145.067 74.9822 145.628 75.8754 145.628 76.8299C145.628 77.0751 145.584 77.3466 145.505 77.6006V77.6443H145.549Z" fill="white"/>
<path d="M151.186 95.5965C151.186 96.0869 150.792 96.4897 150.292 96.4897C149.801 96.4897 149.398 96.0957 149.398 95.5965V70.98C149.398 70.4896 149.792 70.0868 150.292 70.0868C150.783 70.0868 151.186 70.4809 151.186 70.98V95.5965Z" fill="white"/>
<path d="M198.291 116.088L185 99.8964C184.895 99.765 184.86 99.5986 184.912 99.441C184.965 99.2833 185.096 99.1695 185.254 99.1257L196.993 96.3147C197.467 96.2008 197.835 95.8155 197.914 95.3251C197.993 94.8434 197.773 94.3618 197.361 94.0991L163.872 72.9592C163.468 72.7053 162.942 72.7052 162.548 72.9767C162.145 73.2394 161.943 73.7211 162.022 74.194L168.983 116.185C169.071 116.693 169.456 117.087 169.956 117.183C170.456 117.279 170.964 117.052 171.227 116.605L177.723 105.711C177.802 105.571 177.951 105.483 178.109 105.475C178.267 105.466 178.425 105.536 178.521 105.659L190.9 121.509C191.61 122.42 192.899 122.621 193.855 121.973L197.826 119.276C198.335 118.935 198.676 118.392 198.764 117.779C198.852 117.174 198.685 116.561 198.291 116.088Z" fill="white"/>
<path d="M55.9419 148.648H53.6011V173.965H55.9419V148.648Z" fill="#7D97F4"/>
<path d="M65.0332 174.455H44.5098V173.658C44.5098 173.255 44.8341 172.931 45.2374 172.931H64.2442C64.6825 172.931 65.0332 173.282 65.0332 173.72V174.455Z" fill="#7D97F4"/>
<path d="M68.9169 147.711C68.9169 149.182 67.7159 150.39 66.2343 150.39H44.1679C42.695 150.39 41.4852 149.191 41.4852 147.711V145.294C41.4852 143.823 42.6862 142.614 44.1679 142.614H66.2343C67.7071 142.614 68.9169 143.814 68.9169 145.294V147.711Z" fill="#7D97F4"/>
<path d="M33.9982 166.276C33.9982 166.276 26.4235 169.534 26.8531 172.949C26.8531 172.949 34.682 171.451 36.0847 169.21C37.4874 166.976 36.7159 165.68 36.7159 165.68L33.9982 166.276Z" fill="url(#paint0_linear)"/>
<path d="M35.848 162.554L36.2338 165.873C36.2951 166.372 36.0146 166.871 35.5412 167.038C35.3045 167.125 34.9888 167.178 34.5856 167.187C34.0069 167.187 33.4985 166.81 33.3407 166.25L32.5955 163.561L35.848 162.554Z" fill="url(#paint1_linear)"/>
<path d="M52.4 137.079C52.4 137.079 38.4606 136.431 31.5347 140.477C24.6088 144.523 31.8854 163.903 31.8854 163.903C31.8854 163.903 33.7001 164.288 36.3039 162.896C36.3039 162.896 32.5779 148.7 39.0479 146.231C46.3157 143.455 53.8378 144.129 53.8378 144.129L52.4438 137.508L52.4 137.079Z" fill="url(#paint2_linear)"/>
<path d="M28.3786 171.451C29.9654 171.101 34.6645 169.157 35.3746 169.183C36.0847 169.21 37.1017 170.278 37.1017 170.278C37.1017 170.278 37.277 170.865 36.7685 171.697C35.5587 172.642 32.9461 174.368 29.9215 174.56C27.6947 174.7 26.3534 173.816 25.5819 172.958C26.2394 172.301 27.3178 171.679 28.3786 171.451Z" fill="url(#paint3_linear)"/>
<path d="M29.9128 174.569C32.9462 174.376 35.55 172.651 36.7598 171.705C36.4179 172.275 35.7604 172.958 34.5242 173.649C31.4558 175.375 26.3973 175.129 25.3891 174.735C24.5825 174.42 24.8367 173.676 25.5644 172.958C26.3359 173.816 27.6772 174.7 29.9128 174.569Z" fill="url(#paint4_linear)"/>
<path d="M38.7586 168.544C38.6534 168.938 37.5488 170.112 36.9 170.768C36.5932 171.084 36.1549 171.215 35.7253 171.119C35.4535 171.057 35.1467 170.97 34.8836 170.821C34.4891 170.602 34.3489 170.103 34.568 169.709L36.1899 166.758L38.7586 168.544Z" fill="url(#paint5_linear)"/>
<path d="M66.208 135.915C66.208 135.915 67.4266 144.532 63.911 146.292C60.3955 148.052 52.6805 149.208 50.0242 153.674C47.3678 158.149 42.5986 166.924 38.2501 169.437C38.2501 169.437 35.7691 168.632 35.0414 167.414C35.0414 167.414 40.1964 153.876 42.3443 150.592C44.2029 147.746 46.9294 143.639 50.7957 141.861C51.9003 141.353 51.988 140.179 51.7951 138.98L51.4444 136.79L66.208 135.915Z" fill="url(#paint6_linear)"/>
<path d="M33.6124 126.142C38.5394 127.552 40.7487 113.689 40.7312 113.347L48.2883 122.175C48.2883 122.175 43.7821 130.091 36.9789 130.932C35.2606 131.142 33.7965 130.844 32.5692 130.284C33.4809 128.813 33.6826 127.35 33.6124 126.142Z" fill="#FF6F41"/>
<path d="M24.486 121.606C26.6339 120.721 28.4575 122.481 28.4575 122.481C30.5878 124.662 32.2799 125.756 33.6124 126.142C33.6826 127.35 33.4722 128.813 32.5692 130.293C29.9128 129.075 28.361 126.623 27.7298 125.389C27.5019 124.951 26.9583 124.758 26.5112 124.977C26.0553 125.196 25.5819 125.529 25.5556 125.993C25.4942 126.895 24.4247 126.947 24.4159 126.615C24.4071 126.282 25.2488 124.504 25.2488 124.504C25.2488 124.504 22.7765 126.089 21.8209 126.693C20.8565 127.298 20.0412 126.299 20.0412 126.299C20.0412 126.299 22.3381 122.49 24.486 121.606Z" fill="url(#paint7_linear)"/>
<path d="M64.3143 107.647C64.3143 107.647 57.6865 103.128 41.6868 111.298C41.6868 111.298 40.0386 113.382 40.8101 115.738C41.5816 118.094 51.085 130.827 51.4532 136.799C51.4532 136.799 57.9495 140.617 66.3833 136.834C66.3745 136.834 69.2062 121.045 64.3143 107.647Z" fill="#FF6F41"/>
<path d="M48.8932 100.571L53.1364 106.998C53.3994 107.506 53.338 108.119 52.9874 108.566C52.2685 109.468 50.7606 110.685 48.1919 109.897C47.4291 109.661 46.8417 109.048 46.6576 108.268L45.2988 102.55L48.8932 100.571Z" fill="url(#paint8_linear)"/>
<path d="M69.215 125.546C69.6621 122.429 61.4212 116.395 61.4212 116.395L64.3055 107.655C64.3055 107.655 80.0334 118.864 76.7283 128.024C76.2549 129.338 75.5448 130.293 74.6856 130.967C73.0199 127.543 70.7668 126.133 69.215 125.546Z" fill="#FF6F41"/>
<path d="M57.7216 126.404C57.7216 126.404 67.0408 129.005 68.9783 126.168C69.1098 125.975 69.1887 125.765 69.215 125.537C70.758 126.124 73.0199 127.543 74.6856 130.949C70.2583 134.426 61.728 130.529 59.4048 129.356C59.0191 129.163 58.5807 129.128 58.1774 129.251C57.3533 129.505 55.9243 129.907 55.1265 129.864C53.9605 129.802 52.7069 134.006 50.7255 132.937C50.7343 132.955 51.6285 125.774 57.7216 126.404Z" fill="url(#paint9_linear)"/>
<path d="M39.2145 96.5074C39.2057 96.6212 41.1345 103.285 42.1251 106.683C42.4232 107.717 43.5629 108.26 44.5623 107.848L45.3251 107.533C46.3683 107.095 48.1919 105.746 48.2971 104.625L47.9464 96.5687C47.9464 96.5599 39.3548 94.0466 39.2145 96.5074Z" fill="url(#paint10_linear)"/>
<path d="M47.8938 94.3268C48.0954 93.5737 48.1042 92.444 46.6752 91.9536C45.2199 91.4545 44.2468 92.2864 43.7383 92.9432C43.5279 93.2059 43.1684 93.276 42.8703 93.1271C42.7038 93.0395 42.4934 93.022 42.2567 93.2059C41.941 93.4423 41.4764 93.3373 41.2748 92.9957C40.8802 92.3389 40.1351 91.6646 38.7849 92.0149C36.3916 92.6454 36.3565 95.3514 37.1368 96.8664C37.917 98.3814 40.4682 97.5582 41.7043 96.6475C42.6424 95.9557 43.9925 96.4811 44.5799 96.7613C44.764 96.8489 44.9043 97.024 44.9481 97.2255L45.6144 100.22C46.3596 100.29 47.0873 100.431 47.8149 100.571C47.8061 100.352 47.7974 100.159 47.7974 100.019C47.8237 99.0294 48.9809 98.3289 49.4894 98.0749C49.656 97.9873 49.7787 97.8472 49.8313 97.6633C50.0242 97.0328 50.2346 95.5966 48.4023 95.1763C48.0253 95.0887 47.7886 94.7034 47.8938 94.3268Z" fill="url(#paint11_linear)"/>
<path d="M48.1656 101.779C48.1656 101.779 46.9206 99.0733 47.885 98.3026C48.8494 97.532 50.4011 97.7509 50.2433 99.8001C50.0504 102.348 48.1656 101.779 48.1656 101.779Z" fill="url(#paint12_linear)"/>
<path d="M45.816 132.333C45.7985 132.333 45.7809 132.333 45.7634 132.333L23.9863 132.307C23.4515 132.307 23.0132 131.869 23.0132 131.335C23.0132 130.801 23.4515 130.354 23.9863 130.363L45.7634 130.389C46.2982 130.389 46.7365 130.827 46.7365 131.361C46.7365 131.886 46.3333 132.316 45.816 132.333Z" fill="url(#paint13_linear)"/>
<path d="M4.40096 112.586H22.5398C23.8811 112.586 25.0997 113.356 25.6696 114.565L34.0596 132.324H11.511C10.6518 132.324 9.87154 131.799 9.55593 130.993L3.05085 114.556C2.68264 113.61 3.384 112.586 4.40096 112.586Z" fill="url(#paint14_linear)"/>
<path d="M7.34671 179C7.22398 179 7.10124 178.974 6.98727 178.93C6.52262 178.737 6.31221 178.212 6.50508 177.765L25.7047 134.61C25.9063 134.163 26.4411 133.953 26.9058 134.146C27.3704 134.338 27.5808 134.864 27.388 135.31L8.18834 178.466C8.0393 178.799 7.69739 179 7.34671 179Z" fill="#91B3FA"/>
<path d="M28.966 179C28.6153 179 28.2734 178.799 28.1244 178.466L8.92475 135.31C8.72311 134.864 8.94228 134.338 9.40693 134.146C9.87158 133.953 10.4064 134.163 10.608 134.61L29.8076 177.765C30.0093 178.212 29.7901 178.737 29.3254 178.93C29.2115 178.974 29.0887 179 28.966 179Z" fill="#91B3FA"/>
<path d="M66.7691 179C66.6464 179 66.5237 178.974 66.4097 178.93C65.945 178.737 65.7346 178.212 65.9275 177.765L85.1271 134.61C85.3287 134.163 85.8635 133.953 86.3282 134.146C86.7928 134.338 87.0032 134.864 86.8104 135.31L67.6108 178.466C67.453 178.799 67.1198 179 66.7691 179Z" fill="#91B3FA"/>
<path d="M88.3884 179C88.0377 179 87.6958 178.799 87.5467 178.466L68.3471 135.31C68.1455 134.864 68.3646 134.338 68.8293 134.146C69.2939 133.953 69.8287 134.163 70.0304 134.61L89.23 177.765C89.4316 178.212 89.2125 178.737 88.7478 178.93C88.6338 178.974 88.5111 179 88.3884 179Z" fill="#91B3FA"/>
<path d="M90.6415 133.279C90.6941 132.999 90.6239 132.701 90.4574 132.482C90.2908 132.263 90.0453 132.132 89.7911 132.132H2.46351C2.1216 132.132 1.80599 132.324 1.62188 132.648C1.43778 132.964 1.41148 133.366 1.56051 133.717L2.50734 136.011C2.72652 136.536 3.19117 136.869 3.70842 136.869H89.1949C89.6771 136.869 90.0891 136.484 90.1768 135.958L90.6415 133.279Z" fill="#91B3FA"/>
<path d="M216.745 150.487C217.946 150.723 224.785 154.795 224.785 150.145C224.785 149.707 224.785 144.952 224.785 144.952C224.785 144.952 216.403 150.417 216.745 150.487Z" fill="url(#paint15_linear)"/>
<path d="M221.024 141.756C221.024 141.756 218.016 136.685 217.639 131.711C217.262 126.737 217.876 124.556 217.306 123.112C216.745 121.667 214.001 116.176 213.878 117.822C213.756 119.469 214.755 121.194 214.755 121.194C214.755 121.194 213.019 122.577 213.317 124.162C213.615 125.756 214.229 125.914 214.229 125.914C214.229 125.914 214.326 129.355 214.483 129.355C214.641 129.355 211.731 146.625 214.983 147.001C218.236 147.395 220.866 149.707 221.024 141.756Z" fill="url(#paint16_linear)"/>
<path d="M212.432 122.954C212.406 122.726 210.293 118.146 210.67 117.629C211.047 117.113 211.424 116.649 212.02 118.19C212.607 119.731 213.317 123.926 213.089 123.952C212.861 123.978 212.546 123.768 212.432 122.954Z" fill="url(#paint17_linear)"/>
<path d="M192.724 172.809C192.724 172.809 191.137 171.486 189.024 171.679C187.551 171.933 185.824 173.238 184.711 174.201C184.518 174.367 184.448 174.639 184.544 174.875C184.641 175.112 184.877 175.261 185.14 175.261C187.902 175.199 193.311 175.042 193.311 174.63C193.302 174.087 192.724 172.809 192.724 172.809Z" fill="url(#paint18_linear)"/>
<path d="M193.82 170.479L192.548 172.87C192.548 172.87 189.682 173.106 189.778 171.977C189.875 170.847 190.576 169.49 190.576 169.49L193.82 170.479Z" fill="url(#paint19_linear)"/>
<path d="M226.213 172.108C224.223 161.267 222.777 154.305 222.777 154.305C222.777 154.305 200.746 140.109 198.492 143.586C196.239 147.062 189.778 170.759 189.778 170.759L194.091 171.933C194.091 171.933 202.332 160.785 203.078 151.275C205.199 158.219 207.172 174.797 223.496 175.278C224.302 175.304 225.083 174.954 225.609 174.341C226.135 173.728 226.363 172.905 226.213 172.108Z" fill="#7D97F4"/>
<path d="M178.6 171.845L175.97 174.332L173.901 172.266L176.628 169.122L178.6 171.845Z" fill="url(#paint20_linear)"/>
<path d="M232.008 121.439L237.155 128.051C237.391 128.357 237.435 128.769 237.251 129.084C236.585 130.231 234.647 132.762 230.553 132.797C230.089 132.797 229.641 132.499 229.405 132.053L226.205 125.756L232.008 121.439Z" fill="url(#paint21_linear)"/>
<path d="M219.744 112.822C219.744 112.822 218.428 120.37 220.489 123.488C222.549 126.606 228.493 126.684 232.087 121.833L231.465 111.351L219.744 112.822Z" fill="url(#paint22_linear)"/>
<path d="M229.072 117.84C228.835 117.84 228.659 117.63 228.703 117.402C228.817 116.701 228.993 115.3 228.782 114.241C228.782 114.241 229.352 113.382 226.231 113.952C223.11 114.521 218.428 115.326 216.482 113.321C214.58 111.359 214.247 104.468 219.945 107.568C220.164 107.681 220.436 107.568 220.489 107.331C220.743 106.298 221.593 104.012 224.188 104.021C226.617 104.038 227.502 105.422 227.8 106.184C227.888 106.412 228.16 106.49 228.361 106.359C229.299 105.711 231.684 104.459 233.946 106.473C235.805 108.128 235.717 109.582 235.41 110.396C235.314 110.659 235.524 110.93 235.805 110.904C236.567 110.816 237.689 111 238.303 112.612C239.145 114.845 236.62 115.729 235.883 115.931C235.761 115.966 235.664 116.053 235.629 116.176C235.322 117.095 234.016 121.211 231.263 122.831C231.027 122.972 230.579 122.674 230.553 122.394L230.202 118.19C230.185 117.997 230.018 117.849 229.825 117.849L229.072 117.84Z" fill="url(#paint23_linear)"/>
<path d="M228.633 118.304C228.633 118.304 230.834 114.748 231.868 116.465C232.903 118.181 230.194 120.353 228.37 120.353L228.633 118.304Z" fill="url(#paint24_linear)"/>
<path d="M223.645 139.601C223.645 139.601 213.607 143.822 211.731 141.668C209.854 139.505 210.889 127.403 210.889 127.403L206.663 126.273C206.663 126.273 201.464 147.641 210.293 150.837C216.701 153.158 228.931 145.609 228.931 145.609L223.645 139.601Z" fill="url(#paint25_linear)"/>
<path d="M233.078 124.986C231.456 125.345 229.685 126.886 228.3 128.366C226.713 130.056 225.652 132.175 225.258 134.461C225.249 134.531 225.232 134.61 225.223 134.689C221.734 138.515 218.656 140.985 216.579 141.904C220.208 147.062 222.181 149.015 222.181 149.015C222.181 149.015 222.602 148.928 223.303 148.744C222.619 154.891 222.251 159.655 222.251 159.655C222.251 159.655 229.352 166.696 237.944 168.693C245.773 162.939 246.965 146.467 246.965 146.467C247.579 126.938 238.549 123.786 233.078 124.986Z" fill="#FF6F41"/>
<path d="M237.944 168.702C237.944 168.702 234.419 179.166 217.026 173.299C208.592 170.453 196.783 153.963 196.783 153.963C196.783 153.963 193.872 161.941 178.644 172.642L175.26 169.604C175.26 169.604 190.672 143.069 198.563 145.828C206.462 148.578 240.355 161.906 237.944 168.702Z" fill="#91B3FA"/>
<path d="M177.25 173.115C176.61 173.124 173.901 171.933 173.901 171.933L171.376 172.607C169.176 172.266 167.291 173.019 166.02 173.781C165.739 173.947 165.608 174.28 165.695 174.586C165.783 174.902 166.064 175.121 166.388 175.121C168.878 175.164 172.963 175.199 175.032 175.077C178.127 174.902 178.6 174.989 177.25 173.115Z" fill="url(#paint26_linear)"/>
<path d="M226.775 147.824C226.722 147.824 226.678 147.789 226.669 147.737C226.652 147.675 226.687 147.614 226.748 147.605C226.775 147.597 229.44 146.931 232.307 145.294C234.945 143.787 238.294 141.125 239.285 137.009C239.303 136.948 239.364 136.913 239.417 136.93C239.478 136.948 239.513 137 239.496 137.062C238.487 141.256 235.086 143.962 232.412 145.486C229.519 147.141 226.827 147.807 226.801 147.816C226.792 147.824 226.783 147.824 226.775 147.824Z" fill="url(#paint27_linear)"/>
<path d="M204.419 116.491C204.349 116.307 204.358 116.097 204.454 115.922C204.55 115.747 204.717 115.624 204.919 115.589L209.819 114.652C210.012 114.617 210.196 114.731 210.258 114.915L214.027 127.052C214.045 127.105 214.036 127.157 214.01 127.21C213.984 127.263 213.94 127.298 213.887 127.306L209.793 128.532C209.46 128.629 209.1 128.462 208.978 128.13L204.419 116.491Z" fill="url(#paint28_linear)"/>
<path d="M205.962 116.605C205.918 116.5 205.936 116.377 205.988 116.281C206.041 116.185 206.146 116.115 206.251 116.097L209.504 115.545C209.688 115.51 209.872 115.624 209.933 115.808L213.133 126.142C213.151 126.194 213.142 126.255 213.116 126.308C213.089 126.36 213.037 126.396 212.984 126.404L210.074 127.105C209.968 127.131 209.872 127.079 209.837 126.973L205.962 116.605Z" fill="#91B3FA"/>
<path d="M207.531 115.607C207.54 115.642 207.601 115.659 207.68 115.65L208.75 115.423C208.82 115.405 208.873 115.361 208.864 115.326L208.855 115.291C208.846 115.256 208.785 115.239 208.706 115.248L207.636 115.475C207.566 115.493 207.514 115.537 207.522 115.572L207.531 115.607Z" fill="url(#paint29_linear)"/>
<path d="M206.593 126.501C206.532 125.966 204.717 122.534 205.427 121.22C206.128 119.906 206.418 117.656 207.093 118.286C207.777 118.917 206.926 121.124 207.233 121.781C207.54 122.437 208.715 124.11 208.864 125.406C209.022 126.711 209.889 128.559 208.057 128.821C206.225 129.084 206.593 126.501 206.593 126.501Z" fill="url(#paint30_linear)"/>
<path d="M225.959 134.268C225.942 134.268 225.915 134.26 225.898 134.251C225.845 134.216 225.837 134.146 225.872 134.093C226.082 133.795 230.983 126.711 233.806 127.902C233.858 127.928 233.885 127.989 233.867 128.051C233.841 128.103 233.779 128.129 233.718 128.112C231.062 126.982 226.1 134.146 226.056 134.224C226.029 134.251 225.994 134.268 225.959 134.268Z" fill="url(#paint31_linear)"/>
<path d="M214.939 127.648C214.904 127.648 214.869 127.63 214.852 127.604C213.992 126.413 214.536 125.064 214.764 124.486C214.79 124.416 214.825 124.338 214.834 124.294C214.729 124.057 214.317 122.858 214.448 122.105C214.475 121.929 214.571 121.877 214.641 121.868C215.027 121.789 215.869 123.068 216.21 123.62C216.245 123.672 216.228 123.742 216.175 123.768C216.123 123.803 216.053 123.786 216.026 123.733C215.465 122.831 214.86 122.087 214.694 122.087C214.694 122.087 214.685 122.105 214.676 122.148C214.553 122.866 214.992 124.11 215.053 124.215C215.088 124.285 215.062 124.355 214.983 124.565C214.764 125.108 214.255 126.387 215.044 127.473C215.079 127.525 215.071 127.595 215.018 127.63C214.983 127.639 214.966 127.648 214.939 127.648Z" fill="url(#paint32_linear)"/>
<path d="M217.157 112.874C217.087 112.874 217.026 112.839 216.991 112.778C216.123 111.289 215.842 110.02 216.175 109.013C216.5 108.023 217.289 107.664 217.324 107.655C217.42 107.611 217.543 107.655 217.587 107.76C217.631 107.857 217.587 107.979 217.482 108.023C217.447 108.04 216.807 108.329 216.544 109.153C216.254 110.046 216.517 111.202 217.324 112.585C217.376 112.682 217.35 112.796 217.254 112.857C217.227 112.866 217.192 112.874 217.157 112.874Z" fill="#91B3FA"/>
<defs>
<linearGradient id="paint0_linear" x1="33.8713" y1="175.33" x2="39.6006" y2="191.944" gradientUnits="userSpaceOnUse">
<stop stop-color="#09005D"/>
<stop offset="1" stop-color="#1A0F91"/>
</linearGradient>
<linearGradient id="paint1_linear" x1="36.457" y1="165.159" x2="32.4336" y2="164.268" gradientUnits="userSpaceOnUse">
<stop stop-color="#FEBBBA"/>
<stop offset="1" stop-color="#FF928E"/>
</linearGradient>
<linearGradient id="paint2_linear" x1="28.5383" y1="150.497" x2="53.8329" y2="150.497" gradientUnits="userSpaceOnUse">
<stop stop-color="#E1473D"/>
<stop offset="1" stop-color="#E9605A"/>
</linearGradient>
<linearGradient id="paint3_linear" x1="36.6119" y1="126.345" x2="33.8466" y2="150.272" gradientUnits="userSpaceOnUse">
<stop stop-color="#09005D"/>
<stop offset="1" stop-color="#1A0F91"/>
</linearGradient>
<linearGradient id="paint4_linear" x1="36.1721" y1="174.355" x2="25.353" y2="171.958" gradientUnits="userSpaceOnUse">
<stop stop-color="#4F52FF"/>
<stop offset="1" stop-color="#4042E2"/>
</linearGradient>
<linearGradient id="paint5_linear" x1="38.5448" y1="169.512" x2="34.7687" y2="168.675" gradientUnits="userSpaceOnUse">
<stop stop-color="#FEBBBA"/>
<stop offset="1" stop-color="#FF928E"/>
</linearGradient>
<linearGradient id="paint6_linear" x1="35.0462" y1="152.68" x2="66.4146" y2="152.68" gradientUnits="userSpaceOnUse">
<stop stop-color="#E1473D"/>
<stop offset="1" stop-color="#E9605A"/>
</linearGradient>
<linearGradient id="paint7_linear" x1="33.751" y1="126.802" x2="20.5786" y2="123.883" gradientUnits="userSpaceOnUse">
<stop stop-color="#FEBBBA"/>
<stop offset="1" stop-color="#FF928E"/>
</linearGradient>
<linearGradient id="paint8_linear" x1="53.618" y1="106.371" x2="44.8784" y2="104.434" gradientUnits="userSpaceOnUse">
<stop stop-color="#FEBBBA"/>
<stop offset="1" stop-color="#FF928E"/>
</linearGradient>
<linearGradient id="paint9_linear" x1="78.3335" y1="95.1996" x2="49.8829" y2="161.51" gradientUnits="userSpaceOnUse">
<stop stop-color="#FEBBBA"/>
<stop offset="1" stop-color="#FF928E"/>
</linearGradient>
<linearGradient id="paint10_linear" x1="41.8082" y1="96.8974" x2="53.5316" y2="114.375" gradientUnits="userSpaceOnUse">
<stop stop-color="#FEBBBA"/>
<stop offset="1" stop-color="#FF928E"/>
</linearGradient>
<linearGradient id="paint11_linear" x1="49.9833" y1="96.3619" x2="36.636" y2="95.6139" gradientUnits="userSpaceOnUse">
<stop stop-color="#09005D"/>
<stop offset="1" stop-color="#1A0F91"/>
</linearGradient>
<linearGradient id="paint12_linear" x1="57.1138" y1="109.303" x2="48.6771" y2="99.6074" gradientUnits="userSpaceOnUse">
<stop stop-color="#FEBBBA"/>
<stop offset="1" stop-color="#FF928E"/>
</linearGradient>
<linearGradient id="paint13_linear" x1="35.9982" y1="54.5389" x2="35.6031" y2="81.6284" gradientUnits="userSpaceOnUse">
<stop stop-color="#09005D"/>
<stop offset="1" stop-color="#1A0F91"/>
</linearGradient>
<linearGradient id="paint14_linear" x1="19.5112" y1="54.2985" x2="19.1162" y2="81.388" gradientUnits="userSpaceOnUse">
<stop stop-color="#09005D"/>
<stop offset="1" stop-color="#1A0F91"/>
</linearGradient>
<linearGradient id="paint15_linear" x1="222.976" y1="129.395" x2="219.909" y2="158.568" gradientUnits="userSpaceOnUse">
<stop stop-color="#FEBBBA"/>
<stop offset="1" stop-color="#FF928E"/>
</linearGradient>
<linearGradient id="paint16_linear" x1="222.081" y1="102.914" x2="214.273" y2="149.676" gradientUnits="userSpaceOnUse">
<stop stop-color="#FEBBBA"/>
<stop offset="1" stop-color="#FF928E"/>
</linearGradient>
<linearGradient id="paint17_linear" x1="211.582" y1="119.496" x2="214.799" y2="125.394" gradientUnits="userSpaceOnUse">
<stop stop-color="#FEBBBA"/>
<stop offset="1" stop-color="#FF928E"/>
</linearGradient>
<linearGradient id="paint18_linear" x1="192.08" y1="170.557" x2="185.643" y2="178.659" gradientUnits="userSpaceOnUse">
<stop stop-color="#09005D"/>
<stop offset="1" stop-color="#1A0F91"/>
</linearGradient>
<linearGradient id="paint19_linear" x1="191.446" y1="170.512" x2="192.967" y2="173.975" gradientUnits="userSpaceOnUse">
<stop stop-color="#FEBBBA"/>
<stop offset="1" stop-color="#FF928E"/>
</linearGradient>
<linearGradient id="paint20_linear" x1="175.826" y1="171.09" x2="177.588" y2="175.104" gradientUnits="userSpaceOnUse">
<stop stop-color="#FEBBBA"/>
<stop offset="1" stop-color="#FF928E"/>
</linearGradient>
<linearGradient id="paint21_linear" x1="231.824" y1="125.179" x2="231.624" y2="136.257" gradientUnits="userSpaceOnUse">
<stop stop-color="#FEBBBA"/>
<stop offset="1" stop-color="#FF928E"/>
</linearGradient>
<linearGradient id="paint22_linear" x1="227.742" y1="115.31" x2="217.07" y2="127.314" gradientUnits="userSpaceOnUse">
<stop stop-color="#FEBBBA"/>
<stop offset="1" stop-color="#FF928E"/>
</linearGradient>
<linearGradient id="paint23_linear" x1="233.98" y1="97.7926" x2="222.613" y2="119.296" gradientUnits="userSpaceOnUse">
<stop stop-color="#09005D"/>
<stop offset="1" stop-color="#1A0F91"/>
</linearGradient>
<linearGradient id="paint24_linear" x1="230.715" y1="117.687" x2="227.296" y2="121.533" gradientUnits="userSpaceOnUse">
<stop stop-color="#FEBBBA"/>
<stop offset="1" stop-color="#FF928E"/>
</linearGradient>
<linearGradient id="paint25_linear" x1="215.968" y1="136.427" x2="221.824" y2="175.093" gradientUnits="userSpaceOnUse">
<stop stop-color="#FEBBBA"/>
<stop offset="1" stop-color="#FF928E"/>
</linearGradient>
<linearGradient id="paint26_linear" x1="170.836" y1="170.996" x2="173.025" y2="178.686" gradientUnits="userSpaceOnUse">
<stop stop-color="#09005D"/>
<stop offset="1" stop-color="#1A0F91"/>
</linearGradient>
<linearGradient id="paint27_linear" x1="225.641" y1="70.2328" x2="234.286" y2="154.262" gradientUnits="userSpaceOnUse">
<stop stop-color="#E1473D"/>
<stop offset="1" stop-color="#E9605A"/>
</linearGradient>
<linearGradient id="paint28_linear" x1="202.23" y1="117.112" x2="229.206" y2="133.374" gradientUnits="userSpaceOnUse">
<stop stop-color="#09005D"/>
<stop offset="1" stop-color="#1A0F91"/>
</linearGradient>
<linearGradient id="paint29_linear" x1="207.819" y1="115.28" x2="208.514" y2="116.379" gradientUnits="userSpaceOnUse">
<stop stop-color="#8D55D1"/>
<stop offset="0.9964" stop-color="#1C2873"/>
</linearGradient>
<linearGradient id="paint30_linear" x1="209.16" y1="137.459" x2="215.016" y2="176.124" gradientUnits="userSpaceOnUse">
<stop stop-color="#FEBBBA"/>
<stop offset="1" stop-color="#FF928E"/>
</linearGradient>
<linearGradient id="paint31_linear" x1="223.607" y1="70.442" x2="232.252" y2="154.471" gradientUnits="userSpaceOnUse">
<stop stop-color="#E1473D"/>
<stop offset="1" stop-color="#E9605A"/>
</linearGradient>
<linearGradient id="paint32_linear" x1="214.384" y1="124.757" x2="216.22" y2="124.757" gradientUnits="userSpaceOnUse">
<stop stop-color="#FEBBBA"/>
<stop offset="1" stop-color="#FF928E"/>
</linearGradient>
</defs>
</svg>
