<svg width="210" height="207" viewBox="0 0 210 207" fill="none" xmlns="http://www.w3.org/2000/svg">
<g clip-path="url(#clip0)">
<path d="M96.8845 31.7894L199.867 27.1541L199.749 22.5779C199.661 18.8371 196.523 15.8208 192.797 15.9835L102.71 19.8869C98.8361 20.0569 95.9272 23.6277 96.3911 27.4867L96.8845 31.7894Z" fill="#03BAAF"/>
<path d="M135.577 70.942L112.283 71.9918C111.488 72.0288 110.744 69.9809 110.575 67.3121L109.205 46.0577C109.021 43.1301 109.595 40.6165 110.464 40.5795L134.17 39.515C135.002 39.478 135.775 41.7254 135.901 44.5273L136.851 65.7966C136.976 68.5985 136.409 70.905 135.577 70.942Z" fill="#81DCD7"/>
<path d="M190.919 41.4667L140.268 43.7437C139.413 43.7806 138.692 43.1227 138.655 42.2651L138.625 41.6219C138.589 40.7643 139.244 40.0398 140.098 40.0029L190.75 37.7258C191.604 37.6889 192.326 38.3469 192.363 39.2044L192.392 39.8476C192.429 40.7052 191.766 41.4297 190.919 41.4667Z" fill="#81DCD7"/>
<path d="M191.773 54.7664L141.122 57.0508C140.268 57.0878 139.546 56.4298 139.509 55.5723L139.48 54.9291C139.443 54.0715 140.098 53.347 140.952 53.31L191.604 51.0257C192.458 50.9887 193.18 51.6467 193.217 52.5042L193.246 53.1474C193.283 54.005 192.628 54.7295 191.773 54.7664Z" fill="#81DCD7"/>
<path d="M166.993 35.7594L110.818 38.2877C109.964 38.3247 109.242 37.6667 109.205 36.8092L109.176 36.166C109.139 35.3084 109.794 34.5839 110.648 34.5469L166.823 32.0186C167.678 31.9816 168.399 32.6396 168.436 33.4971L168.466 34.1403C168.502 34.9979 167.84 35.7224 166.993 35.7594Z" fill="#81DCD7"/>
<path d="M191.206 47.9871L140.555 50.2715C139.701 50.3085 138.979 49.6505 138.942 48.7929L138.913 48.1498C138.876 47.2922 139.531 46.5677 140.385 46.5307L191.037 44.2464C191.891 44.2094 192.613 44.8674 192.65 45.7249L192.679 46.3681C192.716 47.2257 192.061 47.9502 191.206 47.9871Z" fill="#81DCD7"/>
<path d="M192.142 61.6492L141.49 63.9262C140.636 63.9632 139.914 63.3052 139.877 62.4476L139.848 61.8044C139.811 60.9468 140.466 60.2223 141.321 60.1854L191.972 57.9083C192.826 57.8714 193.548 58.5294 193.585 59.3869L193.614 60.0301C193.651 60.8877 192.988 61.6122 192.142 61.6492Z" fill="#81DCD7"/>
<path d="M192.996 74.9489L142.344 77.2259C141.49 77.2628 140.768 76.6049 140.732 75.7473L140.702 75.1041C140.665 74.2466 141.321 73.5221 142.175 73.4851L192.827 71.2007C193.681 71.1637 194.402 71.8217 194.439 72.6793L194.469 73.3225C194.513 74.1874 193.85 74.9119 192.996 74.9489Z" fill="#81DCD7"/>
<path d="M192.429 68.177L141.777 70.454C140.923 70.4909 140.201 69.833 140.164 68.9754L140.135 68.3322C140.098 67.4746 140.754 66.7501 141.608 66.7132L192.26 64.4362C193.114 64.3992 193.835 65.0572 193.872 65.9147L193.902 66.5579C193.939 67.4155 193.283 68.14 192.429 68.177Z" fill="#81DCD7"/>
<path d="M104.639 28.019C105.68 28.019 106.524 27.1717 106.524 26.1265C106.524 25.0812 105.68 24.2339 104.639 24.2339C103.598 24.2339 102.754 25.0812 102.754 26.1265C102.754 27.1717 103.598 28.019 104.639 28.019Z" fill="#81DCD7"/>
<path d="M111.997 27.1353C112.7 26.3638 112.646 25.1667 111.878 24.4615C111.109 23.7563 109.917 23.81 109.214 24.5815C108.512 25.353 108.565 26.5501 109.334 27.2553C110.102 27.9605 111.295 27.9068 111.997 27.1353Z" fill="#81DCD7"/>
<path d="M117.438 27.4424C118.479 27.4424 119.324 26.595 119.324 25.5498C119.324 24.5046 118.479 23.6572 117.438 23.6572C116.397 23.6572 115.553 24.5046 115.553 25.5498C115.553 26.595 116.397 27.4424 117.438 27.4424Z" fill="#81DCD7"/>
<path d="M178.628 165.6C178.628 165.6 188.769 187.786 194.086 196.975C194.086 196.975 195.139 202.757 194.086 204.575L193.187 204.974L197.392 204.849C197.392 204.849 197.768 197.071 197.473 196.635C197.179 196.199 196.597 196.229 196.597 196.229C196.597 196.229 194.793 181.894 189.579 178.841L184.52 161.357L178.628 165.6Z" fill="url(#paint0_linear)"/>
<path d="M191.39 206.061C191.383 206.165 194.675 206.113 196.457 206.083C197.12 206.069 197.68 205.603 197.82 204.96L199.167 197.848C199.292 197.175 198.865 196.517 198.202 196.362L197.451 196.192C197.451 196.192 196.376 197.67 196.715 199.06C197.054 200.45 197.356 204.058 196.501 204.479C195.647 204.901 193.187 204.975 193.187 204.975C193.187 204.975 191.449 205.145 191.39 206.061Z" fill="url(#paint1_linear)"/>
<path d="M169.018 206.187C168.686 206.379 168.819 206.889 169.202 206.882C172.192 206.852 178.886 206.756 179.482 206.505C180.248 206.187 179.202 203.415 178.098 202.476L172.008 204.472L169.018 206.187Z" fill="url(#paint2_linear)"/>
<path d="M167.125 164.181C167.125 164.181 173.679 195.999 175.528 202.209L171.146 204.974C171.146 204.974 173.341 204.597 174.975 204.479C176.603 204.361 178.105 202.483 178.105 202.483L177.582 201.64C177.582 201.64 175.94 169.991 176.338 166.398L167.125 164.181Z" fill="url(#paint3_linear)"/>
<path d="M184.973 180.967C179.558 185.694 178.425 186.38 174.716 188.476C138.545 208.952 86.2004 204 73.4197 201.985C52.7954 198.73 42.6635 197.582 27.7048 186.125C-6.28892 160.092 -4.63338 105.787 21.3402 72.1519C24.4231 68.1602 49.9037 37.2128 91.3436 32.6224C92.359 32.5102 140.362 27.134 172.759 50.1419C177.395 53.4349 184.856 59.3725 191.78 68.4347C217.069 101.559 217.15 152.857 184.973 180.967Z" fill="#CBF3F1"/>
<path d="M89.3435 160.055L85.1974 197.352H133.264L127.004 160.055H89.3435Z" fill="#00A097"/>
<path d="M0 69.0123V162.096C0 169.755 6.07554 176.016 13.7049 176.216C47.5733 177.096 166.028 179.218 198.269 178.744C203.807 178.663 208.299 174.213 208.461 168.653C209.079 147.029 210.096 95.0277 206.355 70.8827C205.567 65.7964 201.295 61.9965 196.17 61.8338C167.788 60.9171 42.2195 58.0191 9.99334 58.7436C4.44066 58.8693 0 63.4307 0 69.0123Z" fill="#00827A"/>
<path d="M5.81778 68.5539V156.995C5.81778 161.467 9.38946 165.112 13.8449 165.178L193.629 167.411C198.048 167.478 201.664 163.914 201.678 159.479L201.98 71.8289C201.995 68.6574 199.476 66.0625 196.317 65.9886L12.2542 62.2478C8.72667 62.1665 5.81778 65.0127 5.81778 68.5539Z" fill="url(#paint4_linear)"/>
<path d="M203.033 171.019L5.81774 167.64C5.68519 167.64 5.58209 167.53 5.58945 167.404C5.58945 167.271 5.69255 167.182 5.82511 167.175L203.041 170.546C203.173 170.546 203.276 170.657 203.269 170.782C203.269 170.915 203.159 171.019 203.033 171.019Z" fill="#91B3FA"/>
<path d="M5.81778 68.5539V156.995C5.81778 161.467 9.38946 165.112 13.8449 165.178L193.629 167.411C198.048 167.478 201.664 163.914 201.678 159.479L201.98 71.8289C201.995 68.6574 199.476 66.0625 196.317 65.9886L12.2542 62.2478C8.72667 62.1665 5.81778 65.0127 5.81778 68.5539Z" fill="#03BAAF"/>
<path d="M106.37 175.137C105.11 175.137 104.079 174.109 104.079 172.845C104.079 171.581 105.103 170.546 106.37 170.546C107.629 170.546 108.653 171.573 108.653 172.845C108.66 174.109 107.629 175.137 106.37 175.137ZM106.37 171.019C105.368 171.019 104.551 171.84 104.551 172.845C104.551 173.85 105.368 174.671 106.37 174.671C107.371 174.671 108.189 173.85 108.189 172.845C108.189 171.832 107.371 171.019 106.37 171.019Z" fill="#91B3FA"/>
<path d="M143.618 204.989H73.2747C71.3599 204.989 69.9313 203.621 70.2995 202.158L71.2053 198.572C71.4778 197.493 72.6561 196.702 74.0626 196.657L141.88 194.536C143.346 194.491 144.642 195.268 144.966 196.391L146.593 202.099C147.006 203.577 145.562 204.989 143.618 204.989Z" fill="#03BAAF"/>
<path d="M111.142 197.633C111.017 197.633 110.906 197.53 110.906 197.404C110.906 197.271 111.009 197.167 111.134 197.167L114.043 197.123C114.169 197.123 114.279 197.227 114.279 197.352C114.279 197.485 114.176 197.589 114.051 197.589L111.142 197.633Z" fill="#91B3FA"/>
<path d="M72.8991 203.015C72.8844 203.015 72.877 203.015 72.8623 203.015C72.7371 202.993 72.6487 202.875 72.6708 202.749L73.0832 200.139C73.3041 198.735 74.4972 197.7 75.9111 197.685L106.731 197.234C106.863 197.241 106.966 197.338 106.966 197.463C106.966 197.596 106.863 197.7 106.738 197.7L75.9185 198.151C74.7328 198.166 73.7313 199.038 73.5472 200.213L73.1348 202.823C73.1127 202.934 73.0169 203.015 72.8991 203.015Z" fill="#91B3FA"/>
<path opacity="0.5" d="M180.285 165.186L25.0607 163.39C20.5464 163.338 16.9158 159.538 16.9158 154.873V97.3196C16.9158 92.5586 20.6863 88.7291 25.289 88.8031L180.513 91.3684C185.013 91.4423 188.622 95.2348 188.622 99.8849V156.662C188.614 161.416 184.873 165.245 180.285 165.186Z" fill="white"/>
<path opacity="0.78" d="M184.792 87.295L20.8851 85.7129C18.8231 85.6907 17.1588 84.4561 17.1588 82.9406V77.2776C17.1588 75.7251 18.882 74.4831 20.9882 74.5053L184.895 76.3831C186.957 76.4053 188.607 77.6399 188.607 79.1554V84.5226C188.614 86.0677 186.898 87.3171 184.792 87.295Z" fill="white"/>
<path opacity="0.78" d="M125.237 157.409L32.0862 156.108C28.2347 156.056 25.1343 152.914 25.1122 149.04L24.9207 102.798C24.906 98.8647 28.0727 95.671 31.9905 95.671H125.34C129.243 95.671 132.41 98.85 132.41 102.768V150.312C132.41 154.267 129.184 157.461 125.237 157.409Z" fill="white"/>
<path opacity="0.78" d="M180.138 125.058H141.851C139.708 125.058 137.977 123.313 137.977 121.169V99.6483C137.977 97.4674 139.767 95.7079 141.939 95.7597L180.226 96.6024C182.332 96.6468 184.019 98.3767 184.019 100.491V121.169C184.019 123.313 182.281 125.058 180.138 125.058Z" fill="white"/>
<path opacity="0.78" d="M180.307 156.965H141.689C139.642 156.965 137.977 155.294 137.977 153.239V131.305C137.977 129.249 139.642 127.579 141.689 127.579H180.307C182.354 127.579 184.019 129.249 184.019 131.305V153.239C184.019 155.302 182.354 156.965 180.307 156.965Z" fill="white"/>
<path d="M11.4514 200.953C11.4514 200.953 10.5604 202.365 10.3321 206.32C10.31 206.69 10.6045 207 10.9728 207H17.9541C18.2339 207 18.4328 206.726 18.3444 206.453C17.932 205.241 16.6948 202.276 13.9406 200.583L11.4514 200.953Z" fill="url(#paint5_linear)"/>
<path d="M11.1495 198.269L11.5471 201.596C11.584 201.884 11.8049 202.113 12.0921 202.143C12.475 202.187 13.0274 202.217 13.565 202.128C14.0584 202.047 14.4119 201.611 14.4119 201.108V197.899L11.1495 198.269Z" fill="url(#paint6_linear)"/>
<path d="M28.7281 200.583C28.7281 200.583 27.3951 202.668 27.4172 205.529C27.4246 206.202 27.9843 206.741 28.6544 206.741H39.502C40.0101 206.741 40.2163 206.083 39.8039 205.795C37.7493 204.346 33.7211 201.648 30.7974 200.583H28.7281Z" fill="url(#paint7_linear)"/>
<path d="M27.6161 196.99L28.4556 201.093C28.5513 201.551 29.0005 201.862 29.4498 201.758C29.7296 201.699 30.0536 201.581 30.3998 201.359C30.7312 201.152 30.9005 200.753 30.8343 200.369L29.9653 195.393L27.6161 196.99Z" fill="url(#paint8_linear)"/>
<path d="M12.696 139.91C12.696 139.91 9.76504 142.505 9.21272 145.625C8.6604 148.744 10.7739 199.437 10.7739 199.437C10.7739 199.437 13.7049 199.925 15.2146 199.008C15.2146 199.008 17.0041 166.11 18.3665 158.51C18.3665 158.51 25.5025 192.591 27.4835 198.75C27.4835 198.75 30.304 199.097 31.2172 198.557C31.2172 198.557 29.3467 154.385 26.9975 146.527L12.696 139.91Z" fill="url(#paint9_linear)"/>
<path d="M18.2855 157.431C18.1456 157.431 18.0131 157.335 17.9762 157.194L16.7611 152.522L14.1763 150.859C14.029 150.763 13.9848 150.563 14.0805 150.415C14.1763 150.267 14.3751 150.223 14.5224 150.319L17.2104 152.049C17.2766 152.093 17.3282 152.16 17.3429 152.234L18.5875 157.024C18.6317 157.194 18.5286 157.372 18.3592 157.416C18.3371 157.431 18.3076 157.431 18.2855 157.431Z" fill="url(#paint10_linear)"/>
<path d="M41.6009 110.619C29.2731 109.592 26.0475 112.15 26.0475 112.15L31.9758 121.538C31.9758 121.538 44.09 121.302 52.7725 114.582C51.145 112.822 50.0183 110.885 49.2966 109.37C47.0578 110.309 44.4803 110.856 41.6009 110.619Z" fill="#FF6F41"/>
<path d="M60.91 92.4477C60.8953 92.0485 60.3577 91.945 60.1883 92.2999L58.6124 95.671C58.3104 96.3216 58.2073 97.0535 58.3325 97.7632L58.8848 99.7223C59.0469 100.676 58.8038 101.659 58.2 102.421C56.7566 104.232 53.6783 107.551 49.2892 109.377C50.0109 110.886 51.1376 112.83 52.7651 114.589C55.9539 112.128 58.6713 108.786 60.1662 104.269C60.8806 104.047 61.3592 103.374 61.3298 102.62L60.91 92.4477Z" fill="url(#paint11_linear)"/>
<path d="M45.6586 116.061C41.321 111.366 33.0509 109.244 28.2641 108.372C26.1653 107.987 24.1033 109.163 23.3595 111.166C21.2018 116.977 15.3471 132.103 14.213 134.705C13.2778 136.834 12.3057 138.919 11.6871 140.22C11.3189 140.997 11.6429 141.928 12.4162 142.305C16.4444 144.257 23.6909 146.46 26.6292 147.318C27.2773 147.51 27.918 147.022 27.918 146.342C27.918 145.765 28.0726 145.203 28.3672 144.715L39.4946 126.1C46.4318 133.818 52.5 134.528 57.1689 132.835C56.381 130.403 55.8728 127.963 55.6224 125.516C48.7295 124.341 45.6586 116.061 45.6586 116.061Z" fill="#FF6F41"/>
<path d="M67.015 124.229L65.7705 122.566C61.7422 125.346 58.3767 126.004 55.6225 125.523C55.8655 127.963 56.381 130.402 57.169 132.842C63.3108 130.617 67.015 124.229 67.015 124.229Z" fill="url(#paint12_linear)"/>
<path d="M66.1387 124.259L73.1494 124.533L79.6005 120.918C78.6726 120.334 73.4366 121.524 73.4366 121.524C73.4366 121.524 67.965 120.696 66.4774 120.688C65.2476 120.688 65.4243 122.463 65.5201 123.069C65.5421 123.195 65.5569 123.269 65.5569 123.269L66.1387 124.259Z" fill="url(#paint13_linear)"/>
<path d="M34.8478 99.7518L31.1509 108.808C31.1509 108.808 35.4001 111.758 38.8171 111.477L40.6656 103.33L34.8478 99.7518Z" fill="url(#paint14_linear)"/>
<path d="M41.0927 93.5714C41.1811 93.6897 43.7659 103.086 43.7659 103.086L38.39 104.454L34.6195 95.915C34.6195 95.9224 39.6787 91.5606 41.0927 93.5714Z" fill="url(#paint15_linear)"/>
<path d="M36.6447 97.2234L38.2795 101.874C38.3016 101.933 38.3311 101.992 38.3679 102.044C38.5888 102.361 39.4357 103.396 40.4299 102.465C41.3357 101.622 42.1752 100.861 42.9558 100.728C43.302 100.669 43.6407 100.883 43.7365 101.223C43.9721 102.073 44.4655 104.01 44.6423 105.755C44.6791 106.11 44.4361 106.428 44.0826 106.494C43.0295 106.694 40.8055 107.056 38.9497 106.923C38.6993 106.908 38.4784 106.753 38.3679 106.524C37.8524 105.4 36.2838 101.992 35.702 101.112C35.1571 100.284 33.8094 100.306 33.2497 100.358C33.0656 100.373 32.8815 100.314 32.7416 100.195C32.2482 99.7592 31.3129 98.6577 32.6311 97.3269C32.9036 97.046 32.8963 96.6024 32.6164 96.3363C32.0494 95.804 31.4455 94.8503 32.3881 93.6749C33.3455 92.4772 34.6121 92.6695 35.3854 92.9504C35.702 93.0687 36.0408 92.9356 36.2102 92.6473C36.3059 92.4846 36.4753 92.359 36.7699 92.3811C37.1675 92.4181 37.4989 92.0854 37.4916 91.6862C37.4768 90.9174 37.7493 89.9563 39.0749 89.5423C41.4241 88.8104 42.8896 91.0874 43.0295 92.7877C43.1768 94.4881 40.5846 95.1387 39.0602 95.0204C37.904 94.9317 37.0423 96.0849 36.6962 96.6394C36.6005 96.8094 36.5784 97.0238 36.6447 97.2234Z" fill="url(#paint16_linear)"/>
<path d="M36.3206 102.79C36.3206 102.79 35.945 99.8405 34.7226 99.6926C33.5001 99.5447 32.3071 100.558 33.5222 102.214C35.0319 104.269 36.3206 102.79 36.3206 102.79Z" fill="url(#paint17_linear)"/>
<path d="M63.9441 80.3751L135.319 79.9241C136.954 79.9167 138.279 81.1661 138.264 82.7038L137.962 119.875C137.948 121.428 136.585 122.662 134.943 122.618L64.3418 120.614C62.7732 120.57 61.5213 119.365 61.4992 117.886L61.0279 83.1696C61.0205 81.6466 62.324 80.3899 63.9441 80.3751Z" fill="#03BAAF"/>
<path d="M135.039 120.356L64.4228 118.352C64.1503 118.345 63.9294 118.13 63.9294 117.864L63.4581 83.1475C63.4581 83.007 63.5096 82.8887 63.6054 82.7926C63.7011 82.6965 63.8263 82.6521 63.9589 82.6521L135.333 82.2012C135.473 82.2012 135.591 82.2529 135.694 82.3416C135.797 82.4377 135.849 82.5634 135.849 82.7039L135.547 119.875C135.547 120.134 135.319 120.356 135.039 120.356ZM135.378 82.6891L63.9736 83.1253L64.4081 117.864L64.4375 117.879L135.046 119.883L135.378 82.6891Z" fill="#BDD0FB"/>
<path d="M68.0681 87.7901C68.0681 88.9877 68.8119 89.9636 69.7251 89.9636H130.421C131.335 89.9636 132.078 88.9951 132.078 87.7901C132.078 86.5924 131.335 85.6166 130.421 85.6166H69.7177C68.8045 85.624 68.0681 86.5924 68.0681 87.7901Z" fill="#81DCD7"/>
<path d="M68.3627 92.2554H93.9241C94.8299 92.2554 95.559 92.9503 95.559 93.8005V113.695C95.559 114.567 94.8004 115.262 93.8725 115.24L68.834 114.582C67.965 114.56 67.2654 113.902 67.2433 113.074L66.7204 93.83C66.6983 92.9725 67.4421 92.2554 68.3627 92.2554Z" fill="#81DCD7"/>
<path d="M100.891 92.7434H129.42C130.038 92.7434 130.547 93.3274 130.547 94.0445C130.547 94.7616 130.046 95.3457 129.42 95.3457H100.891C100.272 95.3457 99.764 94.7616 99.764 94.0445C99.764 93.3274 100.272 92.7434 100.891 92.7434Z" fill="#81DCD7"/>
<path d="M99.7714 99.6187C99.7714 100.336 100.272 100.92 100.891 100.92H129.427C130.046 100.92 130.547 100.336 130.547 99.6187V98.8129C130.547 98.081 130.031 97.497 129.398 97.5117L100.861 98.3176C100.257 98.3398 99.7714 98.9164 99.7714 99.6187Z" fill="#81DCD7"/>
<path d="M157.964 95.6858C157.964 95.6858 158.428 116.09 179.799 119.668L183.636 115.868C183.636 115.868 165.129 109.555 160.313 96.3512L161.344 89.3502L160.622 84.7148L157.964 95.6858Z" fill="url(#paint18_linear)"/>
<path d="M194.498 87.9158L109.713 90.0006C106.274 90.082 103.336 87.5314 102.931 84.1011L96.1997 27.3166C95.7431 23.4502 98.652 20.0125 102.526 19.8425L192.613 15.9021C196.339 15.7394 199.476 18.6818 199.565 22.4226L200.993 81.0553C201.089 84.7591 198.18 87.8271 194.498 87.9158Z" fill="#00827A"/>
<path d="M191.059 84.9292L112.762 86.8513C109.588 86.9326 106.878 84.6261 106.502 81.5285L100.316 30.2737C99.8965 26.7843 102.585 23.6793 106.164 23.5241L189.358 19.9237C192.797 19.7759 195.691 22.4299 195.772 25.8085L197.061 78.7413C197.149 82.0755 194.461 84.8479 191.059 84.9292Z" fill="#E3F7F6"/>
<path d="M150.865 89.9637C150.865 89.9637 149.959 106.516 164.975 114.974L161.359 123.246C161.359 123.246 147.764 114.996 148.273 92.4847C148.287 91.8415 148.052 91.2131 147.632 90.7252L144.745 87.3614C143.648 86.0825 143.235 84.3378 143.64 82.6966L144.023 81.1736C144.149 80.6635 144.73 80.4196 145.187 80.6783L145.489 80.8557C146.454 81.4176 147.212 82.2678 147.669 83.288L149.09 86.4743C149.62 87.6645 150.843 88.3817 152.131 88.2708L153.008 88.1968L150.865 89.9637Z" fill="url(#paint19_linear)"/>
<path d="M164.452 113.732C166.963 114.434 175.469 116.681 180.786 116.585L177.523 135.06L177.781 138.076L167.147 138.032C167.147 138.032 164.157 131.053 161.793 127.571C161.108 126.566 161.617 125.368 162.007 124.215L161.477 123.86C160.939 123.498 160.703 122.817 160.902 122.204L163.495 114.249C163.62 113.842 164.047 113.621 164.452 113.732Z" fill="#FF6F41"/>
<path d="M166.293 136.45L166.499 138.276C166.499 138.276 163.495 147.31 168.001 168.409C168.001 168.409 177.767 171.189 185.786 164.543C185.786 164.543 183.525 144.626 182.907 143.702C179.829 139.082 177.774 138.076 177.774 138.076L177.678 136.08C177.686 136.08 169.106 137.64 166.293 136.45Z" fill="url(#paint20_linear)"/>
<path d="M170.454 115.218C170.417 115.166 172.67 108.379 172.67 108.379L175.903 108.675L177.17 116.378C177.17 116.378 172.103 117.406 170.454 115.218Z" fill="url(#paint21_linear)"/>
<path d="M175.137 97.667C174.924 97.8001 168.23 100.58 169.666 107.551C169.754 107.965 170.027 108.313 170.41 108.483C171.389 108.919 173.51 109.673 176.036 109.414C179.541 109.059 181.839 102.916 181.743 101.127C181.64 99.3452 177.273 96.3363 175.137 97.667Z" fill="url(#paint22_linear)"/>
<path d="M177.17 94.9539C176.993 94.9761 173.304 96.2698 175.13 98.9534C176.964 101.637 177.649 103.219 176.78 104.402C175.992 105.474 174.246 104.868 174.394 107.1C174.423 107.551 174.232 107.98 173.863 108.231C172.214 109.348 168.2 112.793 172.177 117.709C172.501 118.108 172.567 118.663 172.317 119.106C171.153 121.206 168.701 127.357 177.568 130.765C186.331 134.136 189.491 128.384 190.374 126.085C190.566 125.59 191.052 125.287 191.582 125.309C192.547 125.353 193.909 125.191 193.843 123.904C193.806 123.121 193.32 122.418 192.738 121.856C192.171 121.302 192.282 120.319 192.974 119.927C193.497 119.631 193.961 119.165 194.152 118.434C194.682 116.46 193.622 110.553 187.981 109.555C187.51 109.473 187.016 109.03 186.95 108.557C186.95 108.549 186.95 108.542 186.95 108.535C186.876 108.076 187.031 107.603 187.399 107.33C188.297 106.664 189.454 105.333 188.518 103.19C187.686 101.29 186.088 100.646 184.903 100.447C184.21 100.328 183.746 99.6631 183.894 98.9756C184.321 97.083 183.975 94.0594 177.17 94.9539Z" fill="url(#paint23_linear)"/>
</g>
<defs>
<linearGradient id="paint0_linear" x1="194.454" y1="183.162" x2="213.408" y2="183.162" gradientUnits="userSpaceOnUse">
<stop stop-color="#FEBBBA"/>
<stop offset="1" stop-color="#FF928E"/>
</linearGradient>
<linearGradient id="paint1_linear" x1="204.683" y1="140.611" x2="195.225" y2="201.849" gradientUnits="userSpaceOnUse">
<stop stop-color="#09005D"/>
<stop offset="1" stop-color="#1A0F91"/>
</linearGradient>
<linearGradient id="paint2_linear" x1="184.821" y1="137.542" x2="175.363" y2="198.782" gradientUnits="userSpaceOnUse">
<stop stop-color="#09005D"/>
<stop offset="1" stop-color="#1A0F91"/>
</linearGradient>
<linearGradient id="paint3_linear" x1="185.867" y1="184.577" x2="196.843" y2="184.577" gradientUnits="userSpaceOnUse">
<stop stop-color="#FEBBBA"/>
<stop offset="1" stop-color="#FF928E"/>
</linearGradient>
<linearGradient id="paint4_linear" x1="116.341" y1="33.8295" x2="85.5656" y2="228.429" gradientUnits="userSpaceOnUse">
<stop stop-color="#FDF53F"/>
<stop offset="1" stop-color="#D93C65"/>
</linearGradient>
<linearGradient id="paint5_linear" x1="10.3345" y1="203.791" x2="18.3691" y2="203.791" gradientUnits="userSpaceOnUse">
<stop stop-color="#09005D"/>
<stop offset="1" stop-color="#1A0F91"/>
</linearGradient>
<linearGradient id="paint6_linear" x1="11.1495" y1="200.043" x2="14.4081" y2="200.043" gradientUnits="userSpaceOnUse">
<stop stop-color="#FEBBBA"/>
<stop offset="1" stop-color="#FF928E"/>
</linearGradient>
<linearGradient id="paint7_linear" x1="27.421" y1="203.662" x2="40.0275" y2="203.662" gradientUnits="userSpaceOnUse">
<stop stop-color="#09005D"/>
<stop offset="1" stop-color="#1A0F91"/>
</linearGradient>
<linearGradient id="paint8_linear" x1="27.6125" y1="198.591" x2="30.8531" y2="198.591" gradientUnits="userSpaceOnUse">
<stop stop-color="#FEBBBA"/>
<stop offset="1" stop-color="#FF928E"/>
</linearGradient>
<linearGradient id="paint9_linear" x1="30.3443" y1="160.22" x2="76.066" y2="111.638" gradientUnits="userSpaceOnUse">
<stop stop-color="#09005D"/>
<stop offset="1" stop-color="#1A0F91"/>
</linearGradient>
<linearGradient id="paint10_linear" x1="64.7693" y1="87.3928" x2="26.251" y2="139.818" gradientUnits="userSpaceOnUse">
<stop stop-color="#09005D"/>
<stop offset="1" stop-color="#1A0F91"/>
</linearGradient>
<linearGradient id="paint11_linear" x1="49.2942" y1="103.334" x2="61.3378" y2="103.334" gradientUnits="userSpaceOnUse">
<stop stop-color="#FEBBBA"/>
<stop offset="1" stop-color="#FF928E"/>
</linearGradient>
<linearGradient id="paint12_linear" x1="76.5651" y1="105.97" x2="50.4196" y2="138.372" gradientUnits="userSpaceOnUse">
<stop stop-color="#FEBBBA"/>
<stop offset="1" stop-color="#FF928E"/>
</linearGradient>
<linearGradient id="paint13_linear" x1="81.4988" y1="109.951" x2="55.3534" y2="142.353" gradientUnits="userSpaceOnUse">
<stop stop-color="#FEBBBA"/>
<stop offset="1" stop-color="#FF928E"/>
</linearGradient>
<linearGradient id="paint14_linear" x1="47.289" y1="86.3284" x2="21.9347" y2="132.734" gradientUnits="userSpaceOnUse">
<stop stop-color="#FEBBBA"/>
<stop offset="1" stop-color="#FF928E"/>
</linearGradient>
<linearGradient id="paint15_linear" x1="39.3459" y1="94.8933" x2="38.739" y2="113.427" gradientUnits="userSpaceOnUse">
<stop stop-color="#FEBBBA"/>
<stop offset="1" stop-color="#FF928E"/>
</linearGradient>
<linearGradient id="paint16_linear" x1="34.4459" y1="102.733" x2="45.3441" y2="95.0702" gradientUnits="userSpaceOnUse">
<stop stop-color="#09005D"/>
<stop offset="1" stop-color="#1A0F91"/>
</linearGradient>
<linearGradient id="paint17_linear" x1="32.7474" y1="113.908" x2="34.7757" y2="101.221" gradientUnits="userSpaceOnUse">
<stop stop-color="#FEBBBA"/>
<stop offset="1" stop-color="#FF928E"/>
</linearGradient>
<linearGradient id="paint18_linear" x1="161.639" y1="83.85" x2="173.736" y2="114.857" gradientUnits="userSpaceOnUse">
<stop stop-color="#FEBBBA"/>
<stop offset="1" stop-color="#FF928E"/>
</linearGradient>
<linearGradient id="paint19_linear" x1="143.484" y1="101.909" x2="164.972" y2="101.909" gradientUnits="userSpaceOnUse">
<stop stop-color="#FEBBBA"/>
<stop offset="1" stop-color="#FF928E"/>
</linearGradient>
<linearGradient id="paint20_linear" x1="179.225" y1="133.457" x2="169.995" y2="182.496" gradientUnits="userSpaceOnUse">
<stop stop-color="#09005D"/>
<stop offset="1" stop-color="#1A0F91"/>
</linearGradient>
<linearGradient id="paint21_linear" x1="170.456" y1="112.499" x2="177.173" y2="112.499" gradientUnits="userSpaceOnUse">
<stop stop-color="#FEBBBA"/>
<stop offset="1" stop-color="#FF928E"/>
</linearGradient>
<linearGradient id="paint22_linear" x1="181.131" y1="103.786" x2="230.021" y2="107.098" gradientUnits="userSpaceOnUse">
<stop stop-color="#FEBBBA"/>
<stop offset="1" stop-color="#FF928E"/>
</linearGradient>
<linearGradient id="paint23_linear" x1="189.166" y1="100.828" x2="171.851" y2="135.325" gradientUnits="userSpaceOnUse">
<stop stop-color="#09005D"/>
<stop offset="1" stop-color="#1A0F91"/>
</linearGradient>
<clipPath id="clip0">
<rect width="210" height="207" fill="white"/>
</clipPath>
</defs>
</svg>
