<svg width="238" height="232" viewBox="0 0 238 232" fill="none" xmlns="http://www.w3.org/2000/svg">
<path d="M99.3347 224.608C40.2889 215.687 -7.68792 159.983 1.02596 98.0692C8.46136 45.2697 54.8569 4.17825 110.488 0.300751C114.517 0.0153934 118.588 -0.0685352 122.701 0.0489649C153.738 0.947001 181.309 13.3265 201.706 32.0761C222.002 50.7335 235.191 75.6854 237.596 101.863C243.997 171.507 172.772 235.704 99.3347 224.608Z" fill="#CBF3F1"/>
<path d="M86.0874 215.008C48.9946 209.032 40.819 204.886 37.034 197.299C31.5416 186.288 35.5368 168.453 44.9404 157.467C53.1917 147.832 63.4953 145.935 63.1925 139.246C62.9485 133.749 55.8832 133.044 50.702 122.712C49.188 119.699 46.2525 113.849 47.531 106.799C49.3983 96.4759 58.9449 91.0541 59.7187 90.6345C69.711 85.1539 75.4138 91.4486 82.9501 86.5387C92.3873 80.3868 88.1061 67.4702 96.9629 63.7186C103.406 60.9909 111.657 65.3048 113.81 66.4295C120.993 70.1895 120.236 74.0082 126.309 76.3414C133.433 79.0775 136.84 74.73 145.125 76.4589C151.971 77.8941 156.934 82.6109 160.988 87.3612C170.097 98.0453 165.564 104.399 172.301 117.584C181.78 136.157 196.104 134.026 198.653 148.931C199.982 156.728 196.567 160.262 199.191 172.213C200.966 180.287 203.195 181.731 203.59 186.481C204.726 200.136 188.324 212.079 185.262 214.177C165.816 227.522 138.976 223.535 86.0874 215.008Z" fill="url(#paint0_linear)"/>
<path opacity="0.3" d="M146.344 179.33C121.347 177.543 104.482 200.002 97.8041 194.421C91.479 189.133 109.353 171.273 103.246 150.383C97.249 129.888 73.7736 125.633 75.6325 114.093C77.7268 101.033 109.226 97.6342 108.478 87.9992C108.04 82.3172 96.8957 81.117 94.6668 72.0947C94.0612 69.644 94.263 67.2184 94.8939 64.944C88.7706 69.7363 91.5547 80.9408 82.9585 86.5472C75.4222 91.457 69.7195 85.1624 59.7271 90.6429C58.9533 91.0709 49.4067 96.4927 47.5395 106.808C46.261 113.858 49.1965 119.707 50.7104 122.72C55.8917 133.052 62.957 133.757 63.2009 139.254C63.5037 145.935 53.2001 147.832 44.9489 157.475C35.5453 168.461 31.55 186.288 37.0424 197.308C40.8274 204.895 49.003 209.033 86.0959 215.017C138.985 223.544 165.825 227.53 185.271 214.203C192.816 209.024 201.723 200.178 203.632 192.28C199.814 195.646 196.079 197.283 192.589 197.887C176.364 200.724 168.886 180.942 146.344 179.33Z" fill="url(#paint1_linear)"/>
<path d="M56.0346 218.525C51.0132 210.98 54.0749 199.213 54.7141 196.729C57.2374 187.043 63.1757 181.059 65.3457 178.927C80.2333 164.299 102.952 164.433 120.161 164.534C137.336 164.634 146.933 164.693 157.405 170.618C176.296 181.302 189.283 206.145 181.705 218.34C176.986 225.927 167.835 222.931 113.466 224.819C78.2231 226.045 62.343 227.992 56.0346 218.525Z" fill="#03BAAF"/>
<path d="M111.127 135.486C111.127 135.486 114.761 161.462 96.3742 166.607C94.2546 167.202 93.6069 169.88 95.2135 171.382L117.881 192.641C119.252 193.925 121.422 193.841 122.684 192.448L143.258 169.771C144.603 168.285 144.015 165.91 142.131 165.222C135.528 162.796 123.71 155.746 126.192 136.745L111.127 135.486Z" fill="url(#paint2_linear)"/>
<path d="M99.8648 121.067C99.8732 121.352 104.819 146.69 117.536 146.69C129.581 146.69 134.157 128.033 135.654 119.313C135.814 117.827 135.974 116.35 136.125 114.865C135.301 115.133 133.274 115.679 130.834 115.016C130.279 114.865 126.789 113.916 125.485 111.046C124.038 107.84 126.696 105.288 125.182 102.494C124.307 100.865 122.533 100.11 121.187 99.7239C122.087 101.042 123.828 103.979 122.844 106.64C122.179 108.436 120.329 110.148 116.191 111.197C104.365 114.193 99.747 115.326 99.8648 121.067Z" fill="url(#paint3_linear)"/>
<path d="M102.968 124.097C102.968 124.097 96.4162 118.566 95.8443 121.948C94.6499 129.007 100.26 132.901 103.296 130.794C106.341 128.688 102.968 124.097 102.968 124.097Z" fill="url(#paint4_linear)"/>
<path d="M131.869 124.097C131.869 124.097 138.421 118.566 138.993 121.948C140.188 129.007 134.577 132.901 131.541 130.794C128.496 128.688 131.869 124.097 131.869 124.097Z" fill="url(#paint5_linear)"/>
<path d="M111.48 136.308C111.48 136.308 116.704 142.502 123.618 136.694C123.618 136.694 113.608 136.728 111.48 136.308Z" fill="white"/>
<path d="M79.8296 97.9698C79.0221 97.9698 78.3744 97.3236 78.3744 96.5179V76.7695C78.3744 75.9638 79.0221 75.3175 79.8296 75.3175H95.8359C96.6433 75.3175 97.291 75.9638 97.291 76.7695C97.291 77.5752 96.6433 78.2214 95.8359 78.2214H81.2847V96.5179C81.2847 97.3152 80.637 97.9698 79.8296 97.9698Z" fill="#FF6F41"/>
<path d="M95.8359 156.93H79.8296C79.0221 156.93 78.3744 156.283 78.3744 155.478V135.729C78.3744 134.923 79.0221 134.277 79.8296 134.277C80.637 134.277 81.2847 134.923 81.2847 135.729V154.026H95.8359C96.6433 154.026 97.291 154.672 97.291 155.478C97.291 156.275 96.6433 156.93 95.8359 156.93Z" fill="#FF6F41"/>
<path d="M156.093 97.9698C155.285 97.9698 154.638 97.3236 154.638 96.5179V78.2214H140.087C139.279 78.2214 138.631 77.5752 138.631 76.7695C138.631 75.9638 139.279 75.3175 140.087 75.3175H156.093C156.9 75.3175 157.548 75.9638 157.548 76.7695V96.5179C157.548 97.3152 156.892 97.9698 156.093 97.9698Z" fill="#FF6F41"/>
<path d="M156.093 156.93H140.087C139.279 156.93 138.631 156.283 138.631 155.478C138.631 154.672 139.279 154.026 140.087 154.026H154.638V135.729C154.638 134.923 155.285 134.277 156.093 134.277C156.9 134.277 157.548 134.923 157.548 135.729V155.478C157.548 156.275 156.892 156.93 156.093 156.93Z" fill="#FF6F41"/>
<path opacity="0.48" d="M161.039 63.2403C161.039 65.4141 159.273 67.1766 157.094 67.1766H85.2382C83.0597 67.1766 81.2934 65.4141 81.2934 63.2403V21.167C81.2934 18.9932 83.0597 17.2307 85.2382 17.2307H157.094C159.273 17.2307 161.039 18.9932 161.039 21.167V63.2403Z" fill="#03BAAF"/>
<path d="M161.039 21.3094V25.3547H81.2847V21.3094C81.2847 19.1356 83.051 17.222 85.2295 17.222H157.119C159.297 17.2304 161.039 19.1356 161.039 21.3094Z" fill="#03BAAF"/>
<path d="M88.6203 21.8538C88.7847 20.8427 88.0965 19.8899 87.0832 19.7258C86.0698 19.5617 85.1149 20.2484 84.9505 21.2596C84.786 22.2707 85.4742 23.2235 86.4876 23.3876C87.501 23.5517 88.4558 22.865 88.6203 21.8538Z" fill="white"/>
<path d="M101.522 58.3303C94.1368 58.3303 88.1397 52.3378 88.1397 44.9688C88.1397 37.5999 94.1452 31.6074 101.522 31.6074C108.907 31.6074 114.912 37.5999 114.912 44.9688C114.904 52.3378 108.898 58.3303 101.522 58.3303ZM101.522 32.774C94.7845 32.774 89.3004 38.2462 89.3004 44.9688C89.3004 51.6915 94.7845 57.1637 101.522 57.1637C108.259 57.1637 113.743 51.6915 113.743 44.9688C113.743 38.2462 108.259 32.774 101.522 32.774Z" fill="white"/>
<path d="M138.043 37.4321C138.043 37.986 137.597 38.4309 137.042 38.4309H122.163C121.607 38.4309 121.162 37.986 121.162 37.4321V37.3985C121.162 36.8446 121.607 36.3998 122.163 36.3998H137.042C137.597 36.3998 138.043 36.8446 138.043 37.3985V37.4321Z" fill="white"/>
<path d="M154.924 45.8501C154.924 46.404 154.478 46.8488 153.923 46.8488H122.163C121.607 46.8488 121.162 46.404 121.162 45.8501V45.8165C121.162 45.2626 121.607 44.8177 122.163 44.8177H153.923C154.478 44.8177 154.924 45.2626 154.924 45.8165V45.8501Z" fill="white"/>
<path d="M154.924 49.6268C154.924 50.1807 154.478 50.6256 153.923 50.6256H122.163C121.607 50.6256 121.162 50.1807 121.162 49.6268V49.5932C121.162 49.0393 121.607 48.5945 122.163 48.5945H153.923C154.478 48.5945 154.924 49.0393 154.924 49.5932V49.6268Z" fill="white"/>
<path d="M154.924 53.6974C154.924 54.2513 154.478 54.6961 153.923 54.6961H122.163C121.607 54.6961 121.162 54.2513 121.162 53.6974V53.6638C121.162 53.1099 121.607 52.665 122.163 52.665H153.923C154.478 52.665 154.924 53.1099 154.924 53.6638V53.6974Z" fill="white"/>
<path d="M95.1041 43.9114C96.0471 43.9114 96.8115 43.1486 96.8115 42.2076C96.8115 41.2667 96.0471 40.5039 95.1041 40.5039C94.1611 40.5039 93.3966 41.2667 93.3966 42.2076C93.3966 43.1486 94.1611 43.9114 95.1041 43.9114Z" fill="white"/>
<path d="M107.805 43.9114C108.748 43.9114 109.512 43.1486 109.512 42.2076C109.512 41.2667 108.748 40.5039 107.805 40.5039C106.862 40.5039 106.097 41.2667 106.097 42.2076C106.097 43.1486 106.862 43.9114 107.805 43.9114Z" fill="white"/>
<path d="M108.141 47.1426C108.141 50.0465 105.206 52.2538 101.581 52.2538C97.9554 52.2538 95.02 50.0465 95.02 47.1426H108.141Z" fill="white"/>
<path d="M39.8433 227.908C39.3891 228.831 39.5152 229.234 39.633 229.41C39.961 229.922 40.7685 229.435 42.8544 229.687C43.0983 229.712 43.5694 229.78 44.1497 229.645C44.646 229.528 45.2348 229.259 45.2095 229.125C45.2011 229.075 45.1086 229.058 45.075 229.049C44.4946 228.924 40.8694 227.816 40.8694 227.816L39.8433 227.908Z" fill="url(#paint6_linear)"/>
<path d="M39.5657 225.869L39.8853 227.942C39.8853 227.942 40.7769 228.571 41.0124 227.807C41.1806 227.262 41.1722 225.776 41.1722 225.776L39.5657 225.869Z" fill="url(#paint7_linear)"/>
<path d="M50.088 226.892L49.2132 229.276L47.9431 229.075L48.2375 226.867L50.088 226.892Z" fill="url(#paint8_linear)"/>
<path d="M48.8179 230.594C48.2039 229.863 47.6487 229.931 47.5394 229.427C47.4553 229.033 47.6908 228.554 48.0609 228.37C48.574 228.109 49.1964 228.512 49.331 228.605C50.2814 229.226 50.0207 230.191 50.9207 230.61C51.0973 230.694 51.3917 230.787 51.6861 231.064C51.8122 231.181 52.1319 231.483 52.0562 231.685C51.972 231.92 51.4001 231.911 50.8702 231.903C50.2225 231.895 49.9029 231.886 49.5917 231.693C49.1627 231.425 49.2889 231.156 48.8179 230.594Z" fill="url(#paint9_linear)"/>
<path d="M32.7612 176.342C32.9967 181.16 33.6864 185.272 34.477 188.621C35.3265 192.23 35.7807 192.843 36.0751 195.344C36.7144 200.782 34.9733 201.596 34.7798 207.765C34.5696 214.572 36.4957 219.943 37.2527 221.991C37.9172 223.779 38.5985 225.222 39.1115 226.221C39.7508 226.75 40.7012 226.523 41.7021 226.296C41.9377 220.119 42.2825 214.303 42.518 208.126C43.5189 198.818 44.5114 189.511 45.5124 180.203C41.2564 178.919 37.0088 177.626 32.7612 176.342Z" fill="url(#paint10_linear)"/>
<path opacity="0.3" d="M41.7021 226.297C41.9377 220.119 42.2825 214.303 42.518 208.126C43.5189 198.818 44.5114 189.511 45.5124 180.203C41.2648 178.919 37.0172 177.626 32.7612 176.342C32.778 176.661 32.8032 176.972 32.82 177.282C38.8508 182.284 40.0956 186.321 40.0956 189.099C40.0956 192.465 38.2872 194.169 38.7583 199.037C39.0947 202.52 40.1545 203.107 40.2218 206.254C40.3059 210.308 38.6153 212.616 37.8162 214.975C37.0424 217.258 36.8237 220.464 38.5059 224.987C38.7246 225.457 38.9265 225.869 39.1115 226.229C39.7424 226.75 40.6928 226.523 41.7021 226.297Z" fill="url(#paint11_linear)"/>
<path d="M40.3311 180.824C43.5441 185.986 45.3609 190.065 46.345 192.582C46.9506 194.118 47.4973 195.721 47.6656 197.836C47.8674 200.43 47.3964 202.57 46.9759 203.946C46.3619 205.709 45.8151 207.757 45.4955 210.073C44.4609 217.568 46.345 223.779 47.7917 227.346C48.5487 227.606 49.3057 227.866 50.0627 228.126C51.6608 223.351 53.5954 216.578 54.9075 208.252C55.6225 203.703 56.1692 200.136 56.0851 195.629C55.9925 190.87 55.1514 183.35 51.0552 174.445C47.4805 176.56 43.9058 178.692 40.3311 180.824Z" fill="url(#paint12_linear)"/>
<path d="M41.1806 139.582C45.9665 140.295 49.6169 141.067 51.2907 143.526C53.0571 146.12 50.3823 148.159 49.7599 153.95C48.8179 162.813 53.9823 166.011 52.7122 174.949C52.2832 177.962 51.3076 180.304 50.6347 181.697C49.1207 182.981 46.7067 184.752 43.4096 185.977C38.6068 187.765 36.2013 186.842 29.7079 187.345C19.0763 188.176 17.5539 191.29 12.7007 189.502C7.79703 187.689 4.17186 182.595 5.15595 180.362C5.74473 179.028 7.71292 179.808 10.4633 178.13C14.0128 175.956 13.3483 173.111 16.2165 170.602C20.338 166.993 24.4426 170.459 27.9668 167.32C31.5247 164.147 31.8023 156.602 30.1621 152.154C29.0939 149.25 29.0014 146.061 28.1939 143.073C28.1266 142.821 28.0677 142.427 28.2107 141.973C28.7659 140.236 31.9284 139.833 34.3172 139.556C37.9676 139.12 40.7853 139.523 41.1806 139.582Z" fill="#FF6F41"/>
<path d="M13.1885 186.137C14.6436 185.13 13.7857 182.368 15.9305 180.841C17.924 179.431 19.5473 181.185 22.508 180.211C26.3098 178.961 26.0323 175.285 29.6742 174.034C32.2985 173.136 33.1228 174.798 36.933 174.79C40.7348 174.781 45.6805 173.111 48.7506 169.024C50.0543 167.286 50.7608 165.448 51.1309 163.761C52.216 167.018 53.3851 170.157 52.7038 174.949C52.2748 177.962 51.2991 180.304 50.6263 181.697C49.1123 182.981 46.6983 184.752 43.4011 185.977C38.5984 187.765 36.1928 186.842 29.6995 187.345C19.0679 188.176 17.5455 191.29 12.6923 189.502C9.56335 188.344 6.95592 185.851 5.73631 183.611C10.0176 186.582 12.1371 186.875 13.1885 186.137Z" fill="#EB5B2C"/>
<path d="M43.7544 131.289C43.7544 131.289 45.1254 133.723 45.2432 135.452C45.3609 137.181 43.4096 137.097 43.4096 137.097L43.5105 138.188C43.5946 139.12 44.217 139.909 45.1002 140.211L45.874 140.48C45.874 140.48 40.8694 141.663 38.0769 139.783L38.8676 139.691C39.9862 139.556 40.8526 138.658 40.9451 137.534L40.9788 137.064C40.9788 137.055 39.9863 131.692 43.7544 131.289Z" fill="url(#paint13_linear)"/>
<path d="M56.1138 158.28L60.4822 148.148C60.5353 148.026 60.6652 147.952 60.795 147.964L68.4278 148.965C68.6344 148.989 68.7525 149.216 68.6581 149.413L63.5105 160.36C63.4515 160.489 63.3039 160.562 63.1681 160.526L56.3677 158.777L56.1138 158.28Z" fill="url(#paint14_linear)"/>
<path d="M57.0813 156.869L60.7767 149.072C60.8199 148.972 60.931 148.92 61.042 148.932L67.5013 149.701C67.674 149.725 67.7727 149.9 67.6987 150.046L63.3432 158.467C63.2876 158.566 63.1704 158.619 63.0532 158.595L57.3034 157.248L57.0813 156.869Z" fill="#F4F7FA"/>
<path d="M64.0924 157.752C64.0924 157.752 65.8671 156.552 66.069 155.704C66.2793 154.857 66.2204 153.262 66.2204 153.262L65.1858 155.511C65.1858 155.511 64.6896 155.368 64.4709 154.63C64.2522 153.891 63.8905 154.571 64.0419 155.125C64.1933 155.679 64.0924 157.752 64.0924 157.752Z" fill="url(#paint15_linear)"/>
<path d="M50.4412 142.687C51.3749 143.258 52.7879 144.256 54.0412 145.868C57.5906 150.45 56.2112 155.343 59.1467 157.064C59.9878 157.559 61.4597 157.962 64.1261 157.022L65.1438 157.567C65.1438 157.567 66.3886 163.896 58.6925 164.131C50.9964 164.366 47.1609 154.823 47.1609 154.823L50.4412 142.687Z" fill="#FF6F41"/>
<path d="M43.0226 133.749C42.7619 133.732 42.5432 133.404 42.3666 133.514C42.1815 133.623 42.2152 134.101 42.3834 134.428C42.5264 134.705 42.7451 134.856 42.8628 134.924C42.6694 135.209 42.4254 135.645 42.3245 136.208C42.1142 137.458 42.8039 138.449 43.0899 139.028C44.3936 141.646 42.5432 145.876 40.4657 148.033C38.775 149.787 37.9507 149.116 36.9498 150.543C34.9985 153.321 37.833 156.258 36.8741 159.959C35.4106 165.583 26.6042 167.437 26.2425 167.505C26.0995 167.53 25.9986 167.555 25.8556 167.58C21.9024 168.294 15.9053 169.376 11.5988 166.22C8.37738 163.854 6.82974 159.657 6.98955 155.922C7.03161 154.94 7.25029 151.214 10.2194 148.109C10.6904 147.614 13.4829 144.71 17.3436 144.592C19.3875 144.533 19.8165 145.238 21.3725 144.76C23.5005 144.105 24.779 142.133 25.5696 140.916C27.0248 138.667 26.4023 138.205 27.4621 137.097C29.5397 134.915 32.063 136.543 34.2835 134.605C36.4788 132.699 35.0742 130.207 37.1938 128.553C39.3806 126.85 43.6451 127.336 44.5955 129.292C45.4198 130.97 43.8217 133.799 43.0226 133.749Z" fill="url(#paint16_linear)"/>
<path d="M121.742 68.8298H120.581V70.5755H121.742V68.8298Z" fill="white"/>
<path d="M121.162 91.566C120.842 91.566 120.581 91.3059 120.581 90.9869V87.5878C120.581 87.2689 120.842 87.0087 121.162 87.0087C121.481 87.0087 121.742 87.2689 121.742 87.5878V90.9869C121.742 91.3059 121.481 91.566 121.162 91.566ZM121.162 84.7594C120.842 84.7594 120.581 84.4993 120.581 84.1803V80.7812C120.581 80.4623 120.842 80.2021 121.162 80.2021C121.481 80.2021 121.742 80.4623 121.742 80.7812V84.1803C121.742 84.4993 121.481 84.7594 121.162 84.7594ZM121.162 77.9528C120.842 77.9528 120.581 77.6927 120.581 77.3737V73.9746C120.581 73.6557 120.842 73.3955 121.162 73.3955C121.481 73.3955 121.742 73.6557 121.742 73.9746V77.3737C121.742 77.6927 121.481 77.9528 121.162 77.9528Z" fill="white"/>
<path d="M121.742 94.3861H120.581V96.1318H121.742V94.3861Z" fill="white"/>
<defs>
<linearGradient id="paint0_linear" x1="174.876" y1="52.358" x2="130.601" y2="139.25" gradientUnits="userSpaceOnUse">
<stop stop-color="#40447E"/>
<stop offset="0.9964" stop-color="#3C3B6B"/>
</linearGradient>
<linearGradient id="paint1_linear" x1="174.802" y1="52.9577" x2="130.657" y2="139.596" gradientUnits="userSpaceOnUse">
<stop stop-color="#40447E"/>
<stop offset="0.9964" stop-color="#3C3B6B"/>
</linearGradient>
<linearGradient id="paint2_linear" x1="120.427" y1="196.238" x2="117.649" y2="135.833" gradientUnits="userSpaceOnUse">
<stop stop-color="#FFC444"/>
<stop offset="0.9964" stop-color="#F36F56"/>
</linearGradient>
<linearGradient id="paint3_linear" x1="116.249" y1="144.009" x2="122.419" y2="50.5815" gradientUnits="userSpaceOnUse">
<stop stop-color="#FFC444"/>
<stop offset="0.9964" stop-color="#F36F56"/>
</linearGradient>
<linearGradient id="paint4_linear" x1="99.0076" y1="142.871" x2="105.178" y2="49.4433" gradientUnits="userSpaceOnUse">
<stop stop-color="#FFC444"/>
<stop offset="0.9964" stop-color="#F36F56"/>
</linearGradient>
<linearGradient id="paint5_linear" x1="133.451" y1="145.145" x2="139.621" y2="51.718" gradientUnits="userSpaceOnUse">
<stop stop-color="#FFC444"/>
<stop offset="0.9964" stop-color="#F36F56"/>
</linearGradient>
<linearGradient id="paint6_linear" x1="44.0772" y1="235.054" x2="39.8503" y2="220.359" gradientUnits="userSpaceOnUse">
<stop stop-color="#444B8C"/>
<stop offset="0.9964" stop-color="#26264F"/>
</linearGradient>
<linearGradient id="paint7_linear" x1="40.2838" y1="232.152" x2="40.6074" y2="208.65" gradientUnits="userSpaceOnUse">
<stop stop-color="#FFC444"/>
<stop offset="0.9964" stop-color="#F36F56"/>
</linearGradient>
<linearGradient id="paint8_linear" x1="48.956" y1="232.272" x2="49.2797" y2="208.77" gradientUnits="userSpaceOnUse">
<stop stop-color="#FFC444"/>
<stop offset="0.9964" stop-color="#F36F56"/>
</linearGradient>
<linearGradient id="paint9_linear" x1="50.5814" y1="233.183" x2="46.3543" y2="218.488" gradientUnits="userSpaceOnUse">
<stop stop-color="#444B8C"/>
<stop offset="0.9964" stop-color="#26264F"/>
</linearGradient>
<linearGradient id="paint10_linear" x1="38.9502" y1="181.411" x2="36.1277" y2="229.945" gradientUnits="userSpaceOnUse">
<stop stop-color="#311944"/>
<stop offset="1" stop-color="#893976"/>
</linearGradient>
<linearGradient id="paint11_linear" x1="38.9502" y1="181.411" x2="36.1277" y2="229.945" gradientUnits="userSpaceOnUse">
<stop stop-color="#311944"/>
<stop offset="1" stop-color="#893976"/>
</linearGradient>
<linearGradient id="paint12_linear" x1="71.6381" y1="202.525" x2="32.0084" y2="200.17" gradientUnits="userSpaceOnUse">
<stop stop-color="#311944"/>
<stop offset="1" stop-color="#893976"/>
</linearGradient>
<linearGradient id="paint13_linear" x1="44.8667" y1="134.731" x2="39.6968" y2="142.86" gradientUnits="userSpaceOnUse">
<stop stop-color="#FFC444"/>
<stop offset="0.9964" stop-color="#F36F56"/>
</linearGradient>
<linearGradient id="paint14_linear" x1="64.4165" y1="150.306" x2="56.6695" y2="161.998" gradientUnits="userSpaceOnUse">
<stop stop-color="#444B8C"/>
<stop offset="0.9964" stop-color="#26264F"/>
</linearGradient>
<linearGradient id="paint15_linear" x1="65.6562" y1="154.221" x2="63.1557" y2="158.153" gradientUnits="userSpaceOnUse">
<stop stop-color="#FFC444"/>
<stop offset="0.9964" stop-color="#F36F56"/>
</linearGradient>
<linearGradient id="paint16_linear" x1="16.2198" y1="168.64" x2="37.2583" y2="125.161" gradientUnits="userSpaceOnUse">
<stop stop-color="#444B8C"/>
<stop offset="0.9964" stop-color="#26264F"/>
</linearGradient>
</defs>
</svg>
