<svg width="265" height="227" viewBox="0 0 265 227" fill="none" xmlns="http://www.w3.org/2000/svg">
<path d="M121.335 225.608C62.2889 216.687 14.312 160.983 23.0259 99.0692C30.4613 46.2697 76.8569 5.17825 132.488 1.30075C136.517 1.01539 140.588 0.931465 144.701 1.04896C175.738 1.947 203.309 14.3265 223.706 33.0761C244.002 51.7335 257.191 76.6854 259.596 102.863C265.997 172.507 194.772 236.704 121.335 225.608Z" fill="#CBF3F1"/>
<path opacity="0.5" d="M129.646 49.1646L131.506 49.0696C130.891 49.1171 130.261 49.1488 129.646 49.1646Z" fill="url(#paint0_linear)"/>
<path opacity="0.5" d="M126.447 54.0904L128.244 53.9954C127.629 54.0429 127.03 54.0746 126.447 54.0904Z" fill="url(#paint1_linear)"/>
<path d="M236.77 213.649H131.695C129.142 213.649 127.094 211.574 127.094 209.024V19.8473C127.094 17.2814 129.158 15.2224 131.695 15.2224H236.77C239.322 15.2224 241.371 17.2973 241.371 19.8473V209.008C241.387 211.574 239.322 213.649 236.77 213.649Z" fill="#00827A"/>
<path d="M231.538 207.582H136.927C134.374 207.582 132.325 205.508 132.325 202.958V26.0243C132.325 23.4584 134.389 21.3994 136.927 21.3994H231.538C234.091 21.3994 236.139 23.4743 236.139 26.0243V202.958C236.155 205.508 234.091 207.582 231.538 207.582Z" fill="#03BAAF"/>
<path d="M214.267 27.1331H154.875C153.914 27.1331 153.11 26.3411 153.11 25.3591V21.1144H216.032V25.3591C216.032 26.3411 215.244 27.1331 214.267 27.1331Z" fill="#00827A"/>
<path d="M203.835 24.1238H166.772C166.426 24.1238 166.126 23.8387 166.126 23.4744V22.5716C166.126 22.2232 166.41 21.9222 166.772 21.9222H203.835C204.182 21.9222 204.481 22.2073 204.481 22.5716V23.4744C204.481 23.8387 204.198 24.1238 203.835 24.1238Z" fill="#03BAAF"/>
<path opacity="0.21" d="M261.935 78.276L120.207 43.9062L123.107 32.5341L264.835 66.9197L261.935 78.276Z" fill="white"/>
<path opacity="0.21" d="M250.038 184.87L108.31 150.484L117.26 115.228L259.004 149.613L250.038 184.87Z" fill="white"/>
<path opacity="0.21" d="M257.759 143.864L116.031 109.494L118.364 100.339L260.092 134.709L257.759 143.864Z" fill="white"/>
<path opacity="0.21" d="M258.295 97.6466L116.567 63.261L117.922 57.9392L259.65 92.309L258.295 97.6466Z" fill="white"/>
<path d="M226.491 135.77C226.491 135.77 220.141 150.326 211.111 152.575C209.362 152.923 207.314 152.765 206.4 153.335C205.36 153.985 206.62 155.743 207.125 157.073C207.629 158.404 207.834 157.786 208.054 157.358C208.275 156.931 207.329 155.6 208.574 155.062C209.819 154.539 209.441 155.347 208.858 156.044C208.275 156.741 208.291 157.818 208.338 157.881C208.369 157.944 209.315 157.469 210.197 157.057C210.954 156.693 211.379 155.727 211.49 155.458C213.27 155.252 224.458 153.478 229.217 141.662C229.217 141.646 229.674 129.91 226.491 135.77Z" fill="url(#paint2_linear)"/>
<path d="M253.8 215.644L253.926 218.527C253.942 219.081 254.336 219.541 254.871 219.636C255.77 219.81 257.219 220.032 258.669 220C259.3 219.984 259.757 219.382 259.615 218.749C259.347 217.624 258.843 215.914 257.992 214.868L254.84 214.615C254.273 214.583 253.784 215.058 253.8 215.644Z" fill="url(#paint3_linear)"/>
<path d="M231.723 180.277L230.951 183.381C230.951 183.381 231.329 201.659 231.077 208.929C231.045 210.069 230.651 211.178 229.99 212.097L226.507 216.911L234.733 212.857L234.969 211.906L233.819 210.022L237.081 189.843C237.27 188.655 237.128 187.436 236.639 186.343L235.253 183.144L231.723 180.277Z" fill="url(#paint4_linear)"/>
<path d="M225.924 217.592L228.429 217.782C228.902 217.814 229.359 217.64 229.674 217.291C230.541 216.325 232.306 214.456 233.094 214.472C234.15 214.488 233.724 218.21 233.724 218.21L234.307 218.258L235.41 213.68C235.694 212.524 235.205 211.32 234.197 210.703C234.197 210.703 233.819 212.461 232.464 213.142C231.108 213.823 226.917 216.325 226.917 216.325C226.917 216.325 226.428 216.214 225.892 216.278C225.089 216.341 225.12 217.529 225.924 217.592Z" fill="url(#paint5_linear)"/>
<path d="M242.375 182.605C242.375 182.605 251.263 203.322 252.571 207.994C253.879 212.667 254.162 216.5 254.162 216.864C254.147 217.434 254.808 218.02 256.715 218.163C257.708 218.242 258.212 217.878 258.48 217.513C258.701 217.197 258.748 216.785 258.606 216.436C258.102 215.169 256.495 211.083 255.911 209.246C255.234 207.06 254.162 197.287 253.422 193.85C252.681 190.429 251.83 186.707 247.749 183.017C247.749 183.033 244.991 179.849 242.375 182.605Z" fill="url(#paint6_linear)"/>
<path d="M238.326 149.502C236.529 137.829 243.841 131.874 243.841 131.874C241.65 129.403 238.341 127.534 235.804 126.362C233.519 125.301 230.809 125.681 228.902 127.328C226.806 129.15 224.506 131.747 224.821 134.155C225.152 136.72 228.902 149.676 228.902 149.676C228.902 149.676 233.125 152.116 238.326 149.502Z" fill="#FF6F41"/>
<path d="M243.841 155.648C243.006 152.242 238.31 149.502 238.31 149.502C233.11 152.116 228.886 149.692 228.886 149.692C228.886 149.692 227.61 153.383 228.02 156.946C228.429 160.51 230.935 183.381 230.935 183.381C237.538 185.266 248.048 183.334 248.048 183.334C244.377 175.383 244.692 159.037 243.841 155.648Z" fill="url(#paint7_linear)"/>
<path d="M235.426 119.155L236.844 129.213C236.986 130.1 236.214 129.894 235.347 129.656C233.929 129.276 232.133 128.564 231.597 127.392C231.55 127.265 231.518 127.138 231.518 127.011L231.108 120.09C231.077 119.536 231.408 119.029 231.928 118.855L233.803 118.189C234.512 117.92 235.3 118.395 235.426 119.155Z" fill="url(#paint8_linear)"/>
<path d="M240.248 136.42C240.61 136.911 246.189 143.563 247.78 151.007C249.372 158.435 248.836 163.393 248.836 163.393C248.836 163.393 247.213 164.612 247.796 165.468C248.379 166.323 248.222 166.909 248.962 167.083C249.703 167.257 250.633 167.479 250.522 166.006C250.412 164.533 252.161 164.232 251.877 163.345C251.594 162.458 253.579 138.479 243.967 131.969C243.92 131.937 243.872 131.906 243.825 131.874C239.775 133.347 239.665 135.628 240.248 136.42Z" fill="url(#paint9_linear)"/>
<path d="M233.85 111.173C233.85 111.173 230.809 111.996 228.288 115.924C225.766 119.836 226.964 121.975 228.776 122.481C230.573 122.988 233.33 123.321 236.592 121.024C239.854 118.712 237.774 110.238 233.85 111.173Z" fill="url(#paint10_linear)"/>
<path d="M234.938 118.522C234.938 118.522 237.932 112.693 232.542 111.901L231.156 112.614C231.156 112.614 229.627 108.955 233.094 107.783C236.561 106.611 241.209 108.702 242.013 113.295C242.801 117.888 241.619 120.613 239.035 122.402C236.45 124.192 235.82 121.674 235.82 121.674C235.82 121.674 237.333 119.868 236.97 118.76C236.608 117.635 235.253 118.744 235.253 118.744L234.938 118.522Z" fill="url(#paint11_linear)"/>
<path d="M235.442 119.282C235.442 119.282 236.97 116.289 238.263 117.73C239.555 119.187 236.687 120.486 235.568 120.866L235.442 119.282Z" fill="url(#paint12_linear)"/>
<path d="M239.429 112.392C239.429 112.392 249.892 109.161 251.61 120.122C253.327 131.082 254.525 134.598 257.109 132.713C257.109 132.713 256.684 136.816 251.704 134.978C238.767 130.227 246.646 115.006 239.429 112.392Z" fill="url(#paint13_linear)"/>
<path opacity="0.48" d="M108.495 174.659C108.495 177.609 106.098 180 103.142 180H5.64869C2.69296 180 0.296417 177.609 0.296417 174.659V117.574C0.296417 114.625 2.69296 112.234 5.64869 112.234H103.142C106.098 112.234 108.495 114.625 108.495 117.574V174.659Z" fill="#03BAAF"/>
<path d="M108.494 117.768V123.256H0.284668V117.768C0.284668 114.818 2.6812 112.222 5.63694 112.222H103.176C106.132 112.233 108.494 114.818 108.494 117.768Z" fill="#03BAAF"/>
<path d="M10.2375 118.506C10.4607 117.134 9.52693 115.842 8.15198 115.619C6.77702 115.396 5.4815 116.328 5.25835 117.7C5.03521 119.072 5.96893 120.365 7.34389 120.587C8.71885 120.81 10.0144 119.878 10.2375 118.506Z" fill="white"/>
<path d="M27.7422 167.997C17.7224 167.997 9.58554 159.867 9.58554 149.869C9.58554 139.871 17.7338 131.74 27.7422 131.74C37.762 131.74 45.9102 139.871 45.9102 149.869C45.8988 159.867 37.7506 167.997 27.7422 167.997ZM27.7422 133.323C18.6011 133.323 11.1604 140.747 11.1604 149.869C11.1604 158.99 18.6011 166.415 27.7422 166.415C36.8833 166.415 44.324 158.99 44.324 149.869C44.324 140.747 36.8833 133.323 27.7422 133.323Z" fill="white"/>
<path d="M77.2936 139.643C77.2936 140.395 76.6888 140.998 75.9356 140.998H55.7475C54.9943 140.998 54.3894 140.395 54.3894 139.643V139.597C54.3894 138.846 54.9943 138.242 55.7475 138.242H75.9356C76.6888 138.242 77.2936 138.846 77.2936 139.597V139.643Z" fill="white"/>
<path d="M100.198 151.064C100.198 151.816 99.5928 152.419 98.8396 152.419H55.7475C54.9943 152.419 54.3894 151.816 54.3894 151.064V151.019C54.3894 150.267 54.9943 149.664 55.7475 149.664H98.8396C99.5928 149.664 100.198 150.267 100.198 151.019V151.064Z" fill="white"/>
<path d="M100.198 156.189C100.198 156.94 99.5928 157.544 98.8396 157.544H55.7475C54.9943 157.544 54.3894 156.94 54.3894 156.189V156.143C54.3894 155.391 54.9943 154.788 55.7475 154.788H98.8396C99.5928 154.788 100.198 155.391 100.198 156.143V156.189Z" fill="white"/>
<path d="M100.198 161.711C100.198 162.463 99.5928 163.067 98.8396 163.067H55.7475C54.9943 163.067 54.3894 162.463 54.3894 161.711V161.666C54.3894 160.914 54.9943 160.311 55.7475 160.311H98.8396C99.5928 160.311 100.198 160.914 100.198 161.666V161.711Z" fill="white"/>
<path d="M19.0348 148.434C20.3142 148.434 21.3514 147.399 21.3514 146.122C21.3514 144.846 20.3142 143.811 19.0348 143.811C17.7553 143.811 16.7181 144.846 16.7181 146.122C16.7181 147.399 17.7553 148.434 19.0348 148.434Z" fill="white"/>
<path d="M36.267 148.434C37.5464 148.434 38.5837 147.399 38.5837 146.122C38.5837 144.846 37.5464 143.811 36.267 143.811C34.9875 143.811 33.9503 144.846 33.9503 146.122C33.9503 147.399 34.9875 148.434 36.267 148.434Z" fill="white"/>
<path d="M36.7235 152.818C36.7235 156.758 32.7407 159.753 27.8221 159.753C22.9034 159.753 18.9206 156.758 18.9206 152.818H36.7235Z" fill="white"/>
<path d="M150.39 146.384C141.518 150.107 132.079 152.704 122.435 152.894C118.07 152.973 113.689 152.562 109.419 151.659C102.8 150.249 95.0002 148.697 92.4159 141.427C90.9661 137.356 93.5032 134.648 96.9857 133.096C98.6246 132.367 100.421 131.734 102.17 132.114C101.619 133.745 101.051 136.992 102.343 138.354C103.273 139.32 106.299 139.827 107.575 140.223C111.389 141.427 115.312 142.235 119.299 142.567C128.817 143.343 138.319 141.3 147.27 138.148C150.217 137.103 153.289 139.431 153.116 142.567C152.99 144.246 151.95 145.735 150.39 146.384Z" fill="#FF6F41"/>
<path d="M144.323 157.234L160.302 139.511C160.79 138.972 160.522 138.101 159.829 137.927L137.61 132.383C136.791 132.177 136.05 132.938 136.271 133.761C140.557 141.57 142.558 149.267 142.7 156.838C142.905 157.582 143.819 157.804 144.323 157.234Z" fill="#FF6F41"/>
<defs>
<linearGradient id="paint0_linear" x1="131.129" y1="48.7257" x2="129.763" y2="49.6673" gradientUnits="userSpaceOnUse">
<stop stop-color="#B37CFF"/>
<stop offset="1" stop-color="#F895E7"/>
</linearGradient>
<linearGradient id="paint1_linear" x1="126.44" y1="54.0423" x2="128.23" y2="54.0423" gradientUnits="userSpaceOnUse">
<stop stop-color="#B37CFF"/>
<stop offset="1" stop-color="#F895E7"/>
</linearGradient>
<linearGradient id="paint2_linear" x1="216.913" y1="116.147" x2="217.868" y2="157.246" gradientUnits="userSpaceOnUse">
<stop stop-color="#FF928E"/>
<stop offset="1" stop-color="#FEB3B1"/>
</linearGradient>
<linearGradient id="paint3_linear" x1="254.909" y1="174.771" x2="255.929" y2="198.441" gradientUnits="userSpaceOnUse">
<stop stop-color="#09005D"/>
<stop offset="1" stop-color="#1A0F91"/>
</linearGradient>
<linearGradient id="paint4_linear" x1="226.147" y1="239.177" x2="243.018" y2="137.199" gradientUnits="userSpaceOnUse">
<stop stop-color="#FF928E"/>
<stop offset="1" stop-color="#FEB3B1"/>
</linearGradient>
<linearGradient id="paint5_linear" x1="228.73" y1="175.899" x2="229.75" y2="199.569" gradientUnits="userSpaceOnUse">
<stop stop-color="#09005D"/>
<stop offset="1" stop-color="#1A0F91"/>
</linearGradient>
<linearGradient id="paint6_linear" x1="243.613" y1="242.084" x2="260.488" y2="140.078" gradientUnits="userSpaceOnUse">
<stop stop-color="#FF928E"/>
<stop offset="1" stop-color="#FEB3B1"/>
</linearGradient>
<linearGradient id="paint7_linear" x1="124.556" y1="296.325" x2="233.594" y2="173.335" gradientUnits="userSpaceOnUse">
<stop stop-color="#1A0F91"/>
</linearGradient>
<linearGradient id="paint8_linear" x1="233.738" y1="133.562" x2="234.389" y2="109.899" gradientUnits="userSpaceOnUse">
<stop stop-color="#FF928E"/>
<stop offset="1" stop-color="#FEB3B1"/>
</linearGradient>
<linearGradient id="paint9_linear" x1="270.801" y1="134.71" x2="256.106" y2="143.671" gradientUnits="userSpaceOnUse">
<stop stop-color="#FF928E"/>
<stop offset="1" stop-color="#FEB3B1"/>
</linearGradient>
<linearGradient id="paint10_linear" x1="318.774" y1="-5.5664" x2="308.654" y2="8.84269" gradientUnits="userSpaceOnUse">
<stop stop-color="#FF928E"/>
<stop offset="1" stop-color="#FEB3B1"/>
</linearGradient>
<linearGradient id="paint11_linear" x1="260.739" y1="138.23" x2="229.584" y2="107.888" gradientUnits="userSpaceOnUse">
<stop stop-color="#09005D"/>
<stop offset="1" stop-color="#1A0F91"/>
</linearGradient>
<linearGradient id="paint12_linear" x1="322.034" y1="-3.27691" x2="311.914" y2="11.1323" gradientUnits="userSpaceOnUse">
<stop stop-color="#FF928E"/>
<stop offset="1" stop-color="#FEB3B1"/>
</linearGradient>
<linearGradient id="paint13_linear" x1="299.113" y1="57.7666" x2="273.741" y2="89.9517" gradientUnits="userSpaceOnUse">
<stop stop-color="#09005D"/>
<stop offset="1" stop-color="#1A0F91"/>
</linearGradient>
</defs>
</svg>
