<svg width="18" height="18" viewBox="0 0 18 18" fill="none" xmlns="http://www.w3.org/2000/svg">
<path d="M17.2375 6.55544C16.9438 6.26332 16.4689 6.26462 16.1768 6.55829L7.16085 15.623C5.99114 16.7927 4.09135 16.7927 2.91946 15.6214C1.74845 14.4498 1.74845 12.55 2.9196 11.3789L12.2024 2.04729C12.9327 1.31704 14.12 1.31704 14.8524 2.04887C15.5846 2.78105 15.5846 3.9682 14.8522 4.70059L7.16225 12.3905C7.16176 12.391 7.16134 12.3916 7.16085 12.392C6.86788 12.6834 6.39442 12.683 6.10206 12.3906C5.8092 12.0978 5.8092 11.6231 6.10206 11.3303L9.81394 7.61761C10.1068 7.32468 10.1068 6.84978 9.81383 6.55692C9.52091 6.26406 9.046 6.26409 8.75315 6.55702L5.0413 10.2696C4.16269 11.1482 4.16269 12.5726 5.04137 13.4513C5.92001 14.3299 7.34444 14.3299 8.22312 13.4513C8.22414 13.4503 8.22495 13.4492 8.22593 13.4482L15.9129 5.76121C17.2311 4.44303 17.2311 2.30611 15.9129 0.987932C14.5945 -0.329474 12.4578 -0.329474 11.1403 0.987932L1.85751 10.3196C0.101974 12.0751 0.101974 14.9244 1.85877 16.6821C3.61673 18.4392 6.46607 18.4392 8.22298 16.6823L17.2404 7.61613C17.5325 7.32243 17.5312 6.84756 17.2375 6.55544Z" fill="black"/>
</svg>
