<svg width="28" height="28" viewBox="0 0 28 28" fill="none" xmlns="http://www.w3.org/2000/svg">
<path d="M26.8141 10.1974C26.3572 9.74301 25.6185 9.74504 25.1641 10.2019L11.1393 24.3025C9.31976 26.1221 6.36454 26.1221 4.5416 24.3001C2.72003 22.4776 2.72003 19.5224 4.54182 17.7006L18.9818 3.18473C20.1178 2.04879 21.9647 2.04879 23.104 3.18719C24.2429 4.32614 24.2429 6.17282 23.1037 7.3121L11.1415 19.2742C11.1407 19.2749 11.1401 19.2758 11.1393 19.2766C10.6836 19.7298 9.9471 19.7292 9.4923 19.2744C9.03675 18.8188 9.03675 18.0805 9.4923 17.6249L15.2663 11.8497C15.7219 11.394 15.7218 10.6553 15.2662 10.1997C14.8105 9.74416 14.0718 9.74422 13.6162 10.1999L7.84223 15.975C6.47551 17.3417 6.47551 19.5575 7.84234 20.9243C9.20913 22.2911 11.4249 22.2911 12.7917 20.9243C12.7933 20.9227 12.7946 20.921 12.7961 20.9194L24.7536 8.96195C26.8041 6.91145 26.8041 3.58735 24.7536 1.53685C22.7028 -0.512447 19.3789 -0.512447 17.3296 1.53685L2.88967 16.0528C0.158844 18.7836 0.158843 23.2159 2.89164 25.95C5.62625 28.6832 10.0586 28.6832 12.7915 25.9503L26.8186 11.8474C27.2729 11.3905 27.2709 10.6518 26.8141 10.1974Z" fill="#03BAAF"/>
</svg>
