<svg width="29" height="25" viewBox="0 0 29 25" fill="none" xmlns="http://www.w3.org/2000/svg">
<path d="M23.4574 18.9583H12.0954C10.7481 18.9583 9.55429 18.0557 9.19421 16.764L5.35292 3.35634C5.13542 2.58059 4.42129 2.04168 3.61292 2.04168H0.604167C0.270667 2.04168 0 1.77101 0 1.43751C0 1.10401 0.270667 0.833344 0.604167 0.833344H3.61292C4.96021 0.833344 6.15404 1.73597 6.51412 3.02768L7.27175 5.66668H27.1863C27.7651 5.66668 28.2955 5.93251 28.6399 6.39651C28.9855 6.86051 29.0882 7.44534 28.9215 7.99876L26.3223 16.88C25.9043 18.1318 24.7551 18.9583 23.4574 18.9583ZM7.61733 6.87501L10.3566 16.4353C10.5729 17.2111 11.287 17.75 12.0954 17.75H23.4574C24.2235 17.75 24.9267 17.2437 25.1684 16.5199L27.7651 7.65318C27.8207 7.4683 27.7856 7.27376 27.6708 7.11909C27.556 6.96322 27.3796 6.87501 27.1863 6.87501H7.61733Z" fill="#03BAAF"/>
<path d="M13.2917 25C11.9589 25 10.875 23.9161 10.875 22.5833C10.875 21.2505 11.9589 20.1667 13.2917 20.1667C14.6245 20.1667 15.7083 21.2505 15.7083 22.5833C15.7083 23.9161 14.6245 25 13.2917 25ZM13.2917 21.375C12.6247 21.375 12.0833 21.9175 12.0833 22.5833C12.0833 23.2491 12.6247 23.7917 13.2917 23.7917C13.9587 23.7917 14.5 23.2491 14.5 22.5833C14.5 21.9175 13.9587 21.375 13.2917 21.375Z" fill="#03BAAF"/>
<path d="M21.75 25C20.4172 25 19.3333 23.9161 19.3333 22.5833C19.3333 21.2505 20.4172 20.1667 21.75 20.1667C23.0828 20.1667 24.1666 21.2505 24.1666 22.5833C24.1666 23.9161 23.0828 25 21.75 25ZM21.75 21.375C21.083 21.375 20.5416 21.9175 20.5416 22.5833C20.5416 23.2491 21.083 23.7917 21.75 23.7917C22.417 23.7917 22.9583 23.2491 22.9583 22.5833C22.9583 21.9175 22.417 21.375 21.75 21.375Z" fill="#03BAAF"/>
</svg>
