<svg width="13" height="9" viewBox="0 0 13 9" fill="none" xmlns="http://www.w3.org/2000/svg">
<path d="M12.0714 0H0.928571C0.682299 0 0.446113 0.0948211 0.271972 0.263604C0.0978313 0.432387 0 0.661305 0 0.9V8.1C0 8.33869 0.0978313 8.56761 0.271972 8.7364C0.446113 8.90518 0.682299 9 0.928571 9H12.0714C12.3177 9 12.5539 8.90518 12.728 8.7364C12.9022 8.56761 13 8.33869 13 8.1V0.9C13 0.661305 12.9022 0.432387 12.728 0.263604C12.5539 0.0948211 12.3177 0 12.0714 0ZM11.05 0.9L6.5 3.951L1.95 0.9H11.05ZM0.928571 8.1V1.3095L6.23536 4.869C6.31308 4.92126 6.40541 4.94926 6.5 4.94926C6.59459 4.94926 6.68692 4.92126 6.76464 4.869L12.0714 1.3095V8.1H0.928571Z" fill="#03BAAF"/>
</svg>
