<svg width="8" height="11" viewBox="0 0 8 11" fill="none" xmlns="http://www.w3.org/2000/svg">
<path d="M3.99996 0C1.79435 0 0 1.79435 0 3.99996C0 5.01317 0.638418 6.44472 1.8976 8.25488C2.81797 9.5781 3.72317 10.602 3.76131 10.645L3.99996 10.9141L4.23869 10.645C4.27674 10.602 5.18195 9.5781 6.1024 8.25488C7.3615 6.44472 8 5.01317 8 3.99996C8 1.79435 6.20557 0 3.99996 0ZM5.58206 7.88534C4.95996 8.78031 4.3312 9.55054 3.99996 9.94348C3.66955 9.55162 3.04312 8.7843 2.42144 7.8905C1.25477 6.21331 0.638085 4.86795 0.638085 3.99996C0.638085 2.14624 2.14624 0.638085 3.99996 0.638085C5.85376 0.638085 7.36183 2.14624 7.36183 3.99996C7.36183 4.86703 6.7464 6.21056 5.58206 7.88534Z" fill="#03BAAF"/>
<path d="M4.00005 1.47803C2.69832 1.47803 1.63931 2.53703 1.63931 3.83877C1.63931 5.1405 2.69832 6.19959 4.00005 6.19959C5.30187 6.19959 6.36087 5.1405 6.36087 3.83877C6.36087 2.53703 5.30187 1.47803 4.00005 1.47803ZM4.00005 5.5615C3.05021 5.5615 2.2774 4.78869 2.2774 3.83877C2.2774 2.88893 3.05021 2.11611 4.00005 2.11611C4.94998 2.11611 5.72279 2.88893 5.72279 3.83877C5.72279 4.78869 4.94998 5.5615 4.00005 5.5615Z" fill="#03BAAF"/>
</svg>
