<svg width="13" height="11" viewBox="0 0 13 11" fill="none" xmlns="http://www.w3.org/2000/svg">
<path d="M13 1.30666C12.5219 1.52146 12.0017 1.67604 11.4658 1.73625C12.0222 1.39199 12.4388 0.848112 12.6375 0.206663C12.1155 0.530137 11.5435 0.756962 10.9471 0.877077C10.6978 0.599517 10.3964 0.3784 10.0615 0.227504C9.72654 0.0766081 9.36538 -0.000832784 9.00048 6.75361e-06C7.5241 6.75361e-06 6.33674 1.24646 6.33674 2.77604C6.33674 2.99083 6.36174 3.20563 6.40236 3.41228C4.19168 3.29187 2.22005 2.19187 0.909266 0.507699C0.670428 0.93259 0.545268 1.41638 0.546809 1.90873C0.546809 2.87205 1.01707 3.72145 1.73417 4.22101C1.31157 4.20368 0.898865 4.08269 0.529624 3.8679V3.90208C0.529624 5.25104 1.44514 6.36894 2.6653 6.62604C2.43621 6.68802 2.20053 6.71973 1.96383 6.72042C1.79041 6.72042 1.62637 6.70252 1.46076 6.67811C1.79822 7.77811 2.78092 8.57707 3.95109 8.60311C3.03557 9.35 1.88884 9.78935 0.643673 9.78935C0.420262 9.78935 0.214037 9.78121 0 9.75518C1.18111 10.5444 2.5825 11 4.0917 11C8.99111 11 11.672 6.77249 11.672 3.10311C11.672 2.9827 11.672 2.86228 11.6642 2.74187C12.1829 2.34646 12.6375 1.85666 13 1.30666Z" fill="#CBCCDE"/>
</svg>
