<svg width="17" height="9" viewBox="0 0 17 9" fill="none" xmlns="http://www.w3.org/2000/svg">
<path fill-rule="evenodd" clip-rule="evenodd" d="M8.34306 8.94342H9.37378C9.37378 8.94342 9.68299 8.89585 9.8376 8.75314C9.9922 8.61042 9.9922 8.32499 9.9922 8.32499C9.9922 8.32499 9.9922 7.08814 10.6106 6.89785C11.2291 6.70757 12.0536 8.13471 12.8782 8.65799C13.4966 9.08613 13.9605 8.99099 13.9605 8.99099L16.228 8.94342C16.228 8.94342 17.4133 8.89585 16.8465 7.99199C16.7949 7.94442 16.5372 7.37357 15.1458 6.18428C13.7028 4.94742 13.9089 5.18528 15.6096 3.04457C16.6403 1.76014 17.0526 0.998999 16.9495 0.618428C16.8465 0.285428 16.0734 0.380571 16.0734 0.380571H13.4966C13.4966 0.380571 13.2905 0.333 13.1874 0.428142C13.0328 0.523285 12.9813 0.665999 12.9813 0.665999C12.9813 0.665999 12.569 1.665 12.0536 2.52128C10.9198 4.28142 10.456 4.37657 10.3014 4.28142C9.88913 4.04357 9.9922 3.23485 9.9922 2.71157C9.9922 0.998999 10.3014 0.285428 9.42531 0.0951422C9.16763 0.0475708 8.96149 0 8.23999 0C7.31235 0 6.53931 -1.84306e-07 6.12702 0.190285C5.81781 0.333 5.61167 0.618428 5.76628 0.618428C5.92088 0.618428 6.33317 0.713571 6.53931 0.951428C6.74545 1.37957 6.74545 2.09314 6.74545 2.09314C6.74545 2.09314 6.90006 4.13871 6.3847 4.37657C6.02395 4.56685 5.56013 4.18628 4.52942 2.56885C4.01406 1.76014 3.60177 0.808713 3.60177 0.808713C3.60177 0.808713 3.55024 0.618428 3.39563 0.523286C3.24102 0.428143 2.98335 0.380571 2.98335 0.380571H0.561167C0.561167 0.380571 0.200417 0.380571 0.0458095 0.523286C-0.0572619 0.666 0.0458095 0.903856 0.0458095 0.903856C0.0458095 0.903856 1.95263 4.995 4.11713 7.08814C6.12703 9.08613 8.34306 8.94342 8.34306 8.94342Z" fill="#CBCCDE"/>
</svg>
