<svg width="15" height="11" viewBox="0 0 15 11" fill="none" xmlns="http://www.w3.org/2000/svg">
<path d="M14.6869 1.71831C14.6016 1.38558 14.4341 1.08214 14.2014 0.838375C13.9688 0.594608 13.679 0.41906 13.361 0.329299C12.1908 6.68179e-08 7.5 0 7.5 0C7.5 0 2.80915 -6.68179e-08 1.63895 0.327548C1.3209 0.417017 1.03096 0.592468 0.798224 0.83628C0.565492 1.08009 0.398168 1.38368 0.313058 1.71656C-6.38621e-08 2.94268 0 5.5 0 5.5C0 5.5 -6.38621e-08 8.05733 0.313058 9.28169C0.485491 9.9578 0.99442 10.4903 1.63895 10.6707C2.80915 11 7.5 11 7.5 11C7.5 11 12.1908 11 13.361 10.6707C14.0073 10.4903 14.5145 9.9578 14.6869 9.28169C15 8.05733 15 5.5 15 5.5C15 5.5 15 2.94268 14.6869 1.71831ZM6.01004 7.84713V3.15287L9.89397 5.48248L6.01004 7.84713Z" fill="#CBCCDE"/>
</svg>
