<svg width="59" height="64" viewBox="0 0 59 64" fill="none" xmlns="http://www.w3.org/2000/svg">
<path d="M42.6809 26.25C43.3742 26.25 43.9362 25.6904 43.9362 25C43.9362 24.3096 43.3742 23.75 42.6809 23.75C41.9876 23.75 41.4255 24.3096 41.4255 25C41.4255 25.6904 41.9876 26.25 42.6809 26.25Z" fill="#575961"/>
<path d="M42.6809 8.75C41.4004 8.75 40.1451 8.9 38.9149 9.1875V6.25C38.9149 5.4 38.7517 4.5875 38.4253 3.8125C38.1115 3.0625 37.6596 2.4 37.0821 1.825C36.5047 1.25 35.8394 0.8 35.0862 0.4875C34.3079 0.1625 33.4919 0 32.6383 0H6.2766C5.53596 0 4.80787 0.125 4.11745 0.375C3.45213 0.625 2.83702 0.975 2.28468 1.425C1.18 2.3375 0.414255 3.6 0.125532 4.9875C-0.0125532 5.6625 0.426809 6.325 1.10468 6.4625C1.19255 6.475 1.26787 6.4875 1.35574 6.4875C1.94574 6.4875 2.46043 6.0625 2.58596 5.4875C2.95 3.7625 4.49404 2.5 6.26404 2.5H7.21808L8.83745 7.8625C9.00064 8.3875 9.49021 8.75 10.0426 8.75H28.8723C29.4247 8.75 29.9143 8.3875 30.0774 7.8625L31.6843 2.5H32.6383C34.7096 2.5 36.4043 4.1875 36.4043 6.25V57.75C36.4043 59.8125 34.7096 61.5 32.6383 61.5H6.2766C4.20532 61.5 2.51064 59.8125 2.51064 57.75V16.4875C2.51064 15.8 1.94574 15.2375 1.25532 15.2375C0.564894 15.2375 0 15.8 0 16.4875V57.75C0 58.6 0.163192 59.4125 0.489574 60.1875C0.803404 60.9375 1.25532 61.6 1.83277 62.175C2.41021 62.75 3.07553 63.2 3.82872 63.5125C4.60702 63.8375 5.42298 64 6.2766 64H32.6383C33.4919 64 34.3079 63.8375 35.0862 63.5125C35.8394 63.2 36.5047 62.75 37.0821 62.175C37.6596 61.6 38.1115 60.9375 38.4253 60.1875C38.7517 59.4125 38.9149 58.6 38.9149 57.75V40.8125C40.1451 41.1 41.4004 41.25 42.6809 41.25C51.6815 41.25 59 33.9625 59 25C59 16.0375 51.6815 8.75 42.6809 8.75ZM27.9434 6.25H10.9715L9.8417 2.5H29.0606L27.9434 6.25ZM38.9149 30C39.9694 30.7875 41.2749 31.25 42.6809 31.25C46.1455 31.25 48.9574 28.45 48.9574 25C48.9574 21.55 46.1455 18.75 42.6809 18.75C41.2749 18.75 39.9694 19.2125 38.9149 20V17.0875C40.0823 16.5375 41.3753 16.2375 42.6809 16.2375C47.5264 16.2375 51.4681 20.1625 51.4681 24.9875C51.4681 29.8125 47.5264 33.7375 42.6809 33.7375C41.3753 33.7375 40.0823 33.45 38.9149 32.8875V30ZM38.9149 25C38.9149 22.9375 40.6096 21.25 42.6809 21.25C44.7521 21.25 46.4468 22.9375 46.4468 25C46.4468 27.0625 44.7521 28.75 42.6809 28.75C40.6096 28.75 38.9149 27.0625 38.9149 25ZM42.6809 38.75C41.4004 38.75 40.1326 38.575 38.9149 38.225V35.6C40.12 36.025 41.3879 36.25 42.6809 36.25C48.9072 36.25 53.9787 31.2 53.9787 25C53.9787 18.8 48.9072 13.75 42.6809 13.75C41.3879 13.75 40.12 13.975 38.9149 14.4V11.775C40.1326 11.425 41.4004 11.25 42.6809 11.25C50.3006 11.25 56.4894 17.4125 56.4894 25C56.4894 32.5875 50.3006 38.75 42.6809 38.75Z" fill="#575961"/>
<path d="M1.25532 12.1125C1.94861 12.1125 2.51064 11.5528 2.51064 10.8625C2.51064 10.1721 1.94861 9.61249 1.25532 9.61249C0.562025 9.61249 0 10.1721 0 10.8625C0 11.5528 0.562025 12.1125 1.25532 12.1125Z" fill="#575961"/>
<path d="M14.4362 52.75C14.4362 55.5125 16.6832 57.75 19.4574 57.75C22.2317 57.75 24.4787 55.5125 24.4787 52.75C24.4787 49.9875 22.2317 47.75 19.4574 47.75C16.6832 47.75 14.4362 49.9875 14.4362 52.75ZM21.9681 52.75C21.9681 54.125 20.8383 55.25 19.4574 55.25C18.0766 55.25 16.9468 54.125 16.9468 52.75C16.9468 51.375 18.0766 50.25 19.4574 50.25C20.8383 50.25 21.9681 51.375 21.9681 52.75Z" fill="#FF6F41"/>
<path d="M6.16364 18.8125C5.6113 18.95 5.20959 19.45 5.20959 20.025V31.5C5.20959 32.1875 5.77449 32.75 6.46491 32.75C7.15534 32.75 7.72023 32.1875 7.72023 31.5V25L11.3983 31.85C11.7624 32.525 12.4402 32.7125 12.9424 32.575C13.4194 32.45 13.9843 32 13.9843 31.1L13.8964 19.9875C13.8964 19.3 13.3315 18.75 12.6411 18.75H12.6285C11.9381 18.75 11.3732 19.325 11.3858 20.0125L11.436 26.65L7.55704 19.4375C7.29342 18.925 6.71598 18.675 6.16364 18.8125Z" fill="#FF6F41"/>
<path d="M22.1564 21.25C22.8468 21.25 23.4117 20.6875 23.4117 20C23.4117 19.3125 22.8468 18.75 22.1564 18.75H17.7628C17.0723 18.75 16.5074 19.3125 16.5074 20V31.5C16.5074 32.1875 17.0723 32.75 17.7628 32.75C18.4532 32.75 19.0181 32.1875 19.0181 31.5V26.8875H21.8049C22.4953 26.8875 23.0602 26.325 23.0602 25.6375C23.0602 24.95 22.4953 24.3875 21.8049 24.3875H19.0181V21.25H22.1564Z" fill="#FF6F41"/>
<path d="M29.5377 30C28.6338 30 27.7426 29.55 27.1651 28.7875C26.7509 28.2375 25.96 28.125 25.4077 28.55C24.8553 28.975 24.7424 29.75 25.1692 30.3C26.2236 31.675 27.8555 32.5 29.5377 32.5C31.496 32.5 33.2032 31.1 33.6175 29.175C34.0317 27.2125 32.9647 25.35 30.8809 24.4375C29.7134 23.925 28.6213 23.3625 28.2698 23.1875C28.0313 22.95 27.9183 22.5375 27.9811 22.1125C28.0187 21.875 28.1694 21.325 28.7719 21.1C30.0147 20.65 31.2072 21.775 31.2449 21.8125C31.7345 22.3 32.5253 22.3 33.0149 21.8125C33.5045 21.325 33.5045 20.5375 33.0149 20.05C32.927 19.95 30.68 17.7625 27.9183 18.75C26.6253 19.2125 25.7215 20.325 25.5081 21.7125C25.2821 23.0875 25.7843 24.425 26.8011 25.2125C26.8638 25.2625 28.3702 26.0625 29.8766 26.725C30.8809 27.1625 31.3328 27.85 31.157 28.65C31.0189 29.325 30.4164 30 29.5377 30Z" fill="#FF6F41"/>
<path d="M8.78723 36.875C8.78723 37.5625 9.35212 38.125 10.0426 38.125H28.8723C29.5628 38.125 30.1277 37.5625 30.1277 36.875C30.1277 36.1875 29.5628 35.625 28.8723 35.625H10.0426C9.35212 35.625 8.78723 36.1875 8.78723 36.875Z" fill="#FF6F41"/>
</svg>
