<svg width="64" height="64" viewBox="0 0 64 64" fill="none" xmlns="http://www.w3.org/2000/svg">
<path d="M64 54.5866V62.5762C64 63.3641 63.3641 64 62.5762 64H54.5866C53.7987 64 53.1628 63.3641 53.1628 62.5762C53.1628 61.7883 53.7987 61.1525 54.5866 61.1525H61.1663V54.5728C61.1663 53.7849 61.8021 53.149 62.59 53.149C63.3641 53.1628 64 53.7987 64 54.5866Z" fill="#575961"/>
<path d="M45.7261 44.3024C45.7261 45.0903 45.0903 45.7261 44.3024 45.7261H42.6575C41.8696 45.7261 41.2337 45.0903 41.2337 44.3024C41.2337 43.5145 41.8696 42.8786 42.6575 42.8786H44.3024C45.0903 42.8925 45.7261 43.5283 45.7261 44.3024Z" fill="#575961"/>
<path d="M54.6143 42.0216V53.4393C54.6143 54.2272 53.9784 54.8631 53.1905 54.8631C52.4026 54.8631 51.7667 54.2272 51.7667 53.4393V51.0479H44.9382C44.1503 51.0479 43.5145 50.4121 43.5145 49.6242C43.5145 48.8363 44.1503 48.2004 44.9382 48.2004H51.7667V42.0216C51.7667 41.2337 52.4026 40.5978 53.1905 40.5978C53.9784 40.6117 54.6143 41.2475 54.6143 42.0216Z" fill="#575961"/>
<path d="M39.0082 43.6803V53.4531C39.0082 54.241 38.3724 54.8769 37.5845 54.8769H31.8756C31.0877 54.8769 30.4518 54.241 30.4518 53.4531C30.4518 52.6652 31.0877 52.0294 31.8756 52.0294H36.1607V43.6803C36.1607 42.8924 36.7966 42.2566 37.5845 42.2566C38.3724 42.2566 39.0082 42.8924 39.0082 43.6803Z" fill="#575961"/>
<path d="M10.8372 62.5763C10.8372 63.3642 10.2013 64 9.41339 64H1.42376C0.635853 64 0 63.3642 0 62.5763V54.5866C0 53.7987 0.635853 53.1629 1.42376 53.1629C2.21166 53.1629 2.84752 53.7987 2.84752 54.5866V61.1663H9.42721C10.2013 61.1663 10.8372 61.8022 10.8372 62.5763Z" fill="#575961"/>
<path d="M17.7901 44.0259H9.80044C9.01253 44.0259 8.37668 44.6618 8.37668 45.4497V53.4393C8.37668 54.2272 9.01253 54.8631 9.80044 54.8631H17.7901C18.578 54.8631 19.2138 54.2272 19.2138 53.4393V45.4497C19.2138 44.6618 18.578 44.0259 17.7901 44.0259ZM16.3663 52.0294H11.2104V46.8735H16.3663V52.0294Z" fill="#FF6F41"/>
<path d="M32.6635 48.3663C32.6635 49.1542 32.0276 49.7901 31.2397 49.7901H29.5948C28.8069 49.7901 28.1711 49.1542 28.1711 48.3663C28.1711 47.5784 28.8069 46.9426 29.5948 46.9426H31.2397C32.0276 46.9564 32.6635 47.5922 32.6635 48.3663Z" fill="#575961"/>
<path d="M24.66 43.8048V49.3892C24.66 50.1771 24.0242 50.813 23.2363 50.813C22.4484 50.813 21.8125 50.1771 21.8125 49.3892V43.8048C21.8125 43.0169 22.4484 42.381 23.2363 42.381C24.0242 42.381 24.66 43.0169 24.66 43.8048Z" fill="#575961"/>
<path d="M62.0372 32C62.0372 32.7879 61.4013 33.4238 60.6134 33.4238H46.9978V39.492C46.9978 40.2799 46.362 40.9158 45.5741 40.9158C44.7862 40.9158 44.1503 40.2799 44.1503 39.492V33.4238H36.0778V37.9715C36.0778 38.7594 35.4419 39.3952 34.654 39.3952H22.7248C21.9369 39.3952 21.3011 38.7594 21.3011 37.9715C21.3011 37.1836 21.9369 36.5477 22.7248 36.5477H33.2302V33.4238H15.3849L15.5093 34.0043C15.5231 34.1011 15.5369 34.184 15.5369 34.2808V39.9896C15.5369 40.7775 14.9011 41.4134 14.1132 41.4134C13.3253 41.4134 12.6894 40.7775 12.6894 39.9896V34.2808C12.6894 34.184 12.7032 34.0873 12.7171 34.0043L12.8415 33.4238H3.38662C2.59871 33.4238 1.96286 32.7879 1.96286 32C1.96286 31.2121 2.59871 30.5762 3.38662 30.5762H33.2441V25.1438C33.2441 24.3559 33.8799 23.7201 34.6678 23.7201C35.4557 23.7201 36.0916 24.3559 36.0916 25.1438V30.5762H48.6013V25.9317H44.3162C43.5283 25.9317 42.8924 25.2959 42.8924 24.508C42.8924 23.7201 43.5283 23.0842 44.3162 23.0842H53.8264C54.6143 23.0842 55.2501 23.7201 55.2501 24.508C55.2501 25.2959 54.6143 25.9317 53.8264 25.9317H51.435V30.5762H60.6134C61.4013 30.5762 62.0372 31.2121 62.0372 32Z" fill="#FF6F41"/>
<path d="M25.2959 24.3836C25.2959 25.1715 24.66 25.8074 23.8721 25.8074H9.80044C9.01253 25.8074 8.37668 25.1715 8.37668 24.3836C8.37668 23.5957 9.01253 22.9598 9.80044 22.9598H23.886C24.66 22.9737 25.2959 23.6095 25.2959 24.3836Z" fill="#575961"/>
<path d="M30.5071 23.2501V24.895C30.5071 25.6829 29.8713 26.3188 29.0834 26.3188C28.2955 26.3188 27.6596 25.6829 27.6596 24.895V23.2501C27.6596 22.4622 28.2955 21.8264 29.0834 21.8264C29.8713 21.8264 30.5071 22.4622 30.5071 23.2501Z" fill="#575961"/>
<path d="M54.2134 9.13693H46.2237C45.4358 9.13693 44.8 9.77279 44.8 10.5607V18.5503C44.8 19.3382 45.4358 19.9741 46.2237 19.9741H54.2134C55.0013 19.9741 55.6371 19.3382 55.6371 18.5503V10.5607C55.6233 9.77279 54.9875 9.13693 54.2134 9.13693ZM52.7896 17.1266H47.6337V11.9706H52.7896V17.1266Z" fill="#FF6F41"/>
<path d="M39.6441 10.5607V20.5823C39.6441 21.3702 39.0082 22.006 38.2203 22.006C37.4324 22.006 36.7965 21.3702 36.7965 20.5823V10.5607C36.7965 9.77279 37.4324 9.13693 38.2203 9.13693C38.9944 9.13693 39.6441 9.77279 39.6441 10.5607Z" fill="#575961"/>
<path d="M32.6635 10.5607V16.9054C32.6635 17.6933 32.0276 18.3292 31.2397 18.3292C30.4518 18.3292 29.816 17.6933 29.816 16.9054V14.6384H24.5356V16.0069C24.5356 16.7948 23.8998 17.4307 23.1119 17.4307C22.324 17.4307 21.6881 16.7948 21.6881 16.0069V10.5607C21.6881 9.77279 22.324 9.13693 23.1119 9.13693C23.8998 9.13693 24.5356 9.77279 24.5356 10.5607V11.8048H29.816V10.5607C29.816 9.77279 30.4518 9.13693 31.2397 9.13693C32.0276 9.13693 32.6635 9.77279 32.6635 10.5607Z" fill="#575961"/>
<path d="M17.7901 9.13693H9.80044C9.01253 9.13693 8.37668 9.77279 8.37668 10.5607V18.5503C8.37668 19.3382 9.01253 19.9741 9.80044 19.9741H17.7901C18.578 19.9741 19.2138 19.3382 19.2138 18.5503V10.5607C19.2138 9.77279 18.578 9.13693 17.7901 9.13693ZM16.3663 17.1266H11.2104V11.9706H16.3663V17.1266Z" fill="#FF6F41"/>
<path d="M10.8372 1.42376C10.8372 2.21166 10.2013 2.84752 9.41339 2.84752H2.83369V9.42721C2.83369 10.2151 2.19784 10.851 1.40994 10.851C0.635853 10.8371 0 10.2013 0 9.41339V1.42376C0 0.635853 0.635853 0 1.42376 0H9.41339C10.2013 0 10.8372 0.635853 10.8372 1.42376Z" fill="#575961"/>
<path d="M64 1.42376V9.41339C64 10.2013 63.3641 10.8371 62.5762 10.8371C61.7883 10.8371 61.1525 10.2013 61.1525 9.41339V2.83369H54.5728C53.7849 2.83369 53.149 2.19784 53.149 1.40993C53.149 0.622029 53.7849 -0.0138245 54.5728 -0.0138245H62.5624C63.3641 -1.56928e-06 64 0.635852 64 1.42376Z" fill="#575961"/>
</svg>
