<svg width="55" height="55" viewBox="0 0 55 55" fill="none" xmlns="http://www.w3.org/2000/svg">
<g clip-path="url(#clip0)">
<path d="M50.4519 0H4.54808C2.03312 0 0 2.03312 0 4.54808V50.4637C0 52.9669 2.03312 55 4.54808 55H50.4637C52.9669 55 55.0117 52.9669 55.0117 50.4519V4.54808C55 2.03312 52.9669 0 50.4519 0ZM52.438 50.4519C52.438 51.5449 51.5449 52.438 50.4519 52.438H4.54808C3.45513 52.438 2.56197 51.5449 2.56197 50.4519V15.6186H52.4498V50.4519H52.438ZM52.438 13.0566H2.56197V4.54808C2.56197 3.45513 3.45513 2.56197 4.54808 2.56197H50.4637C51.5566 2.56197 52.4498 3.45513 52.4498 4.54808V13.0566H52.438Z" fill="#575961"/>
<path d="M9.20192 7.80341C9.20192 8.50854 8.62607 9.0844 7.92094 9.0844C7.21581 9.0844 6.63995 8.50854 6.63995 7.80341C6.63995 7.09829 7.21581 6.52243 7.92094 6.52243C8.62607 6.52243 9.20192 7.09829 9.20192 7.80341Z" fill="#575961"/>
<path d="M15.7244 7.80341C15.7244 8.50854 15.1485 9.0844 14.4434 9.0844C13.7382 9.0844 13.1624 8.50854 13.1624 7.80341C13.1624 7.09829 13.7382 6.52243 14.4434 6.52243C15.1485 6.52243 15.7244 7.09829 15.7244 7.80341Z" fill="#575961"/>
<path d="M22.2468 7.80341C22.2468 8.50854 21.6709 9.0844 20.9658 9.0844C20.2607 9.0844 19.6848 8.50854 19.6848 7.80341C19.6848 7.09829 20.2607 6.52243 20.9658 6.52243C21.6827 6.52243 22.2468 7.09829 22.2468 7.80341Z" fill="#575961"/>
<path d="M18.6741 29.7564L18.3216 29.5331L18.6036 29.2276C19.5556 28.1934 20.0727 26.8419 20.0727 25.4316C20.0727 22.3291 17.5459 19.8024 14.4434 19.8024C11.3408 19.8024 8.8141 22.3291 8.8141 25.4316C8.8141 26.8419 9.33119 28.1816 10.2831 29.2276L10.5652 29.5331L10.2126 29.7564C7.96794 31.2019 6.63995 33.6581 6.63995 36.3141V38.4883C6.63995 39.1934 7.21581 39.7692 7.92094 39.7692H20.9776C21.6827 39.7692 22.2586 39.1934 22.2586 38.4883V36.3141C22.2468 33.6581 20.9188 31.2019 18.6741 29.7564ZM14.4434 22.3643C16.1357 22.3643 17.5107 23.7393 17.5107 25.4316C17.5107 27.1239 16.1357 28.499 14.4434 28.499C12.7511 28.499 11.3761 27.1239 11.3761 25.4316C11.3761 23.7393 12.7511 22.3643 14.4434 22.3643ZM19.6966 37.2073H9.20192V36.3141C9.20192 33.4231 11.5523 31.0609 14.4551 31.0609C17.3462 31.0609 19.7083 33.4113 19.7083 36.3141V37.2073H19.6966Z" fill="#FF6F41"/>
<path d="M48.36 21.0834C48.36 21.7885 47.7842 22.3643 47.0791 22.3643H27.5C26.7949 22.3643 26.219 21.7885 26.219 21.0834C26.219 20.3782 26.7949 19.8024 27.5 19.8024H47.0791C47.7842 19.8024 48.36 20.3782 48.36 21.0834Z" fill="#FF6F41"/>
<path d="M48.36 27.6058C48.36 28.3109 47.7842 28.8868 47.0791 28.8868H27.5C26.7949 28.8868 26.219 28.3109 26.219 27.6058C26.219 26.9007 26.7949 26.3248 27.5 26.3248H47.0791C47.7842 26.3248 48.36 26.9007 48.36 27.6058Z" fill="#FF6F41"/>
<path d="M48.36 34.14C48.36 34.8451 47.7842 35.4209 47.0791 35.4209H27.5C26.7949 35.4209 26.219 34.8451 26.219 34.14C26.219 33.4348 26.7949 32.859 27.5 32.859H47.0791C47.7842 32.859 48.36 33.4348 48.36 34.14Z" fill="#FF6F41"/>
<path d="M47.0791 39.3814H40.5566C39.8515 39.3814 39.2756 39.9573 39.2756 40.6624V47.1848C39.2756 47.8899 39.8515 48.4658 40.5566 48.4658H47.0791C47.7842 48.4658 48.36 47.8899 48.36 47.1848V40.6624C48.36 39.9573 47.7842 39.3814 47.0791 39.3814ZM45.8098 45.9156H41.8376V41.9434H45.8098V45.9156Z" fill="#FF6F41"/>
<path d="M34.0342 39.3814H27.5C26.7949 39.3814 26.219 39.9573 26.219 40.6624V47.1848C26.219 47.8899 26.7949 48.4658 27.5 48.4658H34.0342C34.7393 48.4658 35.3152 47.8899 35.3152 47.1848V40.6624C35.3034 39.9573 34.7393 39.3814 34.0342 39.3814ZM32.7532 45.9156H28.781V41.9434H32.7532V45.9156Z" fill="#FF6F41"/>
<path d="M22.2468 45.0107C22.2468 45.7158 21.6709 46.2916 20.9658 46.2916H7.92093C7.21581 46.2916 6.63995 45.7158 6.63995 45.0107C6.63995 44.3055 7.21581 43.7297 7.92093 43.7297H20.9776C21.6827 43.7414 22.2468 44.3055 22.2468 45.0107Z" fill="#FF6F41"/>
</g>
<defs>
<clipPath id="clip0">
<rect width="55" height="55" fill="white"/>
</clipPath>
</defs>
</svg>
