<svg width="63" height="63" viewBox="0 0 63 63" fill="none" xmlns="http://www.w3.org/2000/svg">
<g clip-path="url(#clip0)">
<path d="M40.4578 45.3674C39.7933 44.9736 39.1166 44.5676 38.4398 44.1738C38.5998 42.808 38.5998 41.4299 38.4398 40.0763C39.1166 39.6826 39.8056 39.2765 40.4578 38.8828C41.5652 38.2183 42.0328 36.8033 41.5283 35.6097L40.0887 32.1152C39.5965 30.9217 38.2676 30.2449 37.0125 30.5648C36.2619 30.7494 35.499 30.9463 34.7361 31.1554C33.8871 30.0849 32.915 29.1129 31.8322 28.2515C32.0414 27.4886 32.2383 26.7258 32.4228 25.9752C32.7305 24.7201 32.066 23.3912 30.8724 22.899L27.3779 21.447C26.1844 20.9549 24.7693 21.4101 24.1049 22.5176C23.7111 23.182 23.3051 23.8588 22.9113 24.5355C21.5455 24.3756 20.1674 24.3756 18.8139 24.5355C18.4201 23.8465 18.014 23.1697 17.6203 22.5176C16.9558 21.4101 15.5408 20.9426 14.3473 21.447L10.8527 22.899C9.65917 23.3912 8.98241 24.7201 9.30233 25.9752C9.4869 26.7258 9.68378 27.4886 9.89296 28.2515C8.82245 29.1006 7.85038 30.0726 6.98905 31.1554C6.22616 30.9463 5.46327 30.7494 4.71268 30.5648C3.4576 30.2572 2.1287 30.9217 1.63651 32.1152L0.196861 35.622C-0.295326 36.8156 0.159947 38.2306 1.26737 38.8951C1.93182 39.2888 2.60858 39.6949 3.28534 40.0886C3.12538 41.4545 3.12538 42.8326 3.28534 44.1861C2.60858 44.5799 1.91952 44.9736 1.26737 45.3797C0.159947 46.0441 -0.307631 47.4592 0.196861 48.6527L1.64881 52.1472C2.141 53.3408 3.46991 54.0176 4.72499 53.6976C5.47557 53.5131 6.23846 53.3162 7.00135 53.107C7.85038 54.1775 8.82245 55.1496 9.90526 56.0109C9.69608 56.7738 9.4992 57.5367 9.31463 58.2873C9.00702 59.5424 9.67147 60.8713 10.865 61.3635L14.3596 62.8154C14.6795 62.9508 15.024 63.0123 15.3562 63.0123C16.2668 63.0123 17.1404 62.5447 17.6326 61.7326C18.0264 61.0804 18.4324 60.3914 18.8262 59.7146C20.192 59.8746 21.5701 59.8746 22.9236 59.7146C23.3174 60.3914 23.7111 61.0681 24.1172 61.7326C24.7816 62.84 26.1967 63.3076 27.3902 62.8031L30.8848 61.3511C32.0783 60.859 32.7551 59.5301 32.4351 58.275C32.2506 57.5367 32.0537 56.7738 31.8445 55.9986C32.915 55.1496 33.8871 54.1775 34.7484 53.0947C35.5113 53.3039 36.2742 53.5008 37.0248 53.6853C38.2799 53.9929 39.6088 53.3285 40.101 52.1349L41.5529 48.6404C42.0328 47.4468 41.5775 46.0441 40.4578 45.3674ZM37.5416 50.9168C36.8279 50.7322 36.0896 50.5476 35.3637 50.3508C34.3301 50.0678 33.2472 50.4369 32.5951 51.2736C31.8445 52.2334 30.9709 53.107 30.0111 53.8576C29.1744 54.5097 28.8176 55.5926 29.0883 56.6261C29.2851 57.3644 29.4697 58.0904 29.6543 58.8041L26.4428 60.133C26.0613 59.4931 25.6799 58.841 25.2984 58.1888C24.7693 57.266 23.7357 56.7492 22.6898 56.8845C21.484 57.0322 20.2535 57.0322 19.0353 56.8845C17.9771 56.7492 16.9558 57.266 16.4267 58.1888C16.0453 58.841 15.6639 59.4931 15.2824 60.133L12.0709 58.8041C12.2555 58.0904 12.44 57.3521 12.6369 56.6261C12.9199 55.5926 12.5508 54.5097 11.714 53.8576C10.7543 53.107 9.88065 52.2457 9.13006 51.2736C8.47792 50.4369 7.3951 50.0801 6.36151 50.3508C5.63553 50.5476 4.89725 50.7322 4.18358 50.9168L2.85467 47.7052C3.49452 47.3238 4.14667 46.9424 4.79881 46.5609C5.72167 46.0318 6.23846 44.9982 6.10311 43.9523C5.95545 42.7465 5.95545 41.516 6.10311 40.2978C6.23846 39.2396 5.72167 38.2183 4.79881 37.6892C4.14667 37.3078 3.49452 36.9263 2.85467 36.5449L4.19588 33.3457C4.90956 33.5302 5.64784 33.7148 6.37381 33.9117C7.40741 34.1947 8.49022 33.8256 9.14237 32.9888C9.89296 32.0291 10.7666 31.1554 11.7264 30.4049C12.5631 29.7527 12.9199 28.6699 12.6492 27.6363C12.4523 26.9103 12.2678 26.172 12.0832 25.4584L15.2947 24.1295C15.6762 24.757 16.0576 25.4092 16.439 26.0736C16.9682 26.9965 18.0017 27.5133 19.0476 27.3779C20.2535 27.2302 21.484 27.2302 22.7021 27.3779C23.7603 27.5133 24.7816 26.9965 25.3107 26.0736C25.6922 25.4215 26.0736 24.7693 26.4551 24.1295L29.6666 25.4584C29.482 26.172 29.2974 26.9103 29.1006 27.6363C28.8176 28.6699 29.1867 29.7527 30.0234 30.4049C30.9832 31.1554 31.8568 32.0168 32.6074 32.9888C33.2596 33.8256 34.3424 34.1824 35.376 33.9117C36.1019 33.7148 36.8402 33.5302 37.5539 33.3457L38.8828 36.5572C38.243 36.9386 37.5908 37.3201 36.9387 37.7015C36.0158 38.2306 35.499 39.2642 35.6344 40.3101C35.782 41.516 35.782 42.7465 35.6344 43.9646C35.499 45.0228 36.0158 46.0441 36.9387 46.5732C37.5908 46.9424 38.243 47.3361 38.8828 47.7176L37.5416 50.9168Z" fill="#575961"/>
<path d="M29.7527 38.4522C27.7225 33.5549 22.0869 31.217 17.1896 33.2473C12.2924 35.2775 9.96679 40.9131 11.9848 45.8104C12.9691 48.1852 14.8148 50.0309 17.1896 51.0152C18.3709 51.5074 19.626 51.7535 20.8687 51.7535C22.1115 51.7535 23.3666 51.5074 24.5478 51.0152C29.4451 48.985 31.7707 43.3494 29.7527 38.4522ZM23.465 48.4066C21.7916 49.0957 19.9459 49.0957 18.2725 48.4066C16.599 47.7176 15.2947 46.4133 14.5934 44.7275C13.166 41.2699 14.8148 37.2832 18.2725 35.8559C19.1215 35.499 19.9951 35.3391 20.8564 35.3391C23.5266 35.3391 26.0613 36.9141 27.1441 39.535C28.5715 42.9926 26.9227 46.967 23.465 48.4066Z" fill="#575961"/>
<path d="M61.1051 12.4154C60.6129 12.3416 60.1207 12.2678 59.6162 12.2062C59.3578 11.3572 59.0256 10.5451 58.6072 9.76992C58.9148 9.36386 59.2224 8.95781 59.5178 8.56406C60.1699 7.67812 60.0715 6.43535 59.2963 5.66015L57.3398 3.71601C56.5646 2.94081 55.3095 2.84238 54.4359 3.49452C54.0422 3.78984 53.6361 4.09746 53.2301 4.40507C52.4549 3.98671 51.6304 3.64218 50.7937 3.39609C50.7322 2.8916 50.6584 2.3871 50.5845 1.90722C50.4246 0.824408 49.4771 0.0122986 48.3697 0.0122986H45.6135C44.5183 0.0122986 43.5709 0.824408 43.3986 1.90722C43.3248 2.39941 43.251 2.8916 43.1894 3.39609C42.3404 3.65449 41.5283 3.98671 40.7531 4.40507C40.347 4.09746 39.9533 3.78984 39.5472 3.49452C38.6613 2.84238 37.4185 2.94081 36.6433 3.71601L34.6992 5.66015C33.924 6.43535 33.8256 7.69042 34.4777 8.56406C34.773 8.95781 35.0806 9.36386 35.3883 9.76992C34.9699 10.5451 34.6254 11.3695 34.3793 12.2062C33.8748 12.2678 33.3703 12.3416 32.8904 12.4154C31.8076 12.5754 30.9955 13.5228 30.9955 14.6303V17.3865C30.9955 18.4816 31.8076 19.4291 32.8904 19.6014C33.3826 19.6752 33.8748 19.749 34.3793 19.8105C34.6377 20.6596 34.9699 21.4717 35.3883 22.2469C35.0806 22.6529 34.773 23.059 34.4777 23.4527C33.8256 24.3387 33.924 25.5814 34.6992 26.3566L36.6433 28.3008C37.4185 29.076 38.6736 29.1744 39.5472 28.5223C39.941 28.2269 40.347 27.9193 40.7531 27.6117C41.5283 28.0301 42.3527 28.3746 43.1894 28.6207C43.251 29.1252 43.3248 29.6297 43.3986 30.1096C43.5586 31.1924 44.506 32.0045 45.6135 32.0045H48.3697C49.4648 32.0045 50.4123 31.1924 50.5845 30.1096C50.6584 29.6174 50.7322 29.1252 50.7937 28.6207C51.6427 28.3623 52.4549 28.0301 53.2301 27.6117C53.6361 27.9193 54.0299 28.2269 54.4359 28.5223C55.3219 29.1744 56.5646 29.076 57.3398 28.3008L59.284 26.3566C60.0592 25.5814 60.1576 24.3264 59.5054 23.4527C59.2101 23.059 58.9025 22.6529 58.5949 22.2469C59.0133 21.4717 59.3578 20.6473 59.6039 19.8105C60.1084 19.749 60.6129 19.6752 61.0928 19.6014C62.1756 19.4414 62.9877 18.4939 62.9877 17.3865V14.6303C63 13.5352 62.1879 12.5877 61.1051 12.4154ZM60.3176 16.9928C59.8746 17.0543 59.4193 17.1158 58.9763 17.1773C58.0781 17.2881 57.3521 17.9279 57.106 18.7893C56.8722 19.6137 56.54 20.4135 56.1217 21.1641C55.6787 21.9516 55.7402 22.9113 56.2939 23.625C56.5769 23.9818 56.8476 24.351 57.1183 24.7078L55.7156 26.1105C55.3588 25.8398 54.9896 25.5691 54.6328 25.2861C53.9191 24.7324 52.947 24.6709 52.1719 25.1139C51.4213 25.5445 50.6215 25.8768 49.797 26.0982C48.9357 26.332 48.2959 27.0703 48.1851 27.9685C48.1236 28.4238 48.0621 28.8668 48.0006 29.3098H46.0195C45.958 28.8668 45.8965 28.4115 45.8349 27.9685C45.7242 27.0703 45.0844 26.3443 44.223 26.0982C43.3986 25.8644 42.5988 25.5322 41.8482 25.1139C41.0607 24.6709 40.101 24.7324 39.3873 25.2861C39.0304 25.5691 38.6613 25.8398 38.3045 26.1105L36.8648 24.7324C37.1355 24.3756 37.4062 24.0064 37.6892 23.6496C38.2429 22.9359 38.3045 21.9639 37.8615 21.1887C37.4308 20.4381 37.0986 19.6383 36.8771 18.8139C36.6433 17.9525 35.9051 17.3127 35.0068 17.2019C34.5515 17.1404 34.1086 17.0789 33.6656 17.0174V15.0117C34.1086 14.9502 34.5638 14.8887 35.0068 14.8271C35.9051 14.7164 36.631 14.0766 36.8771 13.2152C37.1109 12.3908 37.4431 11.591 37.8615 10.8404C38.3045 10.0529 38.2429 9.09316 37.6892 8.37949C37.4062 8.02265 37.1355 7.65351 36.8648 7.29667L38.2676 5.88163C38.6244 6.15234 38.9935 6.42304 39.3504 6.70605C40.064 7.25976 41.0361 7.32128 41.8113 6.87831C42.5619 6.44765 43.3617 6.11542 44.1861 5.89394C45.0474 5.66015 45.6873 4.92187 45.798 4.02363C45.8595 3.56835 45.9211 3.12538 45.9826 2.68242H47.9883C48.0498 3.12538 48.1113 3.58066 48.1728 4.02363C48.2836 4.92187 48.9234 5.64785 49.7847 5.89394C50.6092 6.12773 51.409 6.45996 52.1595 6.87831C52.947 7.32128 53.9068 7.24746 54.6205 6.70605C54.9773 6.42304 55.3465 6.15234 55.7033 5.88163L57.106 7.28437C56.8353 7.64121 56.5646 8.01035 56.2816 8.36718C55.7279 9.08085 55.6664 10.0529 56.1094 10.8281C56.54 11.5787 56.8722 12.3785 57.0937 13.2029C57.3275 14.0643 58.0658 14.7041 58.964 14.8271C59.4193 14.8887 59.8623 14.9502 60.3053 15.0117L60.3176 16.9928Z" fill="#FF6F41"/>
<path d="M46.9916 10.299C43.8416 10.299 41.2822 12.8584 41.2822 16.0084C41.2822 19.1584 43.8416 21.7178 46.9916 21.7178C50.1416 21.7178 52.701 19.1584 52.701 16.0084C52.701 12.8584 50.1416 10.299 46.9916 10.299ZM46.9916 19.183C45.2443 19.183 43.817 17.7557 43.817 16.0084C43.817 14.2612 45.2443 12.8338 46.9916 12.8338C48.7389 12.8338 50.1662 14.2612 50.1662 16.0084C50.1662 17.7557 48.7389 19.183 46.9916 19.183Z" fill="#FF6F41"/>
</g>
<defs>
<clipPath id="clip0">
<rect width="63" height="63" fill="white"/>
</clipPath>
</defs>
</svg>
