<svg width="64" height="64" viewBox="0 0 64 64" fill="none" xmlns="http://www.w3.org/2000/svg">
<g clip-path="url(#clip0)">
<path d="M28.45 34.2349C28.2861 34.2349 28.1348 34.2095 27.9708 34.1714C28.2861 34.2476 28.6014 34.2476 28.9166 34.1714C28.7653 34.2095 28.6014 34.2349 28.45 34.2349ZM28.45 34.2349C28.2861 34.2349 28.1348 34.2095 27.9708 34.1714C28.2861 34.2476 28.6014 34.2476 28.9166 34.1714C28.7653 34.2095 28.6014 34.2349 28.45 34.2349ZM28.45 34.2349C28.2861 34.2349 28.1348 34.2095 27.9708 34.1714C28.2861 34.2476 28.6014 34.2476 28.9166 34.1714C28.7653 34.2095 28.6014 34.2349 28.45 34.2349Z" fill="#575961"/>
<path d="M16.3941 6.37462C16.5328 6.14604 16.6715 5.91747 16.8228 5.7016C16.6841 5.91747 16.5328 6.14604 16.3941 6.37462ZM15.8518 7.327C15.9779 7.08573 16.1166 6.84446 16.2554 6.61589C16.1166 6.84446 15.9905 7.08573 15.8518 7.327Z" fill="#575961"/>
<path d="M63.8612 32.6222C64.0504 32.2413 64.0504 31.7714 63.8612 31.3905C63.8486 31.3651 62.5876 28.7873 60.7464 26.5397L60.5698 26.3365L60.6455 26.0825C61.4652 23.3143 61.5661 20.5206 61.5661 20.4063C61.5787 20 61.4147 19.619 61.1247 19.3397C61.0364 19.2635 59.0061 17.3587 56.4839 15.9746L56.2443 15.8476L56.2191 15.5809C55.929 12.6984 54.958 10.0825 54.9202 9.96825C54.7814 9.5873 54.4788 9.29523 54.1131 9.15555C53.9996 9.11746 51.4017 8.13968 48.5391 7.84762L48.2743 7.82222L48.1481 7.58095C46.7862 5.04127 44.8945 2.98412 44.8063 2.90793C44.5414 2.62857 44.1757 2.46349 43.7974 2.46349H43.7596C43.6461 2.46349 40.8717 2.56508 38.1225 3.39047L37.8703 3.46666L37.6685 3.28889C35.449 1.44762 32.9521 0.203171 32.8512 0.152378C32.662 0.0507905 32.4477 0.0126953 32.2333 0.0126953C32.0189 0.0126953 31.8045 0.063489 31.6153 0.152378C31.5145 0.203171 29.0175 1.44762 26.798 3.28889L26.5962 3.46666L26.344 3.39047C23.5948 2.56508 20.8205 2.46349 20.707 2.46349H20.6691C20.2908 2.46349 19.9125 2.62857 19.6603 2.90793C19.5846 2.99682 17.693 5.04127 16.3184 7.58095L16.1923 7.82222L15.9275 7.84762C13.0396 8.12698 10.4417 9.10476 10.3409 9.14285C9.96253 9.28254 9.67248 9.5873 9.53376 9.95555C9.49593 10.0698 8.52489 12.6857 8.23485 15.5682L8.20962 15.8349L7.97002 15.9619C5.43524 17.3333 3.40489 19.2381 3.32923 19.327C3.03918 19.6063 2.87524 19.9873 2.88785 20.3936C2.88785 20.5079 2.98874 23.3016 3.80844 26.0698L3.88411 26.3238L3.70755 26.527C1.89159 28.7619 0.643121 31.2762 0.592678 31.3778C0.403515 31.7587 0.403515 32.2286 0.592678 32.6095C0.643121 32.7111 1.89159 35.2381 3.70755 37.4603L3.88411 37.6635L3.80844 37.9175C2.98874 40.6857 2.88785 43.4794 2.88785 43.5936C2.87524 44 3.03918 44.3809 3.32923 44.6603C3.41751 44.7365 5.44785 46.6413 7.97002 48.0254L8.20962 48.1524L8.23485 48.419C8.52489 51.3016 9.49593 53.9175 9.53376 54.0317C9.67248 54.4127 9.97514 54.7048 10.3409 54.8444C10.4544 54.8825 13.0522 55.8603 15.9148 56.1524L16.1797 56.1778L16.3058 56.419C17.6678 58.9714 19.5594 61.0159 19.6477 61.0921C19.9125 61.3714 20.2782 61.5365 20.6691 61.5365C20.6817 61.5365 20.6944 61.5365 20.707 61.5365C20.8205 61.5365 23.5948 61.4349 26.344 60.6095L26.6088 60.5333L26.8106 60.7111C29.0175 62.5397 31.5271 63.7968 31.628 63.8476C31.8171 63.9365 32.0315 63.9873 32.2459 63.9873C32.4603 63.9873 32.6746 63.9365 32.8638 63.8476C32.9647 63.7968 35.4743 62.5397 37.6811 60.7111L37.8829 60.5333L38.1351 60.6095C40.8843 61.4349 43.6587 61.5365 43.7722 61.5365C43.7848 61.5365 43.7974 61.5365 43.81 61.5365C44.201 61.5365 44.5667 61.3714 44.8315 61.0921C44.9072 61.0032 46.7988 58.9714 48.1734 56.419L48.2995 56.1778L48.5643 56.1524C51.4144 55.8603 54.0248 54.8825 54.1383 54.8444C54.504 54.7048 54.8067 54.4 54.9454 54.0317C54.9832 53.9175 55.9543 51.3016 56.2443 48.419L56.2695 48.1524L56.5091 48.0254C59.0439 46.654 61.0743 44.7492 61.1499 44.6603C61.44 44.3809 61.6039 44 61.5913 43.5936C61.5913 43.4794 61.4904 40.6857 60.6707 37.9175L60.595 37.6635L60.7716 37.4603C62.5623 35.2508 63.8108 32.7238 63.8612 32.6222ZM57.6945 37.854C58.3755 39.6444 58.6404 41.727 58.7412 42.8063L58.7665 43.073L58.5647 43.2508C57.745 43.9365 56.1056 45.2063 54.3527 46.0063C53.8735 46.2222 53.5582 46.7048 53.533 47.2381C53.4699 49.1555 52.9277 51.1746 52.6124 52.2032L52.5367 52.4571L52.2845 52.5333C51.263 52.8508 49.2705 53.3968 47.3537 53.4603C46.824 53.473 46.3448 53.8032 46.1304 54.2857C45.3485 56.0381 44.0748 57.6889 43.3939 58.527L43.2173 58.7302L42.9525 58.7048C41.8806 58.6032 39.825 58.3365 38.0469 57.6508C37.8829 57.5873 37.719 57.5619 37.555 57.5619C37.2019 57.5619 36.8614 57.7016 36.6092 57.9428C35.222 59.2508 33.4313 60.3555 32.4855 60.8889L32.2333 61.0286L31.9811 60.8889C31.0352 60.3555 29.2445 59.2635 27.8573 57.9428C27.6051 57.7016 27.2646 57.5619 26.9115 57.5619C26.7476 57.5619 26.5836 57.5873 26.4197 57.6508C24.6415 58.3365 22.5734 58.6032 21.5141 58.7048L21.2492 58.7302L21.0727 58.527C20.3917 57.7016 19.118 56.0381 18.3361 54.2857C18.1217 53.8032 17.6425 53.4857 17.1129 53.4603C15.2086 53.3968 13.2035 52.8508 12.182 52.5333L11.9298 52.4571L11.8542 52.2032C11.5389 51.1746 10.9966 49.1555 10.9336 47.2381C10.921 46.7048 10.5931 46.2222 10.1139 46.0063C8.36095 45.2063 6.72154 43.9365 5.90184 43.2381L5.70007 43.0603L5.72529 42.7936C5.82618 41.7143 6.091 39.6444 6.77199 37.854C6.96115 37.3587 6.84765 36.7873 6.48194 36.4063C5.18302 35.0095 4.08588 33.2063 3.55622 32.254L3.41751 32L3.55622 31.746C4.08588 30.7936 5.17041 28.9905 6.48194 27.5936C6.83504 27.2127 6.96115 26.6413 6.77199 26.146C6.091 24.3555 5.82618 22.273 5.72529 21.2063L5.70007 20.9397L5.90184 20.7619C6.72154 20.0762 8.37356 18.7936 10.1139 18.0063C10.5931 17.7905 10.9083 17.3079 10.9336 16.7746C10.9966 14.8571 11.5389 12.8381 11.8542 11.8095L11.9298 11.5556L12.182 11.4794C13.2035 11.1619 15.196 10.6159 17.1129 10.5524C17.6425 10.5397 18.1217 10.2095 18.3361 9.72698C19.118 7.9746 20.3917 6.32381 21.0727 5.48571L21.2492 5.28254L21.5141 5.30793C22.586 5.40952 24.6415 5.67619 26.4197 6.3619C26.5836 6.42539 26.7476 6.45079 26.9115 6.45079C27.2646 6.45079 27.6051 6.31111 27.8573 6.06984C29.2445 4.7619 31.0352 3.65714 31.9811 3.12381L32.2333 2.98412L32.4855 3.12381C33.4313 3.65714 35.222 4.7492 36.6092 6.06984C36.8614 6.31111 37.2019 6.45079 37.555 6.45079C37.719 6.45079 37.8955 6.42539 38.0469 6.3619C39.825 5.67619 41.8932 5.40952 42.9651 5.30793L43.2299 5.28254L43.4065 5.48571C44.0875 6.31111 45.3485 7.9619 46.143 9.72698C46.3574 10.2095 46.8366 10.527 47.3663 10.5524C49.2705 10.6159 51.2756 11.1619 52.2971 11.4794L52.5493 11.5556L52.625 11.8095C52.9403 12.8381 53.4825 14.8444 53.5456 16.7746C53.5582 17.3079 53.8861 17.7905 54.3653 18.0063C56.1056 18.7936 57.745 20.0762 58.5773 20.7619L58.7791 20.9397L58.7539 21.2063C58.653 22.2857 58.3881 24.3555 57.7072 26.146C57.518 26.6413 57.6315 27.2127 57.9972 27.5936C59.2961 28.9905 60.3933 30.7936 60.9229 31.746L61.0616 32L60.9229 32.254C60.3933 33.2063 59.3087 35.0095 57.9972 36.4063C57.6315 36.7873 57.518 37.3587 57.6945 37.854Z" fill="#575961"/>
<path d="M46.5844 24.8381L41.2374 19.454C40.9726 19.1873 40.6321 19.0476 40.2537 19.0476C39.8754 19.0476 39.5349 19.2 39.2701 19.454L28.8031 29.9936L28.45 30.3492L28.0969 29.9936L25.1964 27.073C24.9316 26.8063 24.5911 26.6667 24.2128 26.6667C23.8344 26.6667 23.4939 26.819 23.2291 27.073L17.8821 32.4571C17.6173 32.7238 17.4786 33.0667 17.4786 33.4476C17.4786 33.8286 17.6173 34.1714 17.8821 34.4381L27.479 44.1016C27.7438 44.3682 28.0843 44.5079 28.4626 44.5079C28.8409 44.5079 29.1814 44.3682 29.4463 44.1016L46.6096 26.819C46.8744 26.5524 47.0132 26.2095 47.0132 25.8286C47.0132 25.4476 46.8492 25.1048 46.5844 24.8381ZM28.45 41.1301L20.8078 33.4476L21.1609 33.0921L23.8344 30.4L24.1875 30.0444L27.4537 33.3333C27.7186 33.6 28.0591 33.7397 28.4374 33.7397C28.8157 33.7397 29.1562 33.6 29.421 33.3333L40.2537 22.4254L40.6069 22.7809L43.2804 25.473L43.6335 25.8286L28.45 41.1301Z" fill="#FF6F41"/>
</g>
<defs>
<clipPath id="clip0">
<rect width="64" height="64" fill="white"/>
</clipPath>
</defs>
</svg>
