<svg width="40" height="64" viewBox="0 0 40 64" fill="none" xmlns="http://www.w3.org/2000/svg">
<g clip-path="url(#clip0)">
<path d="M33.2679 0.10144H6.73203C3.07496 0.10144 0.088562 3.08084 0.088562 6.74486V62.5801C0.088562 63.1125 0.417572 63.607 0.911087 63.8098C1.4046 64.0254 1.97404 63.8986 2.35367 63.5182L19.9937 45.8447L37.6336 63.5182C37.8867 63.7718 38.2284 63.9113 38.5701 63.9113C38.7346 63.9113 38.9117 63.8732 39.0762 63.8098C39.5697 63.607 39.8987 63.1125 39.8987 62.5801V6.74486C39.8987 3.08084 36.925 0.10144 33.2679 0.10144ZM37.254 59.3724L20.9427 43.0301C20.677 42.7766 20.348 42.6371 20.0063 42.6371C19.6646 42.6371 19.323 42.7639 19.0699 43.0301L2.74595 59.3724V6.74486C2.74595 4.55152 4.53019 2.7512 6.73203 2.7512H33.2679C35.4571 2.7512 37.254 4.53884 37.254 6.74486V59.3724Z" fill="#575961"/>
<path d="M33.268 0.101426C36.925 0.101426 39.8988 3.08082 39.8988 6.74485V62.58C39.8988 63.1125 39.5698 63.607 39.0762 63.8098C38.9117 63.8732 38.7346 63.9113 38.5701 63.9113C38.2284 63.9113 37.8867 63.7718 37.6337 63.5182L19.9937 45.8447L2.36634 63.5182C2.11326 63.7718 1.77159 63.9113 1.42993 63.9113C1.25277 63.9113 1.08826 63.8732 0.923758 63.8098C0.430244 63.607 0.101234 63.1252 0.101234 62.58V6.74485C0.101234 3.08082 3.07498 0.101426 6.73205 0.101426H33.268ZM2.74597 59.3724L19.0573 43.0301C19.323 42.7639 19.652 42.6371 19.9937 42.6371C20.3353 42.6371 20.677 42.7639 20.9301 43.0301L37.2414 59.3724V6.74485C37.2414 4.55151 35.4571 2.75119 33.2553 2.75119H6.73205C4.54287 2.75119 2.74597 4.53883 2.74597 6.74485V59.3724ZM33.268 0H6.73205C3.02436 0 0 3.03011 0 6.74485V62.58C0 63.1632 0.341664 63.6704 0.873141 63.8986C1.0503 63.9746 1.22746 64.0127 1.41727 64.0127C1.7969 64.0127 2.15122 63.8605 2.41696 63.5943L19.9937 45.9842L37.5704 63.5943C37.8361 63.8605 38.2031 64.0127 38.5827 64.0127C38.7725 64.0127 38.9497 63.9746 39.1269 63.8986C39.6583 63.683 40 63.1632 40 62.58V6.74485C40 3.03011 36.9756 0 33.268 0ZM2.8472 59.1442V6.74485C2.8472 4.60222 4.59348 2.85262 6.73205 2.85262H33.268C35.4065 2.85262 37.1528 4.60222 37.1528 6.74485V59.1442L21.006 42.954C20.7403 42.6878 20.3733 42.5357 19.9937 42.5357C19.614 42.5357 19.2597 42.6878 18.9813 42.954L2.8472 59.1442Z" fill="#575961"/>
<path fill-rule="evenodd" clip-rule="evenodd" d="M17.9077 16.5562C18.5662 14.5294 21.4337 14.5293 22.0923 16.5562L23.566 21.0918H28.335C30.4662 21.0918 31.3523 23.819 29.6281 25.0716L25.7699 27.8748L27.2436 32.4103C27.9022 34.4372 25.5824 36.1227 23.8582 34.87L20 32.0669L16.1418 34.87C14.4176 36.1227 12.0978 34.4372 12.7564 32.4103L14.2301 27.8748L10.3719 25.0716C8.64771 23.819 9.53381 21.0918 11.665 21.0918H16.434L17.9077 16.5562ZM20 17.8833L18.6716 21.9716C18.3771 22.8781 17.5324 23.4918 16.5793 23.4918H12.2805L15.7583 26.0185C16.5294 26.5788 16.852 27.5718 16.5575 28.4782L15.2291 32.5666L18.7069 30.0398C19.4779 29.4796 20.5221 29.4796 21.2931 30.0398L24.7709 32.5666L23.4425 28.4782C23.148 27.5718 23.4706 26.5788 24.2417 26.0185L27.7195 23.4918H23.4207C22.4676 23.4918 21.6229 22.8781 21.3284 21.9716L20 17.8833Z" fill="#FF6F41"/>
</g>
<defs>
<clipPath id="clip0">
<rect width="40" height="64" fill="white"/>
</clipPath>
</defs>
</svg>
