<svg width="61" height="61" viewBox="0 0 61 61" fill="none" xmlns="http://www.w3.org/2000/svg">
<g clip-path="url(#clip0)">
<path d="M40.3385 29.3086C41.0016 29.3086 41.5391 28.7752 41.5391 28.1172C41.5391 27.4592 41.0016 26.9258 40.3385 26.9258C39.6755 26.9258 39.138 27.4592 39.138 28.1172C39.138 28.7752 39.6755 29.3086 40.3385 29.3086Z" fill="#FF6F41"/>
<path d="M40.5426 33.2164C39.8823 33.1211 39.282 33.5738 39.174 34.2172C38.8498 36.4213 36.977 38.2441 34.1677 39.09C31.1663 40.0074 27.0004 39.6977 24.4552 36.9455C24.011 36.457 23.2427 36.4332 22.7624 36.874C22.2702 37.3149 22.2462 38.0774 22.6904 38.5539C24.1671 40.1385 26.16 41.2227 28.4651 41.6873C29.2814 41.8541 30.1218 41.9256 30.9742 41.9256C32.2948 41.9256 33.6154 41.735 34.864 41.3537C38.5857 40.2219 41.0829 37.6723 41.5391 34.5508C41.6471 33.9193 41.2029 33.3236 40.5426 33.2164Z" fill="#FF6F41"/>
<path d="M57.2304 22.6844C55.0454 20.1705 52.032 18.5502 48.4063 17.8949C51.8759 15.5717 54.8653 13.2604 57.0023 11.235C60.2558 8.16113 61.3483 5.99277 60.4358 4.43203C59.4274 2.69258 56.498 2.70449 51.2276 4.46777C46.7736 5.95703 41.227 8.5543 35.6084 11.783C34.636 12.343 33.6756 12.9029 32.7391 13.4867C32.0428 11.5328 32.499 9.29297 34.0357 7.36289C35.1882 5.90937 35.4524 4.0627 34.708 2.54961C33.9397 0.953125 32.2349 0 30.1579 0H30.0979C22.7745 0 15.6073 2.87129 9.92865 8.07773C4.23804 13.2842 0.75644 20.1943 0.120148 27.5096C-0.648205 36.326 2.1971 44.7016 8.11582 51.0994C13.9265 57.39 22.1743 61 30.7342 61C35.3443 61 39.6663 60.166 43.5921 58.51C47.1818 56.9969 50.3632 54.8523 53.0645 52.1002C55.5616 49.5625 57.5305 46.6316 58.9231 43.4029C60.2437 40.3291 60.9641 37.0766 61.0121 33.9908C61.0601 29.5111 59.7635 25.6033 57.2304 22.6844ZM32.8712 16.2031C34.1438 15.4049 35.4644 14.6186 36.809 13.8441C42.0074 10.8656 47.1818 8.41133 51.3837 6.93398C56.0058 5.31367 57.9027 5.4209 58.3469 5.62344C58.3109 5.89746 57.9627 7.13652 54.9253 9.9125C52.3921 12.2238 48.6944 14.9521 44.5045 17.5732C43.1839 18.4072 41.8033 19.2293 40.4106 20.0275C38.4898 21.1236 36.5689 22.1602 34.696 23.1014C34.3238 22.0172 33.8436 20.9568 33.2554 19.9561C32.6911 18.9791 32.0308 18.0617 31.2985 17.2158C31.8027 16.8822 32.3429 16.5367 32.8712 16.2031ZM32.523 24.1617C29.1375 25.7582 26.028 26.9734 23.5429 27.6764C23.4108 27.0568 23.1827 26.4611 22.8586 25.9131C22.5585 25.3889 22.1743 24.9123 21.7301 24.5072C23.5909 22.732 26.2081 20.659 29.2935 18.5502C30.0139 19.3484 30.6382 20.2062 31.1784 21.1475C31.7307 22.1125 32.1749 23.1133 32.523 24.1617ZM58.599 33.967C58.4309 45.8215 47.722 58.6172 30.7342 58.6172C22.8466 58.6172 15.2471 55.2932 9.88063 49.491C4.41812 43.5816 1.80092 35.8494 2.50924 27.7121C3.7218 13.7488 16.0995 2.38281 30.1099 2.38281H30.1579C31.3105 2.38281 32.1749 2.82363 32.547 3.58613C32.8832 4.28906 32.7391 5.14688 32.1509 5.88555C29.9899 8.60195 29.4496 11.9617 30.6622 14.7734C30.0139 15.1904 29.3896 15.5955 28.7773 16.0125C28.7773 16.0125 28.7773 16.0125 28.7653 16.0125C24.9475 18.574 21.7181 21.1117 19.5811 23.2563C17.9483 22.7082 16.1715 22.8631 14.6468 23.7328C12.1497 25.1625 8.87217 31.8225 8.24788 33.1449C8.0798 33.5023 8.09181 33.9074 8.2959 34.2529C8.48799 34.5865 8.84815 34.8129 9.24434 34.8486C9.90464 34.8963 11.7895 35.0393 13.8905 35.0393C16.4356 35.0393 19.293 34.8367 20.6616 34.0623C22.1383 33.2164 23.1707 31.7986 23.5309 30.1664C26.4722 29.4039 30.326 27.9027 34.4919 25.8893C36.821 24.7574 39.2221 23.4945 41.6232 22.1125C42.8358 21.4096 44.0483 20.6947 45.2128 19.968C45.2249 19.968 45.2249 19.968 45.2369 19.968C55.2254 20.242 58.695 27.3785 58.599 33.967ZM21.2498 29.118C21.1778 30.3213 20.5055 31.3936 19.449 31.9893C18.3085 32.6445 14.4187 32.7279 11.2132 32.585C12.6899 29.7613 14.7189 26.4492 15.8474 25.8059C16.9159 25.1863 18.2125 25.1625 19.317 25.7344C19.9172 26.0441 20.4215 26.5207 20.7696 27.1164C21.1298 27.7121 21.2979 28.415 21.2498 29.118Z" fill="#575961"/>
<path d="M21.1297 7.36292C18.4765 7.36292 16.3275 9.49553 16.3275 12.1285C16.3275 14.7616 18.4765 16.8942 21.1297 16.8942C23.7829 16.8942 25.9319 14.7616 25.9319 12.1285C25.9319 9.49553 23.7709 7.36292 21.1297 7.36292ZM21.1297 14.5114C19.8091 14.5114 18.7286 13.4391 18.7286 12.1285C18.7286 10.818 19.8091 9.74573 21.1297 9.74573C22.4503 9.74573 23.5308 10.818 23.5308 12.1285C23.5308 13.4391 22.4503 14.5114 21.1297 14.5114Z" fill="#FF6F41"/>
<path d="M27.1325 46.5244C24.4792 46.5244 22.3303 48.657 22.3303 51.29C22.3303 53.923 24.4792 56.0557 27.1325 56.0557C29.7857 56.0557 31.9347 53.923 31.9347 51.29C31.9347 48.657 29.7737 46.5244 27.1325 46.5244ZM27.1325 53.6729C25.8119 53.6729 24.7314 52.6006 24.7314 51.29C24.7314 49.9795 25.8119 48.9072 27.1325 48.9072C28.4531 48.9072 29.5336 49.9795 29.5336 51.29C29.5336 52.6006 28.4531 53.6729 27.1325 53.6729Z" fill="#FF6F41"/>
<path d="M41.5391 44.1416C38.8858 44.1416 36.7369 46.2742 36.7369 48.9072C36.7369 51.5402 38.8858 53.6729 41.5391 53.6729C44.1923 53.6729 46.3413 51.5402 46.3413 48.9072C46.3413 46.2742 44.1803 44.1416 41.5391 44.1416ZM41.5391 51.29C40.2185 51.29 39.138 50.2178 39.138 48.9072C39.138 47.5967 40.2185 46.5244 41.5391 46.5244C42.8597 46.5244 43.9402 47.5967 43.9402 48.9072C43.9402 50.2178 42.8597 51.29 41.5391 51.29Z" fill="#FF6F41"/>
<path d="M51.1435 32.2275C48.4903 32.2275 46.3413 34.3602 46.3413 36.9932C46.3413 39.6262 48.4903 41.7588 51.1435 41.7588C53.7967 41.7588 55.9457 39.6262 55.9457 36.9932C55.9457 34.3602 53.7847 32.2275 51.1435 32.2275ZM51.1435 39.376C49.8229 39.376 48.7424 38.3037 48.7424 36.9932C48.7424 35.6826 49.8229 34.6104 51.1435 34.6104C52.4641 34.6104 53.5446 35.6826 53.5446 36.9932C53.5446 38.3037 52.4641 39.376 51.1435 39.376Z" fill="#FF6F41"/>
</g>
<defs>
<clipPath id="clip0">
<rect width="61" height="61" fill="white"/>
</clipPath>
</defs>
</svg>
